<?xml version="1.0" encoding="UTF-8" standalone="no"?>
<!-- Created with Inkscape (http://www.inkscape.org/) -->

<svg
   xmlns:dc="http://purl.org/dc/elements/1.1/"
   xmlns:cc="http://creativecommons.org/ns#"
   xmlns:rdf="http://www.w3.org/1999/02/22-rdf-syntax-ns#"
   xmlns:svg="http://www.w3.org/2000/svg"
   xmlns="http://www.w3.org/2000/svg"
   xmlns:sodipodi="http://sodipodi.sourceforge.net/DTD/sodipodi-0.dtd"
   xmlns:inkscape="http://www.inkscape.org/namespaces/inkscape"
   width="125.50012"
   height="82.271301"
   id="svg2"
   version="1.1"
   inkscape:version="0.91 r13725"
   sodipodi:docname="From_Kalmyk_2.svg"
   inkscape:export-filename="/home/dedandrey/Latex/Булинь/Site/Besedochny.png"
   inkscape:export-xdpi="90"
   inkscape:export-ydpi="90">
  <defs
     id="defs4">
    <inkscape:path-effect
       effect="knot"
       id="path-effect4318"
       is_visible="true"
       interruption_width="3"
       prop_to_stroke_width="false"
       add_stroke_width="true"
       add_other_stroke_width="false"
       switcher_size="15"
       crossing_points_vector="-14.195612 | 188.97036 | 0 | 0 | 0 | 25 | 0.66239711 | 14.955777 | 1 | -15.734162 | 179.79551 | 0 | 0 | 1 | 32 | 0.84813078 | 16.751884 | 1 | -16.756608 | 159.50266 | 0 | 0 | 3 | 22 | 1.1566087 | 13.985356 | 1 | -25.305187 | 157.22595 | 0 | 0 | 4 | 21 | 1.827217 | 13.794423 | 1 | -16.097675 | 169.63773 | 0 | 0 | 2 | 39 | 1.0010861 | 18.253432 | -1 | -26.097158 | 169.35974 | 0 | 0 | 5 | 40 | 1.9959881 | 18.415766 | 1 | -30.363373 | 191.78714 | 0 | 0 | 7 | 26 | 2.3261222 | 15.304924 | -1 | -26.812696 | 180.11349 | 0 | 0 | 6 | 31 | 2.1288536 | 16.571145 | -1 | -35.416689 | 155.60336 | 0 | 0 | 9 | 20 | 5.6026226 | 13.561307 | 1 | -31.383356 | 169.02028 | 0 | 0 | 10 | 41 | 5.9000382 | 18.518958 | 1 | -41.694954 | 148.71892 | 0 | 0 | 8 | 45 | 5.3659887 | 19.776021 | 1 | -35.110058 | 191.50347 | 0 | 0 | 12 | 27 | 6.3778027 | 15.412577 | -1 | -31.408987 | 180.42025 | 0 | 0 | 11 | 30 | 6.1027574 | 16.4805 | -1 | -41.719894 | 155.05747 | 0 | 0 | 14 | 19 | 9.4381356 | 13.407506 | 1 | -36.439316 | 168.43005 | 0 | 0 | 15 | 42 | 9.8526502 | 18.636456 | 1 | -45.902453 | 151.87609 | 0 | 0 | 13 | 44 | 9.2744925 | 19.627273 | 1 | -42.032249 | 190.07425 | 0 | 0 | 17 | 28 | 10.485848 | 15.600478 | -1 | -36.798851 | 181.06582 | 0 | 0 | 16 | 29 | 10.157051 | 16.354197 | -1 | -48.007963 | 154.79052 | 0 | 0 | 18 | 43 | 13.242607 | 19.496827 | 1 | -5.6740401 | 179.72629 | 0 | 0 | 24 | 33 | 14.635515 | 16.887328 | 1 | -5.6740401 | 169.71195 | 0 | 0 | 23 | 38 | 14.364485 | 18.112672 | -1 | 1.8057638 | 179.71919 | 0 | 0 | 34 | 49 | 16.976427 | 22.20871 | 1 | 12.821511 | 179.37362 | 0 | 0 | 35 | 48 | 17.111544 | 21.488613 | 1 | 15.182188 | 170.30323 | 0 | 0 | 36 | 47 | 17.853084 | 21.241459 | -1 | 0.48742709 | 169.71883 | 0 | 0 | 37 | 50 | 18.038689 | 22.450992 | -1 | -6.3490297 | 143.84589 | 0 | 0 | 46 | 51 | 20.432735 | 22.87492 | -1" />
    <inkscape:path-effect
       effect="knot"
       id="path-effect4163"
       is_visible="true"
       interruption_width="1"
       prop_to_stroke_width="true"
       add_stroke_width="true"
       add_other_stroke_width="false"
       switcher_size="10"
       crossing_points_vector="-61.1708 | 178.25408 | 0 | 0 | 2 | 11 | 0.8202746 | 4.1249514 | 1 | -83.768854 | 132.06213 | 0 | 0 | 0 | 13 | 0.25942665 | 7.3699906 | -1 | -57.063974 | 189.59105 | 0 | 0 | 3 | 18 | 0.9432994 | 8.9554414 | 1 | -68.752602 | 159.74502 | 0 | 0 | 1 | 20 | 0.61682885 | 10.019165 | 1 | -51.98939 | 171.74771 | 0 | 0 | 5 | 10 | 2.2521974 | 3.9166788 | -1 | -65.665193 | 136.23751 | 0 | 0 | 7 | 14 | 2.7513946 | 7.6006254 | 1 | -43.677627 | 185.03739 | 0 | 0 | 4 | 17 | 2.0732027 | 8.7327026 | -1 | -58.290745 | 159.73772 | 0 | 0 | 6 | 21 | 2.4030316 | 10.145758 | -1 | -47.375792 | 144.22336 | 0 | 0 | 8 | 15 | 3.4273518 | 7.8659091 | 1 | -46.80524 | 159.72974 | 0 | 0 | 9 | 22 | 3.6852789 | 10.284737 | 1 | -75.919364 | 184.51988 | 0 | 0 | 12 | 19 | 4.4095123 | 9.2657537 | 1 | -34.232073 | 159.72096 | 0 | 0 | 16 | 23 | 8.201515 | 10.436878 | -1" />
    <inkscape:path-effect
       effect="knot"
       id="path-effect2985"
       is_visible="true"
       interruption_width="1.5"
       prop_to_stroke_width="true"
       add_stroke_width="true"
       add_other_stroke_width="false"
       switcher_size="25"
       crossing_points_vector="179.33223 | 213.34272 | 0 | 0 | 2 | 7 | 0.88834318 | 2.1008364 | -1 | 187.02917 | 168.23552 | 0 | 0 | 0 | 10 | 0.4364998 | 3.8264664 | 1 | 179.05605 | 186.51992 | 0 | 0 | 1 | 11 | 0.57380061 | 4.3429393 | 1 | 212.51428 | 213.33582 | 0 | 0 | 4 | 8 | 1.2416251 | 3.6054883 | -1 | 202.54425 | 192.66223 | 0 | 0 | 5 | 9 | 1.8339622 | 3.6895504 | -1 | 198.95141 | 217.46136 | 0 | 0 | 3 | 13 | 1.0727533 | 4.6298214 | 1 | 188.64423 | 200.68352 | 0 | 0 | 6 | 12 | 1.9971524 | 4.4874634 | 1" />
    <filter
       id="filter2987"
       inkscape:label="Outline, double"
       inkscape:menu="Morphology"
       inkscape:menu-tooltip="Draws a smooth line inside colorized with the color it overlays"
       style="color-interpolation-filters:sRGB">
      <feGaussianBlur
         id="feGaussianBlur2989"
         stdDeviation="3"
         in="SourceAlpha"
         result="result1" />
      <feComposite
         id="feComposite2991"
         in2="result1"
         operator="arithmetic"
         k2="3.2"
         k1="-1"
         k4="-2"
         result="result3"
         k3="0" />
      <feColorMatrix
         id="feColorMatrix2993"
         values="0 0 0 0 0 0 1 0 0 0 0 0 1 0 0 0 0 0 10 0 "
         result="result2" />
      <feComposite
         id="feComposite2995"
         in2="result2"
         result="fbSourceGraphic"
         in="SourceGraphic"
         operator="out" />
      <feGaussianBlur
         id="feGaussianBlur2997"
         in="fbSourceGraphic"
         stdDeviation="0.5"
         result="result4" />
      <feComposite
         id="feComposite2999"
         in2="result4"
         operator="xor"
         in="result4"
         result="result5" />
      <feBlend
         id="feBlend3001"
         in2="result5"
         result="result6"
         mode="darken"
         in="result5" />
      <feBlend
         id="feBlend3003"
         in2="result6"
         in="result6"
         mode="darken" />
    </filter>
    <marker
       inkscape:stockid="Arrow2Mend"
       orient="auto"
       refY="0"
       refX="0"
       id="Arrow2Mend"
       style="overflow:visible">
      <path
         id="path4071"
         style="fill-rule:evenodd;stroke-width:0.625;stroke-linejoin:round"
         d="M 8.7185878,4.0337352 -2.2072895,0.01601326 8.7185884,-4.0017078 c -1.7454984,2.3720609 -1.7354408,5.6174519 -6e-7,8.035443 z"
         transform="scale(-0.6,-0.6)"
         inkscape:connector-curvature="0" />
    </marker>
    <marker
       inkscape:stockid="Arrow2Mend"
       orient="auto"
       refY="0"
       refX="0"
       id="marker4203"
       style="overflow:visible">
      <path
         id="path4205"
         style="fill-rule:evenodd;stroke-width:0.625;stroke-linejoin:round"
         d="M 8.7185878,4.0337352 -2.2072895,0.01601326 8.7185884,-4.0017078 c -1.7454984,2.3720609 -1.7354408,5.6174519 -6e-7,8.035443 z"
         transform="scale(-0.6,-0.6)"
         inkscape:connector-curvature="0" />
    </marker>
  </defs>
  <sodipodi:namedview
     id="base"
     pagecolor="#ffffff"
     bordercolor="#666666"
     borderopacity="1.0"
     inkscape:pageopacity="0.0"
     inkscape:pageshadow="2"
     inkscape:zoom="3.959798"
     inkscape:cx="144.08552"
     inkscape:cy="28.031631"
     inkscape:document-units="px"
     inkscape:current-layer="layer2"
     showgrid="true"
     inkscape:window-width="1920"
     inkscape:window-height="1015"
     inkscape:window-x="0"
     inkscape:window-y="0"
     inkscape:window-maximized="1"
     fit-margin-top="5"
     fit-margin-left="5"
     fit-margin-right="5"
     fit-margin-bottom="5"
     inkscape:showpageshadow="false"
     inkscape:snap-nodes="true"
     inkscape:snap-bbox="true"
     inkscape:object-paths="false"
     inkscape:snap-smooth-nodes="false"
     inkscape:snap-midpoints="false"
     inkscape:snap-intersection-paths="false"
     inkscape:object-nodes="true">
    <inkscape:grid
       type="xygrid"
       id="grid4161"
       originx="246.5"
       originy="-173.5"
       dotted="false" />
  </sodipodi:namedview>
  <metadata
     id="metadata7">
    <rdf:RDF>
      <cc:Work
         rdf:about="">
        <dc:format>image/svg+xml</dc:format>
        <dc:type
           rdf:resource="http://purl.org/dc/dcmitype/StillImage" />
        <dc:title></dc:title>
      </cc:Work>
    </rdf:RDF>
  </metadata>
  <g
     inkscape:groupmode="layer"
     id="layer2"
     inkscape:label="Слой"
     style="display:inline"
     transform="translate(92.59764,-128.94782)">
    <path
       style="fill:none;fill-rule:evenodd;stroke:#000000;stroke-width:3;stroke-linecap:butt;stroke-linejoin:miter;stroke-miterlimit:4;stroke-dasharray:none;stroke-opacity:1"
       d="m 3.90236,204.71912 c -8.8264046,-2.94213 -14.190346,-5.88427 -17.110528,-12.90122 m -1.696314,-5.82277 c -0.828293,-4.22871 -1.193158,-9.52263 -1.193158,-16.27601 0,-19.18761 -5.890633,-26.59396 -8.629723,-15.43741 m -0.95397,5.93151 c -0.265148,2.65816 -0.416307,5.8175 -0.416307,9.5059 0,8.02029 -1.072085,14.25377 -2.92964,19.0826 m -3.143959,5.96561 c -5.752114,8.11676 -14.839258,9.95179 -23.926401,9.95179 -15,0 -30,-10 -30,-30 0,-20 15,-29.99998 30.164851,-30.01636 4.188818,-0.005 7.958419,0.75766 11.220801,2.28484 m 5.506124,3.76435 c 0.516052,0.49426 1.009838,1.01877 1.480664,1.57352 m 3.883728,6.4735 c 1.785819,4.31758 2.743832,9.62515 2.743832,15.92015 0,5.84446 -0.853944,10.40801 -2.43706,13.94018 m -3.927098,5.60253 c -4.39285,4.10634 -10.838871,5.45729 -18.635842,5.45729 -15,0 -25,-10 -25,-25 0,-15 10,-25 25,-25 2.709861,0 5.093352,0.32637 7.179951,0.94963 m 9.465812,7.53679 c 2.379595,4.24301 3.354237,9.89098 3.354237,16.51358 0,5.63559 -1.411548,9.85962 -3.704318,12.93728 m -5.311487,4.55139 c -3.28039,1.76947 -7.132293,2.51133 -10.984195,2.51133 -10,0 -20,-5 -20,-20 0,-15 10,-20 20,-20 1.48708,0 3.084731,0 4.776509,0.0164 m 6.599765,0.16421 c 7.455298,0.31928 16.053295,1.20288 24.796587,3.6482 m 6.383301,2.23589 c 2.863074,1.45564 5.0189933,3.53292 6.4677566,5.92477 m 2.0967846,6.005 c 0.1723957,1.33083 0.1723957,2.68015 0,4.01098 m -2.0967846,6.005 c -1.8521722,3.05786 -4.8601446,5.60159 -9.0239186,6.98951 -15,5 -35,0 -30,-5 1.305479,-1.30548 3.292668,-2.2701 6.050563,-2.98287 m 16.288484,-1.75435 c 1.584739,-0.0571 3.256497,-0.10182 5.017973,-0.1368 m 6.014307,-0.0827 c 3.5202632,-0.0309 7.3399065,-0.0397 11.4746103,-0.0423 m 6.1144265,-0.004 c 29.0361452,-0.2111 28.7160242,-9.99653 -0.9603638,-9.99653 -0.1306499,0 -0.2610153,0 -0.3910966,0 m -6.0478582,-0.002 c -3.7877103,-0.004 -7.3038442,-0.0144 -10.5610492,-0.0446 m -6.000078,-0.0866 c -1.389269,-0.0288 -2.722067,-0.0639 -3.999747,-0.10661 m -16.433338,-1.64894 c -3.027792,-0.72405 -5.18127,-1.72566 -6.566833,-3.11122 -5,-5 -5,-15 15,-20 20,-5 40,0 45,15 0.85226,2.55678 1.268712,5.11356 1.348401,7.57129 m -0.464972,5.98684 c -0.196852,1.03743 -0.448974,2.0348 -0.746231,2.98196 m -3.12855,6.2877 c -2.2977477,3.00967 -5.040542,4.14032 -7.008648,2.17221 -4.13371024,-4.13371 -1.4323963,-18.51996 -8.8484638,-37.50794 m -3.0103222,-6.77406 c -0.9362466,-1.87286 -1.9786625,-3.78041 -3.141214,-5.718"
       id="path4311"
       inkscape:connector-curvature="0"
       sodipodi:nodetypes="czzzzzzzzzzzzzzzzzzzzzzc"
       inkscape:path-effect="#path-effect4318"
       inkscape:original-d="m 3.90236,204.71912 c -15,-5 -20,-10 -20,-35 0,-25 -10,-29.99999 -10,0 0,29.99999 -15,35 -30,35 -15,0 -30,-10 -30,-30 0,-20 15,-29.99998 30.164851,-30.01636 15.164851,-0.0164 24.835149,10.01636 24.835149,30.01636 0,20 -10,25 -25,25 -15,0 -25,-10 -25,-25 0,-15 10,-25 25,-25 15,0 20,10 20,25 0,15 -10,20 -20,20 -10,0 -20,-5 -20,-20 0,-15 10,-20 20,-20 10,0 25,0 40,5 15,5 15,25 0,30 -15,5 -35,0 -30,-5 5,-5 20,-5 50,-5 30,1e-5 30,-10 0,-10 -30,0 -45,0 -50,-5 -5,-5 -5,-15 15,-20 20,-5 40,0 45,15 5,15 -5,30 -10,25 -5,-5 0,-25 -15,-50" />
  </g>
</svg>
