<?xml version="1.0" encoding="UTF-8" standalone="no"?>
<!-- Created with Inkscape (http://www.inkscape.org/) -->

<svg
   xmlns:dc="http://purl.org/dc/elements/1.1/"
   xmlns:cc="http://creativecommons.org/ns#"
   xmlns:rdf="http://www.w3.org/1999/02/22-rdf-syntax-ns#"
   xmlns:svg="http://www.w3.org/2000/svg"
   xmlns="http://www.w3.org/2000/svg"
   xmlns:sodipodi="http://sodipodi.sourceforge.net/DTD/sodipodi-0.dtd"
   xmlns:inkscape="http://www.inkscape.org/namespaces/inkscape"
   width="201.8638"
   height="106.82539"
   id="svg3080"
   version="1.1"
   inkscape:version="0.92.4 (unknown)"
   sodipodi:docname="Martha_Vineyard_1.svg">
  <defs
     id="defs3082">
    <marker
       inkscape:stockid="Arrow2Mend"
       orient="auto"
       refY="0"
       refX="0"
       id="Arrow2Mend"
       style="overflow:visible"
       inkscape:isstock="true">
      <path
         id="path908"
         style="fill:#fe0000;fill-opacity:1;fill-rule:evenodd;stroke:#fe0000;stroke-width:0.625;stroke-linejoin:round;stroke-opacity:1"
         d="M 8.7185878,4.0337352 -2.2072895,0.01601326 8.7185884,-4.0017078 c -1.7454984,2.3720609 -1.7354408,5.6174519 -6e-7,8.035443 z"
         transform="scale(-0.6)"
         inkscape:connector-curvature="0" />
    </marker>
    <marker
       inkscape:stockid="Arrow2Lend"
       orient="auto"
       refY="0"
       refX="0"
       id="Arrow2Lend"
       style="overflow:visible"
       inkscape:isstock="true">
      <path
         id="path902"
         style="fill:#fe0000;fill-opacity:1;fill-rule:evenodd;stroke:#fe0000;stroke-width:0.625;stroke-linejoin:round;stroke-opacity:1"
         d="M 8.7185878,4.0337352 -2.2072895,0.01601326 8.7185884,-4.0017078 c -1.7454984,2.3720609 -1.7354408,5.6174519 -6e-7,8.035443 z"
         transform="matrix(-1.1,0,0,-1.1,-1.1,0)"
         inkscape:connector-curvature="0" />
    </marker>
    <marker
       inkscape:stockid="Arrow1Lstart"
       orient="auto"
       refY="0"
       refX="0"
       id="Arrow1Lstart"
       style="overflow:visible"
       inkscape:isstock="true">
      <path
         id="path881"
         d="M 0,0 5,-5 -12.5,0 5,5 Z"
         style="fill:#fe0000;fill-opacity:1;fill-rule:evenodd;stroke:#fe0000;stroke-width:1.00000003pt;stroke-opacity:1"
         transform="matrix(0.8,0,0,0.8,10,0)"
         inkscape:connector-curvature="0" />
    </marker>
    <inkscape:path-effect
       effect="knot"
       id="path-effect840"
       is_visible="true"
       interruption_width="3"
       prop_to_stroke_width="false"
       add_stroke_width="true"
       add_other_stroke_width="false"
       switcher_size="15"
       crossing_points_vector="436.06058 | 782.48626 | 0 | 0 | 4 | 5 | 0.72438678 | 2.1110815 | 1 | 426.77624 | 782.31268 | 0 | 0 | 3 | 6 | 0.58437973 | 2.8839272 | 1 | 416.09754 | 782.74786 | 0 | 0 | 2 | 7 | 0.45205274 | 4.1046805 | 1 | 406.68325 | 783.17488 | 0 | 0 | 1 | 8 | 0.34804507 | 4.9000149 | 1 | 384.9118 | 783.19234 | 0 | 0 | 0 | 9 | 0.12926929 | 6.1334869 | 1" />
    <filter
       id="filter3111"
       inkscape:label="Outline, double"
       inkscape:menu="Morphology"
       inkscape:menu-tooltip="Draws a smooth line inside colorized with the color it overlays"
       style="color-interpolation-filters:sRGB">
      <feGaussianBlur
         id="feGaussianBlur3113"
         stdDeviation="3"
         in="SourceAlpha"
         result="result1" />
      <feComposite
         id="feComposite3115"
         in2="result1"
         operator="arithmetic"
         k2="3.2"
         k1="-1"
         k4="-2"
         result="result3"
         k3="0" />
      <feColorMatrix
         id="feColorMatrix3117"
         values="0 0 0 0 0 0 1 0 0 0 0 0 1 0 0 0 0 0 10 0 "
         result="result2" />
      <feComposite
         id="feComposite3119"
         in2="result2"
         result="fbSourceGraphic"
         in="SourceGraphic"
         operator="out" />
      <feGaussianBlur
         id="feGaussianBlur3121"
         in="fbSourceGraphic"
         stdDeviation="0.5"
         result="result4" />
      <feComposite
         id="feComposite3123"
         in2="result4"
         operator="xor"
         in="result4"
         result="result5" />
      <feBlend
         id="feBlend3125"
         in2="result5"
         result="result6"
         mode="darken"
         in="result5" />
      <feBlend
         id="feBlend3127"
         in2="result6"
         in="result6"
         mode="darken" />
    </filter>
    <inkscape:path-effect
       effect="knot"
       id="path-effect840-2"
       is_visible="true"
       interruption_width="3"
       prop_to_stroke_width="false"
       add_stroke_width="true"
       add_other_stroke_width="false"
       switcher_size="15"
       crossing_points_vector="403.23988 | 875.24536 | 0 | 0 | 0 | 3 | 0.30583405 | 3.7905355 | -1 | 434.69018 | 856.18644 | 0 | 0 | 1 | 4 | 0.64654265 | 5.6367509 | 1 | 461.39463 | 867.49793 | 0 | 0 | 2 | 5 | 2.013941 | 6.3359148 | 1" />
    <marker
       inkscape:stockid="Arrow2Mend"
       orient="auto"
       refY="0"
       refX="0"
       id="Arrow2Mend-2"
       style="overflow:visible">
      <path
         id="path3886"
         style="fill-rule:evenodd;stroke-width:0.625;stroke-linejoin:round"
         d="M 8.7185878,4.0337352 -2.2072895,0.01601326 8.7185884,-4.0017078 c -1.7454984,2.3720609 -1.7354408,5.6174519 -6e-7,8.035443 z"
         transform="scale(-0.6)"
         inkscape:connector-curvature="0" />
    </marker>
    <marker
       inkscape:stockid="Arrow2Mend"
       orient="auto"
       refY="0"
       refX="0"
       id="marker910"
       style="overflow:visible">
      <path
         id="path908-3"
         style="fill-rule:evenodd;stroke-width:0.625;stroke-linejoin:round"
         d="M 8.7185878,4.0337352 -2.2072895,0.01601326 8.7185884,-4.0017078 c -1.7454984,2.3720609 -1.7354408,5.6174519 -6e-7,8.035443 z"
         transform="scale(-0.6)"
         inkscape:connector-curvature="0" />
    </marker>
    <marker
       inkscape:stockid="Arrow2Mend"
       orient="auto"
       refY="0"
       refX="0"
       id="marker914"
       style="overflow:visible">
      <path
         id="path912"
         style="fill-rule:evenodd;stroke-width:0.625;stroke-linejoin:round"
         d="M 8.7185878,4.0337352 -2.2072895,0.01601326 8.7185884,-4.0017078 c -1.7454984,2.3720609 -1.7354408,5.6174519 -6e-7,8.035443 z"
         transform="scale(-0.6)"
         inkscape:connector-curvature="0" />
    </marker>
    <marker
       inkscape:stockid="Arrow2Mend"
       orient="auto"
       refY="0"
       refX="0"
       id="marker918"
       style="overflow:visible">
      <path
         id="path916"
         style="fill-rule:evenodd;stroke-width:0.625;stroke-linejoin:round"
         d="M 8.7185878,4.0337352 -2.2072895,0.01601326 8.7185884,-4.0017078 c -1.7454984,2.3720609 -1.7354408,5.6174519 -6e-7,8.035443 z"
         transform="scale(-0.6)"
         inkscape:connector-curvature="0" />
    </marker>
    <marker
       inkscape:stockid="Arrow2Mend"
       orient="auto"
       refY="0"
       refX="0"
       id="marker922"
       style="overflow:visible">
      <path
         id="path920"
         style="fill-rule:evenodd;stroke-width:0.625;stroke-linejoin:round"
         d="M 8.7185878,4.0337352 -2.2072895,0.01601326 8.7185884,-4.0017078 c -1.7454984,2.3720609 -1.7354408,5.6174519 -6e-7,8.035443 z"
         transform="scale(-0.6)"
         inkscape:connector-curvature="0" />
    </marker>
    <marker
       inkscape:stockid="Arrow2Mend"
       orient="auto"
       refY="0"
       refX="0"
       id="marker926"
       style="overflow:visible">
      <path
         id="path924"
         style="fill-rule:evenodd;stroke-width:0.625;stroke-linejoin:round"
         d="M 8.7185878,4.0337352 -2.2072895,0.01601326 8.7185884,-4.0017078 c -1.7454984,2.3720609 -1.7354408,5.6174519 -6e-7,8.035443 z"
         transform="scale(-0.6)"
         inkscape:connector-curvature="0" />
    </marker>
    <inkscape:path-effect
       effect="knot"
       id="path-effect840-23"
       is_visible="true"
       interruption_width="3"
       prop_to_stroke_width="false"
       add_stroke_width="true"
       add_other_stroke_width="false"
       switcher_size="15"
       crossing_points_vector="504.33352 | 781.66597 | 0 | 0 | 0 | 3 | 0.37501026 | 2.3802541 | 1 | 516.60975 | 780.53839 | 0 | 0 | 1 | 4 | 0.65285069 | 3.2146916 | 1 | 521.8497 | 769.99432 | 0 | 0 | 2 | 5 | 1.6255331 | 3.6006236 | 1" />
    <inkscape:path-effect
       effect="knot"
       id="path-effect840-237"
       is_visible="true"
       interruption_width="3"
       prop_to_stroke_width="false"
       add_stroke_width="true"
       add_other_stroke_width="false"
       switcher_size="15"
       crossing_points_vector="404.88434 | 788.82027 | 0 | 0 | 0 | 3 | 0.25288937 | 2.6201011 | 1 | 421.40333 | 779.73744 | 0 | 0 | 1 | 4 | 0.61351179 | 3.3864882 | 1 | 437.92232 | 788.82028 | 0 | 0 | 2 | 5 | 1.3798989 | 3.7471107 | 1" />
    <inkscape:path-effect
       effect="knot"
       id="path-effect840-9"
       is_visible="true"
       interruption_width="3"
       prop_to_stroke_width="false"
       add_stroke_width="true"
       add_other_stroke_width="false"
       switcher_size="15"
       crossing_points_vector="380.16096 | 785.96694 | 0 | 0 | 0 | 5 | 0.20032508 | 2.602157 | 1 | 394.02918 | 784.8066 | 0 | 0 | 1 | 6 | 0.32341546 | 3.5167587 | 1 | 409.24672 | 783.41073 | 0 | 0 | 2 | 7 | 0.47079778 | 4.5454111 | 1 | 422.88211 | 782.53444 | 0 | 0 | 3 | 8 | 0.62530015 | 5.3572066 | 1 | 441.85491 | 792.44744 | 0 | 0 | 4 | 9 | 1.1732513 | 5.8181003 | 1" />
    <marker
       inkscape:stockid="Arrow2Mend"
       orient="auto"
       refY="0"
       refX="0"
       id="Arrow2Mend-2-2-6"
       style="overflow:visible"
       inkscape:isstock="true">
      <path
         id="path908-3-2-7"
         style="fill:#ff0000;fill-opacity:1;fill-rule:evenodd;stroke:#ff0000;stroke-width:0.625;stroke-linejoin:round;stroke-opacity:1"
         d="M 8.7185878,4.0337352 -2.2072895,0.01601326 8.7185884,-4.0017078 c -1.7454984,2.3720609 -1.7354408,5.6174519 -6e-7,8.035443 z"
         transform="scale(-0.6)"
         inkscape:connector-curvature="0" />
    </marker>
    <marker
       inkscape:stockid="Arrow2Mend"
       orient="auto"
       refY="0"
       refX="0"
       id="marker870"
       style="overflow:visible"
       inkscape:isstock="true">
      <path
         id="path868"
         style="fill:#ff0000;fill-opacity:1;fill-rule:evenodd;stroke:#ff0000;stroke-width:0.625;stroke-linejoin:round;stroke-opacity:1"
         d="M 8.7185878,4.0337352 -2.2072895,0.01601326 8.7185884,-4.0017078 c -1.7454984,2.3720609 -1.7354408,5.6174519 -6e-7,8.035443 z"
         transform="scale(-0.6)"
         inkscape:connector-curvature="0" />
    </marker>
    <inkscape:path-effect
       effect="knot"
       id="path-effect840-2375"
       is_visible="true"
       interruption_width="3"
       prop_to_stroke_width="false"
       add_stroke_width="true"
       add_other_stroke_width="false"
       switcher_size="15"
       crossing_points_vector="468.13969 | 742.29994 | 0 | 0 | 7 | 10 | 0.68342597 | 2.1154226 | 1 | 458.86408 | 742.37675 | 0 | 0 | 6 | 11 | 0.54234997 | 2.8867901 | 1 | 448.22695 | 742.83338 | 0 | 0 | 5 | 14 | 0.42377263 | 4.1003076 | 1 | 438.74172 | 743.17389 | 0 | 0 | 4 | 15 | 0.33831694 | 4.9090488 | 1 | 428.30036 | 743.37018 | 0 | 0 | 3 | 18 | 0.25796621 | 6.0858094 | 1 | 418.7248 | 743.36508 | 0 | 0 | 2 | 19 | 0.19314058 | 6.9125192 | 1 | 408.13391 | 743.15444 | 0 | 0 | 1 | 22 | 0.12874766 | 8.0948133 | 1 | 397.49184 | 742.73626 | 0 | 0 | 0 | 23 | 0.070032924 | 8.8481054 | 1 | 479.52536 | 751.05264 | 0 | 0 | 8 | 31 | 1.1518946 | 9.9299671 | 1 | 468.88331 | 750.63446 | 0 | 0 | 9 | 30 | 1.9051867 | 9.8712524 | 1 | 458.30042 | 750.4239 | 0 | 0 | 12 | 29 | 3.0857926 | 9.8069108 | 1 | 448.71614 | 750.41872 | 0 | 0 | 13 | 28 | 3.9143463 | 9.7420286 | 1 | 438.27548 | 750.61501 | 0 | 0 | 16 | 27 | 5.0909512 | 9.661683 | 1 | 428.79026 | 750.95552 | 0 | 0 | 17 | 26 | 5.8996924 | 9.5762274 | 1 | 418.13938 | 751.41267 | 0 | 0 | 20 | 25 | 7.1154716 | 9.4574742 | 1 | 408.87934 | 751.48905 | 0 | 0 | 21 | 24 | 7.8842794 | 9.316608 | 1" />
    <inkscape:path-effect
       effect="knot"
       id="path-effect840-22"
       is_visible="true"
       interruption_width="3"
       prop_to_stroke_width="false"
       add_stroke_width="true"
       add_other_stroke_width="false"
       switcher_size="15"
       crossing_points_vector="321.80129 | 774.42981 | 0 | 0 | 0 | 29 | 0.27380083 | 3.7615322 | 1 | 330.04097 | 769.23427 | 0 | 0 | 1 | 58 | 0.38428437 | 7.617808 | 1 | 343.02918 | 763.94249 | 0 | 0 | 2 | 87 | 0.52676327 | 11.466116 | 1 | 401.61507 | 756.77897 | 0 | 0 | 7 | 148 | 0.9470109 | 21.52148 | 1 | 391.61574 | 757.06212 | 0 | 0 | 6 | 155 | 0.89022508 | 22.481041 | 1 | 381.61533 | 757.59718 | 0 | 0 | 5 | 162 | 0.82891024 | 23.514198 | 1 | 371.61548 | 758.4589 | 0 | 0 | 4 | 169 | 0.76212007 | 24.493465 | 1 | 359.29071 | 760.13465 | 0 | 0 | 3 | 176 | 0.67028139 | 25.641012 | 1 | 499.23154 | 766.89741 | 0 | 0 | 16 | 45 | 1.8247589 | 6.1752412 | -1 | 490.08422 | 762.49584 | 0 | 0 | 15 | 74 | 1.621924 | 10.378076 | -1 | 477.01883 | 759.81497 | 0 | 0 | 14 | 101 | 1.4561412 | 14.344546 | -1 | 461.60595 | 758.18265 | 0 | 0 | 13 | 108 | 1.3150294 | 15.561972 | 1 | 451.62835 | 757.55376 | 0 | 0 | 12 | 113 | 1.2394111 | 16.431466 | 1 | 441.61527 | 757.13554 | 0 | 0 | 11 | 120 | 1.1715716 | 17.518305 | 1 | 431.61582 | 756.87515 | 0 | 0 | 10 | 127 | 1.1098959 | 18.479376 | 1 | 421.61505 | 756.73612 | 0 | 0 | 9 | 134 | 1.0529969 | 19.521862 | 1 | 411.61591 | 756.69399 | 0 | 0 | 8 | 141 | 1.0000023 | 20.477763 | 1 | 473.84223 | 787.06761 | 0 | 0 | 17 | 104 | 2.5762318 | 14.708285 | -1 | 462.53204 | 788.90834 | 0 | 0 | 18 | 105 | 2.6774453 | 15.215967 | -1 | 450.4861 | 790.21262 | 0 | 0 | 19 | 116 | 2.7686896 | 16.804503 | -1 | 443.02147 | 790.77346 | 0 | 0 | 20 | 117 | 2.8193046 | 17.172427 | -1 | 430.0771 | 791.39909 | 0 | 0 | 21 | 130 | 2.8991443 | 18.837547 | -1 | 423.19539 | 791.5821 | 0 | 0 | 22 | 131 | 2.9382905 | 19.159442 | -1 | 410.01019 | 791.69092 | 0 | 0 | 23 | 144 | 3.008269 | 20.842371 | -1 | 403.20133 | 791.60781 | 0 | 0 | 24 | 145 | 3.0441991 | 21.159015 | -1 | 390.14111 | 791.10496 | 0 | 0 | 25 | 158 | 3.11752 | 22.832798 | -1 | 382.9904 | 790.61653 | 0 | 0 | 26 | 159 | 3.1605725 | 23.174857 | -1 | 370.46676 | 789.33739 | 0 | 0 | 27 | 172 | 3.2422556 | 24.806232 | -1 | 360.99524 | 787.94644 | 0 | 0 | 28 | 173 | 3.3108516 | 25.299512 | -1 | 319.00526 | 761.87002 | 0 | 0 | 30 | 59 | 4.1622221 | 7.8377778 | 1 | 326.23906 | 757.31156 | 0 | 0 | 31 | 88 | 4.324095 | 11.675905 | 1 | 401.55888 | 746.77704 | 0 | 0 | 36 | 149 | 4.9469141 | 21.612259 | 1 | 391.66848 | 747.03507 | 0 | 0 | 35 | 154 | 4.8913887 | 22.390153 | 1 | 381.56854 | 747.50643 | 0 | 0 | 34 | 163 | 4.8305828 | 23.605453 | 1 | 371.6542 | 748.20994 | 0 | 0 | 33 | 168 | 4.7658869 | 24.401073 | 1 | 358.9355 | 749.54806 | 0 | 0 | 32 | 177 | 4.6732525 | 25.738061 | 1 | 499.23154 | 756.8974 | 0 | 0 | 44 | 73 | 5.8247591 | 10.175241 | -1 | 476.0677 | 749.68069 | 0 | 0 | 43 | 100 | 5.4462209 | 14.213591 | -1 | 461.41532 | 748.16815 | 0 | 0 | 42 | 109 | 5.3134924 | 15.671039 | 1 | 451.84139 | 747.56472 | 0 | 0 | 41 | 112 | 5.2409333 | 16.321913 | 1 | 441.56383 | 747.13384 | 0 | 0 | 40 | 121 | 5.1712401 | 17.608924 | 1 | 431.67067 | 746.87622 | 0 | 0 | 39 | 126 | 5.1102202 | 18.388669 | 1 | 421.55829 | 746.73563 | 0 | 0 | 38 | 135 | 5.0526858 | 19.612647 | 1 | 411.67324 | 746.69399 | 0 | 0 | 37 | 140 | 5.0002963 | 20.386963 | 1 | 476.10958 | 776.60008 | 0 | 0 | 46 | 103 | 6.5533466 | 14.555402 | -1 | 461.77059 | 779.0081 | 0 | 0 | 47 | 106 | 6.6836398 | 15.34289 | -1 | 451.41894 | 780.13051 | 0 | 0 | 48 | 115 | 6.7620817 | 16.670003 | -1 | 441.95347 | 780.84072 | 0 | 0 | 49 | 118 | 6.8262451 | 17.296318 | -1 | 431.2491 | 781.35831 | 0 | 0 | 50 | 129 | 6.8922687 | 18.709229 | -1 | 421.99601 | 781.60462 | 0 | 0 | 51 | 132 | 6.9449118 | 19.28811 | -1 | 411.2297 | 781.69381 | 0 | 0 | 52 | 143 | 7.0019804 | 20.712857 | -1 | 401.99459 | 781.58084 | 0 | 0 | 53 | 146 | 7.0507197 | 21.288367 | -1 | 391.25978 | 781.16703 | 0 | 0 | 54 | 157 | 7.1109858 | 22.707172 | -1 | 381.93733 | 780.53062 | 0 | 0 | 55 | 160 | 7.1671135 | 23.299612 | -1 | 371.3453 | 779.44657 | 0 | 0 | 56 | 171 | 7.2362224 | 24.689029 | -1 | 359.95327 | 777.76751 | 0 | 0 | 57 | 174 | 7.318844 | 25.44927 | -1 | 319.00525 | 751.87002 | 0 | 0 | 60 | 89 | 8.162222 | 11.837778 | 1 | 401.23489 | 736.78259 | 0 | 0 | 65 | 150 | 8.9451505 | 21.711898 | 1 | 391.98214 | 737.02396 | 0 | 0 | 64 | 153 | 8.8932064 | 22.29071 | 1 | 381.27616 | 737.52355 | 0 | 0 | 63 | 164 | 8.8287517 | 23.703935 | 1 | 371.92083 | 738.1875 | 0 | 0 | 62 | 167 | 8.7677027 | 24.303097 | 1 | 358.47457 | 739.60756 | 0 | 0 | 61 | 178 | 8.6696409 | 25.822204 | 1 | 473.06712 | 739.29207 | 0 | 0 | 72 | 99 | 9.4161798 | 14.05247 | -1 | 460.47198 | 738.09802 | 0 | 0 | 71 | 110 | 9.3059446 | 15.805767 | 1 | 452.85097 | 737.61801 | 0 | 0 | 70 | 111 | 9.2481967 | 16.186243 | 1 | 441.25439 | 737.12367 | 0 | 0 | 69 | 122 | 9.1692494 | 17.708217 | 1 | 431.99027 | 736.88253 | 0 | 0 | 68 | 125 | 9.1121127 | 18.289183 | 1 | 421.23199 | 736.73285 | 0 | 0 | 67 | 136 | 9.0508997 | 19.712438 | 1 | 412.00124 | 736.69405 | 0 | 0 | 66 | 139 | 9.0019807 | 20.287141 | 1 | 477.00192 | 766.40488 | 0 | 0 | 75 | 102 | 10.544037 | 14.426077 | -1 | 461.62039 | 769.02747 | 0 | 0 | 76 | 107 | 10.684854 | 15.450262 | -1 | 451.60638 | 770.11367 | 0 | 0 | 77 | 114 | 10.760746 | 16.561018 | -1 | 441.66215 | 770.85854 | 0 | 0 | 78 | 119 | 10.828126 | 17.394761 | -1 | 431.56254 | 771.34691 | 0 | 0 | 79 | 128 | 10.890419 | 18.60979 | -1 | 421.67205 | 771.61025 | 0 | 0 | 80 | 133 | 10.946691 | 19.387747 | -1 | 411.5577 | 771.69399 | 0 | 0 | 81 | 142 | 11.000296 | 20.613037 | -1 | 401.67152 | 771.57297 | 0 | 0 | 82 | 147 | 11.052474 | 21.388096 | -1 | 391.56471 | 771.1833 | 0 | 0 | 83 | 156 | 11.109214 | 22.608264 | -1 | 381.65785 | 770.50719 | 0 | 0 | 84 | 161 | 11.168859 | 23.398024 | -1 | 371.58387 | 769.47568 | 0 | 0 | 85 | 170 | 11.234593 | 24.592446 | -1 | 359.52178 | 767.69177 | 0 | 0 | 86 | 175 | 11.322183 | 25.564922 | -1 | 400.01028 | 726.69744 | 0 | 0 | 94 | 151 | 12.989264 | 21.842365 | 1 | 393.19906 | 726.78998 | 0 | 0 | 93 | 152 | 12.942887 | 22.159178 | 1 | 380.15269 | 727.33788 | 0 | 0 | 92 | 165 | 12.849683 | 23.831925 | 1 | 372.97229 | 727.86488 | 0 | 0 | 91 | 166 | 12.795336 | 24.176292 | 1 | 357.81912 | 729.58937 | 0 | 0 | 90 | 179 | 12.670742 | 25.902179 | 1 | 439.82178 | 725.95209 | 0 | 0 | 98 | 123 | 13.334032 | 17.855273 | 1 | 433.36562 | 726.11486 | 0 | 0 | 97 | 124 | 13.261665 | 18.147625 | 1 | 419.95757 | 726.47806 | 0 | 0 | 96 | 137 | 13.13651 | 19.846071 | 1 | 413.24255 | 726.60524 | 0 | 0 | 95 | 138 | 13.082854 | 20.156086 | 1" />
    <marker
       inkscape:stockid="Arrow2Mend"
       orient="auto"
       refY="0"
       refX="0"
       id="Arrow2Mend-2-2-6-2"
       style="overflow:visible"
       inkscape:isstock="true">
      <path
         id="path908-3-2-7-3"
         style="fill:#ff0000;fill-opacity:1;fill-rule:evenodd;stroke:#ff0000;stroke-width:0.625;stroke-linejoin:round;stroke-opacity:1"
         d="M 8.7185878,4.0337352 -2.2072895,0.01601326 8.7185884,-4.0017078 c -1.7454984,2.3720609 -1.7354408,5.6174519 -6e-7,8.035443 z"
         transform="scale(-0.6)"
         inkscape:connector-curvature="0" />
    </marker>
    <marker
       inkscape:stockid="Arrow2Mend"
       orient="auto"
       refY="0"
       refX="0"
       id="marker870-7"
       style="overflow:visible"
       inkscape:isstock="true">
      <path
         id="path868-5"
         style="fill:#ff0000;fill-opacity:1;fill-rule:evenodd;stroke:#ff0000;stroke-width:0.625;stroke-linejoin:round;stroke-opacity:1"
         d="M 8.7185878,4.0337352 -2.2072895,0.01601326 8.7185884,-4.0017078 c -1.7454984,2.3720609 -1.7354408,5.6174519 -6e-7,8.035443 z"
         transform="scale(-0.6)"
         inkscape:connector-curvature="0" />
    </marker>
    <inkscape:path-effect
       effect="knot"
       id="path-effect840-22-9"
       is_visible="true"
       interruption_width="3"
       prop_to_stroke_width="false"
       add_stroke_width="true"
       add_other_stroke_width="false"
       switcher_size="15"
       crossing_points_vector="326.67689 | 793.11651 | 0 | 0 | 0 | 17 | 0.22052745 | 2.8154067 | -1 | 353.34554 | 758.38821 | 0 | 0 | 4 | 21 | 0.98085577 | 3.6001358 | -1 | 345.03085 | 784.09134 | 0 | 0 | 1 | 48 | 0.55506177 | 6.4609025 | 1 | 351.4009 | 775.73281 | 0 | 0 | 2 | 79 | 0.73514577 | 10.401503 | 1 | 353.66951 | 766.24631 | 0 | 0 | 3 | 110 | 0.88285833 | 14.381786 | 1 | 352.34247 | 750.72353 | 0 | 0 | 5 | 52 | 1.0673323 | 7.6067621 | -1 | 362.98878 | 749.22934 | 0 | 0 | 10 | 53 | 1.9513827 | 7.6930848 | -1 | 352.16161 | 740.7535 | 0 | 0 | 6 | 83 | 1.1886226 | 11.605184 | -1 | 362.42261 | 739.29683 | 0 | 0 | 9 | 84 | 1.8715279 | 11.68878 | -1 | 353.62604 | 730.48626 | 0 | 0 | 7 | 114 | 1.3454056 | 15.619435 | -1 | 360.85151 | 729.36774 | 0 | 0 | 8 | 115 | 1.7516352 | 15.684309 | -1 | 363.0879 | 757.5439 | 0 | 0 | 11 | 22 | 2.0051892 | 3.6848676 | -1 | 357.01716 | 786.94448 | 0 | 0 | 14 | 47 | 2.2460672 | 6.3538394 | 1 | 360.62948 | 777.62498 | 0 | 0 | 13 | 78 | 2.1510312 | 10.325044 | 1 | 362.46452 | 767.94392 | 0 | 0 | 12 | 109 | 2.0741151 | 14.3109 | 1 | 351.24309 | 794.57273 | 0 | 0 | 15 | 198 | 2.3605154 | 28.429802 | 1 | 334.73733 | 798.84859 | 0 | 0 | 16 | 199 | 2.6431402 | 28.80999 | 1 | 323.88603 | 774.8847 | 0 | 0 | 18 | 49 | 3.1019167 | 6.7480101 | 1 | 327.95468 | 767.44306 | 0 | 0 | 19 | 80 | 3.248549 | 10.671925 | 1 | 337.51925 | 761.68265 | 0 | 0 | 20 | 111 | 3.4212218 | 14.541194 | 1 | 403.09068 | 756.69896 | 0 | 0 | 26 | 173 | 3.9469984 | 24.52218 | 1 | 393.09153 | 756.73662 | 0 | 0 | 25 | 180 | 3.8901086 | 25.478156 | 1 | 383.09076 | 756.84354 | 0 | 0 | 24 | 187 | 3.8284248 | 26.520892 | 1 | 373.09097 | 757.07939 | 0 | 0 | 23 | 194 | 3.7606797 | 27.515559 | 1 | 500.70719 | 766.89596 | 0 | 0 | 35 | 66 | 4.8247589 | 9.1752412 | -1 | 491.55987 | 762.49439 | 0 | 0 | 34 | 97 | 4.621924 | 13.378076 | -1 | 478.49448 | 759.81352 | 0 | 0 | 33 | 126 | 4.4561412 | 17.344546 | -1 | 463.0816 | 758.1812 | 0 | 0 | 32 | 133 | 4.3150294 | 18.561972 | 1 | 453.104 | 757.55231 | 0 | 0 | 31 | 138 | 4.2394111 | 19.431466 | 1 | 443.09092 | 757.13409 | 0 | 0 | 30 | 145 | 4.1715716 | 20.518305 | 1 | 433.09147 | 756.8737 | 0 | 0 | 29 | 152 | 4.1098959 | 21.479376 | 1 | 423.0907 | 756.73467 | 0 | 0 | 28 | 159 | 4.0529969 | 22.521862 | 1 | 413.09156 | 756.69254 | 0 | 0 | 27 | 166 | 4.0000023 | 23.477763 | 1 | 475.31788 | 787.06616 | 0 | 0 | 36 | 129 | 5.5762318 | 17.708285 | -1 | 464.00769 | 788.90689 | 0 | 0 | 37 | 130 | 5.6774453 | 18.215967 | -1 | 451.96175 | 790.21117 | 0 | 0 | 38 | 141 | 5.7686896 | 19.804503 | -1 | 444.49712 | 790.77201 | 0 | 0 | 39 | 142 | 5.8193046 | 20.172427 | -1 | 431.55275 | 791.39764 | 0 | 0 | 40 | 155 | 5.8991443 | 21.837547 | -1 | 424.67104 | 791.58065 | 0 | 0 | 41 | 156 | 5.9382905 | 22.159442 | -1 | 411.48584 | 791.68947 | 0 | 0 | 42 | 169 | 6.008269 | 23.842371 | -1 | 404.67698 | 791.60636 | 0 | 0 | 43 | 170 | 6.0441991 | 24.159015 | -1 | 391.61676 | 791.10351 | 0 | 0 | 44 | 183 | 6.11752 | 25.832798 | -1 | 384.46605 | 790.61508 | 0 | 0 | 45 | 184 | 6.1605725 | 26.174857 | -1 | 371.29841 | 789.25389 | 0 | 0 | 46 | 197 | 6.2467106 | 27.855208 | -1 | 320.48091 | 761.86857 | 0 | 0 | 50 | 81 | 7.1622221 | 10.837778 | 1 | 327.71471 | 757.31011 | 0 | 0 | 51 | 112 | 7.324095 | 14.675905 | 1 | 403.03453 | 746.77559 | 0 | 0 | 57 | 174 | 7.9469141 | 24.612259 | 1 | 393.14413 | 747.03362 | 0 | 0 | 56 | 179 | 7.8913887 | 25.390153 | 1 | 383.04419 | 747.50498 | 0 | 0 | 55 | 188 | 7.8305828 | 26.605453 | 1 | 373.10482 | 748.21061 | 0 | 0 | 54 | 193 | 7.7657162 | 27.430034 | 1 | 500.70719 | 756.89595 | 0 | 0 | 65 | 96 | 8.8247591 | 13.175241 | -1 | 477.54335 | 749.67924 | 0 | 0 | 64 | 125 | 8.4462209 | 17.213591 | -1 | 462.89097 | 748.1667 | 0 | 0 | 63 | 134 | 8.3134924 | 18.671039 | 1 | 453.31704 | 747.56327 | 0 | 0 | 62 | 137 | 8.2409333 | 19.321913 | 1 | 443.03948 | 747.13239 | 0 | 0 | 61 | 146 | 8.1712401 | 20.608924 | 1 | 433.14632 | 746.87477 | 0 | 0 | 60 | 151 | 8.1102202 | 21.388669 | 1 | 423.03394 | 746.73418 | 0 | 0 | 59 | 160 | 8.0526858 | 22.612647 | 1 | 413.14889 | 746.69254 | 0 | 0 | 58 | 165 | 8.0002963 | 23.386963 | 1 | 477.58523 | 776.59863 | 0 | 0 | 67 | 128 | 9.5533466 | 17.555402 | -1 | 463.24624 | 779.00665 | 0 | 0 | 68 | 131 | 9.6836398 | 18.34289 | -1 | 452.89459 | 780.12906 | 0 | 0 | 69 | 140 | 9.7620817 | 19.670003 | -1 | 443.42912 | 780.83927 | 0 | 0 | 70 | 143 | 9.8262451 | 20.296318 | -1 | 432.72475 | 781.35686 | 0 | 0 | 71 | 154 | 9.8922687 | 21.709229 | -1 | 423.47166 | 781.60317 | 0 | 0 | 72 | 157 | 9.9449118 | 22.28811 | -1 | 412.70535 | 781.69236 | 0 | 0 | 73 | 168 | 10.00198 | 23.712857 | -1 | 403.47024 | 781.57939 | 0 | 0 | 74 | 171 | 10.05072 | 24.288367 | -1 | 392.73543 | 781.16558 | 0 | 0 | 75 | 182 | 10.110986 | 25.707172 | -1 | 383.41298 | 780.52917 | 0 | 0 | 76 | 185 | 10.167113 | 26.299612 | -1 | 372.57015 | 779.41428 | 0 | 0 | 77 | 196 | 10.23794 | 27.735279 | -1 | 320.4809 | 751.86857 | 0 | 0 | 82 | 113 | 11.162222 | 14.837778 | 1 | 402.71054 | 736.78114 | 0 | 0 | 88 | 175 | 11.945151 | 24.711898 | 1 | 393.45779 | 737.02251 | 0 | 0 | 87 | 178 | 11.893206 | 25.29071 | 1 | 382.75181 | 737.5221 | 0 | 0 | 86 | 189 | 11.828752 | 26.703935 | 1 | 373.30451 | 738.19377 | 0 | 0 | 85 | 192 | 11.767077 | 27.325267 | 1 | 474.54277 | 739.29062 | 0 | 0 | 95 | 124 | 12.41618 | 17.05247 | -1 | 461.94763 | 738.09657 | 0 | 0 | 94 | 135 | 12.305945 | 18.805767 | 1 | 454.32662 | 737.61656 | 0 | 0 | 93 | 136 | 12.248197 | 19.186243 | 1 | 442.73004 | 737.12222 | 0 | 0 | 92 | 147 | 12.169249 | 20.708217 | 1 | 433.46592 | 736.88108 | 0 | 0 | 91 | 150 | 12.112113 | 21.289183 | 1 | 422.70764 | 736.7314 | 0 | 0 | 90 | 161 | 12.0509 | 22.712438 | 1 | 413.47689 | 736.6926 | 0 | 0 | 89 | 164 | 12.001981 | 23.287141 | 1 | 478.47757 | 766.40343 | 0 | 0 | 98 | 127 | 13.544037 | 17.426077 | -1 | 463.09604 | 769.02602 | 0 | 0 | 99 | 132 | 13.684854 | 18.450262 | -1 | 453.08203 | 770.11222 | 0 | 0 | 100 | 139 | 13.760746 | 19.561018 | -1 | 443.1378 | 770.85709 | 0 | 0 | 101 | 144 | 13.828126 | 20.394761 | -1 | 433.03819 | 771.34546 | 0 | 0 | 102 | 153 | 13.890419 | 21.60979 | -1 | 423.1477 | 771.6088 | 0 | 0 | 103 | 158 | 13.946691 | 22.387747 | -1 | 413.03335 | 771.69254 | 0 | 0 | 104 | 167 | 14.000296 | 23.613037 | -1 | 403.14717 | 771.57152 | 0 | 0 | 105 | 172 | 14.052474 | 24.388096 | -1 | 393.04036 | 771.18185 | 0 | 0 | 106 | 181 | 14.109214 | 25.608264 | -1 | 383.1335 | 770.50574 | 0 | 0 | 107 | 186 | 14.168859 | 26.398024 | -1 | 372.99544 | 769.46643 | 0 | 0 | 108 | 195 | 14.23503 | 27.63374 | -1 | 401.48593 | 726.69599 | 0 | 0 | 119 | 176 | 15.989264 | 24.842365 | 1 | 394.67471 | 726.78853 | 0 | 0 | 118 | 177 | 15.942887 | 25.159178 | 1 | 381.62834 | 727.33643 | 0 | 0 | 117 | 190 | 15.849683 | 26.831925 | 1 | 374.2888 | 727.87707 | 0 | 0 | 116 | 191 | 15.794103 | 27.189477 | 1 | 441.29743 | 725.95064 | 0 | 0 | 123 | 148 | 16.334032 | 20.855273 | 1 | 434.84127 | 726.11341 | 0 | 0 | 122 | 149 | 16.261665 | 21.147625 | 1 | 421.43322 | 726.47661 | 0 | 0 | 121 | 162 | 16.13651 | 22.846071 | 1 | 414.7182 | 726.60379 | 0 | 0 | 120 | 163 | 16.082854 | 23.156086 | 1" />
  </defs>
  <sodipodi:namedview
     id="base"
     pagecolor="#ffffff"
     bordercolor="#666666"
     borderopacity="1.0"
     inkscape:pageopacity="0.0"
     inkscape:pageshadow="2"
     inkscape:zoom="2.8"
     inkscape:cx="169.85862"
     inkscape:cy="1.5333341"
     inkscape:document-units="px"
     inkscape:current-layer="layer1"
     showgrid="true"
     inkscape:object-paths="false"
     inkscape:window-width="1920"
     inkscape:window-height="1015"
     inkscape:window-x="0"
     inkscape:window-y="36"
     inkscape:window-maximized="1"
     inkscape:showpageshadow="false"
     fit-margin-top="5"
     fit-margin-left="5"
     fit-margin-right="5"
     fit-margin-bottom="5"
     inkscape:snap-intersection-paths="false"
     inkscape:snap-midpoints="false"
     inkscape:snap-smooth-nodes="false"
     inkscape:object-nodes="true">
    <inkscape:grid
       type="xygrid"
       id="grid838"
       originx="5.3638047"
       originy="25.325196" />
  </sodipodi:namedview>
  <metadata
     id="metadata3085">
    <rdf:RDF>
      <cc:Work
         rdf:about="">
        <dc:format>image/svg+xml</dc:format>
        <dc:type
           rdf:resource="http://purl.org/dc/dcmitype/StillImage" />
        <dc:title></dc:title>
      </cc:Work>
    </rdf:RDF>
  </metadata>
  <g
     inkscape:label="Layer 1"
     inkscape:groupmode="layer"
     id="layer1"
     transform="translate(-301.03953,-660.42946)">
    <path
       transform="translate(-6.6877859,-54.762883)"
       style="fill:none;fill-rule:evenodd;stroke:#000000;stroke-width:3;stroke-linecap:butt;stroke-linejoin:miter;stroke-miterlimit:4;stroke-dasharray:none;stroke-opacity:1"
       d="m 313.09112,796.69254 c 9.82459,-2.45615 20.85572,-4.9123 28.94458,-10.33187 m 5.46811,-4.68665 c 0.88913,-0.99309 1.70018,-2.05883 2.42178,-3.20537 m 2.55338,-5.56462 c 0.35989,-1.15529 0.64753,-2.3737 0.85652,-3.6598 m 0.39297,-6.05605 c -0.0133,-0.5931 -0.0404,-1.19793 -0.0819,-1.81478 m -0.75602,-5.95254 c -0.0851,-0.57192 -0.16303,-1.14161 -0.23405,-1.70855 m -0.50981,-5.9971 c -0.0601,-1.33293 -0.0835,-2.63752 -0.0739,-3.90582 m 0.31891,-6.13525 c 0.14187,-1.42782 0.32702,-2.77491 0.54779,-4.0249 m 1.77243,-6.39492 c 3.26037,-7.52013 8.3792,-2.69118 8.3792,29.43822 0,32.26486 -13.76557,43.76505 -25.14601,42.78062 m -6.03198,-1.80967 c -1.06434,-0.57565 -2.06646,-1.27713 -2.98643,-2.09421 m -3.8704,-5.0963 c -1.24581,-2.51334 -1.96518,-5.47312 -1.96518,-8.78044 0,-1.23893 0.0631,-2.41648 0.19118,-3.53568 m 1.64648,-6.22437 c 0.33431,-0.73499 0.71554,-1.43454 1.14476,-2.10036 m 4.2784,-4.49413 c 0.94592,-0.69768 1.98918,-1.33908 3.1326,-1.92874 m 8.89102,-3.15488 c 4.87774,-1.18416 10.75407,-1.9749 17.71068,-2.50284 m 6.00305,-0.37953 c 4.30449,-0.22377 8.96662,-0.37398 14.00149,-0.47478 m 5.99996,-0.096 c 4.40477,-0.0548 9.06858,-0.0821 13.99995,-0.0956 m 5.99999,-0.0104 c 2.28002,-0.002 4.61326,-0.003 7.00044,-0.003 2.38688,0 4.71982,0.007 6.99957,0.0202 m 6.00003,0.0525 c 4.93143,0.0577 9.59529,0.14974 14.00012,0.27613 m 6.00007,0.19944 c 5.03024,0.19137 9.68843,0.43284 13.98962,0.72441 m 6.00227,0.45909 c 3.38496,0.29082 6.51423,0.61826 9.39723,0.98232 m 6.0308,0.8736 c 1.83909,0.30527 3.55091,0.63003 5.13912,0.97427 m 9.17696,2.74155 c 0.88123,0.3731 1.67802,0.7605 2.39268,1.16219 m 4.34277,4.14009 c 0.35539,0.7634 0.52876,1.56147 0.52876,2.39421 0,6.52614 -10.64766,13.05229 -36.11227,16.79891 m -5.94818,0.79095 c -4.15929,0.498 -8.6597,0.92866 -13.51535,1.28255 m -6.04131,0.38966 c -4.32246,0.24412 -8.89975,0.43137 -13.74025,0.55616 m -6.12949,0.12221 c -2.75802,0.0394 -5.59528,0.0596 -8.51315,0.0596 -1.801,0 -3.57513,-0.0115 -5.32249,-0.0341 m -6.18906,-0.12896 c -4.8949,-0.14154 -9.56452,-0.37255 -14.01149,-0.68256 m -6.21043,-0.49629 c -7.83673,-0.70867 -14.91537,-1.67077 -21.25248,-2.81999 m -6.1495,-1.22193 c -24.30817,-5.27699 -35.86455,-13.4096 -35.86455,-19.61615 0,-0.7894 0.18694,-1.5788 0.56329,-2.36327 m 4.16156,-4.34938 c 0.51284,-0.3493 1.06794,-0.69552 1.66555,-1.03814 m 6.80632,-3.07365 c 6.82699,-2.49265 16.35603,-4.66425 28.71043,-6.26823 m 5.98199,-0.70758 c 4.37631,-0.46979 9.0635,-0.87335 14.06603,-1.20176 m 5.99612,-0.34938 c 4.43679,-0.22691 9.10011,-0.39766 13.99265,-0.50686 m 5.99917,-0.10136 c 2.30475,-0.0268 4.65696,-0.0404 7.05689,-0.0404 2.36687,0 4.68069,0.007 6.94221,0.0199 m 6.00135,0.0522 c 4.9324,0.0574 9.5973,0.14919 14.00325,0.27527 m 6.00318,0.19907 c 4.97107,0.1887 9.57911,0.42628 13.8386,0.71274 m 6.02364,0.45728 c 3.0482,0.26003 5.89004,0.5496 8.53231,0.86871 m 6.22553,0.86437 c 8.17442,1.30295 13.92693,2.97502 17.5584,5.01621 m 4.34277,4.1401 c 0.3554,0.76339 0.52876,1.56146 0.52876,2.3942 0,6.5894 -10.85506,13.17881 -36.85689,16.90708 m -5.97732,0.77419 c -4.25558,0.49597 -8.86202,0.92225 -13.83399,1.26905 m -5.98885,0.36913 c -4.39191,0.23655 -9.0427,0.41503 -13.9609,0.52973 m -6.004,0.10634 c -2.39985,0.0295 -4.85891,0.0445 -7.37805,0.0445 -2.2458,0 -4.44982,-0.0179 -6.61227,-0.0529 m -6.01855,-0.14424 c -4.90549,-0.1566 -9.58171,-0.40352 -14.03136,-0.73 m -6.03349,-0.50344 c -6.05522,-0.56809 -11.65098,-1.28826 -16.7951,-2.12919 m -5.92972,-1.05982 c -26.84716,-5.22898 -39.57951,-13.86573 -39.57951,-20.38042 0,-0.7894 0.18694,-1.57879 0.56329,-2.36327 m 4.16156,-4.34938 c 6.09672,-4.15259 18.16621,-7.86845 36.6285,-10.30749 m 5.95935,-0.71765 c 4.45672,-0.4874 9.23971,-0.90565 14.35377,-1.24516 m 5.98969,-0.35325 c 4.42655,-0.22939 9.07955,-0.40274 13.96169,-0.51467 m 6.00409,-0.10492 c 2.40729,-0.0293 4.86655,-0.0442 7.37806,-0.0442 2.25114,0 4.4543,0.006 6.61011,0.018 m 6.01331,0.0504 c 4.93213,0.0558 9.59787,0.14578 14.00569,0.26992 m 6.02039,0.19676 c 4.69008,0.17566 9.05864,0.39458 13.11774,0.65675 m 6.18367,0.45237 c 2.09394,0.17263 4.09264,0.35886 5.99821,0.55868 m 7.03713,0.85852 c 17.49972,2.47674 25.01375,6.45628 25.01375,11.93862 0,6.60117 -10.89386,13.20234 -36.99631,16.92702 m -5.99766,0.77282 c -4.29308,0.49756 -8.94195,0.92435 -13.96158,1.27041 m -5.99595,0.36495 c -4.40237,0.2339 -9.06368,0.40963 -13.99246,0.52148 m -5.99915,0.10269 c -2.29796,0.0269 -4.65,0.0406 -7.05689,0.0406 -2.36033,0 -4.67451,-0.0198 -6.94277,-0.0584 m -6.00269,-0.14892 c -4.89827,-0.16055 -9.5671,-0.41129 -14.00917,-0.74143 m -6.00626,-0.50685 c -5.245,-0.49702 -10.14381,-1.10831 -14.70157,-1.81338 m -5.92313,-1.00267 c -28.10226,-5.18694 -41.41442,-14.067 -41.41441,-20.72837 1e-5,-6.58068 15.1569,-13.16137 39.77109,-16.89226 m 5.98871,-0.82707 c 4.64302,-0.5814 9.57182,-1.06529 14.75419,-1.43555 m 6.05246,-0.3739 c 4.42634,-0.23159 9.01652,-0.38184 13.75249,-0.44175 m 6.15671,-0.0309 c 4.9913,-0.01 9.57518,-0.0685 13.79338,-0.15 m 6.14387,-0.13826 c 5.14842,-0.13067 9.68328,-0.27839 13.7038,-0.38113 m 6.18566,-0.11844 c 16.15039,-0.15992 22.42402,1.37885 28.69764,10.78928 3.87942,5.81914 5.50136,16.15325 5.44965,26.62346 m -0.22268,6.19628 c -0.0885,1.32621 -0.20263,2.64045 -0.34107,3.93349 m -0.90491,6.33181 c -0.25577,1.40708 -0.54241,2.7632 -0.85791,4.05336 m -2.09456,6.53011 c -1.65702,3.90867 -3.70817,6.33149 -6.02852,6.33149 -10,0 0,-65 -10,-65 -1.28938,0 -2.24626,1.08063 -2.95638,2.96321 m -1.27747,5.93988 c -0.15215,1.23241 -0.27409,2.56303 -0.37181,3.97234 m -0.27548,5.99377 c -0.036,1.29752 -0.0611,2.63044 -0.0786,3.98803 m -0.0382,6.00592 c -0.004,2.17242 -7.6e-4,4.36679 -0.003,6.54363 m -0.0308,6.02712 c -0.0148,1.35321 -0.0365,2.68401 -0.0683,3.98199 m -0.25034,6.04643 c -0.0892,1.41587 -0.20121,2.75791 -0.34169,4.00729 m -1.19423,6.12571 c -0.72423,2.15415 -1.72649,3.40468 -3.11354,3.40468 -10,0 0,-75 -10,-75 -0.80672,0 -1.48328,0.4881 -2.05068,1.38553 m -1.81381,6.05404 c -0.22566,1.42715 -0.40647,3.02247 -0.55136,4.75255 m -0.3533,5.99414 c -0.0509,1.29311 -0.0906,2.62836 -0.12157,3.99645 m -0.0859,5.99947 c -0.0101,1.31878 -0.0159,2.65398 -0.0191,3.99848 m -0.004,6.00106 c -1.1e-4,2.84989 -0.002,5.69453 -0.0221,8.46805 m -0.0836,6.00711 c -0.0302,1.36895 -0.0691,2.7055 -0.11905,4.00039 m -0.34826,6.01645 c -0.11816,1.43492 -0.26068,2.77847 -0.4326,4.01182 m -1.4799,6.05303 c -0.65211,1.45151 -1.47531,2.26143 -2.51449,2.26143 -10,0 0,-75 -10,-75 -0.94828,0 -1.71671,0.67442 -2.3394,1.89535 m -1.59846,6.02474 c -0.18391,1.24749 -0.33598,2.61439 -0.46171,4.08003 m -0.36215,5.99989 c -0.0522,1.29358 -0.093,2.63004 -0.12481,3.99999 m -0.0887,6 c -0.0105,1.31893 -0.0166,2.65464 -0.0201,4 m -0.005,6 c -7e-5,3.03076 -0.001,6.05716 -0.0248,9 m -0.0887,5.99999 c -0.0318,1.36995 -0.0726,2.7064 -0.1248,3.99997 m -0.36214,5.99967 c -0.12303,1.43413 -0.27126,2.77372 -0.44988,3.99941 m -1.55458,5.99409 c -0.63241,1.29132 -1.41837,2.00687 -2.39513,2.00687 -10,0 0,-75 -10,-75 -0.99317,0 -1.78907,0.73979 -2.42687,2.07243 m -1.53853,6.03699 c -0.18473,1.28747 -0.33649,2.69865 -0.46114,4.21144 m -0.34848,6.01593 c -0.05,1.2949 -0.0889,2.63148 -0.11915,4.00049 m -0.0837,6.00682 c -0.009,1.22137 -0.0144,2.45654 -0.0175,3.69989 m -0.005,6.00015 c -8e-5,2.84007 -0.001,5.67598 -0.0209,8.44255 m -0.0812,6.0041 c -0.0293,1.36311 -0.0671,2.69458 -0.11576,3.98533 m -0.33834,5.99047 c -0.11358,1.41566 -0.25037,2.74433 -0.41509,3.96824 m -1.35662,5.93225 c -0.67563,1.68414 -1.54737,2.63292 -2.67211,2.63292 -10,0 0,-75 -10,-75 -1.3162,0 -2.28592,1.12605 -3.00038,3.10453 m -1.25796,6.13026 c -0.15337,1.31066 -0.27502,2.73145 -0.37152,4.24268 m -0.25649,6.04272 c -0.0333,1.29331 -0.0568,2.62447 -0.0735,3.98491 m -0.0375,6.02463 c -0.002,0.94522 -0.002,1.89787 -0.003,2.85549 m -0.003,6.00336 c -0.005,2.13299 -0.0158,4.26497 -0.0423,6.36923 m -0.12884,6.02864 c -0.0428,1.33771 -0.096,2.65201 -0.16221,3.93524 m -0.43867,5.99141 c -0.1354,1.36155 -0.29445,2.66318 -0.48127,3.89249 m -1.30864,5.88104 c -0.63911,1.97205 -1.43742,3.51617 -2.43462,4.51337 -3.60286,3.60286 -8.50379,1.36445 -13.76743,-0.86933 m -6.38815,-2.29393 c -7.44802,-1.80121 -14.87899,0.81884 -19.84442,23.16326"
       id="path831-2"
       inkscape:connector-curvature="0"
       sodipodi:nodetypes="czzzzzzzzzzzzzzzzzzzzzzzzzzzzc"
       inkscape:path-effect="#path-effect840-22-9"
       inkscape:original-d="m 313.09112,796.69254 c 20,-5 45,-10 40,-40 -5,-30 10,-55 10,0 0,55 -40,49.66201 -40,25 0,-24.66201 25,-25 90,-25 65,0 90,5.00002 90,15.00001 0,9.99999 -25,19.99999 -90,19.99999 -65,0 -95,-15 -95,-25 0,-10 30,-20 95,-20 65,0 90,5 90,15 0,10 -25,20 -90,20 -65,0 -95,-15 -95,-25 0,-10 30,-20 95,-20 65,0 90,5 90,15 0,10 -25,20 -90,20 -65,0 -95.00001,-15 -95,-25 1e-5,-10 35.00001,-20 85,-20 49.99999,0 60,-5 70,10 10,15 5,60 -5,60 -10,0 0,-65 -10,-65 -10,0 0,65 -10,65 -10,0 0,-75 -10,-75 -10,0 0,75 -10,75 -10,0 0,-75 -10,-75 -10,0 0,75 -10,75 -10,0 0,-75 -10,-75 -10,0 0,75 -10,75 -10,0 0,-75 -10,-75 -10,0 0,65 -10,75 -10,10 -30,-25 -40,20" />
  </g>
</svg>
