<?xml version="1.0" encoding="UTF-8" standalone="no"?>
<!-- Created with Inkscape (http://www.inkscape.org/) -->

<svg
   xmlns:dc="http://purl.org/dc/elements/1.1/"
   xmlns:cc="http://creativecommons.org/ns#"
   xmlns:rdf="http://www.w3.org/1999/02/22-rdf-syntax-ns#"
   xmlns:svg="http://www.w3.org/2000/svg"
   xmlns="http://www.w3.org/2000/svg"
   xmlns:sodipodi="http://sodipodi.sourceforge.net/DTD/sodipodi-0.dtd"
   xmlns:inkscape="http://www.inkscape.org/namespaces/inkscape"
   width="63"
   height="108"
   id="svg3080"
   version="1.1"
   inkscape:version="0.91 r13725"
   sodipodi:docname="Racking_Hitch.svg">
  <defs
     id="defs3082">
    <inkscape:path-effect
       effect="knot"
       id="path-effect4955"
       is_visible="true"
       interruption_width="3"
       prop_to_stroke_width="false"
       add_stroke_width="true"
       add_other_stroke_width="false"
       switcher_size="15"
       crossing_points_vector="495.47929 | 931.46289 | 0 | 1 | 1 | 2 | 0.7253947 | 2.4380804 | 1 | 493.11776 | 940.48342 | 0 | 1 | 0 | 3 | 0.39365294 | 3.3856201 | 1 | 494.14528 | 922.17227 | 0 | 1 | 2 | 1 | 1.467697 | 1.5323031 | 1 | 495.64277 | 909.28696 | 0 | 1 | 3 | 0 | 2.4491195 | 0.42420351 | 1 | 484.68892 | 940.48342 | 1 | 2 | 4 | 3 | 3.6143799 | 3.6063469 | 1 | 482.3274 | 931.46288 | 1 | 2 | 5 | 2 | 4.5619206 | 3.274605 | 1 | 483.81713 | 922.0159 | 1 | 2 | 6 | 1 | 5.4885038 | 2.5114962 | 1 | 482.36472 | 909.57013 | 1 | 2 | 7 | 0 | 6.5574996 | 1.5644486 | 1" />
    <inkscape:path-effect
       effect="knot"
       id="path-effect5644"
       is_visible="true"
       interruption_width="3"
       prop_to_stroke_width="false"
       add_stroke_width="true"
       add_other_stroke_width="false"
       switcher_size="15"
       crossing_points_vector="493.425 | 924.40922 | 0 | 2 | 0 | 1 | 0.39388586 | 1.5260732 | 1 | 499.2926 | 912.25678 | 0 | 2 | 1 | 2 | 0.85833601 | 2.1621577 | 1 | 485.95637 | 885.74371 | 0 | 1 | 2 | 2 | 2.8932137 | 1.6861634 | -1 | 482.67112 | 908.36814 | 1 | 2 | 0 | 4 | 0.22277907 | 2.5837206 | -1 | 491.36904 | 907.92043 | 1 | 2 | 1 | 3 | 0.96579358 | 2.3877661 | -1 | 474.8883 | 915.28744 | 2 | 2 | 0 | 5 | 0.94561332 | 2.7876114 | 1" />
    <marker
       inkscape:isstock="true"
       style="overflow:visible"
       id="marker4734"
       refX="0"
       refY="0"
       orient="auto"
       inkscape:stockid="Arrow1Mend">
      <path
         inkscape:connector-curvature="0"
         transform="matrix(-0.4,0,0,-0.4,-4,0)"
         style="fill:#b3b3b3;fill-opacity:1;fill-rule:evenodd;stroke:#000000;stroke-width:1pt;stroke-opacity:1"
         d="M 0,0 5,-5 -12.5,0 5,5 0,0 Z"
         id="path4736" />
    </marker>
    <marker
       inkscape:isstock="true"
       style="overflow:visible"
       id="marker4600"
       refX="0"
       refY="0"
       orient="auto"
       inkscape:stockid="Arrow1Mend">
      <path
         inkscape:connector-curvature="0"
         transform="matrix(-0.4,0,0,-0.4,-4,0)"
         style="fill:#000000;fill-opacity:1;fill-rule:evenodd;stroke:#000000;stroke-width:1pt;stroke-opacity:1"
         d="M 0,0 5,-5 -12.5,0 5,5 0,0 Z"
         id="path4602" />
    </marker>
    <marker
       inkscape:isstock="true"
       style="overflow:visible"
       id="marker4470"
       refX="0"
       refY="0"
       orient="auto"
       inkscape:stockid="Arrow1Mend">
      <path
         inkscape:connector-curvature="0"
         transform="matrix(-0.4,0,0,-0.4,-4,0)"
         style="fill:#ff0000;fill-opacity:1;fill-rule:evenodd;stroke:#ff0000;stroke-width:1pt;stroke-opacity:1"
         d="M 0,0 5,-5 -12.5,0 5,5 0,0 Z"
         id="path4472" />
    </marker>
    <inkscape:path-effect
       effect="knot"
       id="path-effect4510"
       is_visible="true"
       interruption_width="3"
       prop_to_stroke_width="false"
       add_stroke_width="true"
       add_other_stroke_width="false"
       switcher_size="15"
       crossing_points_vector="499.04361 | 905.63451 | 0 | 1 | 0 | 0 | 0.77856924 | 2.1371777 | -1 | 490.8322 | 881.06686 | 0 | 2 | 1 | 0 | 1.3215928 | 0.29319945 | 1 | 477.80433 | 875.36615 | 0 | 2 | 2 | 1 | 1.8221458 | 1.3456321 | 1" />
    <inkscape:path-effect
       effect="knot"
       id="path-effect4508"
       is_visible="true"
       interruption_width="3"
       prop_to_stroke_width="false"
       add_stroke_width="true"
       add_other_stroke_width="false"
       switcher_size="15"
       crossing_points_vector="564.1571 | 881.92009 | 1 | 3 | 0 | 0 | 0.12640418 | 1.6324879 | 1" />
    <inkscape:path-effect
       effect="knot"
       id="path-effect4330"
       is_visible="true"
       interruption_width="3"
       prop_to_stroke_width="false"
       add_stroke_width="true"
       add_other_stroke_width="false"
       switcher_size="15"
       crossing_points_vector="574.10071 | 860.73008 | 1 | 2 | 1 | 0 | 1.4338181 | 1.4507078 | 1 | 568.50393 | 874.78897 | 1 | 3 | 0 | 0 | 1.1266988 | 0.27818176 | 1" />
    <inkscape:path-effect
       effect="knot"
       id="path-effect4293"
       is_visible="true"
       interruption_width="3"
       prop_to_stroke_width="false"
       add_stroke_width="true"
       add_other_stroke_width="false"
       switcher_size="15"
       crossing_points_vector="567.01813 | 924.14519 | 0 | 1 | 0 | 1 | 0.35366327 | 1.5474674 | -1 | 556.98282 | 912.38322 | 0 | 1 | 1 | 2 | 0.65933317 | 2.2172825 | -1 | 570.86864 | 888.12159 | 1 | 1 | 0 | 3 | 0.56147773 | 2.5940693 | -1" />
    <inkscape:path-effect
       crossing_points_vector="563.34662 | 878.32875 | 0 | 0 | 0 | 1 | 0.57478741 | 4.7005785 | -1"
       switcher_size="15"
       add_other_stroke_width="false"
       add_stroke_width="true"
       prop_to_stroke_width="false"
       interruption_width="3"
       is_visible="true"
       id="path-effect4381"
       effect="knot" />
    <inkscape:path-effect
       effect="knot"
       id="path-effect9059"
       is_visible="true"
       interruption_width="3"
       prop_to_stroke_width="false"
       add_stroke_width="true"
       add_other_stroke_width="false"
       switcher_size="15"
       crossing_points_vector="563.34662 | 878.32875 | 0 | 0 | 0 | 1 | 0.57478741 | 4.7005785 | -1" />
    <inkscape:path-effect
       effect="simplify"
       id="path-effect1032"
       is_visible="true"
       steps="1"
       threshold="0.00243902"
       smooth_angles="360"
       helper_size="0"
       simplify_individual_paths="false"
       simplify_just_coalesce="false"
       simplifyindividualpaths="false"
       simplifyJustCoalesce="false" />
    <marker
       inkscape:stockid="Arrow2Mend"
       orient="auto"
       refY="0"
       refX="0"
       id="Arrow2Mend"
       style="overflow:visible"
       inkscape:isstock="true">
      <path
         id="path908"
         style="fill:#ff0000;fill-opacity:1;fill-rule:evenodd;stroke:#ff0000;stroke-width:0.625;stroke-linejoin:round;stroke-opacity:1"
         d="M 8.7185878,4.0337352 -2.2072895,0.01601326 8.7185884,-4.0017078 c -1.7454984,2.3720609 -1.7354408,5.6174519 -6e-7,8.035443 z"
         transform="scale(-0.6,-0.6)"
         inkscape:connector-curvature="0" />
    </marker>
    <marker
       inkscape:stockid="Arrow2Lend"
       orient="auto"
       refY="0"
       refX="0"
       id="Arrow2Lend"
       style="overflow:visible"
       inkscape:isstock="true">
      <path
         id="path902"
         style="fill:#fe0000;fill-opacity:1;fill-rule:evenodd;stroke:#fe0000;stroke-width:0.625;stroke-linejoin:round;stroke-opacity:1"
         d="M 8.7185878,4.0337352 -2.2072895,0.01601326 8.7185884,-4.0017078 c -1.7454984,2.3720609 -1.7354408,5.6174519 -6e-7,8.035443 z"
         transform="matrix(-1.1,0,0,-1.1,-1.1,0)"
         inkscape:connector-curvature="0" />
    </marker>
    <marker
       inkscape:stockid="Arrow1Lstart"
       orient="auto"
       refY="0"
       refX="0"
       id="Arrow1Lstart"
       style="overflow:visible"
       inkscape:isstock="true">
      <path
         id="path881"
         d="M 0,0 5,-5 -12.5,0 5,5 Z"
         style="fill:#fe0000;fill-opacity:1;fill-rule:evenodd;stroke:#fe0000;stroke-width:1pt;stroke-opacity:1"
         transform="matrix(0.8,0,0,0.8,10,0)"
         inkscape:connector-curvature="0" />
    </marker>
    <inkscape:path-effect
       effect="knot"
       id="path-effect840"
       is_visible="true"
       interruption_width="3"
       prop_to_stroke_width="false"
       add_stroke_width="true"
       add_other_stroke_width="false"
       switcher_size="15"
       crossing_points_vector="555.9833 | 747.10163 | 0 | 0 | 0 | 1 | 0.6803812 | 2.7128593 | -1 | 552.23485 | 788.43362 | 0 | 0 | 2 | 7 | 3.2447083 | 9.4155824 | 1 | 554.77393 | 832.80342 | 0 | 0 | 3 | 8 | 3.5338778 | 10.513978 | 1 | 526.40166 | 839.74908 | 0 | 0 | 4 | 9 | 6.8382141 | 11.291791 | -1 | 519.26725 | 810.88166 | 0 | 0 | 5 | 10 | 7.6725215 | 12.32748 | -1 | 526.37124 | 784.03924 | 0 | 0 | 6 | 11 | 8.7301526 | 12.955812 | -1" />
    <filter
       id="filter3111"
       inkscape:label="Outline, double"
       inkscape:menu="Morphology"
       inkscape:menu-tooltip="Draws a smooth line inside colorized with the color it overlays"
       style="color-interpolation-filters:sRGB">
      <feGaussianBlur
         id="feGaussianBlur3113"
         stdDeviation="3"
         in="SourceAlpha"
         result="result1" />
      <feComposite
         id="feComposite3115"
         in2="result1"
         operator="arithmetic"
         k2="3.2"
         k1="-1"
         k4="-2"
         result="result3"
         k3="0" />
      <feColorMatrix
         id="feColorMatrix3117"
         values="0 0 0 0 0 0 1 0 0 0 0 0 1 0 0 0 0 0 10 0 "
         result="result2" />
      <feComposite
         id="feComposite3119"
         in2="result2"
         result="fbSourceGraphic"
         in="SourceGraphic"
         operator="out" />
      <feGaussianBlur
         id="feGaussianBlur3121"
         in="fbSourceGraphic"
         stdDeviation="0.5"
         result="result4" />
      <feComposite
         id="feComposite3123"
         in2="result4"
         operator="xor"
         in="result4"
         result="result5" />
      <feBlend
         id="feBlend3125"
         in2="result5"
         result="result6"
         mode="darken"
         in="result5" />
      <feBlend
         id="feBlend3127"
         in2="result6"
         in="result6"
         mode="darken" />
    </filter>
    <inkscape:path-effect
       effect="knot"
       id="path-effect840-2"
       is_visible="true"
       interruption_width="3"
       prop_to_stroke_width="false"
       add_stroke_width="true"
       add_other_stroke_width="false"
       switcher_size="15"
       crossing_points_vector="403.23988 | 875.24536 | 0 | 0 | 0 | 3 | 0.30583405 | 3.7905355 | -1 | 434.69018 | 856.18644 | 0 | 0 | 1 | 4 | 0.64654265 | 5.6367509 | 1 | 461.39463 | 867.49793 | 0 | 0 | 2 | 5 | 2.013941 | 6.3359148 | 1" />
    <marker
       inkscape:stockid="Arrow2Mend"
       orient="auto"
       refY="0"
       refX="0"
       id="Arrow2Mend-2"
       style="overflow:visible">
      <path
         id="path3886"
         style="fill-rule:evenodd;stroke-width:0.625;stroke-linejoin:round"
         d="M 8.7185878,4.0337352 -2.2072895,0.01601326 8.7185884,-4.0017078 c -1.7454984,2.3720609 -1.7354408,5.6174519 -6e-7,8.035443 z"
         transform="scale(-0.6,-0.6)"
         inkscape:connector-curvature="0" />
    </marker>
    <marker
       inkscape:stockid="Arrow2Mend"
       orient="auto"
       refY="0"
       refX="0"
       id="marker910"
       style="overflow:visible">
      <path
         id="path908-3"
         style="fill-rule:evenodd;stroke-width:0.625;stroke-linejoin:round"
         d="M 8.7185878,4.0337352 -2.2072895,0.01601326 8.7185884,-4.0017078 c -1.7454984,2.3720609 -1.7354408,5.6174519 -6e-7,8.035443 z"
         transform="scale(-0.6,-0.6)"
         inkscape:connector-curvature="0" />
    </marker>
    <marker
       inkscape:stockid="Arrow2Mend"
       orient="auto"
       refY="0"
       refX="0"
       id="marker914"
       style="overflow:visible">
      <path
         id="path912"
         style="fill-rule:evenodd;stroke-width:0.625;stroke-linejoin:round"
         d="M 8.7185878,4.0337352 -2.2072895,0.01601326 8.7185884,-4.0017078 c -1.7454984,2.3720609 -1.7354408,5.6174519 -6e-7,8.035443 z"
         transform="scale(-0.6,-0.6)"
         inkscape:connector-curvature="0" />
    </marker>
    <marker
       inkscape:stockid="Arrow2Mend"
       orient="auto"
       refY="0"
       refX="0"
       id="marker918"
       style="overflow:visible">
      <path
         id="path916"
         style="fill-rule:evenodd;stroke-width:0.625;stroke-linejoin:round"
         d="M 8.7185878,4.0337352 -2.2072895,0.01601326 8.7185884,-4.0017078 c -1.7454984,2.3720609 -1.7354408,5.6174519 -6e-7,8.035443 z"
         transform="scale(-0.6,-0.6)"
         inkscape:connector-curvature="0" />
    </marker>
    <marker
       inkscape:stockid="Arrow2Mend"
       orient="auto"
       refY="0"
       refX="0"
       id="marker922"
       style="overflow:visible">
      <path
         id="path920"
         style="fill-rule:evenodd;stroke-width:0.625;stroke-linejoin:round"
         d="M 8.7185878,4.0337352 -2.2072895,0.01601326 8.7185884,-4.0017078 c -1.7454984,2.3720609 -1.7354408,5.6174519 -6e-7,8.035443 z"
         transform="scale(-0.6,-0.6)"
         inkscape:connector-curvature="0" />
    </marker>
    <marker
       inkscape:stockid="Arrow2Mend"
       orient="auto"
       refY="0"
       refX="0"
       id="marker926"
       style="overflow:visible">
      <path
         id="path924"
         style="fill-rule:evenodd;stroke-width:0.625;stroke-linejoin:round"
         d="M 8.7185878,4.0337352 -2.2072895,0.01601326 8.7185884,-4.0017078 c -1.7454984,2.3720609 -1.7354408,5.6174519 -6e-7,8.035443 z"
         transform="scale(-0.6,-0.6)"
         inkscape:connector-curvature="0" />
    </marker>
    <marker
       inkscape:stockid="Arrow2Mend"
       orient="auto"
       refY="0"
       refX="0"
       id="Arrow2Mend-23"
       style="overflow:visible">
      <path
         id="path3940"
         style="fill-rule:evenodd;stroke-width:0.625;stroke-linejoin:round"
         d="M 8.7185878,4.0337352 -2.2072895,0.01601326 8.7185884,-4.0017078 c -1.7454984,2.3720609 -1.7354408,5.6174519 -6e-7,8.035443 z"
         transform="scale(-0.6,-0.6)"
         inkscape:connector-curvature="0" />
    </marker>
    <marker
       inkscape:stockid="Arrow2Mend"
       orient="auto"
       refY="0"
       refX="0"
       id="marker890"
       style="overflow:visible">
      <path
         id="path888"
         style="fill-rule:evenodd;stroke-width:0.625;stroke-linejoin:round"
         d="M 8.7185878,4.0337352 -2.2072895,0.01601326 8.7185884,-4.0017078 c -1.7454984,2.3720609 -1.7354408,5.6174519 -6e-7,8.035443 z"
         transform="scale(-0.6,-0.6)"
         inkscape:connector-curvature="0" />
    </marker>
    <marker
       inkscape:stockid="Arrow2Mend"
       orient="auto"
       refY="0"
       refX="0"
       id="marker894"
       style="overflow:visible">
      <path
         id="path892"
         style="fill-rule:evenodd;stroke-width:0.625;stroke-linejoin:round"
         d="M 8.7185878,4.0337352 -2.2072895,0.01601326 8.7185884,-4.0017078 c -1.7454984,2.3720609 -1.7354408,5.6174519 -6e-7,8.035443 z"
         transform="scale(-0.6,-0.6)"
         inkscape:connector-curvature="0" />
    </marker>
    <marker
       inkscape:stockid="Arrow2Mend"
       orient="auto"
       refY="0"
       refX="0"
       id="marker898"
       style="overflow:visible">
      <path
         id="path896"
         style="fill-rule:evenodd;stroke-width:0.625;stroke-linejoin:round"
         d="M 8.7185878,4.0337352 -2.2072895,0.01601326 8.7185884,-4.0017078 c -1.7454984,2.3720609 -1.7354408,5.6174519 -6e-7,8.035443 z"
         transform="scale(-0.6,-0.6)"
         inkscape:connector-curvature="0" />
    </marker>
    <marker
       inkscape:stockid="Arrow2Mend"
       orient="auto"
       refY="0"
       refX="0"
       id="Arrow2Mend-237"
       style="overflow:visible">
      <path
         id="path3837"
         style="fill-rule:evenodd;stroke-width:0.625;stroke-linejoin:round"
         d="M 8.7185878,4.0337352 -2.2072895,0.01601326 8.7185884,-4.0017078 c -1.7454984,2.3720609 -1.7354408,5.6174519 -6e-7,8.035443 z"
         transform="scale(-0.6,-0.6)"
         inkscape:connector-curvature="0" />
    </marker>
    <marker
       inkscape:stockid="Arrow2Mend"
       orient="auto"
       refY="0"
       refX="0"
       id="marker4177"
       style="overflow:visible">
      <path
         id="path4179"
         style="fill-rule:evenodd;stroke-width:0.625;stroke-linejoin:round"
         d="M 8.7185878,4.0337352 -2.2072895,0.01601326 8.7185884,-4.0017078 c -1.7454984,2.3720609 -1.7354408,5.6174519 -6e-7,8.035443 z"
         transform="scale(-0.6,-0.6)"
         inkscape:connector-curvature="0" />
    </marker>
    <inkscape:path-effect
       crossing_points_vector="566.40336 | 819.48052 | 0 | 1 | 0 | 0 | 0.44550334 | 1.2743027 | 1"
       switcher_size="15"
       add_other_stroke_width="false"
       add_stroke_width="true"
       prop_to_stroke_width="false"
       interruption_width="3"
       is_visible="true"
       id="path-effect4381-2"
       effect="knot" />
    <marker
       inkscape:stockid="Arrow2Mend"
       orient="auto"
       refY="0"
       refX="0"
       id="Arrow2Mend-2375"
       style="overflow:visible">
      <path
         id="path3837-9"
         style="fill-rule:evenodd;stroke-width:0.625;stroke-linejoin:round"
         d="M 8.7185878,4.0337352 -2.2072895,0.01601326 8.7185884,-4.0017078 c -1.7454984,2.3720609 -1.7354408,5.6174519 -6e-7,8.035443 z"
         transform="scale(-0.6,-0.6)"
         inkscape:connector-curvature="0" />
    </marker>
    <marker
       inkscape:stockid="Arrow2Mend"
       orient="auto"
       refY="0"
       refX="0"
       id="marker4179"
       style="overflow:visible">
      <path
         id="path4181"
         style="fill-rule:evenodd;stroke-width:0.625;stroke-linejoin:round"
         d="M 8.7185878,4.0337352 -2.2072895,0.01601326 8.7185884,-4.0017078 c -1.7454984,2.3720609 -1.7354408,5.6174519 -6e-7,8.035443 z"
         transform="scale(-0.6,-0.6)"
         inkscape:connector-curvature="0" />
    </marker>
    <marker
       inkscape:stockid="Arrow2Mend"
       orient="auto"
       refY="0"
       refX="0"
       id="marker4183"
       style="overflow:visible">
      <path
         id="path4185"
         style="fill-rule:evenodd;stroke-width:0.625;stroke-linejoin:round"
         d="M 8.7185878,4.0337352 -2.2072895,0.01601326 8.7185884,-4.0017078 c -1.7454984,2.3720609 -1.7354408,5.6174519 -6e-7,8.035443 z"
         transform="scale(-0.6,-0.6)"
         inkscape:connector-curvature="0" />
    </marker>
    <marker
       inkscape:stockid="Arrow2Mend"
       orient="auto"
       refY="0"
       refX="0"
       id="marker4187"
       style="overflow:visible">
      <path
         id="path4189"
         style="fill-rule:evenodd;stroke-width:0.625;stroke-linejoin:round"
         d="M 8.7185878,4.0337352 -2.2072895,0.01601326 8.7185884,-4.0017078 c -1.7454984,2.3720609 -1.7354408,5.6174519 -6e-7,8.035443 z"
         transform="scale(-0.6,-0.6)"
         inkscape:connector-curvature="0" />
    </marker>
    <marker
       inkscape:stockid="Arrow1Mend"
       orient="auto"
       refY="0"
       refX="0"
       id="Arrow1Mend"
       style="overflow:visible"
       inkscape:isstock="true">
      <path
         id="path4161"
         d="M 0,0 5,-5 -12.5,0 5,5 0,0 Z"
         style="fill:#ff0000;fill-opacity:1;fill-rule:evenodd;stroke:#ff0000;stroke-width:1pt;stroke-opacity:1"
         transform="matrix(-0.4,0,0,-0.4,-4,0)"
         inkscape:connector-curvature="0" />
    </marker>
    <marker
       inkscape:stockid="Arrow1Mend"
       orient="auto"
       refY="0"
       refX="0"
       id="marker4269"
       style="overflow:visible"
       inkscape:isstock="true">
      <path
         id="path4271"
         d="M 0,0 5,-5 -12.5,0 5,5 0,0 Z"
         style="fill:#ff0000;fill-opacity:1;fill-rule:evenodd;stroke:#ff0000;stroke-width:1pt;stroke-opacity:1"
         transform="matrix(-0.4,0,0,-0.4,-4,0)"
         inkscape:connector-curvature="0" />
    </marker>
    <marker
       inkscape:stockid="Arrow1Mend"
       orient="auto"
       refY="0"
       refX="0"
       id="Arrow1Mend-8"
       style="overflow:visible"
       inkscape:isstock="true">
      <path
         id="path4161-9"
         d="M 0,0 5,-5 -12.5,0 5,5 0,0 Z"
         style="fill:#ff0000;fill-opacity:1;fill-rule:evenodd;stroke:#ff0000;stroke-width:1pt;stroke-opacity:1"
         transform="matrix(-0.4,0,0,-0.4,-4,0)"
         inkscape:connector-curvature="0" />
    </marker>
    <marker
       inkscape:stockid="Arrow1Mend"
       orient="auto"
       refY="0"
       refX="0"
       id="marker10242"
       style="overflow:visible"
       inkscape:isstock="true">
      <path
         id="path10244"
         d="M 0,0 5,-5 -12.5,0 5,5 0,0 Z"
         style="fill:#ff0000;fill-opacity:1;fill-rule:evenodd;stroke:#ff0000;stroke-width:1pt;stroke-opacity:1"
         transform="matrix(-0.4,0,0,-0.4,-4,0)"
         inkscape:connector-curvature="0" />
    </marker>
    <marker
       inkscape:stockid="Arrow2Mend"
       orient="auto"
       refY="0"
       refX="0"
       id="Arrow2Mend-23759"
       style="overflow:visible">
      <path
         id="path3820"
         style="fill-rule:evenodd;stroke-width:0.625;stroke-linejoin:round"
         d="M 8.7185878,4.0337352 -2.2072895,0.01601326 8.7185884,-4.0017078 c -1.7454984,2.3720609 -1.7354408,5.6174519 -6e-7,8.035443 z"
         transform="scale(-0.6,-0.6)"
         inkscape:connector-curvature="0" />
    </marker>
    <marker
       inkscape:stockid="Arrow2Mend"
       orient="auto"
       refY="0"
       refX="0"
       id="marker4187-2"
       style="overflow:visible">
      <path
         id="path4189-2"
         style="fill-rule:evenodd;stroke-width:0.625;stroke-linejoin:round"
         d="M 8.7185878,4.0337352 -2.2072895,0.01601326 8.7185884,-4.0017078 c -1.7454984,2.3720609 -1.7354408,5.6174519 -6e-7,8.035443 z"
         transform="scale(-0.6,-0.6)"
         inkscape:connector-curvature="0" />
    </marker>
    <marker
       inkscape:stockid="Arrow2Mend"
       orient="auto"
       refY="0"
       refX="0"
       id="marker4191"
       style="overflow:visible">
      <path
         id="path4193"
         style="fill-rule:evenodd;stroke-width:0.625;stroke-linejoin:round"
         d="M 8.7185878,4.0337352 -2.2072895,0.01601326 8.7185884,-4.0017078 c -1.7454984,2.3720609 -1.7354408,5.6174519 -6e-7,8.035443 z"
         transform="scale(-0.6,-0.6)"
         inkscape:connector-curvature="0" />
    </marker>
    <marker
       inkscape:stockid="Arrow2Mend"
       orient="auto"
       refY="0"
       refX="0"
       id="marker4195"
       style="overflow:visible">
      <path
         id="path4197"
         style="fill-rule:evenodd;stroke-width:0.625;stroke-linejoin:round"
         d="M 8.7185878,4.0337352 -2.2072895,0.01601326 8.7185884,-4.0017078 c -1.7454984,2.3720609 -1.7354408,5.6174519 -6e-7,8.035443 z"
         transform="scale(-0.6,-0.6)"
         inkscape:connector-curvature="0" />
    </marker>
    <marker
       inkscape:stockid="Arrow1Mend"
       orient="auto"
       refY="0"
       refX="0"
       id="marker11909"
       style="overflow:visible"
       inkscape:isstock="true">
      <path
         id="path11911"
         d="M 0,0 5,-5 -12.5,0 5,5 0,0 Z"
         style="fill:#ff0000;fill-opacity:1;fill-rule:evenodd;stroke:#ff0000;stroke-width:1pt;stroke-opacity:1"
         transform="matrix(-0.4,0,0,-0.4,-4,0)"
         inkscape:connector-curvature="0" />
    </marker>
    <marker
       inkscape:stockid="Arrow2Mend"
       orient="auto"
       refY="0"
       refX="0"
       id="Arrow2Mend-237592"
       style="overflow:visible">
      <path
         id="path3837-2"
         style="fill-rule:evenodd;stroke-width:0.625;stroke-linejoin:round"
         d="M 8.7185878,4.0337352 -2.2072895,0.01601326 8.7185884,-4.0017078 c -1.7454984,2.3720609 -1.7354408,5.6174519 -6e-7,8.035443 z"
         transform="scale(-0.6,-0.6)"
         inkscape:connector-curvature="0" />
    </marker>
    <marker
       inkscape:stockid="Arrow2Mend"
       orient="auto"
       refY="0"
       refX="0"
       id="marker4195-8"
       style="overflow:visible">
      <path
         id="path4197-9"
         style="fill-rule:evenodd;stroke-width:0.625;stroke-linejoin:round"
         d="M 8.7185878,4.0337352 -2.2072895,0.01601326 8.7185884,-4.0017078 c -1.7454984,2.3720609 -1.7354408,5.6174519 -6e-7,8.035443 z"
         transform="scale(-0.6,-0.6)"
         inkscape:connector-curvature="0" />
    </marker>
    <marker
       inkscape:stockid="Arrow2Mend"
       orient="auto"
       refY="0"
       refX="0"
       id="marker4199"
       style="overflow:visible">
      <path
         id="path4201"
         style="fill-rule:evenodd;stroke-width:0.625;stroke-linejoin:round"
         d="M 8.7185878,4.0337352 -2.2072895,0.01601326 8.7185884,-4.0017078 c -1.7454984,2.3720609 -1.7354408,5.6174519 -6e-7,8.035443 z"
         transform="scale(-0.6,-0.6)"
         inkscape:connector-curvature="0" />
    </marker>
    <marker
       inkscape:stockid="Arrow2Mend"
       orient="auto"
       refY="0"
       refX="0"
       id="marker4203"
       style="overflow:visible">
      <path
         id="path4205"
         style="fill-rule:evenodd;stroke-width:0.625;stroke-linejoin:round"
         d="M 8.7185878,4.0337352 -2.2072895,0.01601326 8.7185884,-4.0017078 c -1.7454984,2.3720609 -1.7354408,5.6174519 -6e-7,8.035443 z"
         transform="scale(-0.6,-0.6)"
         inkscape:connector-curvature="0" />
    </marker>
    <marker
       inkscape:stockid="Arrow2Mend"
       orient="auto"
       refY="0"
       refX="0"
       id="marker4207"
       style="overflow:visible">
      <path
         id="path4209"
         style="fill-rule:evenodd;stroke-width:0.625;stroke-linejoin:round"
         d="M 8.7185878,4.0337352 -2.2072895,0.01601326 8.7185884,-4.0017078 c -1.7454984,2.3720609 -1.7354408,5.6174519 -6e-7,8.035443 z"
         transform="scale(-0.6,-0.6)"
         inkscape:connector-curvature="0" />
    </marker>
    <marker
       inkscape:stockid="Arrow2Mend"
       orient="auto"
       refY="0"
       refX="0"
       id="marker4211"
       style="overflow:visible">
      <path
         id="path4213"
         style="fill-rule:evenodd;stroke-width:0.625;stroke-linejoin:round"
         d="M 8.7185878,4.0337352 -2.2072895,0.01601326 8.7185884,-4.0017078 c -1.7454984,2.3720609 -1.7354408,5.6174519 -6e-7,8.035443 z"
         transform="scale(-0.6,-0.6)"
         inkscape:connector-curvature="0" />
    </marker>
    <marker
       inkscape:stockid="Arrow2Mend"
       orient="auto"
       refY="0"
       refX="0"
       id="marker4215"
       style="overflow:visible">
      <path
         id="path4217"
         style="fill-rule:evenodd;stroke-width:0.625;stroke-linejoin:round"
         d="M 8.7185878,4.0337352 -2.2072895,0.01601326 8.7185884,-4.0017078 c -1.7454984,2.3720609 -1.7354408,5.6174519 -6e-7,8.035443 z"
         transform="scale(-0.6,-0.6)"
         inkscape:connector-curvature="0" />
    </marker>
    <marker
       inkscape:stockid="Arrow2Mend"
       orient="auto"
       refY="0"
       refX="0"
       id="marker4219"
       style="overflow:visible">
      <path
         id="path4221"
         style="fill-rule:evenodd;stroke-width:0.625;stroke-linejoin:round"
         d="M 8.7185878,4.0337352 -2.2072895,0.01601326 8.7185884,-4.0017078 c -1.7454984,2.3720609 -1.7354408,5.6174519 -6e-7,8.035443 z"
         transform="scale(-0.6,-0.6)"
         inkscape:connector-curvature="0" />
    </marker>
    <marker
       inkscape:stockid="Arrow2Mend"
       orient="auto"
       refY="0"
       refX="0"
       id="marker4223"
       style="overflow:visible">
      <path
         id="path4225"
         style="fill-rule:evenodd;stroke-width:0.625;stroke-linejoin:round"
         d="M 8.7185878,4.0337352 -2.2072895,0.01601326 8.7185884,-4.0017078 c -1.7454984,2.3720609 -1.7354408,5.6174519 -6e-7,8.035443 z"
         transform="scale(-0.6,-0.6)"
         inkscape:connector-curvature="0" />
    </marker>
    <marker
       inkscape:stockid="Arrow2Mend"
       orient="auto"
       refY="0"
       refX="0"
       id="marker4227"
       style="overflow:visible">
      <path
         id="path4229"
         style="fill-rule:evenodd;stroke-width:0.625;stroke-linejoin:round"
         d="M 8.7185878,4.0337352 -2.2072895,0.01601326 8.7185884,-4.0017078 c -1.7454984,2.3720609 -1.7354408,5.6174519 -6e-7,8.035443 z"
         transform="scale(-0.6,-0.6)"
         inkscape:connector-curvature="0" />
    </marker>
    <marker
       inkscape:stockid="Arrow2Mend"
       orient="auto"
       refY="0"
       refX="0"
       id="Arrow2Mend-2375922"
       style="overflow:visible">
      <path
         id="path3867"
         style="fill-rule:evenodd;stroke-width:0.625;stroke-linejoin:round"
         d="M 8.7185878,4.0337352 -2.2072895,0.01601326 8.7185884,-4.0017078 c -1.7454984,2.3720609 -1.7354408,5.6174519 -6e-7,8.035443 z"
         transform="scale(-0.6,-0.6)"
         inkscape:connector-curvature="0" />
    </marker>
    <marker
       inkscape:stockid="Arrow2Mend"
       orient="auto"
       refY="0"
       refX="0"
       id="marker4286"
       style="overflow:visible">
      <path
         id="path4288"
         style="fill-rule:evenodd;stroke-width:0.625;stroke-linejoin:round"
         d="M 8.7185878,4.0337352 -2.2072895,0.01601326 8.7185884,-4.0017078 c -1.7454984,2.3720609 -1.7354408,5.6174519 -6e-7,8.035443 z"
         transform="scale(-0.6,-0.6)"
         inkscape:connector-curvature="0" />
    </marker>
    <marker
       inkscape:stockid="Arrow2Mend"
       orient="auto"
       refY="0"
       refX="0"
       id="marker4290"
       style="overflow:visible">
      <path
         id="path4292"
         style="fill-rule:evenodd;stroke-width:0.625;stroke-linejoin:round"
         d="M 8.7185878,4.0337352 -2.2072895,0.01601326 8.7185884,-4.0017078 c -1.7454984,2.3720609 -1.7354408,5.6174519 -6e-7,8.035443 z"
         transform="scale(-0.6,-0.6)"
         inkscape:connector-curvature="0" />
    </marker>
    <marker
       inkscape:stockid="Arrow2Mend"
       orient="auto"
       refY="0"
       refX="0"
       id="marker4294"
       style="overflow:visible">
      <path
         id="path4296"
         style="fill-rule:evenodd;stroke-width:0.625;stroke-linejoin:round"
         d="M 8.7185878,4.0337352 -2.2072895,0.01601326 8.7185884,-4.0017078 c -1.7454984,2.3720609 -1.7354408,5.6174519 -6e-7,8.035443 z"
         transform="scale(-0.6,-0.6)"
         inkscape:connector-curvature="0" />
    </marker>
    <marker
       inkscape:stockid="Arrow2Mend"
       orient="auto"
       refY="0"
       refX="0"
       id="Arrow2Mend-23759228"
       style="overflow:visible">
      <path
         id="path3961"
         style="fill-rule:evenodd;stroke-width:0.625;stroke-linejoin:round"
         d="M 8.7185878,4.0337352 -2.2072895,0.01601326 8.7185884,-4.0017078 c -1.7454984,2.3720609 -1.7354408,5.6174519 -6e-7,8.035443 z"
         transform="scale(-0.6,-0.6)"
         inkscape:connector-curvature="0" />
    </marker>
    <marker
       inkscape:stockid="Arrow2Mend"
       orient="auto"
       refY="0"
       refX="0"
       id="marker4185"
       style="overflow:visible">
      <path
         id="path4187"
         style="fill-rule:evenodd;stroke-width:0.625;stroke-linejoin:round"
         d="M 8.7185878,4.0337352 -2.2072895,0.01601326 8.7185884,-4.0017078 c -1.7454984,2.3720609 -1.7354408,5.6174519 -6e-7,8.035443 z"
         transform="scale(-0.6,-0.6)"
         inkscape:connector-curvature="0" />
    </marker>
    <marker
       inkscape:stockid="Arrow2Mend"
       orient="auto"
       refY="0"
       refX="0"
       id="marker4189"
       style="overflow:visible">
      <path
         id="path4191"
         style="fill-rule:evenodd;stroke-width:0.625;stroke-linejoin:round"
         d="M 8.7185878,4.0337352 -2.2072895,0.01601326 8.7185884,-4.0017078 c -1.7454984,2.3720609 -1.7354408,5.6174519 -6e-7,8.035443 z"
         transform="scale(-0.6,-0.6)"
         inkscape:connector-curvature="0" />
    </marker>
    <marker
       inkscape:stockid="Arrow2Mend"
       orient="auto"
       refY="0"
       refX="0"
       id="marker4193"
       style="overflow:visible">
      <path
         id="path4195"
         style="fill-rule:evenodd;stroke-width:0.625;stroke-linejoin:round"
         d="M 8.7185878,4.0337352 -2.2072895,0.01601326 8.7185884,-4.0017078 c -1.7454984,2.3720609 -1.7354408,5.6174519 -6e-7,8.035443 z"
         transform="scale(-0.6,-0.6)"
         inkscape:connector-curvature="0" />
    </marker>
  </defs>
  <sodipodi:namedview
     id="base"
     pagecolor="#ffffff"
     bordercolor="#666666"
     borderopacity="1.0"
     inkscape:pageopacity="0.0"
     inkscape:pageshadow="2"
     inkscape:zoom="5.6"
     inkscape:cx="43.659739"
     inkscape:cy="68.44406"
     inkscape:document-units="px"
     inkscape:current-layer="layer1"
     showgrid="true"
     inkscape:object-paths="false"
     inkscape:window-width="1920"
     inkscape:window-height="1015"
     inkscape:window-x="0"
     inkscape:window-y="0"
     inkscape:window-maximized="1"
     inkscape:showpageshadow="false"
     fit-margin-top="5"
     fit-margin-left="5"
     fit-margin-right="5"
     fit-margin-bottom="5"
     inkscape:snap-intersection-paths="false"
     inkscape:snap-midpoints="false"
     inkscape:snap-smooth-nodes="false"
     inkscape:object-nodes="true">
    <inkscape:grid
       type="xygrid"
       id="grid838"
       originx="-148.50001"
       originy="226.50002" />
  </sodipodi:namedview>
  <metadata
     id="metadata3085">
    <rdf:RDF>
      <cc:Work
         rdf:about="">
        <dc:format>image/svg+xml</dc:format>
        <dc:type
           rdf:resource="http://purl.org/dc/dcmitype/StillImage" />
        <dc:title></dc:title>
      </cc:Work>
    </rdf:RDF>
  </metadata>
  <g
     inkscape:label="Layer 1"
     inkscape:groupmode="layer"
     id="layer1"
     transform="translate(-454.90335,-860.42969)">
    <path
       id="path2996-5-2"
       style="fill:#b3b3b3;stroke:#000000;stroke-width:0.50038117px;stroke-linecap:butt;stroke-linejoin:miter;stroke-opacity:1"
       d="m 491.40334,806.92967 c -15.26138,0 -20.34851,19.68744 -5.08712,24.60931 2.54355,2.46093 0,9.84371 5.08712,22.14837 3.68216,8.90635 10.17425,24.04147 2.54357,31.42423 -7.63069,7.38284 -17.44158,1.05471 -22.52871,-11.24993 -0.75172,-1.4546 -2.90692,-3.51563 -5.45049,-3.51563 -3.59714,0 2.54357,3.76226 2.54357,9.84372 0,7.38284 5.08712,14.7656 10.17425,17.22653 6.43476,3.11287 15.52614,2.91758 20.3485,0 20.34851,-12.31095 3.7775,-32.76459 -2.54357,-51.11171 -2.54355,-7.38279 -2.54355,-12.30465 0,-14.76558 15.26139,-4.92187 10.17426,-24.60931 -5.08712,-24.60931 z m 0,4.92186 c 4.21431,0 7.63069,3.30538 7.63069,7.38279 0,4.0774 -3.41638,7.38279 -7.63069,7.38279 -4.21431,0 -7.63069,-3.30539 -7.63069,-7.38279 0,-4.07741 3.41638,-7.38279 7.63069,-7.38279 z"
       inkscape:connector-curvature="0"
       sodipodi:nodetypes="scsscssssscssssss" />
    <path
       style="fill:none;fill-rule:evenodd;stroke:#000000;stroke-width:3;stroke-linecap:butt;stroke-linejoin:miter;stroke-miterlimit:4;stroke-dasharray:none;stroke-opacity:1"
       d="m 491.40334,961.92966 c 0,-7.92428 0.50235,-13.83914 1.1886,-18.38152 m 1.19447,-6.14324 c 1.28774,-5.31928 2.61693,-7.89726 2.61693,-10.47524 0,-0.93706 -0.17562,-1.6985 -0.46102,-2.35015 m -3.75672,-4.67942 c -0.46931,-0.78159 -0.78226,-1.71953 -0.78226,-2.97043 0,-5 10,-10 10,-25 0,-12.20102 -6.61622,-14.47771 -9.08537,-6.83008 m 0.3244,15.38453 c 0.62532,2.01956 1.22219,3.78017 1.76977,5.34232 m 2.39937,7.00881 c 0.42174,1.48347 0.66326,2.78894 0.66326,4.09442 0,5 -6.07143,5 -6.07143,10 0,1.19813 0.57421,2.10916 1.44744,2.87068 m 5.33871,3.05824 c 1.78097,1.00218 3.21385,2.17841 3.21385,4.07108 0,2.65 -7.02248,3.8955 -13.62363,3.7365 m -6.23406,-0.637 c -3.0143,-0.60756 -5.14231,-1.64073 -5.14231,-3.0995 0,-5 10,-5 10,-10 0,-1.07165 -0.2461,-1.91362 -0.63279,-2.62436 m -3.96096,-4.52462 c -0.46104,-0.75753 -0.76339,-1.66318 -0.76339,-2.85102 0,-3.90629 1.46079,-7.81259 4.13103,-16.48741 m 0.81935,-13.31452 c -1.87496,-9.97677 -9.59324,-8.37613 -9.59324,4.80193 0,6.28395 1.75502,10.81287 3.7946,14.32201 m 4.39845,6.41139 c 1.07173,1.55511 1.80695,2.91085 1.80695,4.2666 0,5 -5,5 -5,10 0,0.5124 0.0525,1.02479 0.14677,1.55872 m 1.66328,5.89296 c 1.4313,4.92951 3.18995,12.72162 3.18995,27.54832"
       id="path4949"
       inkscape:connector-curvature="0"
       sodipodi:nodetypes="czzsccszzzzsccszzc"
       inkscape:path-effect="#path-effect4955"
       inkscape:original-d="m 491.40334,961.92966 c 0,-25 5,-30 5,-35 0,-5 -5,-5 -5,-10 0,-5 10,-10 10,-25 0,-12.20102 -6.61622,-14.47771 -9.08537,-6.83008 m 0.3244,15.38453 c 2.67695,8.64554 4.8324,12.54554 4.8324,16.44555 0,5 -6.07143,5 -6.07143,10 0,5 10,5 10,10 0,5 -25,5 -25,0 0,-5 10,-5 10,-10 0,-5 -5.35714,-5 -5.35714,-10 0,-3.90629 1.46079,-7.81259 4.13103,-16.48741 m 0.81935,-13.31452 c -1.87496,-9.97677 -9.59324,-8.37613 -9.59324,4.80193 0,15 10,20 10,25 0,5 -5,5 -5,10 0,5 5,10 5,35" />
  </g>
</svg>
