<?xml version="1.0" encoding="UTF-8" standalone="no"?>
<!-- Created with Inkscape (http://www.inkscape.org/) -->

<svg
   xmlns:dc="http://purl.org/dc/elements/1.1/"
   xmlns:cc="http://creativecommons.org/ns#"
   xmlns:rdf="http://www.w3.org/1999/02/22-rdf-syntax-ns#"
   xmlns:svg="http://www.w3.org/2000/svg"
   xmlns="http://www.w3.org/2000/svg"
   xmlns:sodipodi="http://sodipodi.sourceforge.net/DTD/sodipodi-0.dtd"
   xmlns:inkscape="http://www.inkscape.org/namespaces/inkscape"
   width="97.999992"
   height="112.99997"
   id="svg3080"
   version="1.1"
   inkscape:version="0.91 r13725"
   sodipodi:docname="Single_Cats-Paw_2_2.svg">
  <defs
     id="defs3082">
    <inkscape:path-effect
       effect="knot"
       id="path-effect16485"
       is_visible="true"
       interruption_width="3"
       prop_to_stroke_width="false"
       add_stroke_width="true"
       add_other_stroke_width="false"
       switcher_size="15"
       crossing_points_vector="494.75145 | 1053.6586 | 0 | 0 | 1 | 20 | 0.44575086 | 6.5759895 | 1 | 495.43894 | 1062.629 | 0 | 1 | 0 | 4 | 0.30391547 | 3.8503675 | -1 | 494.21568 | 1045.1511 | 0 | 2 | 2 | 7 | 0.61743713 | 2.7454723 | 1 | 501.5695 | 1052.9253 | 0 | 0 | 4 | 19 | 1.5221397 | 6.4680748 | 1 | 503.46649 | 1062.3562 | 0 | 1 | 5 | 5 | 1.7533938 | 3.9658363 | -1 | 500.05106 | 1044.4412 | 0 | 2 | 3 | 6 | 1.3266421 | 2.6961957 | 1 | 508.90334 | 1051.7819 | 0 | 0 | 7 | 18 | 2.5032844 | 6.3527372 | 1 | 508.66214 | 1061.5256 | 0 | 1 | 6 | 6 | 2.2706772 | 4.025642 | -1 | 509.08639 | 1043.0659 | 0 | 2 | 8 | 5 | 2.7091756 | 2.6156602 | 1 | 516.55234 | 1050.1739 | 0 | 0 | 10 | 17 | 3.5198559 | 6.2237464 | 1 | 518.74824 | 1058.898 | 0 | 1 | 11 | 7 | 3.7825705 | 4.1567966 | -1 | 514.73375 | 1042.0108 | 0 | 2 | 9 | 4 | 3.2897754 | 2.5618128 | 1 | 523.90349 | 1047.9954 | 0 | 0 | 13 | 16 | 4.5195573 | 6.0712877 | 1 | 523.7002 | 1056.9292 | 0 | 1 | 12 | 8 | 4.283435 | 4.2355028 | -1 | 524.117 | 1039.8367 | 0 | 2 | 14 | 3 | 4.7202405 | 2.4634051 | 1 | 532.17618 | 1037.373 | 0 | 2 | 15 | 2 | 5.5722766 | 2.3642125 | 1 | 483.99609 | 1053.9173 | 0 | 1 | 21 | 3 | 6.7689327 | 3.4426471 | 1 | 475.3306 | 1038.06 | 0 | 1 | 23 | 1 | 7.6743421 | 2.6685852 | 1 | 474.21736 | 1046.6611 | 0 | 2 | 22 | 9 | 7.2853183 | 2.9038229 | 1 | 471.59192 | 1018.6811 | 0 | 1 | 24 | 0 | 8.8832382 | 1.6790545 | 1 | 483.01096 | 1046.1651 | 1 | 2 | 2 | 8 | 3.1912693 | 2.8358001 | -1 | 541.37719 | 1033.1735 | 1 | 2 | 9 | 1 | 4.9593332 | 2.21127 | 1 | 539.28239 | 1017.3559 | 1 | 2 | 10 | 0 | 5.4866718 | 1.6168461 | 1" />
    <marker
       inkscape:isstock="true"
       style="overflow:visible"
       id="marker12325"
       refX="0"
       refY="0"
       orient="auto"
       inkscape:stockid="Arrow1Mend">
      <path
         inkscape:connector-curvature="0"
         transform="matrix(-0.4,0,0,-0.4,-4,0)"
         style="fill:#ff0000;fill-opacity:1;fill-rule:evenodd;stroke:#ff0000;stroke-width:1pt;stroke-opacity:1"
         d="M 0,0 5,-5 -12.5,0 5,5 0,0 Z"
         id="path12327" />
    </marker>
    <marker
       inkscape:stockid="Arrow1Mend"
       orient="auto"
       refY="0"
       refX="0"
       id="marker11949"
       style="overflow:visible"
       inkscape:isstock="true">
      <path
         id="path11951"
         d="M 0,0 5,-5 -12.5,0 5,5 0,0 Z"
         style="fill:#ff0000;fill-opacity:1;fill-rule:evenodd;stroke:#ff0000;stroke-width:1pt;stroke-opacity:1"
         transform="matrix(-0.4,0,0,-0.4,-4,0)"
         inkscape:connector-curvature="0" />
    </marker>
    <marker
       inkscape:isstock="true"
       style="overflow:visible"
       id="marker8103"
       refX="0"
       refY="0"
       orient="auto"
       inkscape:stockid="Arrow1Mend">
      <path
         inkscape:connector-curvature="0"
         transform="matrix(-0.4,0,0,-0.4,-4,0)"
         style="fill:#ff0000;fill-opacity:1;fill-rule:evenodd;stroke:#ff0000;stroke-width:1pt;stroke-opacity:1"
         d="M 0,0 5,-5 -12.5,0 5,5 0,0 Z"
         id="path8105" />
    </marker>
    <marker
       inkscape:isstock="true"
       style="overflow:visible"
       id="marker7733"
       refX="0"
       refY="0"
       orient="auto"
       inkscape:stockid="Arrow1Mend">
      <path
         inkscape:connector-curvature="0"
         transform="matrix(-0.4,0,0,-0.4,-4,0)"
         style="fill:#ff0000;fill-opacity:1;fill-rule:evenodd;stroke:#ff0000;stroke-width:1pt;stroke-opacity:1"
         d="M 0,0 5,-5 -12.5,0 5,5 0,0 Z"
         id="path7735" />
    </marker>
    <inkscape:path-effect
       effect="knot"
       id="path-effect4599"
       is_visible="true"
       interruption_width="3"
       prop_to_stroke_width="false"
       add_stroke_width="true"
       add_other_stroke_width="false"
       switcher_size="15"
       crossing_points_vector="457.95808 | 936.80544 | 0 | 0 | 0 | 21 | 0.38285961 | 6.9060145 | 1 | 456.93829 | 926.98546 | 0 | 0 | 1 | 26 | 0.54165236 | 13.035661 | -1 | 458.49177 | 917.31966 | 0 | 0 | 2 | 41 | 0.73976637 | 21.834102 | 1 | 475.86849 | 933.43506 | 0 | 0 | 4 | 19 | 1.525111 | 6.3640236 | 1 | 476.30789 | 940.46386 | 0 | 0 | 5 | 28 | 1.6464223 | 13.80662 | -1 | 473.75313 | 918.42234 | 0 | 0 | 3 | 40 | 1.2553549 | 21.665324 | 1 | 486.40332 | 932.40015 | 0 | 0 | 7 | 18 | 2.4921579 | 6.1894646 | 1 | 486.19393 | 941.92915 | 0 | 0 | 6 | 29 | 2.3263615 | 13.996531 | -1 | 486.81094 | 919.73694 | 0 | 0 | 8 | 39 | 2.7167985 | 21.528806 | 1 | 496.40334 | 931.97775 | 0 | 0 | 10 | 17 | 3.5008016 | 6.0577466 | 1 | 496.6106 | 941.89764 | 0 | 0 | 11 | 30 | 3.6730416 | 14.185745 | -1 | 496.11351 | 920.8989 | 0 | 0 | 9 | 38 | 3.3064929 | 21.428226 | 1 | 506.40551 | 931.66871 | 0 | 0 | 13 | 16 | 4.5378441 | 5.9396633 | 1 | 506.28207 | 941.5916 | 0 | 0 | 12 | 31 | 4.3552694 | 14.407393 | -1 | 506.74399 | 922.55847 | 0 | 0 | 14 | 37 | 4.7042129 | 21.300453 | 1 | 519.45325 | 925.76447 | 0 | 0 | 15 | 36 | 5.6708177 | 21.077837 | 1 | 466.42748 | 935.03137 | 0 | 0 | 20 | 27 | 6.5809346 | 13.526767 | 1 | 451.40334 | 931.92966 | 0 | 0 | 22 | 25 | 7.5 | 12.5 | 1 | 440.22246 | 931.92965 | 0 | 0 | 23 | 24 | 8.6527032 | 11.347296 | 1 | 525.22246 | 931.92965 | 0 | 0 | 32 | 35 | 15.347297 | 20.652704 | 1 | 537.58422 | 931.92965 | 0 | 0 | 33 | 34 | 16.652703 | 19.347296 | 1" />
    <inkscape:path-effect
       effect="knot"
       id="path-effect4955"
       is_visible="true"
       interruption_width="3"
       prop_to_stroke_width="false"
       add_stroke_width="true"
       add_other_stroke_width="false"
       switcher_size="15"
       crossing_points_vector="495.47929 | 931.46289 | 0 | 1 | 1 | 2 | 0.7253947 | 2.4380804 | -1 | 493.11776 | 940.48342 | 0 | 1 | 0 | 3 | 0.39365294 | 3.3856201 | -1 | 494.14528 | 922.17227 | 0 | 1 | 2 | 1 | 1.467697 | 1.5323031 | -1 | 495.64277 | 909.28696 | 0 | 1 | 3 | 0 | 2.4491195 | 0.42420351 | -1 | 484.68892 | 940.48342 | 1 | 2 | 4 | 3 | 3.6143799 | 3.6063469 | 1 | 482.3274 | 931.46288 | 1 | 2 | 5 | 2 | 4.5619206 | 3.274605 | 1 | 483.81713 | 922.0159 | 1 | 2 | 6 | 1 | 5.4885038 | 2.5114962 | 1 | 482.36472 | 909.57013 | 1 | 2 | 7 | 0 | 6.5574996 | 1.5644486 | 1" />
    <inkscape:path-effect
       effect="knot"
       id="path-effect5644"
       is_visible="true"
       interruption_width="3"
       prop_to_stroke_width="false"
       add_stroke_width="true"
       add_other_stroke_width="false"
       switcher_size="15"
       crossing_points_vector="493.425 | 924.40922 | 0 | 2 | 0 | 1 | 0.39388586 | 1.5260732 | 1 | 499.2926 | 912.25678 | 0 | 2 | 1 | 2 | 0.85833601 | 2.1621577 | 1 | 485.95637 | 885.74371 | 0 | 1 | 2 | 2 | 2.8932137 | 1.6861634 | -1 | 482.67112 | 908.36814 | 1 | 2 | 0 | 4 | 0.22277907 | 2.5837206 | -1 | 491.36904 | 907.92043 | 1 | 2 | 1 | 3 | 0.96579358 | 2.3877661 | -1 | 474.8883 | 915.28744 | 2 | 2 | 0 | 5 | 0.94561332 | 2.7876114 | 1" />
    <marker
       inkscape:isstock="true"
       style="overflow:visible"
       id="marker4734"
       refX="0"
       refY="0"
       orient="auto"
       inkscape:stockid="Arrow1Mend">
      <path
         inkscape:connector-curvature="0"
         transform="matrix(-0.4,0,0,-0.4,-4,0)"
         style="fill:#b3b3b3;fill-opacity:1;fill-rule:evenodd;stroke:#000000;stroke-width:1pt;stroke-opacity:1"
         d="M 0,0 5,-5 -12.5,0 5,5 0,0 Z"
         id="path4736" />
    </marker>
    <marker
       inkscape:isstock="true"
       style="overflow:visible"
       id="marker4600"
       refX="0"
       refY="0"
       orient="auto"
       inkscape:stockid="Arrow1Mend">
      <path
         inkscape:connector-curvature="0"
         transform="matrix(-0.4,0,0,-0.4,-4,0)"
         style="fill:#000000;fill-opacity:1;fill-rule:evenodd;stroke:#000000;stroke-width:1pt;stroke-opacity:1"
         d="M 0,0 5,-5 -12.5,0 5,5 0,0 Z"
         id="path4602" />
    </marker>
    <marker
       inkscape:isstock="true"
       style="overflow:visible"
       id="marker4470"
       refX="0"
       refY="0"
       orient="auto"
       inkscape:stockid="Arrow1Mend">
      <path
         inkscape:connector-curvature="0"
         transform="matrix(-0.4,0,0,-0.4,-4,0)"
         style="fill:#ff0000;fill-opacity:1;fill-rule:evenodd;stroke:#ff0000;stroke-width:1pt;stroke-opacity:1"
         d="M 0,0 5,-5 -12.5,0 5,5 0,0 Z"
         id="path4472" />
    </marker>
    <inkscape:path-effect
       effect="knot"
       id="path-effect4510"
       is_visible="true"
       interruption_width="3"
       prop_to_stroke_width="false"
       add_stroke_width="true"
       add_other_stroke_width="false"
       switcher_size="15"
       crossing_points_vector="499.04361 | 905.63451 | 0 | 1 | 0 | 0 | 0.77856924 | 2.1371777 | -1 | 490.8322 | 881.06686 | 0 | 2 | 1 | 0 | 1.3215928 | 0.29319945 | 1 | 477.80433 | 875.36615 | 0 | 2 | 2 | 1 | 1.8221458 | 1.3456321 | 1" />
    <inkscape:path-effect
       effect="knot"
       id="path-effect4508"
       is_visible="true"
       interruption_width="3"
       prop_to_stroke_width="false"
       add_stroke_width="true"
       add_other_stroke_width="false"
       switcher_size="15"
       crossing_points_vector="564.1571 | 881.92009 | 1 | 3 | 0 | 0 | 0.12640418 | 1.6324879 | 1" />
    <inkscape:path-effect
       effect="knot"
       id="path-effect4330"
       is_visible="true"
       interruption_width="3"
       prop_to_stroke_width="false"
       add_stroke_width="true"
       add_other_stroke_width="false"
       switcher_size="15"
       crossing_points_vector="574.10071 | 860.73008 | 1 | 2 | 1 | 0 | 1.4338181 | 1.4507078 | 1 | 568.50393 | 874.78897 | 1 | 3 | 0 | 0 | 1.1266988 | 0.27818176 | 1" />
    <inkscape:path-effect
       effect="knot"
       id="path-effect4293"
       is_visible="true"
       interruption_width="3"
       prop_to_stroke_width="false"
       add_stroke_width="true"
       add_other_stroke_width="false"
       switcher_size="15"
       crossing_points_vector="567.01813 | 924.14519 | 0 | 1 | 0 | 1 | 0.35366327 | 1.5474674 | -1 | 556.98282 | 912.38322 | 0 | 1 | 1 | 2 | 0.65933317 | 2.2172825 | -1 | 570.86864 | 888.12159 | 1 | 1 | 0 | 3 | 0.56147773 | 2.5940693 | -1" />
    <inkscape:path-effect
       crossing_points_vector="563.34662 | 878.32875 | 0 | 0 | 0 | 1 | 0.57478741 | 4.7005785 | -1"
       switcher_size="15"
       add_other_stroke_width="false"
       add_stroke_width="true"
       prop_to_stroke_width="false"
       interruption_width="3"
       is_visible="true"
       id="path-effect4381"
       effect="knot" />
    <inkscape:path-effect
       effect="knot"
       id="path-effect9059"
       is_visible="true"
       interruption_width="3"
       prop_to_stroke_width="false"
       add_stroke_width="true"
       add_other_stroke_width="false"
       switcher_size="15"
       crossing_points_vector="563.34662 | 878.32875 | 0 | 0 | 0 | 1 | 0.57478741 | 4.7005785 | -1" />
    <inkscape:path-effect
       effect="simplify"
       id="path-effect1032"
       is_visible="true"
       steps="1"
       threshold="0.00243902"
       smooth_angles="360"
       helper_size="0"
       simplify_individual_paths="false"
       simplify_just_coalesce="false"
       simplifyindividualpaths="false"
       simplifyJustCoalesce="false" />
    <marker
       inkscape:stockid="Arrow2Mend"
       orient="auto"
       refY="0"
       refX="0"
       id="Arrow2Mend"
       style="overflow:visible"
       inkscape:isstock="true">
      <path
         id="path908"
         style="fill:#ff0000;fill-opacity:1;fill-rule:evenodd;stroke:#ff0000;stroke-width:0.625;stroke-linejoin:round;stroke-opacity:1"
         d="M 8.7185878,4.0337352 -2.2072895,0.01601326 8.7185884,-4.0017078 c -1.7454984,2.3720609 -1.7354408,5.6174519 -6e-7,8.035443 z"
         transform="scale(-0.6,-0.6)"
         inkscape:connector-curvature="0" />
    </marker>
    <marker
       inkscape:stockid="Arrow2Lend"
       orient="auto"
       refY="0"
       refX="0"
       id="Arrow2Lend"
       style="overflow:visible"
       inkscape:isstock="true">
      <path
         id="path902"
         style="fill:#fe0000;fill-opacity:1;fill-rule:evenodd;stroke:#fe0000;stroke-width:0.625;stroke-linejoin:round;stroke-opacity:1"
         d="M 8.7185878,4.0337352 -2.2072895,0.01601326 8.7185884,-4.0017078 c -1.7454984,2.3720609 -1.7354408,5.6174519 -6e-7,8.035443 z"
         transform="matrix(-1.1,0,0,-1.1,-1.1,0)"
         inkscape:connector-curvature="0" />
    </marker>
    <marker
       inkscape:stockid="Arrow1Lstart"
       orient="auto"
       refY="0"
       refX="0"
       id="Arrow1Lstart"
       style="overflow:visible"
       inkscape:isstock="true">
      <path
         id="path881"
         d="M 0,0 5,-5 -12.5,0 5,5 Z"
         style="fill:#fe0000;fill-opacity:1;fill-rule:evenodd;stroke:#fe0000;stroke-width:1pt;stroke-opacity:1"
         transform="matrix(0.8,0,0,0.8,10,0)"
         inkscape:connector-curvature="0" />
    </marker>
    <inkscape:path-effect
       effect="knot"
       id="path-effect840"
       is_visible="true"
       interruption_width="3"
       prop_to_stroke_width="false"
       add_stroke_width="true"
       add_other_stroke_width="false"
       switcher_size="15"
       crossing_points_vector="555.9833 | 747.10163 | 0 | 0 | 0 | 1 | 0.6803812 | 2.7128593 | -1 | 552.23485 | 788.43362 | 0 | 0 | 2 | 7 | 3.2447083 | 9.4155824 | 1 | 554.77393 | 832.80342 | 0 | 0 | 3 | 8 | 3.5338778 | 10.513978 | 1 | 526.40166 | 839.74908 | 0 | 0 | 4 | 9 | 6.8382141 | 11.291791 | -1 | 519.26725 | 810.88166 | 0 | 0 | 5 | 10 | 7.6725215 | 12.32748 | -1 | 526.37124 | 784.03924 | 0 | 0 | 6 | 11 | 8.7301526 | 12.955812 | -1" />
    <filter
       id="filter3111"
       inkscape:label="Outline, double"
       inkscape:menu="Morphology"
       inkscape:menu-tooltip="Draws a smooth line inside colorized with the color it overlays"
       style="color-interpolation-filters:sRGB">
      <feGaussianBlur
         id="feGaussianBlur3113"
         stdDeviation="3"
         in="SourceAlpha"
         result="result1" />
      <feComposite
         id="feComposite3115"
         in2="result1"
         operator="arithmetic"
         k2="3.2"
         k1="-1"
         k4="-2"
         result="result3"
         k3="0" />
      <feColorMatrix
         id="feColorMatrix3117"
         values="0 0 0 0 0 0 1 0 0 0 0 0 1 0 0 0 0 0 10 0 "
         result="result2" />
      <feComposite
         id="feComposite3119"
         in2="result2"
         result="fbSourceGraphic"
         in="SourceGraphic"
         operator="out" />
      <feGaussianBlur
         id="feGaussianBlur3121"
         in="fbSourceGraphic"
         stdDeviation="0.5"
         result="result4" />
      <feComposite
         id="feComposite3123"
         in2="result4"
         operator="xor"
         in="result4"
         result="result5" />
      <feBlend
         id="feBlend3125"
         in2="result5"
         result="result6"
         mode="darken"
         in="result5" />
      <feBlend
         id="feBlend3127"
         in2="result6"
         in="result6"
         mode="darken" />
    </filter>
    <inkscape:path-effect
       effect="knot"
       id="path-effect840-2"
       is_visible="true"
       interruption_width="3"
       prop_to_stroke_width="false"
       add_stroke_width="true"
       add_other_stroke_width="false"
       switcher_size="15"
       crossing_points_vector="403.23988 | 875.24536 | 0 | 0 | 0 | 3 | 0.30583405 | 3.7905355 | -1 | 434.69018 | 856.18644 | 0 | 0 | 1 | 4 | 0.64654265 | 5.6367509 | 1 | 461.39463 | 867.49793 | 0 | 0 | 2 | 5 | 2.013941 | 6.3359148 | 1" />
    <marker
       inkscape:stockid="Arrow2Mend"
       orient="auto"
       refY="0"
       refX="0"
       id="Arrow2Mend-2"
       style="overflow:visible">
      <path
         id="path3886"
         style="fill-rule:evenodd;stroke-width:0.625;stroke-linejoin:round"
         d="M 8.7185878,4.0337352 -2.2072895,0.01601326 8.7185884,-4.0017078 c -1.7454984,2.3720609 -1.7354408,5.6174519 -6e-7,8.035443 z"
         transform="scale(-0.6,-0.6)"
         inkscape:connector-curvature="0" />
    </marker>
    <marker
       inkscape:stockid="Arrow2Mend"
       orient="auto"
       refY="0"
       refX="0"
       id="marker910"
       style="overflow:visible">
      <path
         id="path908-3"
         style="fill-rule:evenodd;stroke-width:0.625;stroke-linejoin:round"
         d="M 8.7185878,4.0337352 -2.2072895,0.01601326 8.7185884,-4.0017078 c -1.7454984,2.3720609 -1.7354408,5.6174519 -6e-7,8.035443 z"
         transform="scale(-0.6,-0.6)"
         inkscape:connector-curvature="0" />
    </marker>
    <marker
       inkscape:stockid="Arrow2Mend"
       orient="auto"
       refY="0"
       refX="0"
       id="marker914"
       style="overflow:visible">
      <path
         id="path912"
         style="fill-rule:evenodd;stroke-width:0.625;stroke-linejoin:round"
         d="M 8.7185878,4.0337352 -2.2072895,0.01601326 8.7185884,-4.0017078 c -1.7454984,2.3720609 -1.7354408,5.6174519 -6e-7,8.035443 z"
         transform="scale(-0.6,-0.6)"
         inkscape:connector-curvature="0" />
    </marker>
    <marker
       inkscape:stockid="Arrow2Mend"
       orient="auto"
       refY="0"
       refX="0"
       id="marker918"
       style="overflow:visible">
      <path
         id="path916"
         style="fill-rule:evenodd;stroke-width:0.625;stroke-linejoin:round"
         d="M 8.7185878,4.0337352 -2.2072895,0.01601326 8.7185884,-4.0017078 c -1.7454984,2.3720609 -1.7354408,5.6174519 -6e-7,8.035443 z"
         transform="scale(-0.6,-0.6)"
         inkscape:connector-curvature="0" />
    </marker>
    <marker
       inkscape:stockid="Arrow2Mend"
       orient="auto"
       refY="0"
       refX="0"
       id="marker922"
       style="overflow:visible">
      <path
         id="path920"
         style="fill-rule:evenodd;stroke-width:0.625;stroke-linejoin:round"
         d="M 8.7185878,4.0337352 -2.2072895,0.01601326 8.7185884,-4.0017078 c -1.7454984,2.3720609 -1.7354408,5.6174519 -6e-7,8.035443 z"
         transform="scale(-0.6,-0.6)"
         inkscape:connector-curvature="0" />
    </marker>
    <marker
       inkscape:stockid="Arrow2Mend"
       orient="auto"
       refY="0"
       refX="0"
       id="marker926"
       style="overflow:visible">
      <path
         id="path924"
         style="fill-rule:evenodd;stroke-width:0.625;stroke-linejoin:round"
         d="M 8.7185878,4.0337352 -2.2072895,0.01601326 8.7185884,-4.0017078 c -1.7454984,2.3720609 -1.7354408,5.6174519 -6e-7,8.035443 z"
         transform="scale(-0.6,-0.6)"
         inkscape:connector-curvature="0" />
    </marker>
    <marker
       inkscape:stockid="Arrow2Mend"
       orient="auto"
       refY="0"
       refX="0"
       id="Arrow2Mend-23"
       style="overflow:visible">
      <path
         id="path3940"
         style="fill-rule:evenodd;stroke-width:0.625;stroke-linejoin:round"
         d="M 8.7185878,4.0337352 -2.2072895,0.01601326 8.7185884,-4.0017078 c -1.7454984,2.3720609 -1.7354408,5.6174519 -6e-7,8.035443 z"
         transform="scale(-0.6,-0.6)"
         inkscape:connector-curvature="0" />
    </marker>
    <marker
       inkscape:stockid="Arrow2Mend"
       orient="auto"
       refY="0"
       refX="0"
       id="marker890"
       style="overflow:visible">
      <path
         id="path888"
         style="fill-rule:evenodd;stroke-width:0.625;stroke-linejoin:round"
         d="M 8.7185878,4.0337352 -2.2072895,0.01601326 8.7185884,-4.0017078 c -1.7454984,2.3720609 -1.7354408,5.6174519 -6e-7,8.035443 z"
         transform="scale(-0.6,-0.6)"
         inkscape:connector-curvature="0" />
    </marker>
    <marker
       inkscape:stockid="Arrow2Mend"
       orient="auto"
       refY="0"
       refX="0"
       id="marker894"
       style="overflow:visible">
      <path
         id="path892"
         style="fill-rule:evenodd;stroke-width:0.625;stroke-linejoin:round"
         d="M 8.7185878,4.0337352 -2.2072895,0.01601326 8.7185884,-4.0017078 c -1.7454984,2.3720609 -1.7354408,5.6174519 -6e-7,8.035443 z"
         transform="scale(-0.6,-0.6)"
         inkscape:connector-curvature="0" />
    </marker>
    <marker
       inkscape:stockid="Arrow2Mend"
       orient="auto"
       refY="0"
       refX="0"
       id="marker898"
       style="overflow:visible">
      <path
         id="path896"
         style="fill-rule:evenodd;stroke-width:0.625;stroke-linejoin:round"
         d="M 8.7185878,4.0337352 -2.2072895,0.01601326 8.7185884,-4.0017078 c -1.7454984,2.3720609 -1.7354408,5.6174519 -6e-7,8.035443 z"
         transform="scale(-0.6,-0.6)"
         inkscape:connector-curvature="0" />
    </marker>
    <marker
       inkscape:stockid="Arrow2Mend"
       orient="auto"
       refY="0"
       refX="0"
       id="Arrow2Mend-237"
       style="overflow:visible">
      <path
         id="path3837"
         style="fill-rule:evenodd;stroke-width:0.625;stroke-linejoin:round"
         d="M 8.7185878,4.0337352 -2.2072895,0.01601326 8.7185884,-4.0017078 c -1.7454984,2.3720609 -1.7354408,5.6174519 -6e-7,8.035443 z"
         transform="scale(-0.6,-0.6)"
         inkscape:connector-curvature="0" />
    </marker>
    <marker
       inkscape:stockid="Arrow2Mend"
       orient="auto"
       refY="0"
       refX="0"
       id="marker4177"
       style="overflow:visible">
      <path
         id="path4179"
         style="fill-rule:evenodd;stroke-width:0.625;stroke-linejoin:round"
         d="M 8.7185878,4.0337352 -2.2072895,0.01601326 8.7185884,-4.0017078 c -1.7454984,2.3720609 -1.7354408,5.6174519 -6e-7,8.035443 z"
         transform="scale(-0.6,-0.6)"
         inkscape:connector-curvature="0" />
    </marker>
    <inkscape:path-effect
       crossing_points_vector="566.40336 | 819.48052 | 0 | 1 | 0 | 0 | 0.44550334 | 1.2743027 | 1"
       switcher_size="15"
       add_other_stroke_width="false"
       add_stroke_width="true"
       prop_to_stroke_width="false"
       interruption_width="3"
       is_visible="true"
       id="path-effect4381-2"
       effect="knot" />
    <marker
       inkscape:stockid="Arrow2Mend"
       orient="auto"
       refY="0"
       refX="0"
       id="Arrow2Mend-2375"
       style="overflow:visible">
      <path
         id="path3837-9"
         style="fill-rule:evenodd;stroke-width:0.625;stroke-linejoin:round"
         d="M 8.7185878,4.0337352 -2.2072895,0.01601326 8.7185884,-4.0017078 c -1.7454984,2.3720609 -1.7354408,5.6174519 -6e-7,8.035443 z"
         transform="scale(-0.6,-0.6)"
         inkscape:connector-curvature="0" />
    </marker>
    <marker
       inkscape:stockid="Arrow2Mend"
       orient="auto"
       refY="0"
       refX="0"
       id="marker4179"
       style="overflow:visible">
      <path
         id="path4181"
         style="fill-rule:evenodd;stroke-width:0.625;stroke-linejoin:round"
         d="M 8.7185878,4.0337352 -2.2072895,0.01601326 8.7185884,-4.0017078 c -1.7454984,2.3720609 -1.7354408,5.6174519 -6e-7,8.035443 z"
         transform="scale(-0.6,-0.6)"
         inkscape:connector-curvature="0" />
    </marker>
    <marker
       inkscape:stockid="Arrow2Mend"
       orient="auto"
       refY="0"
       refX="0"
       id="marker4183"
       style="overflow:visible">
      <path
         id="path4185"
         style="fill-rule:evenodd;stroke-width:0.625;stroke-linejoin:round"
         d="M 8.7185878,4.0337352 -2.2072895,0.01601326 8.7185884,-4.0017078 c -1.7454984,2.3720609 -1.7354408,5.6174519 -6e-7,8.035443 z"
         transform="scale(-0.6,-0.6)"
         inkscape:connector-curvature="0" />
    </marker>
    <marker
       inkscape:stockid="Arrow2Mend"
       orient="auto"
       refY="0"
       refX="0"
       id="marker4187"
       style="overflow:visible">
      <path
         id="path4189"
         style="fill-rule:evenodd;stroke-width:0.625;stroke-linejoin:round"
         d="M 8.7185878,4.0337352 -2.2072895,0.01601326 8.7185884,-4.0017078 c -1.7454984,2.3720609 -1.7354408,5.6174519 -6e-7,8.035443 z"
         transform="scale(-0.6,-0.6)"
         inkscape:connector-curvature="0" />
    </marker>
    <marker
       inkscape:stockid="Arrow1Mend"
       orient="auto"
       refY="0"
       refX="0"
       id="Arrow1Mend"
       style="overflow:visible"
       inkscape:isstock="true">
      <path
         id="path4161"
         d="M 0,0 5,-5 -12.5,0 5,5 0,0 Z"
         style="fill:#ff0000;fill-opacity:1;fill-rule:evenodd;stroke:#ff0000;stroke-width:1pt;stroke-opacity:1"
         transform="matrix(-0.4,0,0,-0.4,-4,0)"
         inkscape:connector-curvature="0" />
    </marker>
    <marker
       inkscape:stockid="Arrow1Mend"
       orient="auto"
       refY="0"
       refX="0"
       id="marker4269"
       style="overflow:visible"
       inkscape:isstock="true">
      <path
         id="path4271"
         d="M 0,0 5,-5 -12.5,0 5,5 0,0 Z"
         style="fill:#ff0000;fill-opacity:1;fill-rule:evenodd;stroke:#ff0000;stroke-width:1pt;stroke-opacity:1"
         transform="matrix(-0.4,0,0,-0.4,-4,0)"
         inkscape:connector-curvature="0" />
    </marker>
    <marker
       inkscape:stockid="Arrow1Mend"
       orient="auto"
       refY="0"
       refX="0"
       id="Arrow1Mend-8"
       style="overflow:visible"
       inkscape:isstock="true">
      <path
         id="path4161-9"
         d="M 0,0 5,-5 -12.5,0 5,5 0,0 Z"
         style="fill:#ff0000;fill-opacity:1;fill-rule:evenodd;stroke:#ff0000;stroke-width:1pt;stroke-opacity:1"
         transform="matrix(-0.4,0,0,-0.4,-4,0)"
         inkscape:connector-curvature="0" />
    </marker>
    <marker
       inkscape:stockid="Arrow1Mend"
       orient="auto"
       refY="0"
       refX="0"
       id="marker10242"
       style="overflow:visible"
       inkscape:isstock="true">
      <path
         id="path10244"
         d="M 0,0 5,-5 -12.5,0 5,5 0,0 Z"
         style="fill:#ff0000;fill-opacity:1;fill-rule:evenodd;stroke:#ff0000;stroke-width:1pt;stroke-opacity:1"
         transform="matrix(-0.4,0,0,-0.4,-4,0)"
         inkscape:connector-curvature="0" />
    </marker>
    <marker
       inkscape:stockid="Arrow2Mend"
       orient="auto"
       refY="0"
       refX="0"
       id="Arrow2Mend-23759"
       style="overflow:visible">
      <path
         id="path3820"
         style="fill-rule:evenodd;stroke-width:0.625;stroke-linejoin:round"
         d="M 8.7185878,4.0337352 -2.2072895,0.01601326 8.7185884,-4.0017078 c -1.7454984,2.3720609 -1.7354408,5.6174519 -6e-7,8.035443 z"
         transform="scale(-0.6,-0.6)"
         inkscape:connector-curvature="0" />
    </marker>
    <marker
       inkscape:stockid="Arrow2Mend"
       orient="auto"
       refY="0"
       refX="0"
       id="marker4187-2"
       style="overflow:visible">
      <path
         id="path4189-2"
         style="fill-rule:evenodd;stroke-width:0.625;stroke-linejoin:round"
         d="M 8.7185878,4.0337352 -2.2072895,0.01601326 8.7185884,-4.0017078 c -1.7454984,2.3720609 -1.7354408,5.6174519 -6e-7,8.035443 z"
         transform="scale(-0.6,-0.6)"
         inkscape:connector-curvature="0" />
    </marker>
    <marker
       inkscape:stockid="Arrow2Mend"
       orient="auto"
       refY="0"
       refX="0"
       id="marker4191"
       style="overflow:visible">
      <path
         id="path4193"
         style="fill-rule:evenodd;stroke-width:0.625;stroke-linejoin:round"
         d="M 8.7185878,4.0337352 -2.2072895,0.01601326 8.7185884,-4.0017078 c -1.7454984,2.3720609 -1.7354408,5.6174519 -6e-7,8.035443 z"
         transform="scale(-0.6,-0.6)"
         inkscape:connector-curvature="0" />
    </marker>
    <marker
       inkscape:stockid="Arrow2Mend"
       orient="auto"
       refY="0"
       refX="0"
       id="marker4195"
       style="overflow:visible">
      <path
         id="path4197"
         style="fill-rule:evenodd;stroke-width:0.625;stroke-linejoin:round"
         d="M 8.7185878,4.0337352 -2.2072895,0.01601326 8.7185884,-4.0017078 c -1.7454984,2.3720609 -1.7354408,5.6174519 -6e-7,8.035443 z"
         transform="scale(-0.6,-0.6)"
         inkscape:connector-curvature="0" />
    </marker>
    <marker
       inkscape:stockid="Arrow1Mend"
       orient="auto"
       refY="0"
       refX="0"
       id="marker11909"
       style="overflow:visible"
       inkscape:isstock="true">
      <path
         id="path11911"
         d="M 0,0 5,-5 -12.5,0 5,5 0,0 Z"
         style="fill:#ff0000;fill-opacity:1;fill-rule:evenodd;stroke:#ff0000;stroke-width:1pt;stroke-opacity:1"
         transform="matrix(-0.4,0,0,-0.4,-4,0)"
         inkscape:connector-curvature="0" />
    </marker>
    <marker
       inkscape:stockid="Arrow2Mend"
       orient="auto"
       refY="0"
       refX="0"
       id="Arrow2Mend-237592"
       style="overflow:visible">
      <path
         id="path3837-2"
         style="fill-rule:evenodd;stroke-width:0.625;stroke-linejoin:round"
         d="M 8.7185878,4.0337352 -2.2072895,0.01601326 8.7185884,-4.0017078 c -1.7454984,2.3720609 -1.7354408,5.6174519 -6e-7,8.035443 z"
         transform="scale(-0.6,-0.6)"
         inkscape:connector-curvature="0" />
    </marker>
    <marker
       inkscape:stockid="Arrow2Mend"
       orient="auto"
       refY="0"
       refX="0"
       id="marker4195-8"
       style="overflow:visible">
      <path
         id="path4197-9"
         style="fill-rule:evenodd;stroke-width:0.625;stroke-linejoin:round"
         d="M 8.7185878,4.0337352 -2.2072895,0.01601326 8.7185884,-4.0017078 c -1.7454984,2.3720609 -1.7354408,5.6174519 -6e-7,8.035443 z"
         transform="scale(-0.6,-0.6)"
         inkscape:connector-curvature="0" />
    </marker>
    <marker
       inkscape:stockid="Arrow2Mend"
       orient="auto"
       refY="0"
       refX="0"
       id="marker4199"
       style="overflow:visible">
      <path
         id="path4201"
         style="fill-rule:evenodd;stroke-width:0.625;stroke-linejoin:round"
         d="M 8.7185878,4.0337352 -2.2072895,0.01601326 8.7185884,-4.0017078 c -1.7454984,2.3720609 -1.7354408,5.6174519 -6e-7,8.035443 z"
         transform="scale(-0.6,-0.6)"
         inkscape:connector-curvature="0" />
    </marker>
    <marker
       inkscape:stockid="Arrow2Mend"
       orient="auto"
       refY="0"
       refX="0"
       id="marker4203"
       style="overflow:visible">
      <path
         id="path4205"
         style="fill-rule:evenodd;stroke-width:0.625;stroke-linejoin:round"
         d="M 8.7185878,4.0337352 -2.2072895,0.01601326 8.7185884,-4.0017078 c -1.7454984,2.3720609 -1.7354408,5.6174519 -6e-7,8.035443 z"
         transform="scale(-0.6,-0.6)"
         inkscape:connector-curvature="0" />
    </marker>
    <marker
       inkscape:stockid="Arrow2Mend"
       orient="auto"
       refY="0"
       refX="0"
       id="marker4207"
       style="overflow:visible">
      <path
         id="path4209"
         style="fill-rule:evenodd;stroke-width:0.625;stroke-linejoin:round"
         d="M 8.7185878,4.0337352 -2.2072895,0.01601326 8.7185884,-4.0017078 c -1.7454984,2.3720609 -1.7354408,5.6174519 -6e-7,8.035443 z"
         transform="scale(-0.6,-0.6)"
         inkscape:connector-curvature="0" />
    </marker>
    <marker
       inkscape:stockid="Arrow2Mend"
       orient="auto"
       refY="0"
       refX="0"
       id="marker4211"
       style="overflow:visible">
      <path
         id="path4213"
         style="fill-rule:evenodd;stroke-width:0.625;stroke-linejoin:round"
         d="M 8.7185878,4.0337352 -2.2072895,0.01601326 8.7185884,-4.0017078 c -1.7454984,2.3720609 -1.7354408,5.6174519 -6e-7,8.035443 z"
         transform="scale(-0.6,-0.6)"
         inkscape:connector-curvature="0" />
    </marker>
    <marker
       inkscape:stockid="Arrow2Mend"
       orient="auto"
       refY="0"
       refX="0"
       id="marker4215"
       style="overflow:visible">
      <path
         id="path4217"
         style="fill-rule:evenodd;stroke-width:0.625;stroke-linejoin:round"
         d="M 8.7185878,4.0337352 -2.2072895,0.01601326 8.7185884,-4.0017078 c -1.7454984,2.3720609 -1.7354408,5.6174519 -6e-7,8.035443 z"
         transform="scale(-0.6,-0.6)"
         inkscape:connector-curvature="0" />
    </marker>
    <marker
       inkscape:stockid="Arrow2Mend"
       orient="auto"
       refY="0"
       refX="0"
       id="marker4219"
       style="overflow:visible">
      <path
         id="path4221"
         style="fill-rule:evenodd;stroke-width:0.625;stroke-linejoin:round"
         d="M 8.7185878,4.0337352 -2.2072895,0.01601326 8.7185884,-4.0017078 c -1.7454984,2.3720609 -1.7354408,5.6174519 -6e-7,8.035443 z"
         transform="scale(-0.6,-0.6)"
         inkscape:connector-curvature="0" />
    </marker>
    <marker
       inkscape:stockid="Arrow2Mend"
       orient="auto"
       refY="0"
       refX="0"
       id="marker4223"
       style="overflow:visible">
      <path
         id="path4225"
         style="fill-rule:evenodd;stroke-width:0.625;stroke-linejoin:round"
         d="M 8.7185878,4.0337352 -2.2072895,0.01601326 8.7185884,-4.0017078 c -1.7454984,2.3720609 -1.7354408,5.6174519 -6e-7,8.035443 z"
         transform="scale(-0.6,-0.6)"
         inkscape:connector-curvature="0" />
    </marker>
    <marker
       inkscape:stockid="Arrow2Mend"
       orient="auto"
       refY="0"
       refX="0"
       id="marker4227"
       style="overflow:visible">
      <path
         id="path4229"
         style="fill-rule:evenodd;stroke-width:0.625;stroke-linejoin:round"
         d="M 8.7185878,4.0337352 -2.2072895,0.01601326 8.7185884,-4.0017078 c -1.7454984,2.3720609 -1.7354408,5.6174519 -6e-7,8.035443 z"
         transform="scale(-0.6,-0.6)"
         inkscape:connector-curvature="0" />
    </marker>
    <marker
       inkscape:stockid="Arrow2Mend"
       orient="auto"
       refY="0"
       refX="0"
       id="Arrow2Mend-2375922"
       style="overflow:visible">
      <path
         id="path3867"
         style="fill-rule:evenodd;stroke-width:0.625;stroke-linejoin:round"
         d="M 8.7185878,4.0337352 -2.2072895,0.01601326 8.7185884,-4.0017078 c -1.7454984,2.3720609 -1.7354408,5.6174519 -6e-7,8.035443 z"
         transform="scale(-0.6,-0.6)"
         inkscape:connector-curvature="0" />
    </marker>
    <marker
       inkscape:stockid="Arrow2Mend"
       orient="auto"
       refY="0"
       refX="0"
       id="marker4286"
       style="overflow:visible">
      <path
         id="path4288"
         style="fill-rule:evenodd;stroke-width:0.625;stroke-linejoin:round"
         d="M 8.7185878,4.0337352 -2.2072895,0.01601326 8.7185884,-4.0017078 c -1.7454984,2.3720609 -1.7354408,5.6174519 -6e-7,8.035443 z"
         transform="scale(-0.6,-0.6)"
         inkscape:connector-curvature="0" />
    </marker>
    <marker
       inkscape:stockid="Arrow2Mend"
       orient="auto"
       refY="0"
       refX="0"
       id="marker4290"
       style="overflow:visible">
      <path
         id="path4292"
         style="fill-rule:evenodd;stroke-width:0.625;stroke-linejoin:round"
         d="M 8.7185878,4.0337352 -2.2072895,0.01601326 8.7185884,-4.0017078 c -1.7454984,2.3720609 -1.7354408,5.6174519 -6e-7,8.035443 z"
         transform="scale(-0.6,-0.6)"
         inkscape:connector-curvature="0" />
    </marker>
    <marker
       inkscape:stockid="Arrow2Mend"
       orient="auto"
       refY="0"
       refX="0"
       id="marker4294"
       style="overflow:visible">
      <path
         id="path4296"
         style="fill-rule:evenodd;stroke-width:0.625;stroke-linejoin:round"
         d="M 8.7185878,4.0337352 -2.2072895,0.01601326 8.7185884,-4.0017078 c -1.7454984,2.3720609 -1.7354408,5.6174519 -6e-7,8.035443 z"
         transform="scale(-0.6,-0.6)"
         inkscape:connector-curvature="0" />
    </marker>
    <marker
       inkscape:stockid="Arrow2Mend"
       orient="auto"
       refY="0"
       refX="0"
       id="Arrow2Mend-23759228"
       style="overflow:visible">
      <path
         id="path3961"
         style="fill-rule:evenodd;stroke-width:0.625;stroke-linejoin:round"
         d="M 8.7185878,4.0337352 -2.2072895,0.01601326 8.7185884,-4.0017078 c -1.7454984,2.3720609 -1.7354408,5.6174519 -6e-7,8.035443 z"
         transform="scale(-0.6,-0.6)"
         inkscape:connector-curvature="0" />
    </marker>
    <marker
       inkscape:stockid="Arrow2Mend"
       orient="auto"
       refY="0"
       refX="0"
       id="marker4185"
       style="overflow:visible">
      <path
         id="path4187"
         style="fill-rule:evenodd;stroke-width:0.625;stroke-linejoin:round"
         d="M 8.7185878,4.0337352 -2.2072895,0.01601326 8.7185884,-4.0017078 c -1.7454984,2.3720609 -1.7354408,5.6174519 -6e-7,8.035443 z"
         transform="scale(-0.6,-0.6)"
         inkscape:connector-curvature="0" />
    </marker>
    <marker
       inkscape:stockid="Arrow2Mend"
       orient="auto"
       refY="0"
       refX="0"
       id="marker4189"
       style="overflow:visible">
      <path
         id="path4191"
         style="fill-rule:evenodd;stroke-width:0.625;stroke-linejoin:round"
         d="M 8.7185878,4.0337352 -2.2072895,0.01601326 8.7185884,-4.0017078 c -1.7454984,2.3720609 -1.7354408,5.6174519 -6e-7,8.035443 z"
         transform="scale(-0.6,-0.6)"
         inkscape:connector-curvature="0" />
    </marker>
    <marker
       inkscape:stockid="Arrow2Mend"
       orient="auto"
       refY="0"
       refX="0"
       id="marker4193"
       style="overflow:visible">
      <path
         id="path4195"
         style="fill-rule:evenodd;stroke-width:0.625;stroke-linejoin:round"
         d="M 8.7185878,4.0337352 -2.2072895,0.01601326 8.7185884,-4.0017078 c -1.7454984,2.3720609 -1.7354408,5.6174519 -6e-7,8.035443 z"
         transform="scale(-0.6,-0.6)"
         inkscape:connector-curvature="0" />
    </marker>
    <marker
       inkscape:stockid="Arrow1Mend"
       orient="auto"
       refY="0"
       refX="0"
       id="Arrow1Mend-7"
       style="overflow:visible"
       inkscape:isstock="true">
      <path
         id="path4161-5"
         d="M 0,0 5,-5 -12.5,0 5,5 0,0 Z"
         style="fill:#ff0000;fill-opacity:1;fill-rule:evenodd;stroke:#ff0000;stroke-width:1pt;stroke-opacity:1"
         transform="matrix(-0.4,0,0,-0.4,-4,0)"
         inkscape:connector-curvature="0" />
    </marker>
    <marker
       inkscape:stockid="Arrow1Mend"
       orient="auto"
       refY="0"
       refX="0"
       id="Arrow1Mend-7-8"
       style="overflow:visible"
       inkscape:isstock="true">
      <path
         id="path4161-5-9"
         d="M 0,0 5,-5 -12.5,0 5,5 0,0 Z"
         style="fill:#ff0000;fill-opacity:1;fill-rule:evenodd;stroke:#ff0000;stroke-width:1pt;stroke-opacity:1"
         transform="matrix(-0.4,0,0,-0.4,-4,0)"
         inkscape:connector-curvature="0" />
    </marker>
    <marker
       inkscape:stockid="Arrow2Mend"
       orient="auto"
       refY="0"
       refX="0"
       id="Arrow2Mend-237592289"
       style="overflow:visible">
      <path
         id="path3890"
         style="fill-rule:evenodd;stroke-width:0.625;stroke-linejoin:round"
         d="M 8.7185878,4.0337352 -2.2072895,0.01601326 8.7185884,-4.0017078 c -1.7454984,2.3720609 -1.7354408,5.6174519 -6e-7,8.035443 z"
         transform="scale(-0.6,-0.6)"
         inkscape:connector-curvature="0" />
    </marker>
    <marker
       inkscape:stockid="Arrow2Mend"
       orient="auto"
       refY="0"
       refX="0"
       id="marker4215-7"
       style="overflow:visible">
      <path
         id="path4217-3"
         style="fill-rule:evenodd;stroke-width:0.625;stroke-linejoin:round"
         d="M 8.7185878,4.0337352 -2.2072895,0.01601326 8.7185884,-4.0017078 c -1.7454984,2.3720609 -1.7354408,5.6174519 -6e-7,8.035443 z"
         transform="scale(-0.6,-0.6)"
         inkscape:connector-curvature="0" />
    </marker>
    <marker
       inkscape:stockid="Arrow2Mend"
       orient="auto"
       refY="0"
       refX="0"
       id="marker4219-6"
       style="overflow:visible">
      <path
         id="path4221-1"
         style="fill-rule:evenodd;stroke-width:0.625;stroke-linejoin:round"
         d="M 8.7185878,4.0337352 -2.2072895,0.01601326 8.7185884,-4.0017078 c -1.7454984,2.3720609 -1.7354408,5.6174519 -6e-7,8.035443 z"
         transform="scale(-0.6,-0.6)"
         inkscape:connector-curvature="0" />
    </marker>
    <marker
       inkscape:stockid="Arrow2Mend"
       orient="auto"
       refY="0"
       refX="0"
       id="marker4223-2"
       style="overflow:visible">
      <path
         id="path4225-9"
         style="fill-rule:evenodd;stroke-width:0.625;stroke-linejoin:round"
         d="M 8.7185878,4.0337352 -2.2072895,0.01601326 8.7185884,-4.0017078 c -1.7454984,2.3720609 -1.7354408,5.6174519 -6e-7,8.035443 z"
         transform="scale(-0.6,-0.6)"
         inkscape:connector-curvature="0" />
    </marker>
    <marker
       inkscape:stockid="Arrow1Mend"
       orient="auto"
       refY="0"
       refX="0"
       id="marker4533"
       style="overflow:visible"
       inkscape:isstock="true">
      <path
         id="path4535"
         d="M 0,0 5,-5 -12.5,0 5,5 0,0 Z"
         style="fill:#ff0000;fill-opacity:1;fill-rule:evenodd;stroke:#ff0000;stroke-width:1pt;stroke-opacity:1"
         transform="matrix(-0.4,0,0,-0.4,-4,0)"
         inkscape:connector-curvature="0" />
    </marker>
    <inkscape:path-effect
       effect="knot"
       id="path-effect4599-7"
       is_visible="true"
       interruption_width="3"
       prop_to_stroke_width="false"
       add_stroke_width="true"
       add_other_stroke_width="false"
       switcher_size="15"
       crossing_points_vector="476.81588 | 1052.282 | 0 | 0 | 0 | 21 | 0.41221293 | 6.9759255 | 1 | 480.19569 | 1040.8792 | 0 | 0 | 1 | 26 | 0.59260353 | 12.924729 | -1 | 484.22103 | 1034.1014 | 0 | 0 | 2 | 41 | 0.75306043 | 19.613526 | 1 | 493.7156 | 1055.2129 | 0 | 0 | 4 | 19 | 1.5251373 | 6.5928866 | 1 | 493.15351 | 1059.736 | 0 | 0 | 5 | 28 | 1.6084896 | 13.763062 | 1 | 495.00663 | 1040.5651 | 0 | 0 | 3 | 40 | 1.2557438 | 19.226478 | 1 | 501.39831 | 1054.9256 | 0 | 0 | 7 | 18 | 2.4499004 | 6.4707462 | 1 | 501.21042 | 1061.6812 | 0 | 0 | 6 | 29 | 2.3310434 | 13.924077 | -1 | 501.62736 | 1041.7226 | 0 | 0 | 8 | 39 | 2.6775852 | 19.084904 | 1 | 511.40409 | 1053.5232 | 0 | 0 | 10 | 17 | 3.5265829 | 6.3121461 | 1 | 511.59281 | 1061.6274 | 0 | 0 | 11 | 30 | 3.6679435 | 14.072305 | -1 | 511.18725 | 1041.8339 | 0 | 0 | 9 | 38 | 3.3245342 | 18.920098 | 1 | 520.55557 | 1050.7036 | 0 | 0 | 13 | 16 | 4.5549199 | 6.1468308 | 1 | 521.04219 | 1059.24 | 0 | 0 | 12 | 31 | 4.4009414 | 14.224731 | -1 | 519.94094 | 1041.1385 | 0 | 0 | 14 | 37 | 4.7324912 | 18.770335 | 1 | 530.61792 | 1039.155 | 0 | 0 | 15 | 36 | 5.7311225 | 18.569903 | 1 | 487.09985 | 1054.9074 | 0 | 0 | 20 | 27 | 6.7077741 | 13.542599 | 1 | 475.3306 | 1038.06 | 0 | 0 | 22 | 25 | 7.6743421 | 12.668585 | 1 | 471.59192 | 1018.6811 | 0 | 0 | 23 | 24 | 8.8832382 | 11.679055 | 1 | 541.15892 | 1034.8369 | 0 | 0 | 32 | 35 | 14.910403 | 18.312355 | 1 | 539.28243 | 1017.3559 | 0 | 0 | 33 | 34 | 15.445878 | 17.616847 | 1" />
  </defs>
  <sodipodi:namedview
     id="base"
     pagecolor="#ffffff"
     bordercolor="#666666"
     borderopacity="1.0"
     inkscape:pageopacity="0.0"
     inkscape:pageshadow="2"
     inkscape:zoom="5.6"
     inkscape:cx="94.148263"
     inkscape:cy="56.032373"
     inkscape:document-units="px"
     inkscape:current-layer="layer1"
     showgrid="true"
     inkscape:object-paths="false"
     inkscape:window-width="1920"
     inkscape:window-height="1015"
     inkscape:window-x="0"
     inkscape:window-y="0"
     inkscape:window-maximized="1"
     inkscape:showpageshadow="false"
     fit-margin-top="5"
     fit-margin-left="5"
     fit-margin-right="5"
     fit-margin-bottom="5"
     inkscape:snap-intersection-paths="false"
     inkscape:snap-midpoints="false"
     inkscape:snap-smooth-nodes="false"
     inkscape:object-nodes="true">
    <inkscape:grid
       type="xygrid"
       id="grid838"
       originx="-148.50001"
       originy="351.5" />
  </sodipodi:namedview>
  <metadata
     id="metadata3085">
    <rdf:RDF>
      <cc:Work
         rdf:about="">
        <dc:format>image/svg+xml</dc:format>
        <dc:type
           rdf:resource="http://purl.org/dc/dcmitype/StillImage" />
        <dc:title></dc:title>
      </cc:Work>
    </rdf:RDF>
  </metadata>
  <g
     inkscape:label="Layer 1"
     inkscape:groupmode="layer"
     id="layer1"
     transform="translate(-454.90335,-980.42969)">
    <path
       id="path2996-5-2"
       style="fill:#b3b3b3;stroke:#000000;stroke-width:0.50038117px;stroke-linecap:butt;stroke-linejoin:miter;stroke-opacity:1"
       d="m 511.21171,926.11188 c -15.26138,0 -20.34851,19.68744 -5.08712,24.60931 2.54355,2.46093 0,9.84371 5.08712,22.14837 3.68216,8.90635 10.17425,24.04147 2.54357,31.42424 -7.63069,7.3828 -17.44158,1.0547 -22.52871,-11.24994 -0.75172,-1.4546 -2.90692,-3.51563 -5.45049,-3.51563 -3.59714,0 2.54357,3.76226 2.54357,9.84372 0,7.38285 5.08712,14.76555 10.17425,17.22655 6.43476,3.1128 15.52614,2.9176 20.3485,0 20.34851,-12.311 3.7775,-32.76461 -2.54357,-51.11173 -2.54355,-7.38279 -2.54355,-12.30465 0,-14.76558 15.26139,-4.92187 10.17426,-24.60931 -5.08712,-24.60931 z m 0,4.92186 c 4.21431,0 7.63069,3.30538 7.63069,7.38279 0,4.0774 -3.41638,7.38279 -7.63069,7.38279 -4.21431,0 -7.63069,-3.30539 -7.63069,-7.38279 0,-4.07741 3.41638,-7.38279 7.63069,-7.38279 z"
       inkscape:connector-curvature="0"
       sodipodi:nodetypes="scsscssssscssssss" />
    <path
       style="fill:none;fill-rule:evenodd;stroke:#000000;stroke-width:3;stroke-linecap:butt;stroke-linejoin:miter;stroke-miterlimit:4;stroke-dasharray:none;stroke-opacity:1"
       d="m 496.40334,1086.9297 c 0,-7.832 -0.34078,-14.9824 -0.75544,-21.2734 m -0.43383,-6.056 c -0.0773,-1.0131 -0.15404,-1.997 -0.22879,-2.9508 m -0.45785,-5.9826 c -0.0625,-0.8759 -0.11878,-1.7142 -0.16688,-2.5136 m -0.16449,-6.0183 c 0.0983,-3.3782 0.69602,-5.2053 2.20728,-5.2053 5,0 5,30 10,30 0.83998,0 1.39773,-0.8467 1.76808,-2.2556 m 0.66572,-6.2366 c 0.0374,-1.1506 0.0537,-2.3645 0.0608,-3.6061 m 0.0128,-6.0994 c 0.006,-0.886 0.0176,-1.7564 0.0385,-2.5981 m 0.51185,-6.177 c 0.36186,-1.8658 0.95851,-3.0272 1.94231,-3.0272 5,0 5,25 10,25 0.70592,0 1.21252,-0.4983 1.57606,-1.3683 m 0.8898,-7.011 c 0.0173,-0.7584 0.0258,-1.5457 0.0301,-2.352 m 0.0222,-6.4111 c 0.008,-0.6063 0.0201,-1.2091 0.0375,-1.8045 m 0.54135,-6.352 c 0.36526,-2.0824 0.95404,-3.752 1.90309,-4.7011 5,-5 10,10 0,15 -1.68936,0.8447 -4.09221,1.6894 -6.94337,2.4858 m -5.83252,1.4308 c -2.87415,0.6226 -5.9609,1.1861 -9.08657,1.6588 m -5.95254,0.7821 c -4.08438,0.4535 -8.04538,0.7153 -11.4877,0.7136 m -6.26617,-0.4056 c -2.0867,-0.3297 -3.63715,-0.8715 -4.43113,-1.6655 -0.68039,-0.6804 -1.17561,-1.4534 -1.52345,-2.2937 m -0.58875,-5.9806 c 0.44814,-4.2927 2.1122,-8.8412 2.1122,-11.7257 0,-3.416 -2.33387,-6.8321 -3.81257,-10.2481 m -0.90164,-6.8224 c 1.18979,-4.3098 6.09454,-8.6197 14.71421,-12.9295 m 9.52251,-2.01547 c 4.9953,0.46277 7.03021,3.73907 0.47749,7.01547 -10,5 -30,10 -30,20 0,5.2925 2.80106,7.7839 6.17948,9.698 m 5.49448,2.8692 c 1.22219,0.6974 2.36624,1.473 3.32604,2.4328 0.35584,0.3558 0.63571,0.7877 0.85943,1.281 m 1.05306,5.9403 c 0.58998,6.5688 1.6072,14.4749 17.1143,13.4909 m 6.03035,-0.7217 c 3.46413,-0.5795 6.59438,-1.2924 9.42165,-2.1157 m 5.67779,-1.9535 c 13.36401,-5.3959 18.06055,-13.6811 19.39241,-20.8786 m 0.40832,-7.3229 c -0.33522,-8.8223 -2.77897,-19.642 -11.99822,-25.97 m -14.05575,-4.32681 c -4.5865,0.65471 -5.26787,4.39471 1.09666,7.57701 5.06421,2.5321 12.69305,5.0642 18.99017,8.2457 m 8.17862,5.5638 c 1.76426,1.8378 2.83121,3.8808 2.83121,6.1905 0,3.2148 -4.13405,6.4297 -11.23926,9.3122 m -5.97726,2.129 c -3.43022,1.0812 -7.29199,2.0952 -11.50997,3.0205 m -5.89949,1.1924 c -2.79838,0.5203 -5.72014,1.003 -8.74745,1.4429 m -5.96509,0.7942 c -10.99647,1.334 -23.13526,2.1088 -35.66148,2.1088"
       id="path4591"
       inkscape:connector-curvature="0"
       sodipodi:nodetypes="czzzzzzzzzccszzzsccszc"
       inkscape:path-effect="#path-effect16485"
       inkscape:original-d="m 496.40334,1086.9297 c 0,-30 -5,-50 0,-50 5,0 5,30 10,30 5,-10e-5 0,-30 5,-30 5,0 5,25 10,25 5,0 0,-25 5,-30 5,-5 10,10 0,15 -10,5 -45,10 -50,5 -5,-5 0,-15 0,-20 0,-5 -5,-10 -5,-15 0,-5 5.00001,-10 15,-15 m 9.52251,-2.01547 c 4.9953,0.46277 7.03021,3.73907 0.47749,7.01547 -10,5 -30,10 -30,20 0,10 10,10 15,15 5,5 -5,25 25,20 30,-5.0001 35,-20 35,-30 0,-9.1618 -2.00967,-21.3649 -12.04091,-28.2502 m -14.05575,-4.32681 c -4.5865,0.65471 -5.26787,4.39471 1.09666,7.57701 10,5 30,10 30,20 0,10 -40,20 -85,20" />
  </g>
</svg>
