<?xml version="1.0" encoding="UTF-8" standalone="no"?>
<!-- Created with Inkscape (http://www.inkscape.org/) -->

<svg
   xmlns:dc="http://purl.org/dc/elements/1.1/"
   xmlns:cc="http://creativecommons.org/ns#"
   xmlns:rdf="http://www.w3.org/1999/02/22-rdf-syntax-ns#"
   xmlns:svg="http://www.w3.org/2000/svg"
   xmlns="http://www.w3.org/2000/svg"
   xmlns:sodipodi="http://sodipodi.sourceforge.net/DTD/sodipodi-0.dtd"
   xmlns:inkscape="http://www.inkscape.org/namespaces/inkscape"
   width="103"
   height="108"
   id="svg3080"
   version="1.1"
   inkscape:version="0.91 r13725"
   sodipodi:docname="Single_Cats-Paw.svg">
  <defs
     id="defs3082">
    <inkscape:path-effect
       effect="knot"
       id="path-effect4599"
       is_visible="true"
       interruption_width="3"
       prop_to_stroke_width="false"
       add_stroke_width="true"
       add_other_stroke_width="false"
       switcher_size="15"
       crossing_points_vector="467.55947 | 928.28322 | 0 | 0 | 1 | 22 | 0.48715687 | 6.2646557 | 1 | 466.72921 | 938.78864 | 0 | 1 | 0 | 0 | 0.31940915 | 1.7859886 | -1 | 469.35087 | 919.38544 | 0 | 2 | 2 | 5 | 0.66550728 | 3.3175082 | 1 | 478.96035 | 931.47341 | 0 | 0 | 4 | 21 | 1.4923953 | 6.0892144 | 1 | 477.89474 | 941.40363 | 0 | 1 | 5 | 1 | 1.6637544 | 1.9147869 | -1 | 479.95776 | 921.67383 | 0 | 2 | 3 | 4 | 1.3214842 | 3.0946098 | 1 | 486.40334 | 931.92966 | 0 | 0 | 8 | 19 | 2.5000001 | 6 | 1 | 486.40334 | 931.92966 | 0 | 0 | 7 | 20 | 2.5000001 | 6.0000001 | 1 | 486.19392 | 941.92936 | 0 | 1 | 6 | 2 | 2.3263576 | 1.9980032 | -1 | 486.6128 | 921.92942 | 0 | 2 | 9 | 3 | 2.6736529 | 2.9972025 | 1 | 496.4031 | 930.83736 | 0 | 0 | 11 | 18 | 3.4817869 | 5.8732865 | 1 | 496.56528 | 941.1685 | 0 | 1 | 12 | 3 | 3.6593786 | 2.1028804 | -1 | 496.15138 | 921.35268 | 0 | 2 | 10 | 2 | 3.3153184 | 2.8579128 | 1 | 503.21798 | 928.3051 | 0 | 0 | 14 | 17 | 4.5975742 | 5.7575602 | 1 | 504.60298 | 939.28653 | 0 | 1 | 13 | 4 | 4.4000594 | 2.1955335 | -1 | 502.81814 | 920.08876 | 0 | 2 | 15 | 1 | 4.7542044 | 2.7408366 | 1 | 512.38372 | 915.87806 | 0 | 2 | 16 | 0 | 5.3687337 | 2.5088688 | 1" />
    <inkscape:path-effect
       effect="knot"
       id="path-effect4955"
       is_visible="true"
       interruption_width="3"
       prop_to_stroke_width="false"
       add_stroke_width="true"
       add_other_stroke_width="false"
       switcher_size="15"
       crossing_points_vector="495.47929 | 931.46289 | 0 | 1 | 1 | 2 | 0.7253947 | 2.4380804 | -1 | 493.11776 | 940.48342 | 0 | 1 | 0 | 3 | 0.39365294 | 3.3856201 | -1 | 494.14528 | 922.17227 | 0 | 1 | 2 | 1 | 1.467697 | 1.5323031 | -1 | 495.64277 | 909.28696 | 0 | 1 | 3 | 0 | 2.4491195 | 0.42420351 | -1 | 484.68892 | 940.48342 | 1 | 2 | 4 | 3 | 3.6143799 | 3.6063469 | 1 | 482.3274 | 931.46288 | 1 | 2 | 5 | 2 | 4.5619206 | 3.274605 | 1 | 483.81713 | 922.0159 | 1 | 2 | 6 | 1 | 5.4885038 | 2.5114962 | 1 | 482.36472 | 909.57013 | 1 | 2 | 7 | 0 | 6.5574996 | 1.5644486 | 1" />
    <inkscape:path-effect
       effect="knot"
       id="path-effect5644"
       is_visible="true"
       interruption_width="3"
       prop_to_stroke_width="false"
       add_stroke_width="true"
       add_other_stroke_width="false"
       switcher_size="15"
       crossing_points_vector="493.425 | 924.40922 | 0 | 2 | 0 | 1 | 0.39388586 | 1.5260732 | 1 | 499.2926 | 912.25678 | 0 | 2 | 1 | 2 | 0.85833601 | 2.1621577 | 1 | 485.95637 | 885.74371 | 0 | 1 | 2 | 2 | 2.8932137 | 1.6861634 | -1 | 482.67112 | 908.36814 | 1 | 2 | 0 | 4 | 0.22277907 | 2.5837206 | -1 | 491.36904 | 907.92043 | 1 | 2 | 1 | 3 | 0.96579358 | 2.3877661 | -1 | 474.8883 | 915.28744 | 2 | 2 | 0 | 5 | 0.94561332 | 2.7876114 | 1" />
    <marker
       inkscape:isstock="true"
       style="overflow:visible"
       id="marker4734"
       refX="0"
       refY="0"
       orient="auto"
       inkscape:stockid="Arrow1Mend">
      <path
         inkscape:connector-curvature="0"
         transform="matrix(-0.4,0,0,-0.4,-4,0)"
         style="fill:#b3b3b3;fill-opacity:1;fill-rule:evenodd;stroke:#000000;stroke-width:1pt;stroke-opacity:1"
         d="M 0,0 5,-5 -12.5,0 5,5 0,0 Z"
         id="path4736" />
    </marker>
    <marker
       inkscape:isstock="true"
       style="overflow:visible"
       id="marker4600"
       refX="0"
       refY="0"
       orient="auto"
       inkscape:stockid="Arrow1Mend">
      <path
         inkscape:connector-curvature="0"
         transform="matrix(-0.4,0,0,-0.4,-4,0)"
         style="fill:#000000;fill-opacity:1;fill-rule:evenodd;stroke:#000000;stroke-width:1pt;stroke-opacity:1"
         d="M 0,0 5,-5 -12.5,0 5,5 0,0 Z"
         id="path4602" />
    </marker>
    <marker
       inkscape:isstock="true"
       style="overflow:visible"
       id="marker4470"
       refX="0"
       refY="0"
       orient="auto"
       inkscape:stockid="Arrow1Mend">
      <path
         inkscape:connector-curvature="0"
         transform="matrix(-0.4,0,0,-0.4,-4,0)"
         style="fill:#ff0000;fill-opacity:1;fill-rule:evenodd;stroke:#ff0000;stroke-width:1pt;stroke-opacity:1"
         d="M 0,0 5,-5 -12.5,0 5,5 0,0 Z"
         id="path4472" />
    </marker>
    <inkscape:path-effect
       effect="knot"
       id="path-effect4510"
       is_visible="true"
       interruption_width="3"
       prop_to_stroke_width="false"
       add_stroke_width="true"
       add_other_stroke_width="false"
       switcher_size="15"
       crossing_points_vector="499.04361 | 905.63451 | 0 | 1 | 0 | 0 | 0.77856924 | 2.1371777 | -1 | 490.8322 | 881.06686 | 0 | 2 | 1 | 0 | 1.3215928 | 0.29319945 | 1 | 477.80433 | 875.36615 | 0 | 2 | 2 | 1 | 1.8221458 | 1.3456321 | 1" />
    <inkscape:path-effect
       effect="knot"
       id="path-effect4508"
       is_visible="true"
       interruption_width="3"
       prop_to_stroke_width="false"
       add_stroke_width="true"
       add_other_stroke_width="false"
       switcher_size="15"
       crossing_points_vector="564.1571 | 881.92009 | 1 | 3 | 0 | 0 | 0.12640418 | 1.6324879 | 1" />
    <inkscape:path-effect
       effect="knot"
       id="path-effect4330"
       is_visible="true"
       interruption_width="3"
       prop_to_stroke_width="false"
       add_stroke_width="true"
       add_other_stroke_width="false"
       switcher_size="15"
       crossing_points_vector="574.10071 | 860.73008 | 1 | 2 | 1 | 0 | 1.4338181 | 1.4507078 | 1 | 568.50393 | 874.78897 | 1 | 3 | 0 | 0 | 1.1266988 | 0.27818176 | 1" />
    <inkscape:path-effect
       effect="knot"
       id="path-effect4293"
       is_visible="true"
       interruption_width="3"
       prop_to_stroke_width="false"
       add_stroke_width="true"
       add_other_stroke_width="false"
       switcher_size="15"
       crossing_points_vector="567.01813 | 924.14519 | 0 | 1 | 0 | 1 | 0.35366327 | 1.5474674 | -1 | 556.98282 | 912.38322 | 0 | 1 | 1 | 2 | 0.65933317 | 2.2172825 | -1 | 570.86864 | 888.12159 | 1 | 1 | 0 | 3 | 0.56147773 | 2.5940693 | -1" />
    <inkscape:path-effect
       crossing_points_vector="563.34662 | 878.32875 | 0 | 0 | 0 | 1 | 0.57478741 | 4.7005785 | -1"
       switcher_size="15"
       add_other_stroke_width="false"
       add_stroke_width="true"
       prop_to_stroke_width="false"
       interruption_width="3"
       is_visible="true"
       id="path-effect4381"
       effect="knot" />
    <inkscape:path-effect
       effect="knot"
       id="path-effect9059"
       is_visible="true"
       interruption_width="3"
       prop_to_stroke_width="false"
       add_stroke_width="true"
       add_other_stroke_width="false"
       switcher_size="15"
       crossing_points_vector="563.34662 | 878.32875 | 0 | 0 | 0 | 1 | 0.57478741 | 4.7005785 | -1" />
    <inkscape:path-effect
       effect="simplify"
       id="path-effect1032"
       is_visible="true"
       steps="1"
       threshold="0.00243902"
       smooth_angles="360"
       helper_size="0"
       simplify_individual_paths="false"
       simplify_just_coalesce="false"
       simplifyindividualpaths="false"
       simplifyJustCoalesce="false" />
    <marker
       inkscape:stockid="Arrow2Mend"
       orient="auto"
       refY="0"
       refX="0"
       id="Arrow2Mend"
       style="overflow:visible"
       inkscape:isstock="true">
      <path
         id="path908"
         style="fill:#ff0000;fill-opacity:1;fill-rule:evenodd;stroke:#ff0000;stroke-width:0.625;stroke-linejoin:round;stroke-opacity:1"
         d="M 8.7185878,4.0337352 -2.2072895,0.01601326 8.7185884,-4.0017078 c -1.7454984,2.3720609 -1.7354408,5.6174519 -6e-7,8.035443 z"
         transform="scale(-0.6,-0.6)"
         inkscape:connector-curvature="0" />
    </marker>
    <marker
       inkscape:stockid="Arrow2Lend"
       orient="auto"
       refY="0"
       refX="0"
       id="Arrow2Lend"
       style="overflow:visible"
       inkscape:isstock="true">
      <path
         id="path902"
         style="fill:#fe0000;fill-opacity:1;fill-rule:evenodd;stroke:#fe0000;stroke-width:0.625;stroke-linejoin:round;stroke-opacity:1"
         d="M 8.7185878,4.0337352 -2.2072895,0.01601326 8.7185884,-4.0017078 c -1.7454984,2.3720609 -1.7354408,5.6174519 -6e-7,8.035443 z"
         transform="matrix(-1.1,0,0,-1.1,-1.1,0)"
         inkscape:connector-curvature="0" />
    </marker>
    <marker
       inkscape:stockid="Arrow1Lstart"
       orient="auto"
       refY="0"
       refX="0"
       id="Arrow1Lstart"
       style="overflow:visible"
       inkscape:isstock="true">
      <path
         id="path881"
         d="M 0,0 5,-5 -12.5,0 5,5 Z"
         style="fill:#fe0000;fill-opacity:1;fill-rule:evenodd;stroke:#fe0000;stroke-width:1pt;stroke-opacity:1"
         transform="matrix(0.8,0,0,0.8,10,0)"
         inkscape:connector-curvature="0" />
    </marker>
    <inkscape:path-effect
       effect="knot"
       id="path-effect840"
       is_visible="true"
       interruption_width="3"
       prop_to_stroke_width="false"
       add_stroke_width="true"
       add_other_stroke_width="false"
       switcher_size="15"
       crossing_points_vector="555.9833 | 747.10163 | 0 | 0 | 0 | 1 | 0.6803812 | 2.7128593 | -1 | 552.23485 | 788.43362 | 0 | 0 | 2 | 7 | 3.2447083 | 9.4155824 | 1 | 554.77393 | 832.80342 | 0 | 0 | 3 | 8 | 3.5338778 | 10.513978 | 1 | 526.40166 | 839.74908 | 0 | 0 | 4 | 9 | 6.8382141 | 11.291791 | -1 | 519.26725 | 810.88166 | 0 | 0 | 5 | 10 | 7.6725215 | 12.32748 | -1 | 526.37124 | 784.03924 | 0 | 0 | 6 | 11 | 8.7301526 | 12.955812 | -1" />
    <filter
       id="filter3111"
       inkscape:label="Outline, double"
       inkscape:menu="Morphology"
       inkscape:menu-tooltip="Draws a smooth line inside colorized with the color it overlays"
       style="color-interpolation-filters:sRGB">
      <feGaussianBlur
         id="feGaussianBlur3113"
         stdDeviation="3"
         in="SourceAlpha"
         result="result1" />
      <feComposite
         id="feComposite3115"
         in2="result1"
         operator="arithmetic"
         k2="3.2"
         k1="-1"
         k4="-2"
         result="result3"
         k3="0" />
      <feColorMatrix
         id="feColorMatrix3117"
         values="0 0 0 0 0 0 1 0 0 0 0 0 1 0 0 0 0 0 10 0 "
         result="result2" />
      <feComposite
         id="feComposite3119"
         in2="result2"
         result="fbSourceGraphic"
         in="SourceGraphic"
         operator="out" />
      <feGaussianBlur
         id="feGaussianBlur3121"
         in="fbSourceGraphic"
         stdDeviation="0.5"
         result="result4" />
      <feComposite
         id="feComposite3123"
         in2="result4"
         operator="xor"
         in="result4"
         result="result5" />
      <feBlend
         id="feBlend3125"
         in2="result5"
         result="result6"
         mode="darken"
         in="result5" />
      <feBlend
         id="feBlend3127"
         in2="result6"
         in="result6"
         mode="darken" />
    </filter>
    <inkscape:path-effect
       effect="knot"
       id="path-effect840-2"
       is_visible="true"
       interruption_width="3"
       prop_to_stroke_width="false"
       add_stroke_width="true"
       add_other_stroke_width="false"
       switcher_size="15"
       crossing_points_vector="403.23988 | 875.24536 | 0 | 0 | 0 | 3 | 0.30583405 | 3.7905355 | -1 | 434.69018 | 856.18644 | 0 | 0 | 1 | 4 | 0.64654265 | 5.6367509 | 1 | 461.39463 | 867.49793 | 0 | 0 | 2 | 5 | 2.013941 | 6.3359148 | 1" />
    <marker
       inkscape:stockid="Arrow2Mend"
       orient="auto"
       refY="0"
       refX="0"
       id="Arrow2Mend-2"
       style="overflow:visible">
      <path
         id="path3886"
         style="fill-rule:evenodd;stroke-width:0.625;stroke-linejoin:round"
         d="M 8.7185878,4.0337352 -2.2072895,0.01601326 8.7185884,-4.0017078 c -1.7454984,2.3720609 -1.7354408,5.6174519 -6e-7,8.035443 z"
         transform="scale(-0.6,-0.6)"
         inkscape:connector-curvature="0" />
    </marker>
    <marker
       inkscape:stockid="Arrow2Mend"
       orient="auto"
       refY="0"
       refX="0"
       id="marker910"
       style="overflow:visible">
      <path
         id="path908-3"
         style="fill-rule:evenodd;stroke-width:0.625;stroke-linejoin:round"
         d="M 8.7185878,4.0337352 -2.2072895,0.01601326 8.7185884,-4.0017078 c -1.7454984,2.3720609 -1.7354408,5.6174519 -6e-7,8.035443 z"
         transform="scale(-0.6,-0.6)"
         inkscape:connector-curvature="0" />
    </marker>
    <marker
       inkscape:stockid="Arrow2Mend"
       orient="auto"
       refY="0"
       refX="0"
       id="marker914"
       style="overflow:visible">
      <path
         id="path912"
         style="fill-rule:evenodd;stroke-width:0.625;stroke-linejoin:round"
         d="M 8.7185878,4.0337352 -2.2072895,0.01601326 8.7185884,-4.0017078 c -1.7454984,2.3720609 -1.7354408,5.6174519 -6e-7,8.035443 z"
         transform="scale(-0.6,-0.6)"
         inkscape:connector-curvature="0" />
    </marker>
    <marker
       inkscape:stockid="Arrow2Mend"
       orient="auto"
       refY="0"
       refX="0"
       id="marker918"
       style="overflow:visible">
      <path
         id="path916"
         style="fill-rule:evenodd;stroke-width:0.625;stroke-linejoin:round"
         d="M 8.7185878,4.0337352 -2.2072895,0.01601326 8.7185884,-4.0017078 c -1.7454984,2.3720609 -1.7354408,5.6174519 -6e-7,8.035443 z"
         transform="scale(-0.6,-0.6)"
         inkscape:connector-curvature="0" />
    </marker>
    <marker
       inkscape:stockid="Arrow2Mend"
       orient="auto"
       refY="0"
       refX="0"
       id="marker922"
       style="overflow:visible">
      <path
         id="path920"
         style="fill-rule:evenodd;stroke-width:0.625;stroke-linejoin:round"
         d="M 8.7185878,4.0337352 -2.2072895,0.01601326 8.7185884,-4.0017078 c -1.7454984,2.3720609 -1.7354408,5.6174519 -6e-7,8.035443 z"
         transform="scale(-0.6,-0.6)"
         inkscape:connector-curvature="0" />
    </marker>
    <marker
       inkscape:stockid="Arrow2Mend"
       orient="auto"
       refY="0"
       refX="0"
       id="marker926"
       style="overflow:visible">
      <path
         id="path924"
         style="fill-rule:evenodd;stroke-width:0.625;stroke-linejoin:round"
         d="M 8.7185878,4.0337352 -2.2072895,0.01601326 8.7185884,-4.0017078 c -1.7454984,2.3720609 -1.7354408,5.6174519 -6e-7,8.035443 z"
         transform="scale(-0.6,-0.6)"
         inkscape:connector-curvature="0" />
    </marker>
    <marker
       inkscape:stockid="Arrow2Mend"
       orient="auto"
       refY="0"
       refX="0"
       id="Arrow2Mend-23"
       style="overflow:visible">
      <path
         id="path3940"
         style="fill-rule:evenodd;stroke-width:0.625;stroke-linejoin:round"
         d="M 8.7185878,4.0337352 -2.2072895,0.01601326 8.7185884,-4.0017078 c -1.7454984,2.3720609 -1.7354408,5.6174519 -6e-7,8.035443 z"
         transform="scale(-0.6,-0.6)"
         inkscape:connector-curvature="0" />
    </marker>
    <marker
       inkscape:stockid="Arrow2Mend"
       orient="auto"
       refY="0"
       refX="0"
       id="marker890"
       style="overflow:visible">
      <path
         id="path888"
         style="fill-rule:evenodd;stroke-width:0.625;stroke-linejoin:round"
         d="M 8.7185878,4.0337352 -2.2072895,0.01601326 8.7185884,-4.0017078 c -1.7454984,2.3720609 -1.7354408,5.6174519 -6e-7,8.035443 z"
         transform="scale(-0.6,-0.6)"
         inkscape:connector-curvature="0" />
    </marker>
    <marker
       inkscape:stockid="Arrow2Mend"
       orient="auto"
       refY="0"
       refX="0"
       id="marker894"
       style="overflow:visible">
      <path
         id="path892"
         style="fill-rule:evenodd;stroke-width:0.625;stroke-linejoin:round"
         d="M 8.7185878,4.0337352 -2.2072895,0.01601326 8.7185884,-4.0017078 c -1.7454984,2.3720609 -1.7354408,5.6174519 -6e-7,8.035443 z"
         transform="scale(-0.6,-0.6)"
         inkscape:connector-curvature="0" />
    </marker>
    <marker
       inkscape:stockid="Arrow2Mend"
       orient="auto"
       refY="0"
       refX="0"
       id="marker898"
       style="overflow:visible">
      <path
         id="path896"
         style="fill-rule:evenodd;stroke-width:0.625;stroke-linejoin:round"
         d="M 8.7185878,4.0337352 -2.2072895,0.01601326 8.7185884,-4.0017078 c -1.7454984,2.3720609 -1.7354408,5.6174519 -6e-7,8.035443 z"
         transform="scale(-0.6,-0.6)"
         inkscape:connector-curvature="0" />
    </marker>
    <marker
       inkscape:stockid="Arrow2Mend"
       orient="auto"
       refY="0"
       refX="0"
       id="Arrow2Mend-237"
       style="overflow:visible">
      <path
         id="path3837"
         style="fill-rule:evenodd;stroke-width:0.625;stroke-linejoin:round"
         d="M 8.7185878,4.0337352 -2.2072895,0.01601326 8.7185884,-4.0017078 c -1.7454984,2.3720609 -1.7354408,5.6174519 -6e-7,8.035443 z"
         transform="scale(-0.6,-0.6)"
         inkscape:connector-curvature="0" />
    </marker>
    <marker
       inkscape:stockid="Arrow2Mend"
       orient="auto"
       refY="0"
       refX="0"
       id="marker4177"
       style="overflow:visible">
      <path
         id="path4179"
         style="fill-rule:evenodd;stroke-width:0.625;stroke-linejoin:round"
         d="M 8.7185878,4.0337352 -2.2072895,0.01601326 8.7185884,-4.0017078 c -1.7454984,2.3720609 -1.7354408,5.6174519 -6e-7,8.035443 z"
         transform="scale(-0.6,-0.6)"
         inkscape:connector-curvature="0" />
    </marker>
    <inkscape:path-effect
       crossing_points_vector="566.40336 | 819.48052 | 0 | 1 | 0 | 0 | 0.44550334 | 1.2743027 | 1"
       switcher_size="15"
       add_other_stroke_width="false"
       add_stroke_width="true"
       prop_to_stroke_width="false"
       interruption_width="3"
       is_visible="true"
       id="path-effect4381-2"
       effect="knot" />
    <marker
       inkscape:stockid="Arrow2Mend"
       orient="auto"
       refY="0"
       refX="0"
       id="Arrow2Mend-2375"
       style="overflow:visible">
      <path
         id="path3837-9"
         style="fill-rule:evenodd;stroke-width:0.625;stroke-linejoin:round"
         d="M 8.7185878,4.0337352 -2.2072895,0.01601326 8.7185884,-4.0017078 c -1.7454984,2.3720609 -1.7354408,5.6174519 -6e-7,8.035443 z"
         transform="scale(-0.6,-0.6)"
         inkscape:connector-curvature="0" />
    </marker>
    <marker
       inkscape:stockid="Arrow2Mend"
       orient="auto"
       refY="0"
       refX="0"
       id="marker4179"
       style="overflow:visible">
      <path
         id="path4181"
         style="fill-rule:evenodd;stroke-width:0.625;stroke-linejoin:round"
         d="M 8.7185878,4.0337352 -2.2072895,0.01601326 8.7185884,-4.0017078 c -1.7454984,2.3720609 -1.7354408,5.6174519 -6e-7,8.035443 z"
         transform="scale(-0.6,-0.6)"
         inkscape:connector-curvature="0" />
    </marker>
    <marker
       inkscape:stockid="Arrow2Mend"
       orient="auto"
       refY="0"
       refX="0"
       id="marker4183"
       style="overflow:visible">
      <path
         id="path4185"
         style="fill-rule:evenodd;stroke-width:0.625;stroke-linejoin:round"
         d="M 8.7185878,4.0337352 -2.2072895,0.01601326 8.7185884,-4.0017078 c -1.7454984,2.3720609 -1.7354408,5.6174519 -6e-7,8.035443 z"
         transform="scale(-0.6,-0.6)"
         inkscape:connector-curvature="0" />
    </marker>
    <marker
       inkscape:stockid="Arrow2Mend"
       orient="auto"
       refY="0"
       refX="0"
       id="marker4187"
       style="overflow:visible">
      <path
         id="path4189"
         style="fill-rule:evenodd;stroke-width:0.625;stroke-linejoin:round"
         d="M 8.7185878,4.0337352 -2.2072895,0.01601326 8.7185884,-4.0017078 c -1.7454984,2.3720609 -1.7354408,5.6174519 -6e-7,8.035443 z"
         transform="scale(-0.6,-0.6)"
         inkscape:connector-curvature="0" />
    </marker>
    <marker
       inkscape:stockid="Arrow1Mend"
       orient="auto"
       refY="0"
       refX="0"
       id="Arrow1Mend"
       style="overflow:visible"
       inkscape:isstock="true">
      <path
         id="path4161"
         d="M 0,0 5,-5 -12.5,0 5,5 0,0 Z"
         style="fill:#ff0000;fill-opacity:1;fill-rule:evenodd;stroke:#ff0000;stroke-width:1pt;stroke-opacity:1"
         transform="matrix(-0.4,0,0,-0.4,-4,0)"
         inkscape:connector-curvature="0" />
    </marker>
    <marker
       inkscape:stockid="Arrow1Mend"
       orient="auto"
       refY="0"
       refX="0"
       id="marker4269"
       style="overflow:visible"
       inkscape:isstock="true">
      <path
         id="path4271"
         d="M 0,0 5,-5 -12.5,0 5,5 0,0 Z"
         style="fill:#ff0000;fill-opacity:1;fill-rule:evenodd;stroke:#ff0000;stroke-width:1pt;stroke-opacity:1"
         transform="matrix(-0.4,0,0,-0.4,-4,0)"
         inkscape:connector-curvature="0" />
    </marker>
    <marker
       inkscape:stockid="Arrow1Mend"
       orient="auto"
       refY="0"
       refX="0"
       id="Arrow1Mend-8"
       style="overflow:visible"
       inkscape:isstock="true">
      <path
         id="path4161-9"
         d="M 0,0 5,-5 -12.5,0 5,5 0,0 Z"
         style="fill:#ff0000;fill-opacity:1;fill-rule:evenodd;stroke:#ff0000;stroke-width:1pt;stroke-opacity:1"
         transform="matrix(-0.4,0,0,-0.4,-4,0)"
         inkscape:connector-curvature="0" />
    </marker>
    <marker
       inkscape:stockid="Arrow1Mend"
       orient="auto"
       refY="0"
       refX="0"
       id="marker10242"
       style="overflow:visible"
       inkscape:isstock="true">
      <path
         id="path10244"
         d="M 0,0 5,-5 -12.5,0 5,5 0,0 Z"
         style="fill:#ff0000;fill-opacity:1;fill-rule:evenodd;stroke:#ff0000;stroke-width:1pt;stroke-opacity:1"
         transform="matrix(-0.4,0,0,-0.4,-4,0)"
         inkscape:connector-curvature="0" />
    </marker>
    <marker
       inkscape:stockid="Arrow2Mend"
       orient="auto"
       refY="0"
       refX="0"
       id="Arrow2Mend-23759"
       style="overflow:visible">
      <path
         id="path3820"
         style="fill-rule:evenodd;stroke-width:0.625;stroke-linejoin:round"
         d="M 8.7185878,4.0337352 -2.2072895,0.01601326 8.7185884,-4.0017078 c -1.7454984,2.3720609 -1.7354408,5.6174519 -6e-7,8.035443 z"
         transform="scale(-0.6,-0.6)"
         inkscape:connector-curvature="0" />
    </marker>
    <marker
       inkscape:stockid="Arrow2Mend"
       orient="auto"
       refY="0"
       refX="0"
       id="marker4187-2"
       style="overflow:visible">
      <path
         id="path4189-2"
         style="fill-rule:evenodd;stroke-width:0.625;stroke-linejoin:round"
         d="M 8.7185878,4.0337352 -2.2072895,0.01601326 8.7185884,-4.0017078 c -1.7454984,2.3720609 -1.7354408,5.6174519 -6e-7,8.035443 z"
         transform="scale(-0.6,-0.6)"
         inkscape:connector-curvature="0" />
    </marker>
    <marker
       inkscape:stockid="Arrow2Mend"
       orient="auto"
       refY="0"
       refX="0"
       id="marker4191"
       style="overflow:visible">
      <path
         id="path4193"
         style="fill-rule:evenodd;stroke-width:0.625;stroke-linejoin:round"
         d="M 8.7185878,4.0337352 -2.2072895,0.01601326 8.7185884,-4.0017078 c -1.7454984,2.3720609 -1.7354408,5.6174519 -6e-7,8.035443 z"
         transform="scale(-0.6,-0.6)"
         inkscape:connector-curvature="0" />
    </marker>
    <marker
       inkscape:stockid="Arrow2Mend"
       orient="auto"
       refY="0"
       refX="0"
       id="marker4195"
       style="overflow:visible">
      <path
         id="path4197"
         style="fill-rule:evenodd;stroke-width:0.625;stroke-linejoin:round"
         d="M 8.7185878,4.0337352 -2.2072895,0.01601326 8.7185884,-4.0017078 c -1.7454984,2.3720609 -1.7354408,5.6174519 -6e-7,8.035443 z"
         transform="scale(-0.6,-0.6)"
         inkscape:connector-curvature="0" />
    </marker>
    <marker
       inkscape:stockid="Arrow1Mend"
       orient="auto"
       refY="0"
       refX="0"
       id="marker11909"
       style="overflow:visible"
       inkscape:isstock="true">
      <path
         id="path11911"
         d="M 0,0 5,-5 -12.5,0 5,5 0,0 Z"
         style="fill:#ff0000;fill-opacity:1;fill-rule:evenodd;stroke:#ff0000;stroke-width:1pt;stroke-opacity:1"
         transform="matrix(-0.4,0,0,-0.4,-4,0)"
         inkscape:connector-curvature="0" />
    </marker>
    <marker
       inkscape:stockid="Arrow2Mend"
       orient="auto"
       refY="0"
       refX="0"
       id="Arrow2Mend-237592"
       style="overflow:visible">
      <path
         id="path3837-2"
         style="fill-rule:evenodd;stroke-width:0.625;stroke-linejoin:round"
         d="M 8.7185878,4.0337352 -2.2072895,0.01601326 8.7185884,-4.0017078 c -1.7454984,2.3720609 -1.7354408,5.6174519 -6e-7,8.035443 z"
         transform="scale(-0.6,-0.6)"
         inkscape:connector-curvature="0" />
    </marker>
    <marker
       inkscape:stockid="Arrow2Mend"
       orient="auto"
       refY="0"
       refX="0"
       id="marker4195-8"
       style="overflow:visible">
      <path
         id="path4197-9"
         style="fill-rule:evenodd;stroke-width:0.625;stroke-linejoin:round"
         d="M 8.7185878,4.0337352 -2.2072895,0.01601326 8.7185884,-4.0017078 c -1.7454984,2.3720609 -1.7354408,5.6174519 -6e-7,8.035443 z"
         transform="scale(-0.6,-0.6)"
         inkscape:connector-curvature="0" />
    </marker>
    <marker
       inkscape:stockid="Arrow2Mend"
       orient="auto"
       refY="0"
       refX="0"
       id="marker4199"
       style="overflow:visible">
      <path
         id="path4201"
         style="fill-rule:evenodd;stroke-width:0.625;stroke-linejoin:round"
         d="M 8.7185878,4.0337352 -2.2072895,0.01601326 8.7185884,-4.0017078 c -1.7454984,2.3720609 -1.7354408,5.6174519 -6e-7,8.035443 z"
         transform="scale(-0.6,-0.6)"
         inkscape:connector-curvature="0" />
    </marker>
    <marker
       inkscape:stockid="Arrow2Mend"
       orient="auto"
       refY="0"
       refX="0"
       id="marker4203"
       style="overflow:visible">
      <path
         id="path4205"
         style="fill-rule:evenodd;stroke-width:0.625;stroke-linejoin:round"
         d="M 8.7185878,4.0337352 -2.2072895,0.01601326 8.7185884,-4.0017078 c -1.7454984,2.3720609 -1.7354408,5.6174519 -6e-7,8.035443 z"
         transform="scale(-0.6,-0.6)"
         inkscape:connector-curvature="0" />
    </marker>
    <marker
       inkscape:stockid="Arrow2Mend"
       orient="auto"
       refY="0"
       refX="0"
       id="marker4207"
       style="overflow:visible">
      <path
         id="path4209"
         style="fill-rule:evenodd;stroke-width:0.625;stroke-linejoin:round"
         d="M 8.7185878,4.0337352 -2.2072895,0.01601326 8.7185884,-4.0017078 c -1.7454984,2.3720609 -1.7354408,5.6174519 -6e-7,8.035443 z"
         transform="scale(-0.6,-0.6)"
         inkscape:connector-curvature="0" />
    </marker>
    <marker
       inkscape:stockid="Arrow2Mend"
       orient="auto"
       refY="0"
       refX="0"
       id="marker4211"
       style="overflow:visible">
      <path
         id="path4213"
         style="fill-rule:evenodd;stroke-width:0.625;stroke-linejoin:round"
         d="M 8.7185878,4.0337352 -2.2072895,0.01601326 8.7185884,-4.0017078 c -1.7454984,2.3720609 -1.7354408,5.6174519 -6e-7,8.035443 z"
         transform="scale(-0.6,-0.6)"
         inkscape:connector-curvature="0" />
    </marker>
    <marker
       inkscape:stockid="Arrow2Mend"
       orient="auto"
       refY="0"
       refX="0"
       id="marker4215"
       style="overflow:visible">
      <path
         id="path4217"
         style="fill-rule:evenodd;stroke-width:0.625;stroke-linejoin:round"
         d="M 8.7185878,4.0337352 -2.2072895,0.01601326 8.7185884,-4.0017078 c -1.7454984,2.3720609 -1.7354408,5.6174519 -6e-7,8.035443 z"
         transform="scale(-0.6,-0.6)"
         inkscape:connector-curvature="0" />
    </marker>
    <marker
       inkscape:stockid="Arrow2Mend"
       orient="auto"
       refY="0"
       refX="0"
       id="marker4219"
       style="overflow:visible">
      <path
         id="path4221"
         style="fill-rule:evenodd;stroke-width:0.625;stroke-linejoin:round"
         d="M 8.7185878,4.0337352 -2.2072895,0.01601326 8.7185884,-4.0017078 c -1.7454984,2.3720609 -1.7354408,5.6174519 -6e-7,8.035443 z"
         transform="scale(-0.6,-0.6)"
         inkscape:connector-curvature="0" />
    </marker>
    <marker
       inkscape:stockid="Arrow2Mend"
       orient="auto"
       refY="0"
       refX="0"
       id="marker4223"
       style="overflow:visible">
      <path
         id="path4225"
         style="fill-rule:evenodd;stroke-width:0.625;stroke-linejoin:round"
         d="M 8.7185878,4.0337352 -2.2072895,0.01601326 8.7185884,-4.0017078 c -1.7454984,2.3720609 -1.7354408,5.6174519 -6e-7,8.035443 z"
         transform="scale(-0.6,-0.6)"
         inkscape:connector-curvature="0" />
    </marker>
    <marker
       inkscape:stockid="Arrow2Mend"
       orient="auto"
       refY="0"
       refX="0"
       id="marker4227"
       style="overflow:visible">
      <path
         id="path4229"
         style="fill-rule:evenodd;stroke-width:0.625;stroke-linejoin:round"
         d="M 8.7185878,4.0337352 -2.2072895,0.01601326 8.7185884,-4.0017078 c -1.7454984,2.3720609 -1.7354408,5.6174519 -6e-7,8.035443 z"
         transform="scale(-0.6,-0.6)"
         inkscape:connector-curvature="0" />
    </marker>
    <marker
       inkscape:stockid="Arrow2Mend"
       orient="auto"
       refY="0"
       refX="0"
       id="Arrow2Mend-2375922"
       style="overflow:visible">
      <path
         id="path3867"
         style="fill-rule:evenodd;stroke-width:0.625;stroke-linejoin:round"
         d="M 8.7185878,4.0337352 -2.2072895,0.01601326 8.7185884,-4.0017078 c -1.7454984,2.3720609 -1.7354408,5.6174519 -6e-7,8.035443 z"
         transform="scale(-0.6,-0.6)"
         inkscape:connector-curvature="0" />
    </marker>
    <marker
       inkscape:stockid="Arrow2Mend"
       orient="auto"
       refY="0"
       refX="0"
       id="marker4286"
       style="overflow:visible">
      <path
         id="path4288"
         style="fill-rule:evenodd;stroke-width:0.625;stroke-linejoin:round"
         d="M 8.7185878,4.0337352 -2.2072895,0.01601326 8.7185884,-4.0017078 c -1.7454984,2.3720609 -1.7354408,5.6174519 -6e-7,8.035443 z"
         transform="scale(-0.6,-0.6)"
         inkscape:connector-curvature="0" />
    </marker>
    <marker
       inkscape:stockid="Arrow2Mend"
       orient="auto"
       refY="0"
       refX="0"
       id="marker4290"
       style="overflow:visible">
      <path
         id="path4292"
         style="fill-rule:evenodd;stroke-width:0.625;stroke-linejoin:round"
         d="M 8.7185878,4.0337352 -2.2072895,0.01601326 8.7185884,-4.0017078 c -1.7454984,2.3720609 -1.7354408,5.6174519 -6e-7,8.035443 z"
         transform="scale(-0.6,-0.6)"
         inkscape:connector-curvature="0" />
    </marker>
    <marker
       inkscape:stockid="Arrow2Mend"
       orient="auto"
       refY="0"
       refX="0"
       id="marker4294"
       style="overflow:visible">
      <path
         id="path4296"
         style="fill-rule:evenodd;stroke-width:0.625;stroke-linejoin:round"
         d="M 8.7185878,4.0337352 -2.2072895,0.01601326 8.7185884,-4.0017078 c -1.7454984,2.3720609 -1.7354408,5.6174519 -6e-7,8.035443 z"
         transform="scale(-0.6,-0.6)"
         inkscape:connector-curvature="0" />
    </marker>
    <marker
       inkscape:stockid="Arrow2Mend"
       orient="auto"
       refY="0"
       refX="0"
       id="Arrow2Mend-23759228"
       style="overflow:visible">
      <path
         id="path3961"
         style="fill-rule:evenodd;stroke-width:0.625;stroke-linejoin:round"
         d="M 8.7185878,4.0337352 -2.2072895,0.01601326 8.7185884,-4.0017078 c -1.7454984,2.3720609 -1.7354408,5.6174519 -6e-7,8.035443 z"
         transform="scale(-0.6,-0.6)"
         inkscape:connector-curvature="0" />
    </marker>
    <marker
       inkscape:stockid="Arrow2Mend"
       orient="auto"
       refY="0"
       refX="0"
       id="marker4185"
       style="overflow:visible">
      <path
         id="path4187"
         style="fill-rule:evenodd;stroke-width:0.625;stroke-linejoin:round"
         d="M 8.7185878,4.0337352 -2.2072895,0.01601326 8.7185884,-4.0017078 c -1.7454984,2.3720609 -1.7354408,5.6174519 -6e-7,8.035443 z"
         transform="scale(-0.6,-0.6)"
         inkscape:connector-curvature="0" />
    </marker>
    <marker
       inkscape:stockid="Arrow2Mend"
       orient="auto"
       refY="0"
       refX="0"
       id="marker4189"
       style="overflow:visible">
      <path
         id="path4191"
         style="fill-rule:evenodd;stroke-width:0.625;stroke-linejoin:round"
         d="M 8.7185878,4.0337352 -2.2072895,0.01601326 8.7185884,-4.0017078 c -1.7454984,2.3720609 -1.7354408,5.6174519 -6e-7,8.035443 z"
         transform="scale(-0.6,-0.6)"
         inkscape:connector-curvature="0" />
    </marker>
    <marker
       inkscape:stockid="Arrow2Mend"
       orient="auto"
       refY="0"
       refX="0"
       id="marker4193"
       style="overflow:visible">
      <path
         id="path4195"
         style="fill-rule:evenodd;stroke-width:0.625;stroke-linejoin:round"
         d="M 8.7185878,4.0337352 -2.2072895,0.01601326 8.7185884,-4.0017078 c -1.7454984,2.3720609 -1.7354408,5.6174519 -6e-7,8.035443 z"
         transform="scale(-0.6,-0.6)"
         inkscape:connector-curvature="0" />
    </marker>
  </defs>
  <sodipodi:namedview
     id="base"
     pagecolor="#ffffff"
     bordercolor="#666666"
     borderopacity="1.0"
     inkscape:pageopacity="0.0"
     inkscape:pageshadow="2"
     inkscape:zoom="5.6"
     inkscape:cx="38.637155"
     inkscape:cy="52.180021"
     inkscape:document-units="px"
     inkscape:current-layer="layer1"
     showgrid="true"
     inkscape:object-paths="false"
     inkscape:window-width="1920"
     inkscape:window-height="1015"
     inkscape:window-x="0"
     inkscape:window-y="0"
     inkscape:window-maximized="1"
     inkscape:showpageshadow="false"
     fit-margin-top="5"
     fit-margin-left="5"
     fit-margin-right="5"
     fit-margin-bottom="5"
     inkscape:snap-intersection-paths="false"
     inkscape:snap-midpoints="false"
     inkscape:snap-smooth-nodes="false"
     inkscape:object-nodes="true">
    <inkscape:grid
       type="xygrid"
       id="grid838"
       originx="-128.50001"
       originy="226.50002" />
  </sodipodi:namedview>
  <metadata
     id="metadata3085">
    <rdf:RDF>
      <cc:Work
         rdf:about="">
        <dc:format>image/svg+xml</dc:format>
        <dc:type
           rdf:resource="http://purl.org/dc/dcmitype/StillImage" />
        <dc:title></dc:title>
      </cc:Work>
    </rdf:RDF>
  </metadata>
  <g
     inkscape:label="Layer 1"
     inkscape:groupmode="layer"
     id="layer1"
     transform="translate(-434.90335,-860.42969)">
    <path
       id="path2996-5-2"
       style="fill:#b3b3b3;stroke:#000000;stroke-width:0.50038117px;stroke-linecap:butt;stroke-linejoin:miter;stroke-opacity:1"
       d="m 491.40334,806.92967 c -15.26138,0 -20.34851,19.68744 -5.08712,24.60931 2.54355,2.46093 0,9.84371 5.08712,22.14837 3.68216,8.90635 10.17425,24.04147 2.54357,31.42423 -7.63069,7.38284 -17.44158,1.05471 -22.52871,-11.24993 -0.75172,-1.4546 -2.90692,-3.51563 -5.45049,-3.51563 -3.59714,0 2.54357,3.76226 2.54357,9.84372 0,7.38284 5.08712,14.7656 10.17425,17.22653 6.43476,3.11287 15.52614,2.91758 20.3485,0 20.34851,-12.31095 3.7775,-32.76459 -2.54357,-51.11171 -2.54355,-7.38279 -2.54355,-12.30465 0,-14.76558 15.26139,-4.92187 10.17426,-24.60931 -5.08712,-24.60931 z m 0,4.92186 c 4.21431,0 7.63069,3.30538 7.63069,7.38279 0,4.0774 -3.41638,7.38279 -7.63069,7.38279 -4.21431,0 -7.63069,-3.30539 -7.63069,-7.38279 0,-4.07741 3.41638,-7.38279 7.63069,-7.38279 z"
       inkscape:connector-curvature="0"
       sodipodi:nodetypes="scsscssssscssssss" />
    <path
       style="fill:none;fill-rule:evenodd;stroke:#000000;stroke-width:3;stroke-linecap:butt;stroke-linejoin:miter;stroke-miterlimit:4;stroke-dasharray:none;stroke-opacity:1"
       d="m 466.40334,961.92966 c 0,-6.83709 0,-13.67419 0.20455,-19.99991 m 0.2883,-6.26594 c 0.0901,-1.45035 0.19667,-2.85951 0.32271,-4.21998 m 0.79089,-6.26896 c 0.16792,-1.00076 0.35339,-1.95764 0.55825,-2.86605 m 1.87325,-5.71896 c 1.42517,-2.95886 3.35334,-4.6602 5.96205,-4.6602 10,0 -5,40 5,40 2.66344,0 3.9081,-2.83756 4.48974,-7.00115 m 0.44301,-5.99876 c 0.0389,-1.29707 0.0553,-2.6391 0.0622,-4.00009 m 0.0101,-6 c 0.007,-1.36093 0.0233,-2.70289 0.0622,-3.99991 m 0.4433,-6.00101 c 0.58177,-4.16245 1.82646,-6.99907 4.48945,-6.99907 10,-10e-6 0,39.99999 10,39.99999 3.40097,0 3.91029,-4.04831 3.49484,-9.58798 m -0.66951,-6.0852 c -0.20365,-1.55948 -0.42307,-3.15742 -0.62786,-4.75427 m -0.67991,-6.44001 c -0.0451,-0.63457 -0.0803,-1.25954 -0.10359,-1.87203 m 0.38047,-6.30204 c 0.49198,-2.32735 1.47397,-4.09266 3.20556,-4.95846 8.26683,-4.13342 9.69961,12.23529 -7.00082,18.03342 m -5.99903,1.4603 c -2.12558,0.32632 -4.45489,0.50627 -7.00015,0.50627 -1.55192,0 -3.03694,-0.0535 -4.45713,-0.15641 m -5.94919,-0.78004 c -20.71854,-4.06353 -23.94783,-20.35526 -19.59368,-29.06355 5,-10 25,-15 25,-20 0,-1.58728 -2.51946,-2.67067 -6.27867,-2.77028 m -7.80086,0.97947 c -7.42536,1.93799 -15.99352,6.93692 -20.92047,16.79081 -8.82674,17.65349 1.82437,39.20255 28.51481,44.01606 m 5.96279,0.76772 c 1.78133,0.14255 3.62239,0.21622 5.5224,0.21622 2.49535,0 4.88903,-0.12708 7.17925,-0.37036 m 5.95661,-0.93676 c 25.47602,-5.3884 35.50661,-26.40795 26.86414,-43.69288 -4.01041,-8.02082 -10.43333,-12.82496 -16.68872,-15.37994 m -13.87558,-2.25151 c -2.71674,0.35306 -4.4357,1.32036 -4.4357,2.63145 0,5 20,10 25,20 1.94932,3.89864 1.61873,7.79728 -0.99176,11.10334 m -6.04564,4.65591 c -2.73618,1.37084 -6.14988,2.47255 -10.24113,3.20915 m -5.9582,0.76578 c -2.11713,0.1743 -4.37156,0.26582 -6.76327,0.26582 -1.20784,0 -2.35732,-0.0233 -3.45127,-0.0683 m -5.98083,-0.52489 c -15.5679,-2.22121 -15.5679,-10.13705 -15.5679,-14.40678"
       id="path4591"
       inkscape:connector-curvature="0"
       sodipodi:nodetypes="czzzzzzzsccszsccszzc"
       inkscape:path-effect="#path-effect4599"
       inkscape:original-d="m 466.40334,961.92966 c 0,-25 0,-50 10,-50 10,0 -5,40 5,40 10,0 0,-39.99998 10,-39.99999 10,-10e-6 0,39.99999 10,39.99999 10,0 -5,-34.99998 5,-39.99999 10,-5.00001 10,19.99999 -20,19.99999 -30,0 -35,-20 -30,-30 5,-10 25,-15 25,-20 0,-1.58728 -2.51946,-2.67067 -6.27867,-2.77028 m -7.80086,0.97947 c -7.42536,1.93799 -15.99352,6.93692 -20.92047,16.79081 -10,20 5,45 40,45 35,0 50,-25 40,-45 -4.01041,-8.02082 -10.43333,-12.82496 -16.68872,-15.37994 m -13.87558,-2.25151 c -2.71674,0.35306 -4.4357,1.32036 -4.4357,2.63145 0,5 20,10 25,20 5,10 -5,20 -30,20 -25,0 -25,-10 -25,-15" />
  </g>
</svg>
