<?xml version="1.0" encoding="UTF-8" standalone="no"?>
<!-- Created with Inkscape (http://www.inkscape.org/) -->

<svg
   xmlns:dc="http://purl.org/dc/elements/1.1/"
   xmlns:cc="http://creativecommons.org/ns#"
   xmlns:rdf="http://www.w3.org/1999/02/22-rdf-syntax-ns#"
   xmlns:svg="http://www.w3.org/2000/svg"
   xmlns="http://www.w3.org/2000/svg"
   xmlns:sodipodi="http://sodipodi.sourceforge.net/DTD/sodipodi-0.dtd"
   xmlns:inkscape="http://www.inkscape.org/namespaces/inkscape"
   width="206.5"
   height="62.399998"
   id="svg3080"
   version="1.1"
   inkscape:version="0.91 r13725"
   sodipodi:docname="Angler_Loop_2.svg">
  <defs
     id="defs3082">
    <inkscape:path-effect
       effect="simplify"
       id="path-effect936"
       is_visible="true"
       steps="1"
       threshold="0.00243902"
       smooth_angles="360"
       helper_size="0"
       simplify_individual_paths="true"
       simplify_just_coalesce="true"
       simplifyindividualpaths="false"
       simplifyJustCoalesce="false" />
    <marker
       inkscape:stockid="Arrow2Mend"
       orient="auto"
       refY="0"
       refX="0"
       id="Arrow2Mend"
       style="overflow:visible"
       inkscape:isstock="true">
      <path
         id="path908"
         style="fill:#ff0000;fill-opacity:1;fill-rule:evenodd;stroke:#ff0000;stroke-width:0.625;stroke-linejoin:round;stroke-opacity:1"
         d="M 8.7185878,4.0337352 -2.2072895,0.01601326 8.7185884,-4.0017078 c -1.7454984,2.3720609 -1.7354408,5.6174519 -6e-7,8.035443 z"
         transform="scale(-0.6,-0.6)"
         inkscape:connector-curvature="0" />
    </marker>
    <marker
       inkscape:stockid="Arrow2Lend"
       orient="auto"
       refY="0"
       refX="0"
       id="Arrow2Lend"
       style="overflow:visible"
       inkscape:isstock="true">
      <path
         id="path902"
         style="fill:#fe0000;fill-opacity:1;fill-rule:evenodd;stroke:#fe0000;stroke-width:0.625;stroke-linejoin:round;stroke-opacity:1"
         d="M 8.7185878,4.0337352 -2.2072895,0.01601326 8.7185884,-4.0017078 c -1.7454984,2.3720609 -1.7354408,5.6174519 -6e-7,8.035443 z"
         transform="matrix(-1.1,0,0,-1.1,-1.1,0)"
         inkscape:connector-curvature="0" />
    </marker>
    <marker
       inkscape:stockid="Arrow1Lstart"
       orient="auto"
       refY="0"
       refX="0"
       id="Arrow1Lstart"
       style="overflow:visible"
       inkscape:isstock="true">
      <path
         id="path881"
         d="M 0,0 5,-5 -12.5,0 5,5 Z"
         style="fill:#fe0000;fill-opacity:1;fill-rule:evenodd;stroke:#fe0000;stroke-width:1pt;stroke-opacity:1"
         transform="matrix(0.8,0,0,0.8,10,0)"
         inkscape:connector-curvature="0" />
    </marker>
    <inkscape:path-effect
       effect="knot"
       id="path-effect840"
       is_visible="true"
       interruption_width="3"
       prop_to_stroke_width="false"
       add_stroke_width="true"
       add_other_stroke_width="false"
       switcher_size="15"
       crossing_points_vector="712.05242 | 704.71211 | 0 | 0 | 2 | 19 | 0.49394428 | 7.3474276 | 1 | 718.00134 | 677.61611 | 0 | 0 | 0 | 23 | 0.1217079 | 12.357689 | -1 | 713.12013 | 714.5054 | 0 | 0 | 3 | 26 | 0.71607046 | 13.708565 | -1 | 715.1931 | 687.63807 | 0 | 0 | 1 | 30 | 0.24405911 | 16.465111 | 1 | 731.8775 | 703.02327 | 0 | 0 | 4 | 17 | 1.3881694 | 7.2055185 | 1 | 734.57542 | 691.92966 | 0 | 0 | 5 | 32 | 1.6195075 | 17.03021 | -1 | 746.466 | 702.0618 | 0 | 0 | 7 | 16 | 2.616136 | 7.0679221 | 1 | 746.34557 | 691.92966 | 0 | 0 | 6 | 33 | 2.3869631 | 17.142307 | -1 | 756.35989 | 701.49019 | 0 | 0 | 8 | 15 | 3.3972067 | 6.9117827 | 1 | 756.46111 | 691.92966 | 0 | 0 | 9 | 34 | 3.6130369 | 17.238645 | -1 | 773.36397 | 691.21124 | 0 | 0 | 10 | 13 | 4.4760342 | 6.4760342 | 1 | 773.90334 | 691.92966 | 0 | 0 | 11 | 36 | 4.5 | 17.404762 | -1 | 793.90334 | 691.92966 | 0 | 0 | 12 | 37 | 5.5 | 17.595238 | -1 | 772.65334 | 691.92966 | 0 | 0 | 14 | 35 | 6.5 | 17.392855 | -1 | 723.96789 | 703.67054 | 0 | 0 | 18 | 25 | 7.265541 | 13.292124 | 1 | 680.15992 | 707.60724 | 0 | 0 | 20 | 27 | 7.5452958 | 14.586889 | 1 | 670.55524 | 680.65726 | 0 | 0 | 21 | 28 | 10.776777 | 15.285397 | -1 | 696.9223 | 680.1873 | 0 | 0 | 22 | 29 | 11.397547 | 16.115227 | -1 | 726.38404 | 690.81013 | 0 | 0 | 24 | 31 | 12.974476 | 16.726806 | -1" />
    <filter
       id="filter3111"
       inkscape:label="Outline, double"
       inkscape:menu="Morphology"
       inkscape:menu-tooltip="Draws a smooth line inside colorized with the color it overlays"
       style="color-interpolation-filters:sRGB">
      <feGaussianBlur
         id="feGaussianBlur3113"
         stdDeviation="3"
         in="SourceAlpha"
         result="result1" />
      <feComposite
         id="feComposite3115"
         in2="result1"
         operator="arithmetic"
         k2="3.2"
         k1="-1"
         k4="-2"
         result="result3"
         k3="0" />
      <feColorMatrix
         id="feColorMatrix3117"
         values="0 0 0 0 0 0 1 0 0 0 0 0 1 0 0 0 0 0 10 0 "
         result="result2" />
      <feComposite
         id="feComposite3119"
         in2="result2"
         result="fbSourceGraphic"
         in="SourceGraphic"
         operator="out" />
      <feGaussianBlur
         id="feGaussianBlur3121"
         in="fbSourceGraphic"
         stdDeviation="0.5"
         result="result4" />
      <feComposite
         id="feComposite3123"
         in2="result4"
         operator="xor"
         in="result4"
         result="result5" />
      <feBlend
         id="feBlend3125"
         in2="result5"
         result="result6"
         mode="darken"
         in="result5" />
      <feBlend
         id="feBlend3127"
         in2="result6"
         in="result6"
         mode="darken" />
    </filter>
    <inkscape:path-effect
       effect="knot"
       id="path-effect840-2"
       is_visible="true"
       interruption_width="3"
       prop_to_stroke_width="false"
       add_stroke_width="true"
       add_other_stroke_width="false"
       switcher_size="15"
       crossing_points_vector="403.23988 | 875.24536 | 0 | 0 | 0 | 3 | 0.30583405 | 3.7905355 | -1 | 434.69018 | 856.18644 | 0 | 0 | 1 | 4 | 0.64654265 | 5.6367509 | 1 | 461.39463 | 867.49793 | 0 | 0 | 2 | 5 | 2.013941 | 6.3359148 | 1" />
    <marker
       inkscape:stockid="Arrow2Mend"
       orient="auto"
       refY="0"
       refX="0"
       id="Arrow2Mend-2"
       style="overflow:visible">
      <path
         id="path3886"
         style="fill-rule:evenodd;stroke-width:0.625;stroke-linejoin:round"
         d="M 8.7185878,4.0337352 -2.2072895,0.01601326 8.7185884,-4.0017078 c -1.7454984,2.3720609 -1.7354408,5.6174519 -6e-7,8.035443 z"
         transform="scale(-0.6,-0.6)"
         inkscape:connector-curvature="0" />
    </marker>
    <marker
       inkscape:stockid="Arrow2Mend"
       orient="auto"
       refY="0"
       refX="0"
       id="marker910"
       style="overflow:visible">
      <path
         id="path908-3"
         style="fill-rule:evenodd;stroke-width:0.625;stroke-linejoin:round"
         d="M 8.7185878,4.0337352 -2.2072895,0.01601326 8.7185884,-4.0017078 c -1.7454984,2.3720609 -1.7354408,5.6174519 -6e-7,8.035443 z"
         transform="scale(-0.6,-0.6)"
         inkscape:connector-curvature="0" />
    </marker>
    <marker
       inkscape:stockid="Arrow2Mend"
       orient="auto"
       refY="0"
       refX="0"
       id="marker914"
       style="overflow:visible">
      <path
         id="path912"
         style="fill-rule:evenodd;stroke-width:0.625;stroke-linejoin:round"
         d="M 8.7185878,4.0337352 -2.2072895,0.01601326 8.7185884,-4.0017078 c -1.7454984,2.3720609 -1.7354408,5.6174519 -6e-7,8.035443 z"
         transform="scale(-0.6,-0.6)"
         inkscape:connector-curvature="0" />
    </marker>
    <marker
       inkscape:stockid="Arrow2Mend"
       orient="auto"
       refY="0"
       refX="0"
       id="marker918"
       style="overflow:visible">
      <path
         id="path916"
         style="fill-rule:evenodd;stroke-width:0.625;stroke-linejoin:round"
         d="M 8.7185878,4.0337352 -2.2072895,0.01601326 8.7185884,-4.0017078 c -1.7454984,2.3720609 -1.7354408,5.6174519 -6e-7,8.035443 z"
         transform="scale(-0.6,-0.6)"
         inkscape:connector-curvature="0" />
    </marker>
    <marker
       inkscape:stockid="Arrow2Mend"
       orient="auto"
       refY="0"
       refX="0"
       id="marker922"
       style="overflow:visible">
      <path
         id="path920"
         style="fill-rule:evenodd;stroke-width:0.625;stroke-linejoin:round"
         d="M 8.7185878,4.0337352 -2.2072895,0.01601326 8.7185884,-4.0017078 c -1.7454984,2.3720609 -1.7354408,5.6174519 -6e-7,8.035443 z"
         transform="scale(-0.6,-0.6)"
         inkscape:connector-curvature="0" />
    </marker>
    <marker
       inkscape:stockid="Arrow2Mend"
       orient="auto"
       refY="0"
       refX="0"
       id="marker926"
       style="overflow:visible">
      <path
         id="path924"
         style="fill-rule:evenodd;stroke-width:0.625;stroke-linejoin:round"
         d="M 8.7185878,4.0337352 -2.2072895,0.01601326 8.7185884,-4.0017078 c -1.7454984,2.3720609 -1.7354408,5.6174519 -6e-7,8.035443 z"
         transform="scale(-0.6,-0.6)"
         inkscape:connector-curvature="0" />
    </marker>
    <inkscape:path-effect
       effect="knot"
       id="path-effect840-2375-2"
       is_visible="true"
       interruption_width="3"
       prop_to_stroke_width="false"
       add_stroke_width="true"
       add_other_stroke_width="false"
       switcher_size="15"
       crossing_points_vector="695.24132 | 766.38428 | 0 | 0 | 2 | 19 | 0.62502955 | 7.5222047 | 1 | 705.13684 | 736.36453 | 0 | 0 | 0 | 23 | 0.14841389 | 11.95688 | -1 | 699.80963 | 775.34413 | 0 | 0 | 3 | 26 | 0.86303704 | 12.871936 | -1 | 700.07253 | 746.22031 | 0 | 0 | 1 | 30 | 0.29510103 | 14.954642 | 1 | 718.92094 | 765.71988 | 0 | 0 | 4 | 17 | 1.3777502 | 7.3768711 | 1 | 721.37165 | 749.98566 | 0 | 0 | 5 | 32 | 1.6888687 | 15.270135 | -1 | 735.50144 | 764.9502 | 0 | 0 | 7 | 16 | 2.6869455 | 7.2657248 | 1 | 732.74111 | 750.66124 | 0 | 0 | 6 | 33 | 2.3567853 | 15.366961 | -1 | 747.53305 | 764.07716 | 0 | 0 | 8 | 15 | 3.3351988 | 7.170623 | 1 | 749.92565 | 751.29831 | 0 | 0 | 9 | 34 | 3.6279329 | 15.498313 | -1 | 765.35658 | 760.28959 | 0 | 0 | 11 | 14 | 4.6611594 | 6.9065048 | 1 | 763.39996 | 751.60457 | 0 | 0 | 10 | 35 | 4.4235905 | 15.597892 | -1 | 787.58716 | 751.88304 | 0 | 0 | 12 | 37 | 5.7608561 | 15.78955 | -1 | 776.53666 | 751.79191 | 0 | 0 | 13 | 36 | 6.5480423 | 15.697974 | -1 | 709.5537 | 766.02875 | 0 | 0 | 18 | 25 | 7.4351884 | 12.63356 | 1 | 673.62694 | 766.72778 | 0 | 0 | 20 | 27 | 7.6569385 | 13.35254 | 1 | 672.52566 | 741.18327 | 0 | 0 | 21 | 28 | 10.75625 | 13.84478 | -1 | 690.51113 | 739.3181 | 0 | 0 | 22 | 29 | 11.350714 | 14.571296 | -1 | 712.48035 | 749.17951 | 0 | 0 | 24 | 31 | 12.326887 | 15.180663 | -1" />
  </defs>
  <sodipodi:namedview
     id="base"
     pagecolor="#ffffff"
     bordercolor="#666666"
     borderopacity="1.0"
     inkscape:pageopacity="0.0"
     inkscape:pageshadow="2"
     inkscape:zoom="3.959798"
     inkscape:cx="105.93672"
     inkscape:cy="54.532089"
     inkscape:document-units="px"
     inkscape:current-layer="layer1"
     showgrid="true"
     inkscape:object-paths="false"
     inkscape:window-width="1920"
     inkscape:window-height="1051"
     inkscape:window-x="0"
     inkscape:window-y="0"
     inkscape:window-maximized="1"
     inkscape:showpageshadow="false"
     fit-margin-top="5"
     fit-margin-left="5"
     fit-margin-right="5"
     fit-margin-bottom="5"
     inkscape:snap-intersection-paths="false"
     inkscape:snap-midpoints="false"
     inkscape:snap-smooth-nodes="false"
     inkscape:object-nodes="true">
    <inkscape:grid
       type="xygrid"
       id="grid838"
       originx="-298.5"
       originy="41.500003" />
  </sodipodi:namedview>
  <metadata
     id="metadata3085">
    <rdf:RDF>
      <cc:Work
         rdf:about="">
        <dc:format>image/svg+xml</dc:format>
        <dc:type
           rdf:resource="http://purl.org/dc/dcmitype/StillImage" />
        <dc:title></dc:title>
      </cc:Work>
    </rdf:RDF>
  </metadata>
  <g
     inkscape:label="Layer 1"
     inkscape:groupmode="layer"
     id="layer1"
     transform="translate(-604.90334,-721.02966)">
    <path
       style="fill:none;fill-rule:evenodd;stroke:#000000;stroke-width:3;stroke-linecap:butt;stroke-linejoin:miter;stroke-miterlimit:4;stroke-dasharray:none;stroke-opacity:1"
       d="m 711.40334,726.92966 c -3.89202,5.18935 -7.1108,11.05194 -9.48166,16.88904 m -2.05046,5.70237 c -2.90468,9.28841 -3.44374,17.91208 -0.87911,22.91871 m 5.04733,4.20694 c 0.72469,0.18619 1.51204,0.28294 2.3639,0.28294 4.67895,0 7.4119,-3.40552 9.26111,-8.09198 m 1.85451,-6.06846 c 0.80792,-3.30106 1.44158,-6.76677 2.1478,-9.90346 m 1.65801,-5.89088 c 1.15433,-3.0446 2.68774,-5.04522 5.07857,-5.04522 10,0 5,30 15,30 2.51947,0 4.08678,-1.90432 5.18172,-4.75338 m 1.60846,-6.17196 c 0.41452,-2.18397 0.7667,-4.49265 1.1591,-6.72086 m 1.31781,-5.96548 c 1.10974,-3.7319 2.75722,-6.38832 5.73291,-6.38832 10,-10e-6 5.26774,25.05792 15,25 6.28641,-0.0374 12.79624,-6.28497 15.27044,-12.0519 m 0.83967,-5.99519 c -0.2029,-0.74733 -0.56615,-1.40895 -1.11011,-1.95291 -4.17715,-4.17715 -8.3543,5.60456 -18.36226,11.85266 m -5.45392,2.72469 c -0.38757,0.14767 -0.78211,0.28875 -1.18382,0.42265 -3.64851,1.21617 -12.03002,2.13652 -22.8421,2.83301 m -6.12427,0.35812 c -6.04872,0.32143 -12.64263,0.58574 -19.45695,0.80308 m -6.84861,0.20134 c -1.89124,0.0511 -3.79087,0.099 -5.69228,0.14388 m -6.00914,0.13189 c -25.95213,0.52868 -50.93361,0.52868 -58.02665,0.52868 -15,0 -25,-5 -25,-15 0,-10 10,-15 25,-15 15,0 35,5 45,5 2.20431,0 4.16568,-0.4859 5.9912,-1.18993 m 6.07118,-2.96364 c 2.82963,-1.44721 5.6316,-2.60804 8.94215,-2.14195 m 5.53693,2.368 c 8.38449,7.63358 7.09792,38.92752 -16.54146,38.92752 -7.23839,0 -12.381,-2.93408 -15.79193,-7.22455 m -3.3904,-5.96132 c -2.56684,-6.50917 -2.60739,-14.13518 -0.85784,-19.68781 m 3.08096,-5.64577 c 0.59995,-0.62724 1.25477,-1.12833 1.95921,-1.48055 10,-5 15,5 25,10 1.44189,0.72094 4.23514,1.33793 8.02004,1.86596 m 6.10698,0.70159 c 4.13725,0.39632 8.92113,0.72807 14.09912,1.00577 m 6.21968,0.30071 c 7.79515,0.3394 16.19591,0.5765 24.46217,0.74213 m 6.17591,0.11151 c 1.96623,0.0318 3.91384,0.0598 5.83247,0.0846 m 8.4426,0.0913 c 10.95941,0.0964 20.27778,0.0964 25.64103,0.0964"
       id="path831-2-3"
       inkscape:connector-curvature="0"
       sodipodi:nodetypes="czzzzzzzzzzzzzzzc"
       inkscape:path-effect="#path-effect840-2375-2"
       inkscape:original-d="m 711.40334,726.92966 c -15,20 -20,50.00001 -5,50 15,-10e-6 10,-35 20,-35 10,0 5,30 15,30 10,0 5,-30 15,-30 10,-10e-6 5.26774,25.05792 15,25 9.73226,-0.0579 20,-15 15,-20 -5,-5 -10,10 -25,15 -15,4.99999 -110,5 -125,5 -15,0 -25,-5 -25,-15 0,-10 10,-15 25,-15 15,0 35,5 45,5 10,0 15,-10 25,-5 10,5 10,40 -15,40 -25,0 -25,-35 -15,-40 10,-5 15,5 25,10 10,5 85,5 105,5" />
  </g>
</svg>
