<?xml version="1.0" encoding="UTF-8" standalone="no"?>
<!-- Created with Inkscape (http://www.inkscape.org/) -->

<svg
   xmlns:dc="http://purl.org/dc/elements/1.1/"
   xmlns:cc="http://creativecommons.org/ns#"
   xmlns:rdf="http://www.w3.org/1999/02/22-rdf-syntax-ns#"
   xmlns:svg="http://www.w3.org/2000/svg"
   xmlns="http://www.w3.org/2000/svg"
   xmlns:sodipodi="http://sodipodi.sourceforge.net/DTD/sodipodi-0.dtd"
   xmlns:inkscape="http://www.inkscape.org/namespaces/inkscape"
   width="229.25011"
   height="77.430099"
   id="svg2"
   version="1.1"
   inkscape:version="0.91 r13725"
   sodipodi:docname="Bimini_Twist_1.svg"
   inkscape:export-filename="/home/dedandrey/Latex/Булинь/Site/Besedochny.png"
   inkscape:export-xdpi="90"
   inkscape:export-ydpi="90">
  <defs
     id="defs4">
    <inkscape:path-effect
       effect="knot"
       id="path-effect6268"
       is_visible="true"
       interruption_width="3"
       prop_to_stroke_width="false"
       add_stroke_width="true"
       add_other_stroke_width="false"
       switcher_size="15"
       crossing_points_vector="172.22583 | -65.280951 | 0 | 0 | 0 | 13 | 0.48169992 | 14.518296 | -1 | 143.90244 | -65.28088 | 0 | 0 | 1 | 12 | 1.5 | 13.5 | -1 | 113.90244 | -65.28088 | 0 | 0 | 2 | 11 | 2.5 | 12.5 | -1 | 83.902438 | -65.28088 | 0 | 0 | 3 | 10 | 3.5 | 11.5 | -1 | 53.902438 | -65.28088 | 0 | 0 | 4 | 9 | 4.5 | 10.5 | -1 | 23.902438 | -65.28088 | 0 | 0 | 5 | 8 | 5.5 | 9.5 | -1 | -6.8442607 | -65.280883 | 0 | 0 | 6 | 7 | 6.3869631 | 8.6130369 | -1" />
    <inkscape:path-effect
       effect="simplify"
       id="path-effect962"
       is_visible="true"
       steps="1"
       threshold="0.00243902"
       smooth_angles="360"
       helper_size="0"
       simplify_individual_paths="false"
       simplify_just_coalesce="false"
       simplifyindividualpaths="false"
       simplifyJustCoalesce="false" />
    <inkscape:path-effect
       effect="knot"
       id="path-effect4163"
       is_visible="true"
       interruption_width="1"
       prop_to_stroke_width="true"
       add_stroke_width="true"
       add_other_stroke_width="false"
       switcher_size="10"
       crossing_points_vector="-40.321315 | 242.74655 | 0 | 0 | 0 | 1 | 2.7589991 | 4.2988128 | 1" />
    <inkscape:path-effect
       effect="knot"
       id="path-effect2985"
       is_visible="true"
       interruption_width="1.5"
       prop_to_stroke_width="true"
       add_stroke_width="true"
       add_other_stroke_width="false"
       switcher_size="25"
       crossing_points_vector="179.33223 | 213.34272 | 0 | 0 | 2 | 7 | 0.88834318 | 2.1008364 | -1 | 187.02917 | 168.23552 | 0 | 0 | 0 | 10 | 0.4364998 | 3.8264664 | 1 | 179.05605 | 186.51992 | 0 | 0 | 1 | 11 | 0.57380061 | 4.3429393 | 1 | 212.51428 | 213.33582 | 0 | 0 | 4 | 8 | 1.2416251 | 3.6054883 | -1 | 202.54425 | 192.66223 | 0 | 0 | 5 | 9 | 1.8339622 | 3.6895504 | -1 | 198.95141 | 217.46136 | 0 | 0 | 3 | 13 | 1.0727533 | 4.6298214 | 1 | 188.64423 | 200.68352 | 0 | 0 | 6 | 12 | 1.9971524 | 4.4874634 | 1" />
    <filter
       id="filter2987"
       inkscape:label="Outline, double"
       inkscape:menu="Morphology"
       inkscape:menu-tooltip="Draws a smooth line inside colorized with the color it overlays"
       style="color-interpolation-filters:sRGB">
      <feGaussianBlur
         id="feGaussianBlur2989"
         stdDeviation="3"
         in="SourceAlpha"
         result="result1" />
      <feComposite
         id="feComposite2991"
         in2="result1"
         operator="arithmetic"
         k2="3.2"
         k1="-1"
         k4="-2"
         result="result3"
         k3="0" />
      <feColorMatrix
         id="feColorMatrix2993"
         values="0 0 0 0 0 0 1 0 0 0 0 0 1 0 0 0 0 0 10 0 "
         result="result2" />
      <feComposite
         id="feComposite2995"
         in2="result2"
         result="fbSourceGraphic"
         in="SourceGraphic"
         operator="out" />
      <feGaussianBlur
         id="feGaussianBlur2997"
         in="fbSourceGraphic"
         stdDeviation="0.5"
         result="result4" />
      <feComposite
         id="feComposite2999"
         in2="result4"
         operator="xor"
         in="result4"
         result="result5" />
      <feBlend
         id="feBlend3001"
         in2="result5"
         result="result6"
         mode="darken"
         in="result5" />
      <feBlend
         id="feBlend3003"
         in2="result6"
         in="result6"
         mode="darken" />
    </filter>
    <inkscape:path-effect
       effect="knot"
       id="path-effect4163-2"
       is_visible="true"
       interruption_width="1"
       prop_to_stroke_width="true"
       add_stroke_width="true"
       add_other_stroke_width="false"
       switcher_size="10"
       crossing_points_vector="-9.4093435 | 295.00718 | 0 | 0 | 0 | 7 | 0.39631441 | 4.2943951 | -1 | -24.494406 | 248.20966 | 0 | 0 | 2 | 5 | 1.4147789 | 3.528825 | -1 | -18.495525 | 231.51559 | 0 | 0 | 3 | 10 | 1.7417797 | 7.1488619 | 1 | -27.055127 | 259.70324 | 0 | 0 | 1 | 12 | 1.1808155 | 8.0162197 | 1 | -33.173426 | 231.06481 | 0 | 0 | 4 | 9 | 3.2378859 | 6.8741514 | -1 | -18.53695 | 257.945 | 0 | 0 | 6 | 11 | 3.7051013 | 7.85212 | -1 | -43.935489 | 239.6792 | 0 | 0 | 8 | 13 | 6.6367144 | 8.5236215 | -1" />
    <marker
       inkscape:stockid="Arrow2Mend"
       orient="auto"
       refY="0"
       refX="0"
       id="Arrow2Mend"
       style="overflow:visible">
      <path
         id="path3937"
         style="fill-rule:evenodd;stroke-width:0.625;stroke-linejoin:round"
         d="M 8.7185878,4.0337352 -2.2072895,0.01601326 8.7185884,-4.0017078 c -1.7454984,2.3720609 -1.7354408,5.6174519 -6e-7,8.035443 z"
         transform="scale(-0.6,-0.6)"
         inkscape:connector-curvature="0" />
    </marker>
    <marker
       inkscape:stockid="Arrow2Mend"
       orient="auto"
       refY="0"
       refX="0"
       id="marker867"
       style="overflow:visible">
      <path
         id="path865"
         style="fill-rule:evenodd;stroke-width:0.625;stroke-linejoin:round"
         d="M 8.7185878,4.0337352 -2.2072895,0.01601326 8.7185884,-4.0017078 c -1.7454984,2.3720609 -1.7354408,5.6174519 -6e-7,8.035443 z"
         transform="scale(-0.6,-0.6)"
         inkscape:connector-curvature="0" />
    </marker>
    <marker
       inkscape:stockid="Arrow2Mend"
       orient="auto"
       refY="0"
       refX="0"
       id="Arrow2Mend-2"
       style="overflow:visible"
       inkscape:isstock="true">
      <path
         id="path908"
         style="fill:#ff0000;fill-opacity:1;fill-rule:evenodd;stroke:#ff0000;stroke-width:0.625;stroke-linejoin:round;stroke-opacity:1"
         d="M 8.7185878,4.0337352 -2.2072895,0.01601326 8.7185884,-4.0017078 c -1.7454984,2.3720609 -1.7354408,5.6174519 -6e-7,8.035443 z"
         transform="scale(-0.6,-0.6)"
         inkscape:connector-curvature="0" />
    </marker>
    <marker
       inkscape:stockid="Arrow2Mend"
       orient="auto"
       refY="0"
       refX="0"
       id="marker941"
       style="overflow:visible"
       inkscape:isstock="true">
      <path
         id="path939"
         style="fill:#fc0000;fill-opacity:1;fill-rule:evenodd;stroke:#fc0000;stroke-width:0.625;stroke-linejoin:round;stroke-opacity:1"
         d="M 8.7185878,4.0337352 -2.2072895,0.01601326 8.7185884,-4.0017078 c -1.7454984,2.3720609 -1.7354408,5.6174519 -6e-7,8.035443 z"
         transform="scale(-0.6,-0.6)"
         inkscape:connector-curvature="0" />
    </marker>
    <marker
       inkscape:stockid="Arrow2Mend"
       orient="auto"
       refY="0"
       refX="0"
       id="Arrow2Mend-2-2"
       style="overflow:visible"
       inkscape:isstock="true">
      <path
         id="path908-3"
         style="fill:#fc0000;fill-opacity:1;fill-rule:evenodd;stroke:#fc0000;stroke-width:0.625;stroke-linejoin:round;stroke-opacity:1"
         d="M 8.7185878,4.0337352 -2.2072895,0.01601326 8.7185884,-4.0017078 c -1.7454984,2.3720609 -1.7354408,5.6174519 -6e-7,8.035443 z"
         transform="scale(-0.6,-0.6)"
         inkscape:connector-curvature="0" />
    </marker>
    <marker
       inkscape:stockid="Arrow2Mend"
       orient="auto"
       refY="0"
       refX="0"
       id="marker884"
       style="overflow:visible"
       inkscape:isstock="true">
      <path
         id="path882"
         style="fill:#fc0000;fill-opacity:1;fill-rule:evenodd;stroke:#fc0000;stroke-width:0.625;stroke-linejoin:round;stroke-opacity:1"
         d="M 8.7185878,4.0337352 -2.2072895,0.01601326 8.7185884,-4.0017078 c -1.7454984,2.3720609 -1.7354408,5.6174519 -6e-7,8.035443 z"
         transform="scale(-0.6,-0.6)"
         inkscape:connector-curvature="0" />
    </marker>
    <inkscape:path-effect
       effect="knot"
       id="path-effect4163-2-7"
       is_visible="true"
       interruption_width="1"
       prop_to_stroke_width="true"
       add_stroke_width="true"
       add_other_stroke_width="false"
       switcher_size="10"
       crossing_points_vector="-204.73099 | 195.47702 | 0 | 0 | 0 | 7 | 0.37422311 | 4.2786784 | -1 | -157.70901 | 211.4521 | 0 | 0 | 2 | 5 | 1.4434703 | 3.5042045 | -1 | -142.22593 | 204.9378 | 0 | 0 | 3 | 10 | 1.7447386 | 7.1413297 | 1 | -170.42497 | 215.23691 | 0 | 0 | 1 | 12 | 1.1838566 | 8.0530621 | 1 | -141.94332 | 219.29491 | 0 | 0 | 4 | 9 | 3.2378859 | 6.8741515 | -1 | -168.82351 | 204.65844 | 0 | 0 | 6 | 11 | 3.7051013 | 7.85212 | -1 | -150.55771 | 230.05698 | 0 | 0 | 8 | 13 | 6.6367145 | 8.5236215 | -1" />
    <marker
       inkscape:stockid="Arrow2Mend"
       orient="auto"
       refY="0"
       refX="0"
       id="Arrow2Mend-2-2-2"
       style="overflow:visible"
       inkscape:isstock="true">
      <path
         id="path908-3-3"
         style="fill:#fc0000;fill-opacity:1;fill-rule:evenodd;stroke:#fc0000;stroke-width:0.625;stroke-linejoin:round;stroke-opacity:1"
         d="M 8.7185878,4.0337352 -2.2072895,0.01601326 8.7185884,-4.0017078 c -1.7454984,2.3720609 -1.7354408,5.6174519 -6e-7,8.035443 z"
         transform="scale(-0.6,-0.6)"
         inkscape:connector-curvature="0" />
    </marker>
    <marker
       inkscape:stockid="Arrow2Mend"
       orient="auto"
       refY="0"
       refX="0"
       id="marker901"
       style="overflow:visible"
       inkscape:isstock="true">
      <path
         id="path899"
         style="fill:#fc0000;fill-opacity:1;fill-rule:evenodd;stroke:#fc0000;stroke-width:0.625;stroke-linejoin:round;stroke-opacity:1"
         d="M 8.7185878,4.0337352 -2.2072895,0.01601326 8.7185884,-4.0017078 c -1.7454984,2.3720609 -1.7354408,5.6174519 -6e-7,8.035443 z"
         transform="scale(-0.6,-0.6)"
         inkscape:connector-curvature="0" />
    </marker>
    <inkscape:path-effect
       effect="knot"
       id="path-effect4163-2-7-7"
       is_visible="true"
       interruption_width="1"
       prop_to_stroke_width="true"
       add_stroke_width="true"
       add_other_stroke_width="false"
       switcher_size="10"
       crossing_points_vector="3.0585381 | 154.67867 | 0 | 0 | 3 | 6 | 0.68930985 | 2.5444946 | 1 | -11.754161 | 195.54383 | 0 | 0 | 0 | 9 | 0.34143899 | 3.7600947 | -1 | -2.300239 | 170.83606 | 0 | 0 | 2 | 15 | 0.55014517 | 6.4323527 | -1 | -7.0958299 | 183.80767 | 0 | 0 | 1 | 18 | 0.44178528 | 7.5305159 | 1 | 1.0617742 | 112.18515 | 0 | 0 | 4 | 13 | 1.4272404 | 4.8831734 | -1 | -4.948448 | 143.98578 | 0 | 0 | 5 | 12 | 2.3235301 | 4.49691 | -1 | 13.874815 | 182.96274 | 0 | 0 | 7 | 16 | 3.0148227 | 6.6172695 | -1 | 8.7564377 | 196.40915 | 0 | 0 | 8 | 17 | 3.2631213 | 7.3568605 | 1 | -12.123511 | 162.37421 | 0 | 0 | 11 | 14 | 4.2587557 | 6.326258 | 1 | -15.703323 | 176.19859 | 0 | 0 | 10 | 19 | 4.0755569 | 7.6230524 | -1" />
    <marker
       inkscape:stockid="Arrow2Mend"
       orient="auto"
       refY="0"
       refX="0"
       id="Arrow2Mend-23"
       style="overflow:visible">
      <path
         id="path3860"
         style="fill-rule:evenodd;stroke-width:0.625;stroke-linejoin:round"
         d="M 8.7185878,4.0337352 -2.2072895,0.01601326 8.7185884,-4.0017078 c -1.7454984,2.3720609 -1.7354408,5.6174519 -6e-7,8.035443 z"
         transform="scale(-0.6,-0.6)"
         inkscape:connector-curvature="0" />
    </marker>
    <marker
       inkscape:stockid="Arrow2Mend"
       orient="auto"
       refY="0"
       refX="0"
       id="marker860"
       style="overflow:visible">
      <path
         id="path858"
         style="fill-rule:evenodd;stroke-width:0.625;stroke-linejoin:round"
         d="M 8.7185878,4.0337352 -2.2072895,0.01601326 8.7185884,-4.0017078 c -1.7454984,2.3720609 -1.7354408,5.6174519 -6e-7,8.035443 z"
         transform="scale(-0.6,-0.6)"
         inkscape:connector-curvature="0" />
    </marker>
    <marker
       inkscape:stockid="Arrow2Mend"
       orient="auto"
       refY="0"
       refX="0"
       id="Arrow2Mend-237"
       style="overflow:visible">
      <path
         id="path3844"
         style="fill-rule:evenodd;stroke-width:0.625;stroke-linejoin:round"
         d="M 8.7185878,4.0337352 -2.2072895,0.01601326 8.7185884,-4.0017078 c -1.7454984,2.3720609 -1.7354408,5.6174519 -6e-7,8.035443 z"
         transform="scale(-0.6,-0.6)"
         inkscape:connector-curvature="0" />
    </marker>
    <marker
       inkscape:stockid="Arrow2Mend"
       orient="auto"
       refY="0"
       refX="0"
       id="marker860-5"
       style="overflow:visible">
      <path
         id="path858-9"
         style="fill-rule:evenodd;stroke-width:0.625;stroke-linejoin:round"
         d="M 8.7185878,4.0337352 -2.2072895,0.01601326 8.7185884,-4.0017078 c -1.7454984,2.3720609 -1.7354408,5.6174519 -6e-7,8.035443 z"
         transform="scale(-0.6,-0.6)"
         inkscape:connector-curvature="0" />
    </marker>
    <marker
       inkscape:stockid="Arrow2Mend"
       orient="auto"
       refY="0"
       refX="0"
       id="Arrow2Mend-2375"
       style="overflow:visible">
      <path
         id="path3840"
         style="fill-rule:evenodd;stroke-width:0.625;stroke-linejoin:round"
         d="M 8.7185878,4.0337352 -2.2072895,0.01601326 8.7185884,-4.0017078 c -1.7454984,2.3720609 -1.7354408,5.6174519 -6e-7,8.035443 z"
         transform="scale(-0.6,-0.6)"
         inkscape:connector-curvature="0" />
    </marker>
    <marker
       inkscape:stockid="Arrow2Mend"
       orient="auto"
       refY="0"
       refX="0"
       id="marker863"
       style="overflow:visible">
      <path
         id="path861"
         style="fill-rule:evenodd;stroke-width:0.625;stroke-linejoin:round"
         d="M 8.7185878,4.0337352 -2.2072895,0.01601326 8.7185884,-4.0017078 c -1.7454984,2.3720609 -1.7354408,5.6174519 -6e-7,8.035443 z"
         transform="scale(-0.6,-0.6)"
         inkscape:connector-curvature="0" />
    </marker>
    <marker
       inkscape:stockid="Arrow2Mend"
       orient="auto"
       refY="0"
       refX="0"
       id="Arrow2Mend-23759"
       style="overflow:visible">
      <path
         id="path3894"
         style="fill-rule:evenodd;stroke-width:0.625;stroke-linejoin:round"
         d="M 8.7185878,4.0337352 -2.2072895,0.01601326 8.7185884,-4.0017078 c -1.7454984,2.3720609 -1.7354408,5.6174519 -6e-7,8.035443 z"
         transform="scale(-0.6,-0.6)"
         inkscape:connector-curvature="0" />
    </marker>
    <marker
       inkscape:stockid="Arrow2Mend"
       orient="auto"
       refY="0"
       refX="0"
       id="marker862"
       style="overflow:visible">
      <path
         id="path860"
         style="fill-rule:evenodd;stroke-width:0.625;stroke-linejoin:round"
         d="M 8.7185878,4.0337352 -2.2072895,0.01601326 8.7185884,-4.0017078 c -1.7454984,2.3720609 -1.7354408,5.6174519 -6e-7,8.035443 z"
         transform="scale(-0.6,-0.6)"
         inkscape:connector-curvature="0" />
    </marker>
    <marker
       inkscape:stockid="Arrow2Mend"
       orient="auto"
       refY="0"
       refX="0"
       id="Arrow2Mend-3"
       style="overflow:visible">
      <path
         id="path3903"
         style="fill-rule:evenodd;stroke-width:0.625;stroke-linejoin:round"
         d="M 8.7185878,4.0337352 -2.2072895,0.01601326 8.7185884,-4.0017078 c -1.7454984,2.3720609 -1.7354408,5.6174519 -6e-7,8.035443 z"
         transform="scale(-0.6,-0.6)"
         inkscape:connector-curvature="0" />
    </marker>
    <marker
       inkscape:stockid="Arrow2Mend"
       orient="auto"
       refY="0"
       refX="0"
       id="marker4173"
       style="overflow:visible">
      <path
         id="path4175"
         style="fill-rule:evenodd;stroke-width:0.625;stroke-linejoin:round"
         d="M 8.7185878,4.0337352 -2.2072895,0.01601326 8.7185884,-4.0017078 c -1.7454984,2.3720609 -1.7354408,5.6174519 -6e-7,8.035443 z"
         transform="scale(-0.6,-0.6)"
         inkscape:connector-curvature="0" />
    </marker>
    <inkscape:path-effect
       effect="knot"
       id="path-effect4163-2-6"
       is_visible="true"
       interruption_width="1"
       prop_to_stroke_width="true"
       add_stroke_width="true"
       add_other_stroke_width="false"
       switcher_size="10"
       crossing_points_vector="-146.81887 | 159.65347 | 0 | 0 | 1 | 10 | 0.38192798 | 3.4472937 | 1 | -124.89842 | 171.82906 | 0 | 0 | 2 | 16 | 0.60092106 | 7.2350536 | -1 | -158.77689 | 152.50709 | 0 | 0 | 0 | 18 | 0.25346076 | 8.0832865 | 1 | -137.30402 | 153.5362 | 0 | 0 | 4 | 9 | 1.6061177 | 3.3502172 | -1 | -119.78333 | 162.86119 | 0 | 0 | 3 | 15 | 1.4170375 | 7.0643765 | 1 | -153.04564 | 141.70393 | 0 | 0 | 5 | 19 | 1.8075207 | 8.2808162 | -1 | -158.0441 | 121.20997 | 0 | 0 | 6 | 12 | 2.1064488 | 6.4491739 | 1 | -125.91674 | 143.34378 | 0 | 0 | 8 | 14 | 3.2027795 | 6.7972206 | -1 | -158.044 | 165.47755 | 0 | 0 | 11 | 17 | 3.5508252 | 7.8935512 | 1 | -119.44233 | 130.41206 | 0 | 0 | 7 | 21 | 3.0275841 | 8.6833141 | 1 | -136.81912 | 133.50394 | 0 | 0 | 13 | 20 | 6.6551295 | 8.5206326 | -1" />
    <inkscape:path-effect
       effect="knot"
       id="path-effect4163-2-6-7"
       is_visible="true"
       interruption_width="1"
       prop_to_stroke_width="true"
       add_stroke_width="true"
       add_other_stroke_width="false"
       switcher_size="10"
       crossing_points_vector="-159.69151 | 23.429176 | 0 | 0 | 0 | 4 | 1.0953218 | 5.3171843 | 1 | -112.62182 | 51.681513 | 0 | 0 | 2 | 6 | 2.2027795 | 5.7972206 | -1 | -144.74908 | 73.815274 | 0 | 0 | 3 | 7 | 2.5508252 | 6.8935512 | 1 | -106.14741 | 38.749792 | 0 | 0 | 1 | 9 | 2.0275841 | 7.6833141 | 1 | -123.5242 | 41.841665 | 0 | 0 | 5 | 8 | 5.6551295 | 7.5206326 | -1" />
    <marker
       inkscape:stockid="Arrow2Mend"
       orient="auto"
       refY="0"
       refX="0"
       id="Arrow2Mend-2-2-6"
       style="overflow:visible"
       inkscape:isstock="true">
      <path
         id="path908-3-2-7"
         style="fill:#ff0000;fill-opacity:1;fill-rule:evenodd;stroke:#ff0000;stroke-width:0.625;stroke-linejoin:round;stroke-opacity:1"
         d="M 8.7185878,4.0337352 -2.2072895,0.01601326 8.7185884,-4.0017078 c -1.7454984,2.3720609 -1.7354408,5.6174519 -6e-7,8.035443 z"
         transform="scale(-0.6,-0.6)"
         inkscape:connector-curvature="0" />
    </marker>
    <marker
       inkscape:stockid="Arrow2Mend"
       orient="auto"
       refY="0"
       refX="0"
       id="marker941-5"
       style="overflow:visible"
       inkscape:isstock="true">
      <path
         id="path939-3"
         style="fill:#ff0000;fill-opacity:1;fill-rule:evenodd;stroke:#ff0000;stroke-width:0.625;stroke-linejoin:round;stroke-opacity:1"
         d="M 8.7185878,4.0337352 -2.2072895,0.01601326 8.7185884,-4.0017078 c -1.7454984,2.3720609 -1.7354408,5.6174519 -6e-7,8.035443 z"
         transform="scale(-0.6,-0.6)"
         inkscape:connector-curvature="0" />
    </marker>
    <marker
       inkscape:stockid="Arrow2Mend"
       orient="auto"
       refY="0"
       refX="0"
       id="Arrow2Mend-237592"
       style="overflow:visible">
      <path
         id="path3812"
         style="fill-rule:evenodd;stroke-width:0.625;stroke-linejoin:round"
         d="M 8.7185878,4.0337352 -2.2072895,0.01601326 8.7185884,-4.0017078 c -1.7454984,2.3720609 -1.7354408,5.6174519 -6e-7,8.035443 z"
         transform="scale(-0.6,-0.6)"
         inkscape:connector-curvature="0" />
    </marker>
    <marker
       inkscape:stockid="Arrow2Mend"
       orient="auto"
       refY="0"
       refX="0"
       id="marker4182"
       style="overflow:visible">
      <path
         id="path4184"
         style="fill-rule:evenodd;stroke-width:0.625;stroke-linejoin:round"
         d="M 8.7185878,4.0337352 -2.2072895,0.01601326 8.7185884,-4.0017078 c -1.7454984,2.3720609 -1.7354408,5.6174519 -6e-7,8.035443 z"
         transform="scale(-0.6,-0.6)"
         inkscape:connector-curvature="0" />
    </marker>
  </defs>
  <sodipodi:namedview
     id="base"
     pagecolor="#ffffff"
     bordercolor="#666666"
     borderopacity="1.0"
     inkscape:pageopacity="0.0"
     inkscape:pageshadow="2"
     inkscape:zoom="2.8"
     inkscape:cx="110.45295"
     inkscape:cy="28.850418"
     inkscape:document-units="px"
     inkscape:current-layer="layer2"
     showgrid="true"
     inkscape:window-width="1920"
     inkscape:window-height="1015"
     inkscape:window-x="0"
     inkscape:window-y="0"
     inkscape:window-maximized="1"
     fit-margin-top="5"
     fit-margin-left="5"
     fit-margin-right="5"
     fit-margin-bottom="5"
     inkscape:showpageshadow="false"
     inkscape:snap-nodes="true"
     inkscape:snap-bbox="true"
     inkscape:object-paths="false"
     inkscape:snap-intersection-paths="false"
     inkscape:snap-midpoints="false"
     inkscape:snap-smooth-nodes="false"
     inkscape:object-nodes="true">
    <inkscape:grid
       type="xygrid"
       id="grid4161"
       originx="202.75"
       originy="-419.07612"
       dotted="false" />
  </sodipodi:namedview>
  <metadata
     id="metadata7">
    <rdf:RDF>
      <cc:Work
         rdf:about="">
        <dc:format>image/svg+xml</dc:format>
        <dc:type
           rdf:resource="http://purl.org/dc/dcmitype/StillImage" />
        <dc:title></dc:title>
      </cc:Work>
    </rdf:RDF>
  </metadata>
  <g
     inkscape:groupmode="layer"
     id="layer2"
     inkscape:label="Слой"
     style="display:inline"
     transform="translate(48.847642,111.7871)">
    <path
       style="fill:none;fill-rule:evenodd;stroke:#000000;stroke-width:3;stroke-linecap:butt;stroke-linejoin:miter;stroke-miterlimit:4;stroke-dasharray:none;stroke-opacity:1"
       d="m 173.90236,-85.28088 c 0,15 8e-5,30 -14.99992,30 -6.25,0 -9.89583,-3.472222 -13.10764,-7.523148 m -3.78472,-4.953704 c -3.21181,-4.050926 -6.85764,-7.523148 -13.10764,-7.523148 -15,0 -15,20 -30.000002,20 -6.25,0 -9.895833,-3.472222 -13.107639,-7.523148 m -3.784722,-4.953704 c -3.211806,-4.050926 -6.857639,-7.523148 -13.107639,-7.523148 -15,0 -15,20 -30,20 -6.25,0 -9.895833,-3.472222 -13.107639,-7.523148 m -3.784722,-4.953704 c -3.211806,-4.050926 -6.857639,-7.523148 -13.1076394,-7.523148 -15,0 -25.0000796,30 -40.0000796,30 -15,0 -15,-40 0,-40 8.408329,0 15.245572,9.426666 22.2730896,17.711663 m 4.0211722,4.508375 c 4.25990821,4.445536 8.7049986,7.779962 13.7058178,7.779962 15.0000004,0 15.0000004,-20 30.0000004,-20 6.25,0 9.895833,3.472222 13.107639,7.523148 m 3.784722,4.953704 c 3.211806,4.050926 6.857639,7.523148 13.107639,7.523148 15,0 15,-20 30,-20 6.250002,0 9.895832,3.472222 13.107642,7.523148 m 3.78472,4.953704 c 3.21181,4.050926 6.85764,7.523148 13.10764,7.523148 15,0 15,-20 30,-20 5.74165,0 9.28553,2.19777 11.4729,5.752055 m 3.06479,10.601376 c 0.46231,4.240651 0.46231,8.94361 0.46231,13.646569"
       id="path5915"
       inkscape:connector-curvature="0"
       sodipodi:nodetypes="czzzzzzzzzzzzzzc"
       inkscape:path-effect="#path-effect6268"
       inkscape:original-d="m 173.90236,-85.28088 c 0,15 8e-5,30 -14.99992,30 -15,0 -15,-20 -30,-20 -15,0 -15,20 -30.000002,20 -15,0 -15,-20 -30,-20 -15,0 -15,20 -30,20 -15,0 -15,-20 -30.0000004,-20 -15,0 -25.0000796,30 -40.0000796,30 -15,0 -15,-40 0,-40 15,0 25.0000796,30 40.0000796,30 15.0000004,0 15.0000004,-20 30.0000004,-20 15,0 15,20 30,20 15,0 15,-20 30,-20 15.000002,0 15.000002,20 30.000002,20 15,0 15,-20 30,-20 15,0 15,15 15,30" />
    <path
       style="fill:none;fill-rule:evenodd;stroke:#ff0000;stroke-width:1;stroke-linecap:butt;stroke-linejoin:miter;stroke-miterlimit:4;stroke-dasharray:2, 1;stroke-dashoffset:0;stroke-opacity:1;marker-start:url(#Arrow2Mend-2);marker-end:url(#Arrow2Mend-2)"
       d="m 168.90236,-90.28088 c -3.92021,-3.920211 -7.84042,-1.6932 -9.35079,11.500718 m -0.52148,6.986861 c -0.21112,4.414483 0.0192,8.560178 -0.48207,12.751634 m -1.5449,6.74042 c -4.03603,10.781346 -13.10076,6.454802 -13.10076,-12.979633 0,-19.138252 -8.79054,-23.625596 -12.91278,-13.462033 m -1.59227,6.183768 c -0.70837,4.789695 -0.30523,9.204986 -0.88325,13.787999 m -1.29898,5.876007 c -3.92034,11.525386 -13.31272,7.396806 -13.31272,-12.385741 0,-19.456765 -9.08558,-23.770902 -13.11466,-12.942411 m -1.475214,6.26605 c -0.5866,4.437163 -0.2554,8.558339 -0.749898,12.794944 m -1.372412,6.339955 c -3.935059,11.435085 -13.287818,7.282239 -13.287818,-12.458538 0,-19.282537 -8.923589,-23.692425 -13.005213,-13.229664 m -1.547857,6.283842 c -0.644596,4.653724 -0.27341,8.985133 -0.832804,13.436713 m -1.325127,5.964216 c -3.934369,11.439346 -13.288997,7.287644 -13.288997,-12.455107 0,-19.062687 -8.721266,-23.589932 -12.863737,-13.581737 m -1.670358,6.502101 c -0.657617,4.578459 -0.294651,8.77006 -0.798844,13.140587 m -1.523771,6.804011 c -4.014486,10.926357 -13.143294,6.638036 -13.143294,-12.864962 0,-19.342675 -8.979337,-23.719787 -13.043259,-13.131336 m -1.4713353,5.917574 c -0.3110733,2.114037 -0.4854037,4.518624 -0.4854037,7.213762 0,2.182487 -0.2286359,4.136337 -0.6459881,5.871532 m -2.7785464,6.063051 c -7.8702186,10.297808 -26.5754655,3.857924 -26.5754655,-11.934583 0,-1.305608 0.08523,-2.483371 0.241782,-3.543024 m 1.108083,-3.937292 c 3.709364,-8.095115 13.6150575,-3.5491 11.0232903,0.55239 m -5.2810633,3.006589 c -8.061395,1.878391 -12.092092,-7.100136 -12.092092,-16.078663 0,-8.80651 -10,-9 -10,-2 m 0.02673,7.696328 c 0.09301,8.152867 1.106697,21.459622 2.973271,30.303672 m 1.862837,6.774744 c 1.321025,2.307906 3.000917,3.293379 5.137163,2.225256 8.851607,-4.425804 -5.985287,-12.465488 -6,-49 m 0,-6 c 0.129676,-2.878238 0.680405,-6.80405 1,-10"
       id="path6301"
       inkscape:connector-curvature="0"
       sodipodi:nodetypes="cccccsccccsccccsccccsccccsccsccsccccsccccsccc" />
  </g>
</svg>
