<?xml version="1.0" encoding="UTF-8" standalone="no"?>
<!-- Created with Inkscape (http://www.inkscape.org/) -->

<svg
   xmlns:dc="http://purl.org/dc/elements/1.1/"
   xmlns:cc="http://creativecommons.org/ns#"
   xmlns:rdf="http://www.w3.org/1999/02/22-rdf-syntax-ns#"
   xmlns:svg="http://www.w3.org/2000/svg"
   xmlns="http://www.w3.org/2000/svg"
   xmlns:sodipodi="http://sodipodi.sourceforge.net/DTD/sodipodi-0.dtd"
   xmlns:inkscape="http://www.inkscape.org/namespaces/inkscape"
   width="268.00009"
   height="76.746597"
   id="svg2"
   version="1.1"
   inkscape:version="0.91 r13725"
   sodipodi:docname="Bimini_Twist_2.svg"
   inkscape:export-filename="/home/dedandrey/Latex/Булинь/Site/Besedochny.png"
   inkscape:export-xdpi="90"
   inkscape:export-ydpi="90">
  <defs
     id="defs4">
    <inkscape:path-effect
       effect="knot"
       id="path-effect16453"
       is_visible="true"
       interruption_width="3"
       prop_to_stroke_width="false"
       add_stroke_width="true"
       add_other_stroke_width="false"
       switcher_size="15"
       crossing_points_vector="170.14891 | -69.884439 | 0 | 0 | 0 | 43 | 0.63015714 | 14.491189 | -1 | 143.90244 | -65.28088 | 0 | 0 | 2 | 41 | 1.5 | 13.5 | -1 | 151.5544 | -73.258101 | 0 | 0 | 1 | 44 | 1.1970028 | 15.363668 | -1 | 136.5435 | -57.489333 | 0 | 0 | 3 | 46 | 1.793391 | 16.367004 | -1 | 113.90244 | -65.28088 | 0 | 0 | 5 | 38 | 2.5 | 12.5 | -1 | 121.26122 | -57.489434 | 0 | 0 | 4 | 49 | 2.2066141 | 17.632994 | -1 | 106.25032 | -73.258203 | 0 | 0 | 6 | 51 | 2.8030026 | 18.636334 | -1 | 83.902438 | -65.28088 | 0 | 0 | 8 | 35 | 3.5 | 11.5 | -1 | 91.554394 | -73.258101 | 0 | 0 | 7 | 52 | 3.1970028 | 19.363668 | -1 | 76.543502 | -57.489334 | 0 | 0 | 9 | 54 | 3.793391 | 20.367004 | -1 | 53.902438 | -65.28088 | 0 | 0 | 11 | 32 | 4.5 | 10.5 | -1 | 61.261219 | -57.489434 | 0 | 0 | 10 | 57 | 4.2066141 | 21.632994 | -1 | 46.250315 | -73.258204 | 0 | 0 | 12 | 59 | 4.8030026 | 22.636334 | -1 | 23.902438 | -65.28088 | 0 | 0 | 14 | 29 | 5.5 | 9.5 | -1 | 31.554395 | -73.258101 | 0 | 0 | 13 | 60 | 5.1970028 | 23.363668 | -1 | 16.543503 | -57.489334 | 0 | 0 | 15 | 62 | 5.793391 | 24.367004 | -1 | -6.6261983 | -65.28088 | 0 | 0 | 17 | 26 | 6.3869631 | 8.6130369 | -1 | 1.1456625 | -58.104755 | 0 | 0 | 16 | 65 | 6.1895091 | 25.662339 | -1 | -20.931054 | -77.40016 | 0 | 0 | 19 | 68 | 6.664098 | 27.076494 | -1 | -12.380704 | -70.881937 | 0 | 0 | 18 | 69 | 6.51336 | 28.180004 | -1 | -26.097496 | -80.201463 | 0 | 0 | 20 | 71 | 6.7385595 | 28.998231 | -1 | -45.293165 | -85.058578 | 0 | 0 | 22 | 73 | 6.9494412 | 29.879248 | -1 | -33.35256 | -82.928754 | 0 | 0 | 21 | 76 | 6.8282001 | 31.810165 | -1 | 1.4637497 | -72.681478 | 0 | 0 | 27 | 64 | 8.8187492 | 25.399231 | 1 | -19.132055 | -54.330374 | 0 | 0 | 25 | 66 | 8.3644454 | 26.492074 | 1 | -43.676841 | -45.650002 | 0 | 0 | 23 | 74 | 8.0654872 | 30.623232 | 1 | -30.360427 | -48.604106 | 0 | 0 | 24 | 75 | 8.2069661 | 31.38567 | 1 | 31.26122 | -57.489433 | 0 | 0 | 30 | 61 | 9.7933859 | 23.632994 | 1 | 16.250317 | -73.258203 | 0 | 0 | 28 | 63 | 9.1969975 | 24.636334 | 1 | 61.554394 | -73.258101 | 0 | 0 | 33 | 56 | 10.802997 | 21.363668 | 1 | 46.543502 | -57.489333 | 0 | 0 | 31 | 58 | 10.206609 | 22.367004 | 1 | 91.261219 | -57.489434 | 0 | 0 | 36 | 53 | 11.793386 | 19.632994 | 1 | 76.250316 | -73.258203 | 0 | 0 | 34 | 55 | 11.196997 | 20.636334 | 1 | 121.5544 | -73.258101 | 0 | 0 | 39 | 48 | 12.802997 | 17.363668 | 1 | 106.5435 | -57.489334 | 0 | 0 | 37 | 50 | 12.206609 | 18.367004 | 1 | 151.26122 | -57.489434 | 0 | 0 | 42 | 45 | 13.793386 | 15.632994 | 1 | 136.25032 | -73.258203 | 0 | 0 | 40 | 47 | 13.196997 | 16.636334 | 1 | -21.029333 | -69.276865 | 0 | 0 | 67 | 70 | 26.834247 | 28.609842 | 1 | -34.653099 | -91.425894 | 0 | 0 | 72 | 77 | 29.451698 | 31.902778 | 1" />
    <inkscape:path-effect
       effect="knot"
       id="path-effect6268"
       is_visible="true"
       interruption_width="3"
       prop_to_stroke_width="false"
       add_stroke_width="true"
       add_other_stroke_width="false"
       switcher_size="15"
       crossing_points_vector="172.22583 | -65.280951 | 0 | 0 | 0 | 13 | 0.48169992 | 14.518296 | -1 | 143.90244 | -65.28088 | 0 | 0 | 1 | 12 | 1.5 | 13.5 | -1 | 113.90244 | -65.28088 | 0 | 0 | 2 | 11 | 2.5 | 12.5 | -1 | 83.902438 | -65.28088 | 0 | 0 | 3 | 10 | 3.5 | 11.5 | -1 | 53.902438 | -65.28088 | 0 | 0 | 4 | 9 | 4.5 | 10.5 | -1 | 23.902438 | -65.28088 | 0 | 0 | 5 | 8 | 5.5 | 9.5 | -1 | -6.8442607 | -65.280883 | 0 | 0 | 6 | 7 | 6.3869631 | 8.6130369 | -1" />
    <inkscape:path-effect
       effect="simplify"
       id="path-effect962"
       is_visible="true"
       steps="1"
       threshold="0.00243902"
       smooth_angles="360"
       helper_size="0"
       simplify_individual_paths="false"
       simplify_just_coalesce="false"
       simplifyindividualpaths="false"
       simplifyJustCoalesce="false" />
    <inkscape:path-effect
       effect="knot"
       id="path-effect4163"
       is_visible="true"
       interruption_width="1"
       prop_to_stroke_width="true"
       add_stroke_width="true"
       add_other_stroke_width="false"
       switcher_size="10"
       crossing_points_vector="-40.321315 | 242.74655 | 0 | 0 | 0 | 1 | 2.7589991 | 4.2988128 | 1" />
    <inkscape:path-effect
       effect="knot"
       id="path-effect2985"
       is_visible="true"
       interruption_width="1.5"
       prop_to_stroke_width="true"
       add_stroke_width="true"
       add_other_stroke_width="false"
       switcher_size="25"
       crossing_points_vector="179.33223 | 213.34272 | 0 | 0 | 2 | 7 | 0.88834318 | 2.1008364 | -1 | 187.02917 | 168.23552 | 0 | 0 | 0 | 10 | 0.4364998 | 3.8264664 | 1 | 179.05605 | 186.51992 | 0 | 0 | 1 | 11 | 0.57380061 | 4.3429393 | 1 | 212.51428 | 213.33582 | 0 | 0 | 4 | 8 | 1.2416251 | 3.6054883 | -1 | 202.54425 | 192.66223 | 0 | 0 | 5 | 9 | 1.8339622 | 3.6895504 | -1 | 198.95141 | 217.46136 | 0 | 0 | 3 | 13 | 1.0727533 | 4.6298214 | 1 | 188.64423 | 200.68352 | 0 | 0 | 6 | 12 | 1.9971524 | 4.4874634 | 1" />
    <filter
       id="filter2987"
       inkscape:label="Outline, double"
       inkscape:menu="Morphology"
       inkscape:menu-tooltip="Draws a smooth line inside colorized with the color it overlays"
       style="color-interpolation-filters:sRGB">
      <feGaussianBlur
         id="feGaussianBlur2989"
         stdDeviation="3"
         in="SourceAlpha"
         result="result1" />
      <feComposite
         id="feComposite2991"
         in2="result1"
         operator="arithmetic"
         k2="3.2"
         k1="-1"
         k4="-2"
         result="result3"
         k3="0" />
      <feColorMatrix
         id="feColorMatrix2993"
         values="0 0 0 0 0 0 1 0 0 0 0 0 1 0 0 0 0 0 10 0 "
         result="result2" />
      <feComposite
         id="feComposite2995"
         in2="result2"
         result="fbSourceGraphic"
         in="SourceGraphic"
         operator="out" />
      <feGaussianBlur
         id="feGaussianBlur2997"
         in="fbSourceGraphic"
         stdDeviation="0.5"
         result="result4" />
      <feComposite
         id="feComposite2999"
         in2="result4"
         operator="xor"
         in="result4"
         result="result5" />
      <feBlend
         id="feBlend3001"
         in2="result5"
         result="result6"
         mode="darken"
         in="result5" />
      <feBlend
         id="feBlend3003"
         in2="result6"
         in="result6"
         mode="darken" />
    </filter>
    <inkscape:path-effect
       effect="knot"
       id="path-effect4163-2"
       is_visible="true"
       interruption_width="1"
       prop_to_stroke_width="true"
       add_stroke_width="true"
       add_other_stroke_width="false"
       switcher_size="10"
       crossing_points_vector="-9.4093435 | 295.00718 | 0 | 0 | 0 | 7 | 0.39631441 | 4.2943951 | -1 | -24.494406 | 248.20966 | 0 | 0 | 2 | 5 | 1.4147789 | 3.528825 | -1 | -18.495525 | 231.51559 | 0 | 0 | 3 | 10 | 1.7417797 | 7.1488619 | 1 | -27.055127 | 259.70324 | 0 | 0 | 1 | 12 | 1.1808155 | 8.0162197 | 1 | -33.173426 | 231.06481 | 0 | 0 | 4 | 9 | 3.2378859 | 6.8741514 | -1 | -18.53695 | 257.945 | 0 | 0 | 6 | 11 | 3.7051013 | 7.85212 | -1 | -43.935489 | 239.6792 | 0 | 0 | 8 | 13 | 6.6367144 | 8.5236215 | -1" />
    <marker
       inkscape:stockid="Arrow2Mend"
       orient="auto"
       refY="0"
       refX="0"
       id="Arrow2Mend"
       style="overflow:visible">
      <path
         id="path3937"
         style="fill-rule:evenodd;stroke-width:0.625;stroke-linejoin:round"
         d="M 8.7185878,4.0337352 -2.2072895,0.01601326 8.7185884,-4.0017078 c -1.7454984,2.3720609 -1.7354408,5.6174519 -6e-7,8.035443 z"
         transform="scale(-0.6,-0.6)"
         inkscape:connector-curvature="0" />
    </marker>
    <marker
       inkscape:stockid="Arrow2Mend"
       orient="auto"
       refY="0"
       refX="0"
       id="marker867"
       style="overflow:visible">
      <path
         id="path865"
         style="fill-rule:evenodd;stroke-width:0.625;stroke-linejoin:round"
         d="M 8.7185878,4.0337352 -2.2072895,0.01601326 8.7185884,-4.0017078 c -1.7454984,2.3720609 -1.7354408,5.6174519 -6e-7,8.035443 z"
         transform="scale(-0.6,-0.6)"
         inkscape:connector-curvature="0" />
    </marker>
    <marker
       inkscape:stockid="Arrow2Mend"
       orient="auto"
       refY="0"
       refX="0"
       id="Arrow2Mend-2"
       style="overflow:visible"
       inkscape:isstock="true">
      <path
         id="path908"
         style="fill:#ff0000;fill-opacity:1;fill-rule:evenodd;stroke:#ff0000;stroke-width:0.625;stroke-linejoin:round;stroke-opacity:1"
         d="M 8.7185878,4.0337352 -2.2072895,0.01601326 8.7185884,-4.0017078 c -1.7454984,2.3720609 -1.7354408,5.6174519 -6e-7,8.035443 z"
         transform="scale(-0.6,-0.6)"
         inkscape:connector-curvature="0" />
    </marker>
    <marker
       inkscape:stockid="Arrow2Mend"
       orient="auto"
       refY="0"
       refX="0"
       id="marker941"
       style="overflow:visible"
       inkscape:isstock="true">
      <path
         id="path939"
         style="fill:#fc0000;fill-opacity:1;fill-rule:evenodd;stroke:#fc0000;stroke-width:0.625;stroke-linejoin:round;stroke-opacity:1"
         d="M 8.7185878,4.0337352 -2.2072895,0.01601326 8.7185884,-4.0017078 c -1.7454984,2.3720609 -1.7354408,5.6174519 -6e-7,8.035443 z"
         transform="scale(-0.6,-0.6)"
         inkscape:connector-curvature="0" />
    </marker>
    <marker
       inkscape:stockid="Arrow2Mend"
       orient="auto"
       refY="0"
       refX="0"
       id="Arrow2Mend-2-2"
       style="overflow:visible"
       inkscape:isstock="true">
      <path
         id="path908-3"
         style="fill:#fc0000;fill-opacity:1;fill-rule:evenodd;stroke:#fc0000;stroke-width:0.625;stroke-linejoin:round;stroke-opacity:1"
         d="M 8.7185878,4.0337352 -2.2072895,0.01601326 8.7185884,-4.0017078 c -1.7454984,2.3720609 -1.7354408,5.6174519 -6e-7,8.035443 z"
         transform="scale(-0.6,-0.6)"
         inkscape:connector-curvature="0" />
    </marker>
    <marker
       inkscape:stockid="Arrow2Mend"
       orient="auto"
       refY="0"
       refX="0"
       id="marker884"
       style="overflow:visible"
       inkscape:isstock="true">
      <path
         id="path882"
         style="fill:#fc0000;fill-opacity:1;fill-rule:evenodd;stroke:#fc0000;stroke-width:0.625;stroke-linejoin:round;stroke-opacity:1"
         d="M 8.7185878,4.0337352 -2.2072895,0.01601326 8.7185884,-4.0017078 c -1.7454984,2.3720609 -1.7354408,5.6174519 -6e-7,8.035443 z"
         transform="scale(-0.6,-0.6)"
         inkscape:connector-curvature="0" />
    </marker>
    <inkscape:path-effect
       effect="knot"
       id="path-effect4163-2-7"
       is_visible="true"
       interruption_width="1"
       prop_to_stroke_width="true"
       add_stroke_width="true"
       add_other_stroke_width="false"
       switcher_size="10"
       crossing_points_vector="-204.73099 | 195.47702 | 0 | 0 | 0 | 7 | 0.37422311 | 4.2786784 | -1 | -157.70901 | 211.4521 | 0 | 0 | 2 | 5 | 1.4434703 | 3.5042045 | -1 | -142.22593 | 204.9378 | 0 | 0 | 3 | 10 | 1.7447386 | 7.1413297 | 1 | -170.42497 | 215.23691 | 0 | 0 | 1 | 12 | 1.1838566 | 8.0530621 | 1 | -141.94332 | 219.29491 | 0 | 0 | 4 | 9 | 3.2378859 | 6.8741515 | -1 | -168.82351 | 204.65844 | 0 | 0 | 6 | 11 | 3.7051013 | 7.85212 | -1 | -150.55771 | 230.05698 | 0 | 0 | 8 | 13 | 6.6367145 | 8.5236215 | -1" />
    <marker
       inkscape:stockid="Arrow2Mend"
       orient="auto"
       refY="0"
       refX="0"
       id="Arrow2Mend-2-2-2"
       style="overflow:visible"
       inkscape:isstock="true">
      <path
         id="path908-3-3"
         style="fill:#fc0000;fill-opacity:1;fill-rule:evenodd;stroke:#fc0000;stroke-width:0.625;stroke-linejoin:round;stroke-opacity:1"
         d="M 8.7185878,4.0337352 -2.2072895,0.01601326 8.7185884,-4.0017078 c -1.7454984,2.3720609 -1.7354408,5.6174519 -6e-7,8.035443 z"
         transform="scale(-0.6,-0.6)"
         inkscape:connector-curvature="0" />
    </marker>
    <marker
       inkscape:stockid="Arrow2Mend"
       orient="auto"
       refY="0"
       refX="0"
       id="marker901"
       style="overflow:visible"
       inkscape:isstock="true">
      <path
         id="path899"
         style="fill:#fc0000;fill-opacity:1;fill-rule:evenodd;stroke:#fc0000;stroke-width:0.625;stroke-linejoin:round;stroke-opacity:1"
         d="M 8.7185878,4.0337352 -2.2072895,0.01601326 8.7185884,-4.0017078 c -1.7454984,2.3720609 -1.7354408,5.6174519 -6e-7,8.035443 z"
         transform="scale(-0.6,-0.6)"
         inkscape:connector-curvature="0" />
    </marker>
    <inkscape:path-effect
       effect="knot"
       id="path-effect4163-2-7-7"
       is_visible="true"
       interruption_width="1"
       prop_to_stroke_width="true"
       add_stroke_width="true"
       add_other_stroke_width="false"
       switcher_size="10"
       crossing_points_vector="3.0585381 | 154.67867 | 0 | 0 | 3 | 6 | 0.68930985 | 2.5444946 | 1 | -11.754161 | 195.54383 | 0 | 0 | 0 | 9 | 0.34143899 | 3.7600947 | -1 | -2.300239 | 170.83606 | 0 | 0 | 2 | 15 | 0.55014517 | 6.4323527 | -1 | -7.0958299 | 183.80767 | 0 | 0 | 1 | 18 | 0.44178528 | 7.5305159 | 1 | 1.0617742 | 112.18515 | 0 | 0 | 4 | 13 | 1.4272404 | 4.8831734 | -1 | -4.948448 | 143.98578 | 0 | 0 | 5 | 12 | 2.3235301 | 4.49691 | -1 | 13.874815 | 182.96274 | 0 | 0 | 7 | 16 | 3.0148227 | 6.6172695 | -1 | 8.7564377 | 196.40915 | 0 | 0 | 8 | 17 | 3.2631213 | 7.3568605 | 1 | -12.123511 | 162.37421 | 0 | 0 | 11 | 14 | 4.2587557 | 6.326258 | 1 | -15.703323 | 176.19859 | 0 | 0 | 10 | 19 | 4.0755569 | 7.6230524 | -1" />
    <marker
       inkscape:stockid="Arrow2Mend"
       orient="auto"
       refY="0"
       refX="0"
       id="Arrow2Mend-23"
       style="overflow:visible">
      <path
         id="path3860"
         style="fill-rule:evenodd;stroke-width:0.625;stroke-linejoin:round"
         d="M 8.7185878,4.0337352 -2.2072895,0.01601326 8.7185884,-4.0017078 c -1.7454984,2.3720609 -1.7354408,5.6174519 -6e-7,8.035443 z"
         transform="scale(-0.6,-0.6)"
         inkscape:connector-curvature="0" />
    </marker>
    <marker
       inkscape:stockid="Arrow2Mend"
       orient="auto"
       refY="0"
       refX="0"
       id="marker860"
       style="overflow:visible">
      <path
         id="path858"
         style="fill-rule:evenodd;stroke-width:0.625;stroke-linejoin:round"
         d="M 8.7185878,4.0337352 -2.2072895,0.01601326 8.7185884,-4.0017078 c -1.7454984,2.3720609 -1.7354408,5.6174519 -6e-7,8.035443 z"
         transform="scale(-0.6,-0.6)"
         inkscape:connector-curvature="0" />
    </marker>
    <marker
       inkscape:stockid="Arrow2Mend"
       orient="auto"
       refY="0"
       refX="0"
       id="Arrow2Mend-237"
       style="overflow:visible">
      <path
         id="path3844"
         style="fill-rule:evenodd;stroke-width:0.625;stroke-linejoin:round"
         d="M 8.7185878,4.0337352 -2.2072895,0.01601326 8.7185884,-4.0017078 c -1.7454984,2.3720609 -1.7354408,5.6174519 -6e-7,8.035443 z"
         transform="scale(-0.6,-0.6)"
         inkscape:connector-curvature="0" />
    </marker>
    <marker
       inkscape:stockid="Arrow2Mend"
       orient="auto"
       refY="0"
       refX="0"
       id="marker860-5"
       style="overflow:visible">
      <path
         id="path858-9"
         style="fill-rule:evenodd;stroke-width:0.625;stroke-linejoin:round"
         d="M 8.7185878,4.0337352 -2.2072895,0.01601326 8.7185884,-4.0017078 c -1.7454984,2.3720609 -1.7354408,5.6174519 -6e-7,8.035443 z"
         transform="scale(-0.6,-0.6)"
         inkscape:connector-curvature="0" />
    </marker>
    <marker
       inkscape:stockid="Arrow2Mend"
       orient="auto"
       refY="0"
       refX="0"
       id="Arrow2Mend-2375"
       style="overflow:visible">
      <path
         id="path3840"
         style="fill-rule:evenodd;stroke-width:0.625;stroke-linejoin:round"
         d="M 8.7185878,4.0337352 -2.2072895,0.01601326 8.7185884,-4.0017078 c -1.7454984,2.3720609 -1.7354408,5.6174519 -6e-7,8.035443 z"
         transform="scale(-0.6,-0.6)"
         inkscape:connector-curvature="0" />
    </marker>
    <marker
       inkscape:stockid="Arrow2Mend"
       orient="auto"
       refY="0"
       refX="0"
       id="marker863"
       style="overflow:visible">
      <path
         id="path861"
         style="fill-rule:evenodd;stroke-width:0.625;stroke-linejoin:round"
         d="M 8.7185878,4.0337352 -2.2072895,0.01601326 8.7185884,-4.0017078 c -1.7454984,2.3720609 -1.7354408,5.6174519 -6e-7,8.035443 z"
         transform="scale(-0.6,-0.6)"
         inkscape:connector-curvature="0" />
    </marker>
    <marker
       inkscape:stockid="Arrow2Mend"
       orient="auto"
       refY="0"
       refX="0"
       id="Arrow2Mend-23759"
       style="overflow:visible">
      <path
         id="path3894"
         style="fill-rule:evenodd;stroke-width:0.625;stroke-linejoin:round"
         d="M 8.7185878,4.0337352 -2.2072895,0.01601326 8.7185884,-4.0017078 c -1.7454984,2.3720609 -1.7354408,5.6174519 -6e-7,8.035443 z"
         transform="scale(-0.6,-0.6)"
         inkscape:connector-curvature="0" />
    </marker>
    <marker
       inkscape:stockid="Arrow2Mend"
       orient="auto"
       refY="0"
       refX="0"
       id="marker862"
       style="overflow:visible">
      <path
         id="path860"
         style="fill-rule:evenodd;stroke-width:0.625;stroke-linejoin:round"
         d="M 8.7185878,4.0337352 -2.2072895,0.01601326 8.7185884,-4.0017078 c -1.7454984,2.3720609 -1.7354408,5.6174519 -6e-7,8.035443 z"
         transform="scale(-0.6,-0.6)"
         inkscape:connector-curvature="0" />
    </marker>
    <marker
       inkscape:stockid="Arrow2Mend"
       orient="auto"
       refY="0"
       refX="0"
       id="Arrow2Mend-3"
       style="overflow:visible">
      <path
         id="path3903"
         style="fill-rule:evenodd;stroke-width:0.625;stroke-linejoin:round"
         d="M 8.7185878,4.0337352 -2.2072895,0.01601326 8.7185884,-4.0017078 c -1.7454984,2.3720609 -1.7354408,5.6174519 -6e-7,8.035443 z"
         transform="scale(-0.6,-0.6)"
         inkscape:connector-curvature="0" />
    </marker>
    <marker
       inkscape:stockid="Arrow2Mend"
       orient="auto"
       refY="0"
       refX="0"
       id="marker4173"
       style="overflow:visible">
      <path
         id="path4175"
         style="fill-rule:evenodd;stroke-width:0.625;stroke-linejoin:round"
         d="M 8.7185878,4.0337352 -2.2072895,0.01601326 8.7185884,-4.0017078 c -1.7454984,2.3720609 -1.7354408,5.6174519 -6e-7,8.035443 z"
         transform="scale(-0.6,-0.6)"
         inkscape:connector-curvature="0" />
    </marker>
    <inkscape:path-effect
       effect="knot"
       id="path-effect4163-2-6"
       is_visible="true"
       interruption_width="1"
       prop_to_stroke_width="true"
       add_stroke_width="true"
       add_other_stroke_width="false"
       switcher_size="10"
       crossing_points_vector="-146.81887 | 159.65347 | 0 | 0 | 1 | 10 | 0.38192798 | 3.4472937 | 1 | -124.89842 | 171.82906 | 0 | 0 | 2 | 16 | 0.60092106 | 7.2350536 | -1 | -158.77689 | 152.50709 | 0 | 0 | 0 | 18 | 0.25346076 | 8.0832865 | 1 | -137.30402 | 153.5362 | 0 | 0 | 4 | 9 | 1.6061177 | 3.3502172 | -1 | -119.78333 | 162.86119 | 0 | 0 | 3 | 15 | 1.4170375 | 7.0643765 | 1 | -153.04564 | 141.70393 | 0 | 0 | 5 | 19 | 1.8075207 | 8.2808162 | -1 | -158.0441 | 121.20997 | 0 | 0 | 6 | 12 | 2.1064488 | 6.4491739 | 1 | -125.91674 | 143.34378 | 0 | 0 | 8 | 14 | 3.2027795 | 6.7972206 | -1 | -158.044 | 165.47755 | 0 | 0 | 11 | 17 | 3.5508252 | 7.8935512 | 1 | -119.44233 | 130.41206 | 0 | 0 | 7 | 21 | 3.0275841 | 8.6833141 | 1 | -136.81912 | 133.50394 | 0 | 0 | 13 | 20 | 6.6551295 | 8.5206326 | -1" />
    <inkscape:path-effect
       effect="knot"
       id="path-effect4163-2-6-7"
       is_visible="true"
       interruption_width="1"
       prop_to_stroke_width="true"
       add_stroke_width="true"
       add_other_stroke_width="false"
       switcher_size="10"
       crossing_points_vector="-159.69151 | 23.429176 | 0 | 0 | 0 | 4 | 1.0953218 | 5.3171843 | 1 | -112.62182 | 51.681513 | 0 | 0 | 2 | 6 | 2.2027795 | 5.7972206 | -1 | -144.74908 | 73.815274 | 0 | 0 | 3 | 7 | 2.5508252 | 6.8935512 | 1 | -106.14741 | 38.749792 | 0 | 0 | 1 | 9 | 2.0275841 | 7.6833141 | 1 | -123.5242 | 41.841665 | 0 | 0 | 5 | 8 | 5.6551295 | 7.5206326 | -1" />
    <marker
       inkscape:stockid="Arrow2Mend"
       orient="auto"
       refY="0"
       refX="0"
       id="Arrow2Mend-2-2-6"
       style="overflow:visible"
       inkscape:isstock="true">
      <path
         id="path908-3-2-7"
         style="fill:#ff0000;fill-opacity:1;fill-rule:evenodd;stroke:#ff0000;stroke-width:0.625;stroke-linejoin:round;stroke-opacity:1"
         d="M 8.7185878,4.0337352 -2.2072895,0.01601326 8.7185884,-4.0017078 c -1.7454984,2.3720609 -1.7354408,5.6174519 -6e-7,8.035443 z"
         transform="scale(-0.6,-0.6)"
         inkscape:connector-curvature="0" />
    </marker>
    <marker
       inkscape:stockid="Arrow2Mend"
       orient="auto"
       refY="0"
       refX="0"
       id="marker941-5"
       style="overflow:visible"
       inkscape:isstock="true">
      <path
         id="path939-3"
         style="fill:#ff0000;fill-opacity:1;fill-rule:evenodd;stroke:#ff0000;stroke-width:0.625;stroke-linejoin:round;stroke-opacity:1"
         d="M 8.7185878,4.0337352 -2.2072895,0.01601326 8.7185884,-4.0017078 c -1.7454984,2.3720609 -1.7354408,5.6174519 -6e-7,8.035443 z"
         transform="scale(-0.6,-0.6)"
         inkscape:connector-curvature="0" />
    </marker>
    <marker
       inkscape:stockid="Arrow2Mend"
       orient="auto"
       refY="0"
       refX="0"
       id="Arrow2Mend-237592"
       style="overflow:visible">
      <path
         id="path3812"
         style="fill-rule:evenodd;stroke-width:0.625;stroke-linejoin:round"
         d="M 8.7185878,4.0337352 -2.2072895,0.01601326 8.7185884,-4.0017078 c -1.7454984,2.3720609 -1.7354408,5.6174519 -6e-7,8.035443 z"
         transform="scale(-0.6,-0.6)"
         inkscape:connector-curvature="0" />
    </marker>
    <marker
       inkscape:stockid="Arrow2Mend"
       orient="auto"
       refY="0"
       refX="0"
       id="marker4182"
       style="overflow:visible">
      <path
         id="path4184"
         style="fill-rule:evenodd;stroke-width:0.625;stroke-linejoin:round"
         d="M 8.7185878,4.0337352 -2.2072895,0.01601326 8.7185884,-4.0017078 c -1.7454984,2.3720609 -1.7354408,5.6174519 -6e-7,8.035443 z"
         transform="scale(-0.6,-0.6)"
         inkscape:connector-curvature="0" />
    </marker>
    <marker
       inkscape:stockid="Arrow2Mend"
       orient="auto"
       refY="0"
       refX="0"
       id="Arrow2Mend-2-28"
       style="overflow:visible"
       inkscape:isstock="true">
      <path
         id="path908-9"
         style="fill:#ff0000;fill-opacity:1;fill-rule:evenodd;stroke:#ff0000;stroke-width:0.625;stroke-linejoin:round;stroke-opacity:1"
         d="M 8.7185878,4.0337352 -2.2072895,0.01601326 8.7185884,-4.0017078 c -1.7454984,2.3720609 -1.7354408,5.6174519 -6e-7,8.035443 z"
         transform="scale(-0.6,-0.6)"
         inkscape:connector-curvature="0" />
    </marker>
    <marker
       inkscape:stockid="Arrow2Mend"
       orient="auto"
       refY="0"
       refX="0"
       id="marker16242"
       style="overflow:visible"
       inkscape:isstock="true">
      <path
         id="path16244"
         style="fill:#ff0000;fill-opacity:1;fill-rule:evenodd;stroke:#ff0000;stroke-width:0.625;stroke-linejoin:round;stroke-opacity:1"
         d="M 8.7185878,4.0337352 -2.2072895,0.01601326 8.7185884,-4.0017078 c -1.7454984,2.3720609 -1.7354408,5.6174519 -6e-7,8.035443 z"
         transform="scale(-0.6,-0.6)"
         inkscape:connector-curvature="0" />
    </marker>
    <inkscape:path-effect
       effect="knot"
       id="path-effect6268-7"
       is_visible="true"
       interruption_width="3"
       prop_to_stroke_width="false"
       add_stroke_width="true"
       add_other_stroke_width="false"
       switcher_size="15"
       crossing_points_vector="169.11811 | -142.8041 | 0 | 0 | 0 | 13 | 0.48169992 | 14.518296 | -1 | 140.79472 | -142.80403 | 0 | 0 | 1 | 12 | 1.5 | 13.5 | -1 | 110.79472 | -142.80403 | 0 | 0 | 2 | 11 | 2.5 | 12.5 | -1 | 80.794719 | -142.80403 | 0 | 0 | 3 | 10 | 3.5 | 11.5 | -1 | 50.794719 | -142.80403 | 0 | 0 | 4 | 9 | 4.5 | 10.5 | -1 | 20.794719 | -142.80403 | 0 | 0 | 5 | 8 | 5.5 | 9.5 | -1 | -9.9519793 | -142.80403 | 0 | 0 | 6 | 7 | 6.3869631 | 8.6130369 | -1" />
  </defs>
  <sodipodi:namedview
     id="base"
     pagecolor="#ffffff"
     bordercolor="#666666"
     borderopacity="1.0"
     inkscape:pageopacity="0.0"
     inkscape:pageshadow="2"
     inkscape:zoom="2.8"
     inkscape:cx="175.69133"
     inkscape:cy="60.084868"
     inkscape:document-units="px"
     inkscape:current-layer="layer2"
     showgrid="true"
     inkscape:window-width="1920"
     inkscape:window-height="1015"
     inkscape:window-x="0"
     inkscape:window-y="0"
     inkscape:window-maximized="1"
     fit-margin-top="5"
     fit-margin-left="5"
     fit-margin-right="5"
     fit-margin-bottom="5"
     inkscape:showpageshadow="false"
     inkscape:snap-nodes="true"
     inkscape:snap-bbox="true"
     inkscape:object-paths="false"
     inkscape:snap-intersection-paths="false"
     inkscape:snap-midpoints="false"
     inkscape:snap-smooth-nodes="false"
     inkscape:object-nodes="true">
    <inkscape:grid
       type="xygrid"
       id="grid4161"
       originx="241.5"
       originy="-413.5"
       dotted="false" />
  </sodipodi:namedview>
  <metadata
     id="metadata7">
    <rdf:RDF>
      <cc:Work
         rdf:about="">
        <dc:format>image/svg+xml</dc:format>
        <dc:type
           rdf:resource="http://purl.org/dc/dcmitype/StillImage" />
        <dc:title></dc:title>
      </cc:Work>
    </rdf:RDF>
  </metadata>
  <g
     inkscape:groupmode="layer"
     id="layer2"
     inkscape:label="Слой"
     style="display:inline"
     transform="translate(87.597642,105.52748)">
    <path
       style="fill:none;fill-rule:evenodd;stroke:#000000;stroke-width:3;stroke-linecap:butt;stroke-linejoin:miter;stroke-miterlimit:4;stroke-dasharray:none;stroke-dashoffset:0;stroke-opacity:1"
       d="m 173.90244,-45.28088 c -3e-5,-5.856463 -4e-5,-11.712926 -0.89277,-16.676651 m -5.80669,-11.021524 c -2.06496,-1.469155 -4.76641,-2.301825 -8.30054,-2.301825 -10.35462,0 -13.56136,9.530499 -19.4887,15.43354 m -5.79268,3.801672 c -1.39794,0.488171 -2.95455,0.764788 -4.71862,0.764788 -6.25,0 -9.89583,-3.472222 -13.10764,-7.523148 m -3.78472,-4.953704 c -0.82611,-1.041936 -1.68093,-2.045588 -2.60139,-2.961717 m -6.24871,-3.948105 c -1.27737,-0.393522 -2.68503,-0.613326 -4.257542,-0.613326 -10.354619,0 -13.561362,9.530499 -19.488699,15.43354 m -5.792685,3.801672 c -1.397941,0.488171 -2.954547,0.764788 -4.718616,0.764788 -6.25,0 -9.895833,-3.472222 -13.107639,-7.523148 m -3.784722,-4.953704 c -0.826107,-1.041936 -1.680928,-2.045588 -2.60139,-2.961718 m -6.24871,-3.948105 c -1.27737,-0.393521 -2.685028,-0.613325 -4.257539,-0.613325 -10.354618,0 -13.561362,9.530499 -19.488699,15.43354 m -5.792685,3.801672 c -1.397941,0.488171 -2.954547,0.764788 -4.7186164,0.764788 -5.0326777,0 -8.9396824,-3.377046 -13.4205664,-7.86506 m -4.2207566,-4.265186 c -2.7316556,-2.717163 -5.7894306,-5.56483 -9.4544466,-8.168174 m -10.908744,-5.907694 c -0.351071,-0.136703 -0.706477,-0.270517 -1.066321,-0.401306 m -6.335682,-1.855701 c -4.284023,-0.973056 -9.109897,-1.53688 -14.593563,-1.53688 -40,0 -40,40 0,40 6.853707,0 12.679875,-0.880749 17.704869,-2.340428 m 6.071645,-2.186995 c 1.987232,-0.864088 3.82938,-1.820719 5.547641,-2.841633 m 5.229229,-3.549761 C -5.3478976,-64.77684 0.02661037,-75.28088 8.9024376,-75.28088 c 1.5725124,0 2.9801714,0.219804 4.2575414,0.613326 m 6.24871,3.948106 c 0.920461,0.916129 1.775281,1.91978 2.601388,2.961716 m 3.784722,4.953704 c 3.211806,4.050926 6.857639,7.523148 13.107639,7.523148 1.764069,0 3.320675,-0.276617 4.718615,-0.764787 m 5.792685,-3.801672 c 5.927338,-5.903041 9.134081,-15.433541 19.4887,-15.433541 1.572511,0 2.98017,0.219804 4.25754,0.613325 m 6.24871,3.948106 c 0.920462,0.91613 1.775282,1.919781 2.601389,2.961717 m 3.784722,4.953704 c 3.211805,4.050926 6.857639,7.523148 13.107639,7.523148 1.764072,0 3.320672,-0.276617 4.718612,-0.764788 m 5.79269,-3.801671 c 5.92734,-5.903041 9.13408,-15.433541 19.4887,-15.433541 1.57251,0 2.98017,0.219804 4.25754,0.613325 m 6.24871,3.948106 c 0.92046,0.91613 1.77528,1.919781 2.60139,2.961717 m 3.78472,4.953704 c 3.21181,4.050926 6.85764,7.523148 13.10764,7.523148 15,0 14.99992,-30.000001 -8e-5,-30.000001 -4.38612,0 -6.20716,3.420094 -6.96324,8.260157 m -0.51303,7.367009 c -0.047,2.845443 -9e-4,5.815051 -0.0461,8.662878 m -0.43069,6.877164 c -0.70162,5.140735 -2.48975,8.832792 -7.04692,8.832792 -15,0 0,-40 -15,-40 -4.38612,0 -6.20716,3.420094 -6.96324,8.260157 m -0.51303,7.367009 c -0.047,2.845443 -9e-4,5.815051 -0.0461,8.662878 m -0.43069,6.877164 c -0.70162,5.140735 -2.48975,8.832792 -7.04692,8.832792 -15.000002,0 0,-40 -15.000002,-40 -4.386118,0 -6.207165,3.420094 -6.963235,8.260157 m -0.51303,7.367009 c -0.04701,2.845443 -9.03e-4,5.815051 -0.04613,8.662878 m -0.430684,6.877164 c -0.701621,5.140735 -2.48975,8.832792 -7.046923,8.832792 -15,0 0,-39.999999 -15,-40 -4.386118,0 -6.207165,3.420094 -6.963235,8.260157 m -0.51303,7.367009 c -0.04701,2.845443 -9.03e-4,5.815051 -0.04613,8.662878 m -0.430684,6.877164 c -0.701621,5.140735 -2.48975,8.832792 -7.046923,8.832792 -15,0 -2e-6,-40 -15,-40 -4.386117,0 -6.207164,3.420094 -6.963234,8.260157 m -0.513031,7.367009 c -0.04701,2.845443 -9.02e-4,5.815051 -0.04613,8.662879 m -0.430683,6.877163 c -0.701622,5.140735 -2.489751,8.832792 -7.046924,8.832792 -15,0 2e-6,-40 -15,-40 -4.8442374,0 -6.5595904,3.650365 -7.1669999,8.761742 m -0.3308823,7.528231 c -0.00842,2.414735 0.016635,4.908257 -0.057912,7.336394 M 0.69549395,-54.7341 c -0.84639632,4.501637 -2.70626525,8.090929 -6.79313595,9.453219 -11.271345,3.757115 -14.073142,-9.424865 -14.769604,-20.453302 m -0.223824,-7.028337 c -0.0066,-0.912836 -0.0066,-1.758862 -0.0066,-2.518361 0,-10 10,-10 10,0 0,0.497575 -0.03714,0.970391 -0.107716,1.417834 m -3.48972,4.933222 c -4.43783,2.126422 -11.402564,-1.12995 -11.402564,-11.351056 0,-11.737215 -12.245529,-14.290282 -17.572801,-7.659203 m -2.322803,5.835665 c -0.06859,0.58099 -0.104396,1.188836 -0.104396,1.823538 0,8.476335 0,21.742555 1.804474,31.678526 m 1.437756,5.883557 c 1.477269,4.498586 3.627631,7.437917 6.75777,7.437917 8.689932,0 6.052626,-26.43022 1.931376,-53.041881 m -0.985159,-6.207944 c -0.312865,-1.930007 -0.629541,-3.850119 -0.946217,-5.750174"
       id="path6301"
       inkscape:connector-curvature="0"
       sodipodi:nodetypes="czzzzzzzzzzzzzzzzzzzzzzzzzzzzzzzc"
       inkscape:path-effect="#path-effect16453"
       inkscape:original-d="m 173.90244,-45.28088 c -8e-5,-15.000001 0,-30 -15,-30 -15,0 -15,20 -30,20 -15,0 -15,-20 -30.000002,-20 -15.000001,0 -15,20 -30,20 -15,0 -15,-20 -30,-20 -15,0 -15,20 -30.0000004,20 -15.0000003,0 -20.0000796,-30.000001 -60.0000796,-30.000001 -40,0 -40,40 0,40 40,0 45.0000793,-29.999999 60.0000796,-29.999999 15.0000004,0 15.0000004,20 30.0000004,20 15,0 15,-20 30,-20 15,0 14.999999,20 30,20 15.000002,0 15.000002,-20 30.000002,-20 15,0 15,20 30,20 15,0 14.99992,-30.000001 -8e-5,-30.000001 -15,0 0,40 -15,40 -15,0 0,-40 -15,-40 -15,0 0,40 -15,40 -15.000002,0 0,-40 -15.000002,-40 -15,0 0,40.000001 -15,40 -15,0 0,-39.999999 -15,-40 -15,0 0,40.000001 -15,40 -15,0 -2e-6,-40 -15,-40 -14.999998,10e-7 0,40.000001 -15,40 -15,0 2e-6,-40 -15,-40 -15.000002,10e-7 0,35 -15,40 -15,5 -15,-20 -15,-30 0,-10 10,-10 10,0 0,10 -15,10 -15,-5 0,-15 -20,-15 -20,0 0,15 0,45 10,45 10,0 5,-35.000001 0,-64.999999" />
  </g>
</svg>
