<?xml version="1.0" encoding="UTF-8" standalone="no"?>
<!-- Created with Inkscape (http://www.inkscape.org/) -->

<svg
   xmlns:dc="http://purl.org/dc/elements/1.1/"
   xmlns:cc="http://creativecommons.org/ns#"
   xmlns:rdf="http://www.w3.org/1999/02/22-rdf-syntax-ns#"
   xmlns:svg="http://www.w3.org/2000/svg"
   xmlns="http://www.w3.org/2000/svg"
   xmlns:sodipodi="http://sodipodi.sourceforge.net/DTD/sodipodi-0.dtd"
   xmlns:inkscape="http://www.inkscape.org/namespaces/inkscape"
   width="201.79811"
   height="56.922585"
   id="svg2"
   version="1.1"
   inkscape:version="0.91 r13725"
   sodipodi:docname="Sheepshank_Knot_metod.svg"
   inkscape:export-filename="/home/dedandrey/Latex/Булинь/Site/Besedochny.png"
   inkscape:export-xdpi="90"
   inkscape:export-ydpi="90">
  <defs
     id="defs4">
    <inkscape:path-effect
       effect="simplify"
       id="path-effect962"
       is_visible="true"
       steps="1"
       threshold="0.00243902"
       smooth_angles="360"
       helper_size="0"
       simplify_individual_paths="false"
       simplify_just_coalesce="false"
       simplifyindividualpaths="false"
       simplifyJustCoalesce="false" />
    <inkscape:path-effect
       effect="knot"
       id="path-effect4163"
       is_visible="true"
       interruption_width="1"
       prop_to_stroke_width="true"
       add_stroke_width="true"
       add_other_stroke_width="false"
       switcher_size="10"
       crossing_points_vector="-40.321315 | 242.74655 | 0 | 0 | 0 | 1 | 2.7589991 | 4.2988128 | 1" />
    <inkscape:path-effect
       effect="knot"
       id="path-effect2985"
       is_visible="true"
       interruption_width="1.5"
       prop_to_stroke_width="true"
       add_stroke_width="true"
       add_other_stroke_width="false"
       switcher_size="25"
       crossing_points_vector="179.33223 | 213.34272 | 0 | 0 | 2 | 7 | 0.88834318 | 2.1008364 | -1 | 187.02917 | 168.23552 | 0 | 0 | 0 | 10 | 0.4364998 | 3.8264664 | 1 | 179.05605 | 186.51992 | 0 | 0 | 1 | 11 | 0.57380061 | 4.3429393 | 1 | 212.51428 | 213.33582 | 0 | 0 | 4 | 8 | 1.2416251 | 3.6054883 | -1 | 202.54425 | 192.66223 | 0 | 0 | 5 | 9 | 1.8339622 | 3.6895504 | -1 | 198.95141 | 217.46136 | 0 | 0 | 3 | 13 | 1.0727533 | 4.6298214 | 1 | 188.64423 | 200.68352 | 0 | 0 | 6 | 12 | 1.9971524 | 4.4874634 | 1" />
    <filter
       id="filter2987"
       inkscape:label="Outline, double"
       inkscape:menu="Morphology"
       inkscape:menu-tooltip="Draws a smooth line inside colorized with the color it overlays"
       style="color-interpolation-filters:sRGB">
      <feGaussianBlur
         id="feGaussianBlur2989"
         stdDeviation="3"
         in="SourceAlpha"
         result="result1" />
      <feComposite
         id="feComposite2991"
         in2="result1"
         operator="arithmetic"
         k2="3.2"
         k1="-1"
         k4="-2"
         result="result3"
         k3="0" />
      <feColorMatrix
         id="feColorMatrix2993"
         values="0 0 0 0 0 0 1 0 0 0 0 0 1 0 0 0 0 0 10 0 "
         result="result2" />
      <feComposite
         id="feComposite2995"
         in2="result2"
         result="fbSourceGraphic"
         in="SourceGraphic"
         operator="out" />
      <feGaussianBlur
         id="feGaussianBlur2997"
         in="fbSourceGraphic"
         stdDeviation="0.5"
         result="result4" />
      <feComposite
         id="feComposite2999"
         in2="result4"
         operator="xor"
         in="result4"
         result="result5" />
      <feBlend
         id="feBlend3001"
         in2="result5"
         result="result6"
         mode="darken"
         in="result5" />
      <feBlend
         id="feBlend3003"
         in2="result6"
         in="result6"
         mode="darken" />
    </filter>
    <inkscape:path-effect
       effect="knot"
       id="path-effect4163-2"
       is_visible="true"
       interruption_width="1"
       prop_to_stroke_width="true"
       add_stroke_width="true"
       add_other_stroke_width="false"
       switcher_size="10"
       crossing_points_vector="-9.4093435 | 295.00718 | 0 | 0 | 0 | 7 | 0.39631441 | 4.2943951 | -1 | -24.494406 | 248.20966 | 0 | 0 | 2 | 5 | 1.4147789 | 3.528825 | -1 | -18.495525 | 231.51559 | 0 | 0 | 3 | 10 | 1.7417797 | 7.1488619 | 1 | -27.055127 | 259.70324 | 0 | 0 | 1 | 12 | 1.1808155 | 8.0162197 | 1 | -33.173426 | 231.06481 | 0 | 0 | 4 | 9 | 3.2378859 | 6.8741514 | -1 | -18.53695 | 257.945 | 0 | 0 | 6 | 11 | 3.7051013 | 7.85212 | -1 | -43.935489 | 239.6792 | 0 | 0 | 8 | 13 | 6.6367144 | 8.5236215 | -1" />
    <marker
       inkscape:stockid="Arrow2Mend"
       orient="auto"
       refY="0"
       refX="0"
       id="Arrow2Mend"
       style="overflow:visible">
      <path
         id="path3937"
         style="fill-rule:evenodd;stroke-width:0.625;stroke-linejoin:round"
         d="M 8.7185878,4.0337352 -2.2072895,0.01601326 8.7185884,-4.0017078 c -1.7454984,2.3720609 -1.7354408,5.6174519 -6e-7,8.035443 z"
         transform="scale(-0.6,-0.6)"
         inkscape:connector-curvature="0" />
    </marker>
    <marker
       inkscape:stockid="Arrow2Mend"
       orient="auto"
       refY="0"
       refX="0"
       id="marker867"
       style="overflow:visible">
      <path
         id="path865"
         style="fill-rule:evenodd;stroke-width:0.625;stroke-linejoin:round"
         d="M 8.7185878,4.0337352 -2.2072895,0.01601326 8.7185884,-4.0017078 c -1.7454984,2.3720609 -1.7354408,5.6174519 -6e-7,8.035443 z"
         transform="scale(-0.6,-0.6)"
         inkscape:connector-curvature="0" />
    </marker>
    <marker
       inkscape:stockid="Arrow2Mend"
       orient="auto"
       refY="0"
       refX="0"
       id="Arrow2Mend-2"
       style="overflow:visible"
       inkscape:isstock="true">
      <path
         id="path908"
         style="fill:#fc0000;fill-opacity:1;fill-rule:evenodd;stroke:#fc0000;stroke-width:0.625;stroke-linejoin:round;stroke-opacity:1"
         d="M 8.7185878,4.0337352 -2.2072895,0.01601326 8.7185884,-4.0017078 c -1.7454984,2.3720609 -1.7354408,5.6174519 -6e-7,8.035443 z"
         transform="scale(-0.6,-0.6)"
         inkscape:connector-curvature="0" />
    </marker>
    <marker
       inkscape:stockid="Arrow2Mend"
       orient="auto"
       refY="0"
       refX="0"
       id="marker941"
       style="overflow:visible"
       inkscape:isstock="true">
      <path
         id="path939"
         style="fill:#fc0000;fill-opacity:1;fill-rule:evenodd;stroke:#fc0000;stroke-width:0.625;stroke-linejoin:round;stroke-opacity:1"
         d="M 8.7185878,4.0337352 -2.2072895,0.01601326 8.7185884,-4.0017078 c -1.7454984,2.3720609 -1.7354408,5.6174519 -6e-7,8.035443 z"
         transform="scale(-0.6,-0.6)"
         inkscape:connector-curvature="0" />
    </marker>
    <marker
       inkscape:stockid="Arrow2Mend"
       orient="auto"
       refY="0"
       refX="0"
       id="Arrow2Mend-2-2"
       style="overflow:visible"
       inkscape:isstock="true">
      <path
         id="path908-3"
         style="fill:#fc0000;fill-opacity:1;fill-rule:evenodd;stroke:#fc0000;stroke-width:0.625;stroke-linejoin:round;stroke-opacity:1"
         d="M 8.7185878,4.0337352 -2.2072895,0.01601326 8.7185884,-4.0017078 c -1.7454984,2.3720609 -1.7354408,5.6174519 -6e-7,8.035443 z"
         transform="scale(-0.6,-0.6)"
         inkscape:connector-curvature="0" />
    </marker>
    <marker
       inkscape:stockid="Arrow2Mend"
       orient="auto"
       refY="0"
       refX="0"
       id="marker884"
       style="overflow:visible"
       inkscape:isstock="true">
      <path
         id="path882"
         style="fill:#fc0000;fill-opacity:1;fill-rule:evenodd;stroke:#fc0000;stroke-width:0.625;stroke-linejoin:round;stroke-opacity:1"
         d="M 8.7185878,4.0337352 -2.2072895,0.01601326 8.7185884,-4.0017078 c -1.7454984,2.3720609 -1.7354408,5.6174519 -6e-7,8.035443 z"
         transform="scale(-0.6,-0.6)"
         inkscape:connector-curvature="0" />
    </marker>
    <inkscape:path-effect
       effect="knot"
       id="path-effect4163-2-7"
       is_visible="true"
       interruption_width="1"
       prop_to_stroke_width="true"
       add_stroke_width="true"
       add_other_stroke_width="false"
       switcher_size="10"
       crossing_points_vector="-204.73099 | 195.47702 | 0 | 0 | 0 | 7 | 0.37422311 | 4.2786784 | -1 | -157.70901 | 211.4521 | 0 | 0 | 2 | 5 | 1.4434703 | 3.5042045 | -1 | -142.22593 | 204.9378 | 0 | 0 | 3 | 10 | 1.7447386 | 7.1413297 | 1 | -170.42497 | 215.23691 | 0 | 0 | 1 | 12 | 1.1838566 | 8.0530621 | 1 | -141.94332 | 219.29491 | 0 | 0 | 4 | 9 | 3.2378859 | 6.8741515 | -1 | -168.82351 | 204.65844 | 0 | 0 | 6 | 11 | 3.7051013 | 7.85212 | -1 | -150.55771 | 230.05698 | 0 | 0 | 8 | 13 | 6.6367145 | 8.5236215 | -1" />
    <marker
       inkscape:stockid="Arrow2Mend"
       orient="auto"
       refY="0"
       refX="0"
       id="Arrow2Mend-2-2-2"
       style="overflow:visible"
       inkscape:isstock="true">
      <path
         id="path908-3-3"
         style="fill:#fc0000;fill-opacity:1;fill-rule:evenodd;stroke:#fc0000;stroke-width:0.625;stroke-linejoin:round;stroke-opacity:1"
         d="M 8.7185878,4.0337352 -2.2072895,0.01601326 8.7185884,-4.0017078 c -1.7454984,2.3720609 -1.7354408,5.6174519 -6e-7,8.035443 z"
         transform="scale(-0.6,-0.6)"
         inkscape:connector-curvature="0" />
    </marker>
    <marker
       inkscape:stockid="Arrow2Mend"
       orient="auto"
       refY="0"
       refX="0"
       id="marker901"
       style="overflow:visible"
       inkscape:isstock="true">
      <path
         id="path899"
         style="fill:#fc0000;fill-opacity:1;fill-rule:evenodd;stroke:#fc0000;stroke-width:0.625;stroke-linejoin:round;stroke-opacity:1"
         d="M 8.7185878,4.0337352 -2.2072895,0.01601326 8.7185884,-4.0017078 c -1.7454984,2.3720609 -1.7354408,5.6174519 -6e-7,8.035443 z"
         transform="scale(-0.6,-0.6)"
         inkscape:connector-curvature="0" />
    </marker>
    <inkscape:path-effect
       effect="knot"
       id="path-effect4163-2-7-7"
       is_visible="true"
       interruption_width="1"
       prop_to_stroke_width="true"
       add_stroke_width="true"
       add_other_stroke_width="false"
       switcher_size="10"
       crossing_points_vector="-186.07353 | 309.88658 | 0 | 0 | 1 | 6 | 0.89239164 | 5.1617223 | -1 | -166.3433 | 310.6421 | 0 | 0 | 0 | 7 | 0.74046297 | 5.8230472 | -1 | -184.61965 | 294.73835 | 0 | 0 | 2 | 5 | 2.156667 | 4.9274208 | 1 | -167.59124 | 295.01741 | 0 | 0 | 3 | 8 | 2.390735 | 6.0681328 | 1 | -176.8492 | 285.42306 | 0 | 0 | 4 | 9 | 4.7294988 | 6.2705143 | 1" />
    <marker
       inkscape:stockid="Arrow2Mend"
       orient="auto"
       refY="0"
       refX="0"
       id="Arrow2Mend-23"
       style="overflow:visible">
      <path
         id="path3921"
         style="fill-rule:evenodd;stroke-width:0.625;stroke-linejoin:round"
         d="M 8.7185878,4.0337352 -2.2072895,0.01601326 8.7185884,-4.0017078 c -1.7454984,2.3720609 -1.7354408,5.6174519 -6e-7,8.035443 z"
         transform="scale(-0.6,-0.6)"
         inkscape:connector-curvature="0" />
    </marker>
    <marker
       inkscape:stockid="Arrow2Mend"
       orient="auto"
       refY="0"
       refX="0"
       id="marker4183"
       style="overflow:visible">
      <path
         id="path4185"
         style="fill-rule:evenodd;stroke-width:0.625;stroke-linejoin:round"
         d="M 8.7185878,4.0337352 -2.2072895,0.01601326 8.7185884,-4.0017078 c -1.7454984,2.3720609 -1.7354408,5.6174519 -6e-7,8.035443 z"
         transform="scale(-0.6,-0.6)"
         inkscape:connector-curvature="0" />
    </marker>
    <marker
       inkscape:stockid="Arrow2Mend"
       orient="auto"
       refY="0"
       refX="0"
       id="marker4187"
       style="overflow:visible">
      <path
         id="path4189"
         style="fill-rule:evenodd;stroke-width:0.625;stroke-linejoin:round"
         d="M 8.7185878,4.0337352 -2.2072895,0.01601326 8.7185884,-4.0017078 c -1.7454984,2.3720609 -1.7354408,5.6174519 -6e-7,8.035443 z"
         transform="scale(-0.6,-0.6)"
         inkscape:connector-curvature="0" />
    </marker>
    <marker
       inkscape:stockid="Arrow2Mend"
       orient="auto"
       refY="0"
       refX="0"
       id="marker4191"
       style="overflow:visible">
      <path
         id="path4193"
         style="fill-rule:evenodd;stroke-width:0.625;stroke-linejoin:round"
         d="M 8.7185878,4.0337352 -2.2072895,0.01601326 8.7185884,-4.0017078 c -1.7454984,2.3720609 -1.7354408,5.6174519 -6e-7,8.035443 z"
         transform="scale(-0.6,-0.6)"
         inkscape:connector-curvature="0" />
    </marker>
    <marker
       inkscape:stockid="Arrow2Mend"
       orient="auto"
       refY="0"
       refX="0"
       id="Arrow2Mend-2-7"
       style="overflow:visible"
       inkscape:isstock="true">
      <path
         id="path908-5"
         style="fill:#fc0000;fill-opacity:1;fill-rule:evenodd;stroke:#fc0000;stroke-width:0.625;stroke-linejoin:round;stroke-opacity:1"
         d="M 8.7185878,4.0337352 -2.2072895,0.01601326 8.7185884,-4.0017078 c -1.7454984,2.3720609 -1.7354408,5.6174519 -6e-7,8.035443 z"
         transform="scale(-0.6,-0.6)"
         inkscape:connector-curvature="0" />
    </marker>
    <marker
       inkscape:stockid="Arrow2Mend"
       orient="auto"
       refY="0"
       refX="0"
       id="Arrow2Mend-2-2-2-9-3-2-1-9"
       style="overflow:visible"
       inkscape:isstock="true">
      <path
         id="path908-3-3-7-6-9-9-2"
         style="fill:#fc0000;fill-opacity:1;fill-rule:evenodd;stroke:#fc0000;stroke-width:0.625;stroke-linejoin:round;stroke-opacity:1"
         d="M 8.7185878,4.0337352 -2.2072895,0.01601326 8.7185884,-4.0017078 c -1.7454984,2.3720609 -1.7354408,5.6174519 -6e-7,8.035443 z"
         transform="scale(-0.6,-0.6)"
         inkscape:connector-curvature="0" />
    </marker>
  </defs>
  <sodipodi:namedview
     id="base"
     pagecolor="#ffffff"
     bordercolor="#666666"
     borderopacity="1.0"
     inkscape:pageopacity="0.0"
     inkscape:pageshadow="2"
     inkscape:zoom="3.959798"
     inkscape:cx="93.18623"
     inkscape:cy="-7.6955333"
     inkscape:document-units="px"
     inkscape:current-layer="layer2"
     showgrid="true"
     inkscape:window-width="1920"
     inkscape:window-height="1015"
     inkscape:window-x="0"
     inkscape:window-y="0"
     inkscape:window-maximized="1"
     fit-margin-top="5"
     fit-margin-left="5"
     fit-margin-right="5"
     fit-margin-bottom="5"
     inkscape:showpageshadow="false"
     inkscape:snap-nodes="true"
     inkscape:snap-bbox="true"
     inkscape:object-paths="false"
     inkscape:snap-intersection-paths="false"
     inkscape:snap-midpoints="false"
     inkscape:snap-smooth-nodes="false"
     inkscape:object-nodes="true">
    <inkscape:grid
       type="xygrid"
       id="grid4161"
       originx="395.29531"
       originy="-53.698152"
       dotted="false" />
  </sodipodi:namedview>
  <metadata
     id="metadata7">
    <rdf:RDF>
      <cc:Work
         rdf:about="">
        <dc:format>image/svg+xml</dc:format>
        <dc:type
           rdf:resource="http://purl.org/dc/dcmitype/StillImage" />
        <dc:title></dc:title>
      </cc:Work>
    </rdf:RDF>
  </metadata>
  <g
     inkscape:groupmode="layer"
     id="layer2"
     inkscape:label="Слой"
     style="display:inline"
     transform="translate(241.39295,-274.09839)">
    <path
       style="display:inline;fill:none;fill-rule:evenodd;stroke:#000000;stroke-width:3;stroke-linecap:butt;stroke-linejoin:miter;stroke-miterlimit:4;stroke-dasharray:none;stroke-opacity:1"
       d="m -46.09764,319.71912 c -28.786293,-3.59829 -80.87838,-7.19657 -117.14117,-8.93128 m -6.21079,-0.28569 c -11.33969,-0.49952 -20.69495,-0.78303 -26.64804,-0.78303 -25,0 -25,-15 0,-15 8.64374,0 16.68977,1e-5 25.17138,0.20667 m 6.67999,0.20517 c 14.33835,0.5347 30.55226,1.76364 53.14863,4.58816 40,4.99995 40,-10 0,-15 -35.04022,-4.38003 -62.40659,-8.76013 -72.01558,7.02688 m -2.51802,5.98723 c -0.17399,0.63988 -0.32956,1.30163 -0.4664,1.98584 -0.53379,2.66897 -0.66868,5.053 -0.48983,7.1521 m 1.69865,6.04944 c 5.65208,10.49882 22.65114,6.09831 18.79118,-13.20154 -1.10775,-5.53878 -3.93347,-9.60501 -7.93342,-12.52472 m -6.06258,-3.27435 c -15.15468,-5.98654 -39.03479,-2.58827 -56.004,0.81922"
       id="path4154-3-5-5"
       inkscape:connector-curvature="0"
       sodipodi:nodetypes="czzzzzzc"
       inkscape:path-effect="#path-effect4163-2-7-7"
       inkscape:original-d="m -46.09764,319.71912 c -40,-5 -125,-10 -150,-10 -25,0 -25,-15 0,-15 25,0 45,5e-5 85,5 40,4.99995 40,-10 0,-15 -40,-5 -70,-10.0001 -75,14.99995 -5,25.00005 25,25.00005 20,0 -5,-25.00005 -45,-19.99995 -70,-14.97985" />
    <path
       style="color:#000000;font-style:normal;font-variant:normal;font-weight:normal;font-stretch:normal;font-size:medium;line-height:normal;font-family:Sans;-inkscape-font-specification:Sans;text-indent:0;text-align:start;text-decoration:none;text-decoration-line:none;letter-spacing:normal;word-spacing:normal;text-transform:none;direction:ltr;block-progression:tb;writing-mode:lr-tb;baseline-shift:baseline;text-anchor:start;display:inline;overflow:visible;visibility:visible;fill:#808080;fill-opacity:1;stroke:#000000;stroke-width:0.55951953;stroke-miterlimit:4;stroke-dasharray:none;stroke-opacity:1;marker:none;enable-background:accumulate"
       d="m -219.27316,412.92727 c -0.5272,0.0304 -0.98447,0.65081 -0.95976,1.30218 0.0247,0.65136 0.52695,1.21619 1.05414,1.18553 6.79154,-0.36002 23.74494,2.20555 33.80376,5.81966 0.50656,0.18329 1.10244,-0.21948 1.25071,-0.84538 0.14827,-0.62589 -0.17781,-1.36205 -0.68442,-1.54515 -10.38491,-3.73128 -27.24434,-6.29957 -34.46443,-5.91684 z"
       id="path3082"
       inkscape:connector-curvature="0"
       sodipodi:nodetypes="csccscc" />
    <path
       style="color:#000000;font-style:normal;font-variant:normal;font-weight:normal;font-stretch:normal;font-size:medium;line-height:normal;font-family:Sans;-inkscape-font-specification:Sans;text-indent:0;text-align:start;text-decoration:none;text-decoration-line:none;letter-spacing:normal;word-spacing:normal;text-transform:none;direction:ltr;block-progression:tb;writing-mode:lr-tb;baseline-shift:baseline;text-anchor:start;display:inline;overflow:visible;visibility:visible;fill:#808080;fill-opacity:1;stroke:#000000;stroke-width:0.55951953;stroke-miterlimit:4;stroke-dasharray:none;stroke-opacity:1;marker:none;enable-background:accumulate"
       d="m -103.22797,442.62245 c -0.4741,0.0398 -0.89344,0.54805 -0.93476,1.13293 -0.0413,0.58487 0.30038,1.1752 0.76172,1.31592 10.212299,3.72788 29.848457,7.65935 37.703995,7.65935 0.53188,0.009 1.021083,-0.58664 1.021083,-1.24385 0,-0.65721 -0.489203,-1.25315 -1.021083,-1.24386 -7.597982,0 -27.262464,-3.96309 -37.121965,-7.56218 -0.13117,-0.0539 -0.27136,-0.0738 -0.40899,-0.0583 z"
       id="path3788"
       inkscape:connector-curvature="0"
       sodipodi:nodetypes="csccscccc" />
    <path
       style="color:#000000;font-style:normal;font-variant:normal;font-weight:normal;font-stretch:normal;font-size:medium;line-height:normal;font-family:Sans;-inkscape-font-specification:Sans;text-indent:0;text-align:start;text-decoration:none;text-decoration-line:none;letter-spacing:normal;word-spacing:normal;text-transform:none;direction:ltr;block-progression:tb;writing-mode:lr-tb;baseline-shift:baseline;text-anchor:start;display:inline;overflow:visible;visibility:visible;fill:#808080;fill-opacity:1;stroke:#000000;stroke-width:0.55951953;stroke-miterlimit:4;stroke-dasharray:none;stroke-opacity:1;marker:none;enable-background:accumulate"
       d="m -149.36715,405.54188 c -4.90618,0.2126 -11.27147,1.69107 -17.86976,4.15914 -8.79774,3.29076 -17.94767,8.3461 -24.22486,14.77079 l -0.0472,0.0583 -0.0472,0.0583 c -2.11484,2.83073 -3.24865,5.35842 -3.64946,7.71579 -0.40081,2.35737 0.0469,5.85522 1.47687,7.90358 l 1.809,-1.08837 c -1.1226,-1.34356 -1.62827,-4.53041 -1.31957,-6.30989 0.30482,-1.75711 1.20484,-3.87628 3.11463,-6.45251 5.9333,-6.05339 14.87188,-11.04945 23.46979,-14.26547 8.61797,-3.22351 16.97224,-4.64671 21.37765,-3.86761 4.64451,0.82138 9.85573,3.19093 13.55963,6.04436 1.85195,1.42672 3.32078,2.98697 4.15283,4.4118 0.83206,1.42483 1.02663,2.5431 0.67641,3.59552 -0.36383,1.09333 -1.11361,1.75984 -2.43822,2.11844 -1.3246,0.35861 -3.14469,0.28719 -5.20677,-0.17491 -4.12415,-0.9242 -9.18309,-3.41056 -13.43378,-6.56912 -3.758,-2.79245 -7.97473,-1.55349 -12.33265,0.56363 -4.35793,2.11711 -10.66293,5.38366 -15.743,6.86147 l 0.47191,2.40997 c 5.40549,-1.57247 11.81156,-4.91881 16.01042,-6.95865 4.19885,-2.03984 7.59096,-2.94111 10.55511,-0.73854 4.45113,3.3075 9.65219,5.88106 14.11019,6.88008 2.229,0.49951 4.2627,0.624 5.9933,0.15548 1.71363,-0.46393 3.19266,-1.61383 3.85395,-3.53721 l 0.0157,-0.0583 c 0.66513,-1.99876 0.17582,-4.169 -0.89663,-6.00549 -1.07246,-1.83649 -2.723,-3.51538 -4.71913,-5.05316 -3.99226,-3.07558 -9.37794,-5.53501 -14.34615,-6.41364 -1.26633,-0.22395 -2.73766,-0.28465 -4.37306,-0.21378 z"
       id="path3078"
       inkscape:connector-curvature="0"
       sodipodi:nodetypes="cscccsccscsssssssssccssssccssscc" />
    <path
       style="color:#000000;font-style:normal;font-variant:normal;font-weight:normal;font-stretch:normal;font-size:medium;line-height:normal;font-family:Sans;-inkscape-font-specification:Sans;text-indent:0;text-align:start;text-decoration:none;text-decoration-line:none;letter-spacing:normal;word-spacing:normal;text-transform:none;direction:ltr;block-progression:tb;writing-mode:lr-tb;baseline-shift:baseline;text-anchor:start;display:inline;overflow:visible;visibility:visible;fill:#808080;fill-opacity:1;stroke:#000000;stroke-width:0.55951953;stroke-miterlimit:4;stroke-dasharray:none;stroke-opacity:1;marker:none;enable-background:accumulate"
       d="m -100.93317,419.14655 c -5.27224,0 -8.8275,4.06647 -9.98882,8.97908 -1.0109,4.27631 0.16531,10.33308 4.24928,14.54607 l 3.29671,-0.14113 c -4.13898,-2.64853 -6.5568,-9.70495 -5.61115,-13.70527 0.94566,-4.00032 3.59285,-7.19104 8.05398,-7.19104 4.614261,0 7.987438,3.54324 9.107917,7.69636 1.12048,4.15311 0.15892,8.83232 -4.514632,11.71945 -1.691335,1.04484 -6.127125,1.65167 -11.923665,1.63256 -5.79653,-0.0191 -13.04667,-0.54961 -20.84281,-1.26329 -15.59229,-1.42736 -33.34731,-3.61702 -46.23172,-4.0814 l -0.0157,0 -0.0157,0 c -4.81475,-0.0228 -7.05314,0.13079 -8.77758,0.48588 -7.49693,1.54377 -15.00463,2.28934 -20.49674,1.53539 -2.74606,-0.37699 -4.97401,-1.13061 -6.41802,-2.23506 -1.44401,-1.10444 -2.1236,-2.37758 -2.1236,-4.29519 0,-1.91761 0.67959,-3.19074 2.1236,-4.29519 1.44401,-1.10444 3.67196,-1.85807 6.41802,-2.23505 5.49211,-0.75396 12.99981,-0.008 20.49674,1.53538 1.91157,0.39364 5.40094,0.0597 7.20109,-0.0941 l -0.14162,-2.46828 c -1.65866,0.14173 -4.98377,0.47295 -6.72918,0.11353 -7.60429,-1.56587 -15.21353,-2.37511 -21.04731,-1.57425 -2.91689,0.40043 -5.40807,1.20162 -7.26746,2.62376 -1.85938,1.42213 -3.06743,3.64734 -3.06743,6.39419 0,2.74685 1.20805,4.97206 3.06743,6.3942 1.85939,1.42214 4.35057,2.22333 7.26746,2.62376 5.83378,0.80086 13.44302,-0.008 21.04731,-1.57426 1.53297,-0.31566 3.65295,-0.46909 8.41578,-0.44701 0.005,1.8e-4 0.0109,-1.7e-4 0.0157,0 12.75176,0.46078 30.51169,2.65099 46.13734,4.0814 7.81577,0.71548 15.09504,1.24388 20.98438,1.26329 5.88934,0.0194 10.300281,-0.34788 12.8203,-1.90465 5.39392,-3.33215 6.933499,-9.53668 5.53711,-14.71248 -1.396389,-5.1758 -5.573816,-9.40666 -11.02703,-9.40666 z"
       id="path3074"
       inkscape:connector-curvature="0"
       sodipodi:nodetypes="csccsssssscccsssssssccsssssssccsssscc" />
    <path
       style="color:#000000;font-style:normal;font-variant:normal;font-weight:normal;font-stretch:normal;font-size:medium;line-height:normal;font-family:Sans;-inkscape-font-specification:Sans;text-indent:0;text-align:start;text-decoration:none;text-decoration-line:none;letter-spacing:normal;word-spacing:normal;text-transform:none;direction:ltr;block-progression:tb;writing-mode:lr-tb;baseline-shift:baseline;text-anchor:start;display:inline;overflow:visible;visibility:visible;fill:#808080;fill-opacity:1;stroke:#000000;stroke-width:0.55951953;stroke-miterlimit:4;stroke-dasharray:none;stroke-opacity:1;marker:none;enable-background:accumulate"
       d="m -184.60464,421.60839 c 2.01748,0.66851 4.46842,2.40316 5.09799,2.92172 3.41017,2.80889 4.51327,7.6837 3.66519,11.87494 -0.84807,4.19123 -3.5341,7.61861 -8.14836,7.61861 -1.83844,0 -4.56066,-0.80729 -6.47978,-2.58923 l -2.33811,0.29692 c 2.8035,3.39548 6.069,4.78003 8.81789,4.78003 5.45321,0 9.05936,-4.34672 10.09894,-9.4844 1.03957,-5.13769 -0.35848,-11.14659 -4.49891,-14.557 -0.56584,-0.46608 -2.23257,-1.69976 -3.86499,-2.50793 z"
       id="path3080"
       inkscape:connector-curvature="0"
       sodipodi:nodetypes="csssccssscc" />
    <path
       style="fill:none;stroke:#000000;stroke-width:0.55951953;stroke-linecap:butt;stroke-linejoin:miter;stroke-miterlimit:4;stroke-dasharray:0.55951952, 0.55951952;stroke-dashoffset:0;stroke-opacity:1"
       d="m -120.52654,426.58783 c 2.75776,0.80211 5.59081,1.53356 8.48158,2.19574 m 4.10639,0.8867 c 13.426903,2.72764 27.885278,4.02531 41.704475,4.02531"
       id="path3888"
       inkscape:connector-curvature="0"
       sodipodi:nodetypes="cccc" />
    <path
       style="display:inline;fill:none;fill-rule:evenodd;stroke:#fc0000;stroke-width:1;stroke-linecap:butt;stroke-linejoin:miter;stroke-miterlimit:4;stroke-dasharray:2, 1;stroke-dashoffset:0;stroke-opacity:1;marker-start:url(#Arrow2Mend-2-7);marker-end:url(#Arrow2Mend-2-2-2-9-3-2-1-9)"
       d="m -71.09764,299.71912 c 3.651515,1.82576 5.803005,3.98486 6.819626,6.26429 m 0.572962,4.99966 c -1.581625,8.81197 -15.524699,17.17 -22.392588,13.73605 -2.705095,-1.35254 -3.946682,-3.43685 -3.526815,-5.65906 m 5.776945,-6.15178 c 6.538077,-3.43005 18.764979,-5.56227 37.74987,-3.18916"
       id="path1042-9-9-1-3-4-2"
       inkscape:connector-curvature="0"
       sodipodi:nodetypes="cccsccc" />
  </g>
</svg>
