<?xml version="1.0" encoding="UTF-8" standalone="no"?>
<!-- Created with Inkscape (http://www.inkscape.org/) -->

<svg
   xmlns:dc="http://purl.org/dc/elements/1.1/"
   xmlns:cc="http://creativecommons.org/ns#"
   xmlns:rdf="http://www.w3.org/1999/02/22-rdf-syntax-ns#"
   xmlns:svg="http://www.w3.org/2000/svg"
   xmlns="http://www.w3.org/2000/svg"
   xmlns:sodipodi="http://sodipodi.sourceforge.net/DTD/sodipodi-0.dtd"
   xmlns:inkscape="http://www.inkscape.org/namespaces/inkscape"
   width="96.773514"
   height="131.99802"
   id="svg3080"
   version="1.1"
   inkscape:version="0.92.4 (unknown)"
   sodipodi:docname="Arbor_samosbros_2.svg">
  <defs
     id="defs3082">
    <marker
       inkscape:stockid="Arrow2Mend"
       orient="auto"
       refY="0"
       refX="0"
       id="Arrow2Mend"
       style="overflow:visible"
       inkscape:isstock="true">
      <path
         id="path908"
         style="fill:#fe0000;fill-opacity:1;fill-rule:evenodd;stroke:#fe0000;stroke-width:0.625;stroke-linejoin:round;stroke-opacity:1"
         d="M 8.7185878,4.0337352 -2.2072895,0.01601326 8.7185884,-4.0017078 c -1.7454984,2.3720609 -1.7354408,5.6174519 -6e-7,8.035443 z"
         transform="scale(-0.6)"
         inkscape:connector-curvature="0" />
    </marker>
    <marker
       inkscape:stockid="Arrow2Lend"
       orient="auto"
       refY="0"
       refX="0"
       id="Arrow2Lend"
       style="overflow:visible"
       inkscape:isstock="true">
      <path
         id="path902"
         style="fill:#fe0000;fill-opacity:1;fill-rule:evenodd;stroke:#fe0000;stroke-width:0.625;stroke-linejoin:round;stroke-opacity:1"
         d="M 8.7185878,4.0337352 -2.2072895,0.01601326 8.7185884,-4.0017078 c -1.7454984,2.3720609 -1.7354408,5.6174519 -6e-7,8.035443 z"
         transform="matrix(-1.1,0,0,-1.1,-1.1,0)"
         inkscape:connector-curvature="0" />
    </marker>
    <marker
       inkscape:stockid="Arrow1Lstart"
       orient="auto"
       refY="0"
       refX="0"
       id="Arrow1Lstart"
       style="overflow:visible"
       inkscape:isstock="true">
      <path
         id="path881"
         d="M 0,0 5,-5 -12.5,0 5,5 Z"
         style="fill:#fe0000;fill-opacity:1;fill-rule:evenodd;stroke:#fe0000;stroke-width:1.00000003pt;stroke-opacity:1"
         transform="matrix(0.8,0,0,0.8,10,0)"
         inkscape:connector-curvature="0" />
    </marker>
    <inkscape:path-effect
       effect="knot"
       id="path-effect840"
       is_visible="true"
       interruption_width="3"
       prop_to_stroke_width="false"
       add_stroke_width="true"
       add_other_stroke_width="false"
       switcher_size="15"
       crossing_points_vector="404.09964 | 796.60429 | 0 | 0 | 0 | 6 | 0.559855 | 6.7064249 | -1 | 379.05883 | 797.00574 | 0 | 0 | 1 | 7 | 1.0730138 | 7.28101 | -1 | 376.83225 | 776.67984 | 0 | 0 | 2 | 8 | 4.8646983 | 7.8087011 | 1 | 391.4033 | 772.5547 | 0 | 0 | 3 | 10 | 5.4999974 | 8.4999984 | 1 | 391.40339 | 772.55463 | 0 | 0 | 4 | 9 | 5.5000033 | 8.4999977 | 1 | 406.11761 | 776.95822 | 0 | 0 | 5 | 11 | 6.1996591 | 9.1496053 | 1" />
    <filter
       id="filter3111"
       inkscape:label="Outline, double"
       inkscape:menu="Morphology"
       inkscape:menu-tooltip="Draws a smooth line inside colorized with the color it overlays"
       style="color-interpolation-filters:sRGB">
      <feGaussianBlur
         id="feGaussianBlur3113"
         stdDeviation="3"
         in="SourceAlpha"
         result="result1" />
      <feComposite
         id="feComposite3115"
         in2="result1"
         operator="arithmetic"
         k2="3.2"
         k1="-1"
         k4="-2"
         result="result3"
         k3="0" />
      <feColorMatrix
         id="feColorMatrix3117"
         values="0 0 0 0 0 0 1 0 0 0 0 0 1 0 0 0 0 0 10 0 "
         result="result2" />
      <feComposite
         id="feComposite3119"
         in2="result2"
         result="fbSourceGraphic"
         in="SourceGraphic"
         operator="out" />
      <feGaussianBlur
         id="feGaussianBlur3121"
         in="fbSourceGraphic"
         stdDeviation="0.5"
         result="result4" />
      <feComposite
         id="feComposite3123"
         in2="result4"
         operator="xor"
         in="result4"
         result="result5" />
      <feBlend
         id="feBlend3125"
         in2="result5"
         result="result6"
         mode="darken"
         in="result5" />
      <feBlend
         id="feBlend3127"
         in2="result6"
         in="result6"
         mode="darken" />
    </filter>
    <inkscape:path-effect
       effect="knot"
       id="path-effect840-2"
       is_visible="true"
       interruption_width="3"
       prop_to_stroke_width="false"
       add_stroke_width="true"
       add_other_stroke_width="false"
       switcher_size="15"
       crossing_points_vector="403.23988 | 875.24536 | 0 | 0 | 0 | 3 | 0.30583405 | 3.7905355 | -1 | 434.69018 | 856.18644 | 0 | 0 | 1 | 4 | 0.64654265 | 5.6367509 | 1 | 461.39463 | 867.49793 | 0 | 0 | 2 | 5 | 2.013941 | 6.3359148 | 1" />
    <marker
       inkscape:stockid="Arrow2Mend"
       orient="auto"
       refY="0"
       refX="0"
       id="Arrow2Mend-2"
       style="overflow:visible">
      <path
         id="path3886"
         style="fill-rule:evenodd;stroke-width:0.625;stroke-linejoin:round"
         d="M 8.7185878,4.0337352 -2.2072895,0.01601326 8.7185884,-4.0017078 c -1.7454984,2.3720609 -1.7354408,5.6174519 -6e-7,8.035443 z"
         transform="scale(-0.6)"
         inkscape:connector-curvature="0" />
    </marker>
    <marker
       inkscape:stockid="Arrow2Mend"
       orient="auto"
       refY="0"
       refX="0"
       id="marker910"
       style="overflow:visible">
      <path
         id="path908-3"
         style="fill-rule:evenodd;stroke-width:0.625;stroke-linejoin:round"
         d="M 8.7185878,4.0337352 -2.2072895,0.01601326 8.7185884,-4.0017078 c -1.7454984,2.3720609 -1.7354408,5.6174519 -6e-7,8.035443 z"
         transform="scale(-0.6)"
         inkscape:connector-curvature="0" />
    </marker>
    <marker
       inkscape:stockid="Arrow2Mend"
       orient="auto"
       refY="0"
       refX="0"
       id="marker914"
       style="overflow:visible">
      <path
         id="path912"
         style="fill-rule:evenodd;stroke-width:0.625;stroke-linejoin:round"
         d="M 8.7185878,4.0337352 -2.2072895,0.01601326 8.7185884,-4.0017078 c -1.7454984,2.3720609 -1.7354408,5.6174519 -6e-7,8.035443 z"
         transform="scale(-0.6)"
         inkscape:connector-curvature="0" />
    </marker>
    <marker
       inkscape:stockid="Arrow2Mend"
       orient="auto"
       refY="0"
       refX="0"
       id="marker918"
       style="overflow:visible">
      <path
         id="path916"
         style="fill-rule:evenodd;stroke-width:0.625;stroke-linejoin:round"
         d="M 8.7185878,4.0337352 -2.2072895,0.01601326 8.7185884,-4.0017078 c -1.7454984,2.3720609 -1.7354408,5.6174519 -6e-7,8.035443 z"
         transform="scale(-0.6)"
         inkscape:connector-curvature="0" />
    </marker>
    <marker
       inkscape:stockid="Arrow2Mend"
       orient="auto"
       refY="0"
       refX="0"
       id="marker922"
       style="overflow:visible">
      <path
         id="path920"
         style="fill-rule:evenodd;stroke-width:0.625;stroke-linejoin:round"
         d="M 8.7185878,4.0337352 -2.2072895,0.01601326 8.7185884,-4.0017078 c -1.7454984,2.3720609 -1.7354408,5.6174519 -6e-7,8.035443 z"
         transform="scale(-0.6)"
         inkscape:connector-curvature="0" />
    </marker>
    <marker
       inkscape:stockid="Arrow2Mend"
       orient="auto"
       refY="0"
       refX="0"
       id="marker926"
       style="overflow:visible">
      <path
         id="path924"
         style="fill-rule:evenodd;stroke-width:0.625;stroke-linejoin:round"
         d="M 8.7185878,4.0337352 -2.2072895,0.01601326 8.7185884,-4.0017078 c -1.7454984,2.3720609 -1.7354408,5.6174519 -6e-7,8.035443 z"
         transform="scale(-0.6)"
         inkscape:connector-curvature="0" />
    </marker>
    <inkscape:path-effect
       effect="knot"
       id="path-effect840-23"
       is_visible="true"
       interruption_width="3"
       prop_to_stroke_width="false"
       add_stroke_width="true"
       add_other_stroke_width="false"
       switcher_size="15"
       crossing_points_vector="504.33352 | 781.66597 | 0 | 0 | 0 | 3 | 0.37501026 | 2.3802541 | 1 | 516.60975 | 780.53839 | 0 | 0 | 1 | 4 | 0.65285069 | 3.2146916 | 1 | 521.8497 | 769.99432 | 0 | 0 | 2 | 5 | 1.6255331 | 3.6006236 | 1" />
    <inkscape:path-effect
       effect="knot"
       id="path-effect840-3"
       is_visible="true"
       interruption_width="3"
       prop_to_stroke_width="false"
       add_stroke_width="true"
       add_other_stroke_width="false"
       switcher_size="15"
       crossing_points_vector="441.67974 | 810.82877 | 0 | 0 | 0 | 17 | 0.4625108 | 6.6931329 | -1 | 414.65278 | 811.21429 | 0 | 0 | 2 | 27 | 0.92571365 | 8.5937597 | 1 | 430.35722 | 810.96771 | 0 | 0 | 1 | 30 | 0.62678969 | 9.4092838 | -1 | 402.7458 | 811.16141 | 0 | 0 | 3 | 20 | 1.1896497 | 7.3013149 | -1 | 446.39524 | 798.01027 | 0 | 0 | 7 | 16 | 2.7160213 | 6.5070859 | 1 | 397.7627 | 797.70456 | 0 | 0 | 4 | 21 | 2.3985904 | 7.496999 | 1 | 414.6031 | 798.11904 | 0 | 0 | 5 | 26 | 2.5038753 | 8.4844593 | 1 | 430.19839 | 798.35094 | 0 | 0 | 6 | 31 | 2.6024445 | 9.5076376 | -1 | 446.47965 | 784.45368 | 0 | 0 | 8 | 15 | 3.2833254 | 6.3267777 | -1 | 397.68337 | 784.75649 | 0 | 0 | 11 | 22 | 3.6019167 | 7.6690801 | -1 | 414.45094 | 784.34369 | 0 | 0 | 10 | 25 | 3.4970686 | 8.3635642 | 1 | 429.54853 | 784.11077 | 0 | 0 | 9 | 32 | 3.4017877 | 9.6155593 | -1 | 399.96791 | 775.92779 | 0 | 0 | 12 | 23 | 4.8400774 | 7.7977902 | 1 | 413.62929 | 773.47863 | 0 | 0 | 13 | 24 | 5.2393147 | 8.2467931 | 1 | 428.14271 | 763.48384 | 0 | 0 | 14 | 33 | 5.7695496 | 9.7849411 | 1 | 430.06156 | 820.0122 | 0 | 0 | 18 | 29 | 6.9021583 | 9.3326265 | -1 | 414.91374 | 820.25149 | 0 | 0 | 19 | 28 | 7.0874143 | 8.6729534 | 1" />
    <inkscape:path-effect
       effect="knot"
       id="path-effect840-3-7"
       is_visible="true"
       interruption_width="3"
       prop_to_stroke_width="false"
       add_stroke_width="true"
       add_other_stroke_width="false"
       switcher_size="15"
       crossing_points_vector="446.67974 | 790.82879 | 0 | 2 | 0 | 5 | 0.4625108 | 2.6931329 | -1 | 407.74579 | 791.16143 | 0 | 2 | 1 | 6 | 1.4713282 | 3.3013149 | -1 | 451.39524 | 778.01029 | 1 | 2 | 1 | 4 | 1.7160213 | 2.5070859 | 1 | 402.7627 | 777.70458 | 1 | 2 | 0 | 7 | 1.3985904 | 3.496999 | 1 | 451.47965 | 764.4537 | 1 | 2 | 2 | 3 | 2.2833254 | 2.3267777 | -1 | 402.68337 | 764.75651 | 1 | 2 | 3 | 8 | 2.6019167 | 3.6690801 | -1 | 404.9679 | 755.92781 | 2 | 2 | 0 | 9 | 0.55368283 | 3.7977901 | 1 | 427.10333 | 745.99843 | 2 | 2 | 1 | 10 | 1.5698403 | 4.4301597 | 1 | 449.09099 | 755.56352 | 2 | 2 | 2 | 11 | 2.1963641 | 5.2289232 | 1" />
    <inkscape:path-effect
       effect="knot"
       id="path-effect840-3-7-3"
       is_visible="true"
       interruption_width="3"
       prop_to_stroke_width="false"
       add_stroke_width="true"
       add_other_stroke_width="false"
       switcher_size="15"
       crossing_points_vector="451.35256 | 860.25554 | 0 | 0 | 1 | 12 | 0.71990335 | 3.679066 | 1 | 448.99306 | 846.2093 | 0 | 0 | 2 | 15 | 0.88195707 | 4.3394137 | 1 | 457.00521 | 871.55512 | 0 | 0 | 0 | 25 | 0.53623287 | 7.7435746 | -1 | 449.45161 | 834.44927 | 0 | 0 | 3 | 32 | 0.99005982 | 9.6165713 | 1 | 429.12675 | 836.90045 | 0 | 0 | 6 | 19 | 1.9556022 | 6.1621811 | -1 | 450.14111 | 826.03702 | 0 | 0 | 4 | 21 | 1.0644063 | 6.8940006 | 1 | 429.27974 | 826.06389 | 0 | 0 | 5 | 30 | 1.8680718 | 9.1201457 | -1 | 428.02942 | 860.17949 | 0 | 0 | 8 | 11 | 2.1380327 | 3.5106915 | -1 | 429.8149 | 846.30892 | 0 | 0 | 7 | 16 | 2.0208972 | 4.4770652 | -1 | 420.92351 | 870.16132 | 0 | 0 | 9 | 26 | 2.2724256 | 8.2845604 | -1 | 463.50574 | 859.29031 | 0 | 0 | 13 | 24 | 3.7875854 | 7.5340012 | 1 | 415.81709 | 859.84785 | 0 | 0 | 10 | 27 | 3.4269617 | 8.457557 | 1 | 464.24904 | 847.35527 | 0 | 0 | 14 | 23 | 4.2045665 | 7.3583994 | -1 | 415.00758 | 846.7049 | 0 | 0 | 17 | 28 | 4.5786523 | 8.6512515 | -1 | 417.23861 | 837.95101 | 0 | 0 | 18 | 29 | 5.8362761 | 8.7888913 | 1 | 438.44181 | 828.91132 | 0 | 0 | 20 | 31 | 6.5273905 | 9.4002627 | 1 | 461.81607 | 837.64066 | 0 | 0 | 22 | 33 | 7.2057941 | 9.7636156 | 1" />
    <inkscape:path-effect
       effect="knot"
       id="path-effect840-3-7-36"
       is_visible="true"
       interruption_width="3"
       prop_to_stroke_width="false"
       add_stroke_width="true"
       add_other_stroke_width="false"
       switcher_size="15"
       crossing_points_vector="451.67974 | 790.82879 | 0 | 0 | 0 | 11 | 0.4625108 | 6.6931329 | -1 | 412.7458 | 791.16143 | 0 | 0 | 1 | 12 | 1.1896497 | 7.3013149 | -1 | 456.39524 | 778.01029 | 0 | 0 | 3 | 10 | 2.7160213 | 6.5070859 | 1 | 407.7627 | 777.70458 | 0 | 0 | 2 | 13 | 2.3985904 | 7.496999 | 1 | 456.47965 | 764.4537 | 0 | 0 | 4 | 9 | 3.2833254 | 6.3267777 | -1 | 407.68337 | 764.75651 | 0 | 0 | 5 | 14 | 3.6019167 | 7.6690801 | -1 | 409.96791 | 755.92781 | 0 | 0 | 6 | 15 | 4.8400774 | 7.7977902 | 1 | 432.10333 | 745.99843 | 0 | 0 | 7 | 16 | 5.5698403 | 8.4301597 | 1 | 454.09099 | 755.56352 | 0 | 0 | 8 | 17 | 6.1963641 | 9.2289232 | 1" />
    <inkscape:path-effect
       effect="knot"
       id="path-effect840-3-7-3-5"
       is_visible="true"
       interruption_width="3"
       prop_to_stroke_width="false"
       add_stroke_width="true"
       add_other_stroke_width="false"
       switcher_size="15"
       crossing_points_vector="401.01562 | 809.14824 | 0 | 1 | 1 | 2 | 0.73459501 | 1.7972208 | 1 | 399.03326 | 797.04389 | 0 | 1 | 2 | 3 | 0.87351741 | 2.2270552 | 1 | 407.00521 | 821.55512 | 0 | 2 | 0 | 5 | 0.53623287 | 2.7435746 | -1 | 399.33362 | 785.56718 | 0 | 2 | 3 | 12 | 0.9805349 | 4.6148306 | 1 | 379.12675 | 786.90045 | 0 | 2 | 6 | 1 | 1.9556022 | 1.1621811 | -1 | 400.14111 | 776.03702 | 0 | 2 | 4 | 3 | 1.0644063 | 1.8940006 | 1 | 379.27902 | 776.07271 | 0 | 2 | 5 | 10 | 1.8681514 | 4.1201247 | -1 | 377.96565 | 810.35367 | 0 | 1 | 8 | 1 | 2.2949467 | 1.5735435 | -1 | 379.80769 | 796.1548 | 0 | 1 | 7 | 4 | 2.0417787 | 2.4110359 | -1 | 370.92351 | 820.16132 | 0 | 2 | 9 | 6 | 2.5745851 | 3.2845604 | -1 | 365.86823 | 810.04266 | 1 | 2 | 0 | 7 | 1.4749788 | 3.4545953 | 1 | 365.03103 | 796.51532 | 1 | 2 | 5 | 8 | 2.5317837 | 3.6540733 | -1 | 367.23862 | 787.95101 | 2 | 2 | 0 | 9 | 0.54424005 | 3.7888913 | 1 | 388.2254 | 779.08784 | 2 | 2 | 2 | 11 | 1.5192623 | 4.3945045 | 1 | 412.72811 | 790.08879 | 2 | 2 | 4 | 13 | 2.2466351 | 4.7724484 | 1" />
    <inkscape:path-effect
       effect="knot"
       id="path-effect840-3-7-3-3"
       is_visible="true"
       interruption_width="3"
       prop_to_stroke_width="false"
       add_stroke_width="true"
       add_other_stroke_width="false"
       switcher_size="15"
       crossing_points_vector="468.96959 | 863.93113 | 0 | 0 | 0 | 11 | 0.86192223 | 3.7573138 | 1 | 473.07767 | 851.79635 | 0 | 0 | 1 | 12 | 0.97296014 | 4.2054104 | 1 | 454.08365 | 827.93551 | 0 | 0 | 3 | 18 | 1.8811233 | 6.9886205 | -1 | 478.13988 | 838.92765 | 0 | 0 | 2 | 29 | 1.0734357 | 9.897786 | 1 | 451.562 | 835.18837 | 0 | 0 | 4 | 27 | 1.9421732 | 9.6463283 | -1 | 439.85086 | 863.19892 | 0 | 0 | 6 | 9 | 2.1712841 | 3.5523029 | -1 | 447.95271 | 849.41328 | 0 | 0 | 5 | 14 | 2.043604 | 4.3958199 | -1 | 423.89955 | 873.13045 | 0 | 0 | 7 | 22 | 2.3399087 | 8.2216893 | -1 | 461.93344 | 864.07078 | 0 | 0 | 10 | 21 | 3.7011729 | 7.6084629 | 1 | 416.31466 | 861.56367 | 0 | 0 | 8 | 23 | 3.4053721 | 8.4312285 | 1 | 464.43988 | 850.56213 | 0 | 0 | 13 | 20 | 4.2796578 | 7.4055064 | -1 | 414.8324 | 848.53049 | 0 | 0 | 15 | 24 | 4.6040893 | 8.6242596 | -1 | 417.23861 | 837.95101 | 0 | 0 | 16 | 25 | 5.8362761 | 8.7888913 | 1 | 438.44181 | 828.91131 | 0 | 0 | 17 | 26 | 6.5273905 | 9.4002627 | 1 | 461.81607 | 837.64066 | 0 | 0 | 19 | 28 | 7.2057941 | 9.7636155 | 1" />
    <inkscape:path-effect
       effect="knot"
       id="path-effect840-3-7-3-3-7"
       is_visible="true"
       interruption_width="3"
       prop_to_stroke_width="false"
       add_stroke_width="true"
       add_other_stroke_width="false"
       switcher_size="15"
       crossing_points_vector="452.5068 | 839.05281 | 0 | 1 | 0 | 3 | 0.8443509 | 1.7686324 | 1 | 455.55352 | 827.03412 | 0 | 1 | 1 | 4 | 0.96913064 | 2.2031035 | 1 | 436.23158 | 803.07049 | 0 | 2 | 3 | 2 | 1.8788028 | 1.9865813 | -1 | 459.65556 | 814.11056 | 0 | 2 | 2 | 13 | 1.0823065 | 4.8926958 | 1 | 433.76925 | 810.36986 | 0 | 2 | 4 | 11 | 1.9417237 | 4.6459097 | -1 | 422.08906 | 838.39056 | 0 | 1 | 6 | 1 | 2.3299769 | 1.552303 | -1 | 430.19089 | 824.60495 | 0 | 1 | 5 | 6 | 2.0840029 | 2.3958199 | -1 | 406.13775 | 848.3221 | 0 | 2 | 7 | 6 | 2.6548304 | 3.2216892 | -1 | 444.17163 | 839.26243 | 1 | 2 | 2 | 5 | 1.7011729 | 2.6084629 | 1 | 398.55285 | 836.75532 | 1 | 2 | 0 | 7 | 1.4053721 | 3.4312285 | 1 | 446.67807 | 825.75378 | 1 | 2 | 5 | 4 | 2.2796578 | 2.4055064 | -1 | 397.07059 | 823.72214 | 1 | 2 | 7 | 8 | 2.6040893 | 3.6242596 | -1 | 399.47681 | 813.14266 | 2 | 2 | 0 | 9 | 0.54099937 | 3.7888912 | 1 | 420.68 | 804.10296 | 2 | 2 | 1 | 10 | 1.5273905 | 4.4002627 | 1 | 444.05426 | 812.83231 | 2 | 2 | 3 | 12 | 2.2057941 | 4.7636155 | 1" />
    <inkscape:path-effect
       effect="knot"
       id="path-effect840-3-7-3-36"
       is_visible="true"
       interruption_width="3"
       prop_to_stroke_width="false"
       add_stroke_width="true"
       add_other_stroke_width="false"
       switcher_size="15"
       crossing_points_vector="466.35256 | 840.25554 | 0 | 1 | 1 | 2 | 0.71990335 | 1.679066 | 1 | 463.99306 | 826.2093 | 0 | 1 | 2 | 5 | 0.88195707 | 2.3394137 | 1 | 472.00521 | 851.55512 | 0 | 2 | 0 | 7 | 0.53623287 | 2.7435746 | -1 | 464.45161 | 814.44927 | 0 | 2 | 3 | 14 | 0.99005982 | 4.6165713 | 1 | 444.12675 | 816.90045 | 0 | 2 | 6 | 1 | 1.9556022 | 1.1621811 | -1 | 465.14111 | 806.03702 | 0 | 2 | 4 | 3 | 1.0644063 | 1.8940006 | 1 | 444.27974 | 806.06389 | 0 | 2 | 5 | 12 | 1.8680718 | 4.1201457 | -1 | 443.02942 | 840.17949 | 0 | 1 | 8 | 1 | 2.2917392 | 1.5106915 | -1 | 444.8149 | 826.30893 | 0 | 1 | 7 | 6 | 2.0441673 | 2.4770652 | -1 | 435.92351 | 850.16132 | 0 | 2 | 9 | 8 | 2.5757853 | 3.2845604 | -1 | 478.50574 | 839.29031 | 1 | 2 | 3 | 6 | 1.7875854 | 2.5340012 | 1 | 430.81709 | 839.84785 | 1 | 2 | 0 | 9 | 1.4269617 | 3.457557 | 1 | 479.24904 | 827.35527 | 1 | 2 | 4 | 5 | 2.2045665 | 2.3583994 | -1 | 430.00758 | 826.7049 | 1 | 2 | 7 | 10 | 2.5786523 | 3.6512515 | -1 | 432.23862 | 817.95101 | 2 | 2 | 0 | 11 | 0.54325616 | 3.7888912 | 1 | 453.44181 | 808.91132 | 2 | 2 | 2 | 13 | 1.5273905 | 4.4002627 | 1 | 476.81607 | 817.64066 | 2 | 2 | 4 | 15 | 2.2057941 | 4.7636156 | 1" />
  </defs>
  <sodipodi:namedview
     id="base"
     pagecolor="#ffffff"
     bordercolor="#666666"
     borderopacity="1.0"
     inkscape:pageopacity="0.0"
     inkscape:pageshadow="2"
     inkscape:zoom="3.959798"
     inkscape:cx="92.956689"
     inkscape:cy="50.802178"
     inkscape:document-units="px"
     inkscape:current-layer="layer1"
     showgrid="true"
     inkscape:object-paths="false"
     inkscape:window-width="1920"
     inkscape:window-height="1034"
     inkscape:window-x="0"
     inkscape:window-y="46"
     inkscape:window-maximized="1"
     inkscape:showpageshadow="false"
     fit-margin-top="5"
     fit-margin-left="5"
     fit-margin-right="5"
     fit-margin-bottom="5"
     inkscape:snap-intersection-paths="false"
     inkscape:snap-midpoints="false"
     inkscape:snap-smooth-nodes="false"
     inkscape:object-nodes="true">
    <inkscape:grid
       type="xygrid"
       id="grid838"
       originx="-228.57599"
       originy="115.12481" />
  </sodipodi:namedview>
  <metadata
     id="metadata3085">
    <rdf:RDF>
      <cc:Work
         rdf:about="">
        <dc:format>image/svg+xml</dc:format>
        <dc:type
           rdf:resource="http://purl.org/dc/dcmitype/StillImage" />
        <dc:title></dc:title>
      </cc:Work>
    </rdf:RDF>
  </metadata>
  <g
     inkscape:label="Layer 1"
     inkscape:groupmode="layer"
     id="layer1"
     transform="translate(-534.97933,-725.05645)">
    <path
       style="fill:none;fill-rule:evenodd;stroke:#000000;stroke-width:3;stroke-linecap:butt;stroke-linejoin:miter;stroke-miterlimit:4;stroke-dasharray:none;stroke-opacity:1"
       d="m 474.59187,883.26532 c -4.25494,0 -22.99351,-7.24181 -25.40221,-34.05084 m -0.25507,-6.00726 c 0.007,-3.08762 0.21416,-6.39695 0.65728,-9.9419 5,-40 -25,-40 -20,10 0.002,0.0159 0.003,0.0319 0.005,0.0478 m 0.2635,5.99555 c -0.14391,8.61883 -2.72677,14.70083 -6.70722,18.84106 m -4.72341,3.70325 c -17.18049,10.06304 -47.30089,-1.66114 -43.83763,-8.58766 2.02613,-4.05227 18.83106,-3.99932 38.10454,-3.50095 m 6.24226,0.1704 c 1.96905,0.0553 3.94967,0.11107 5.92951,0.16375 m 6.32548,0.15361 c 5.91878,0.12599 11.71046,0.18791 17.03657,0.0851 m 6.22886,-0.21306 c 11.82795,-0.61144 20.13277,-2.42388 20.13277,-6.85889 0,-8.36541 -29.54718,-7.40014 -56.55222,-6.64424 m -6.06362,0.16363 c -18.97022,0.48061 -35.3833,0.48231 -37.38415,-3.51939 -3.92022,-7.84044 22.89582,-6.46 39.48053,-5.49812 m 6.33668,0.35723 c 1.7116,0.0863 3.13816,0.14089 4.18279,0.14089 0.5423,0 1.0699,-0.0588 1.58519,-0.16848 m 5.8571,-3.34185 c 4.51129,-3.88851 8.77174,-9.57841 15.11878,-9.27826 m 5.95928,1.87977 c 0.48229,0.27029 0.97532,0.5726 1.47965,0.90882 2.18493,1.45662 4.0516,3.54976 5.55364,6.06308 m 2.82581,6.54044 c 0.32656,1.09526 0.60099,2.22324 0.82113,3.37379 m 0.64495,6.18194 c 0.038,1.91665 -0.0725,3.84569 -0.34053,5.7456 m -1.53299,6.29217 c -0.8675,2.42555 -2.04603,4.70966 -3.55807,6.74737 m -4.25524,4.34411 c -3.80393,2.9198 -8.80942,4.7115 -15.1587,4.7115 -30.00001,0 -30,-40 -15,-50 0.55126,-0.36751 1.07551,-0.68774 1.57696,-0.96393 m 6.12492,-1.2871 c 1.10847,0.21292 2.19569,0.66881 3.36656,1.28744 m 5.53453,3.24216 c 1.5451,0.88493 3.30312,1.81973 5.36938,2.73153 m 5.79487,2.16814 c 8.71573,2.7217 21.64941,4.53704 42.23277,2.82176"
       id="path831-6-5-5"
       inkscape:connector-curvature="0"
       sodipodi:nodetypes="czzzzzzzzzc"
       inkscape:path-effect="#path-effect840-3-7-3"
       inkscape:original-d="m 474.59187,883.26532 c -5,0 -30,-10 -25,-50 5,-40 -25,-40 -20,10 5,50 -60,30 -55,20 5,-10 99.99999,5 99.99999,-10 0,-15 -94.99999,0 -99.99999,-10 -5,-10 40,-5 50,-5 10,0 15,-20 30,-10 15,10 15.00001,50 -15,50 -30.00001,0 -30,-40 -15,-50 15,-10 9.99999,15 69.99999,10"
       transform="rotate(90,586.16543,943.50323)" />
    <path
       id="path4634-9-7-3"
       style="display:inline;fill:#000000;fill-opacity:0;stroke:#000000;stroke-width:1;stroke-linecap:round;stroke-linejoin:round;stroke-miterlimit:4;stroke-dasharray:none;stroke-dashoffset:0;stroke-opacity:1;enable-background:new"
       d="m 612.32739,761.76851 -65.92405,0.16116 c -2.74154,0 -5.92401,-4.01839 -5.92401,-10.01839 v -1e-5 c 0,-6 2.25846,-9.96331 5,-9.98166 23.69032,0.0815 43.15864,0.006 66.84806,-0.16106 m 4.928,10.16119 c 0,5.84351 -2.18646,9.80208 -4.928,9.80208 -2.74154,0 -5,-3.95857 -5,-9.80208 0,-5.84352 2.25846,-10.16123 5,-10.16123 2.74154,0 4.928,4.31771 4.928,10.16123 z"
       inkscape:connector-curvature="0"
       sodipodi:nodetypes="ccssccsssss" />
    <path
       style="fill:none;fill-rule:evenodd;stroke:#000000;stroke-width:3;stroke-linecap:butt;stroke-linejoin:miter;stroke-miterlimit:4;stroke-dasharray:none;stroke-opacity:1"
       d="m 489.59187,883.26532 c -4.74902,0 -32.05124,9.02128 -17.64329,-28.63107 m 2.33113,-5.66178 c 0.10267,-0.2342 0.20672,-0.46991 0.31216,-0.70715 20,-45 -15,-55 -25,-5 -0.21897,1.09487 -0.46672,2.15618 -0.74182,3.18477 m -2.02271,5.91628 c -4.2125,9.92361 -11.41044,16.06129 -19.68115,19.54648 m -6.74586,2.2281 c -22.56586,5.60647 -48.94512,-4.60231 -45.80846,-10.87563 1.92359,-3.84718 18.64799,-3.25412 38.50021,-1.92201 m 6.44723,0.44715 c 5.41825,0.38475 10.96946,0.79382 16.43449,1.15771 m 7.77033,0.4842 c 8.05903,0.46048 15.68141,0.74173 22.11059,0.60387 m 6.25345,-0.30686 c 7.64687,-0.6375 12.4837,-2.24464 12.4837,-5.46406 0,-8.77473 -35.93143,-8.99436 -66.75672,-9.66714 m -6.00509,-0.14121 c -19.29474,-0.49651 -35.3555,-1.42627 -37.23819,-5.19165 -3.92022,-7.84044 22.89582,-6.46 39.48053,-5.49812 m 6.33668,0.35723 c 1.7116,0.0863 3.13816,0.14089 4.18279,0.14089 9.26054,0 14.2332,-17.15151 26.83039,-11.74648 m 5.13145,3.29947 c 1.35894,1.25896 2.5612,2.78562 3.5918,4.51009 m 2.82581,6.54044 c 0.63244,2.12117 1.06938,4.36507 1.29501,6.65797 m 0.0989,6.04428 c -0.16899,2.55164 -0.60965,5.08505 -1.34292,7.50247 m -2.59897,5.99338 c -3.8459,6.5375 -10.59084,11.19838 -20.83144,11.19838 -30.00001,0 -30,-40 -15,-50 4.81245,-3.2083 7.56626,-2.81398 11.06844,-0.96359 m 5.53453,3.24216 c 2.05921,1.17937 4.4966,2.44734 7.53782,3.63135 m 5.70266,1.87596 c 5.25445,1.43814 11.91449,2.52894 20.5831,2.81132 m 6.26432,0.0614 c 4.04232,-0.0467 8.46378,-0.25485 13.30913,-0.65863"
       id="path831-6-5-5-6"
       inkscape:connector-curvature="0"
       sodipodi:nodetypes="czzzzzzzzzc"
       inkscape:path-effect="#path-effect840-3-7-3-3"
       inkscape:original-d="m 489.59187,883.26532 c -5,0 -35,10 -15,-35 20,-45 -15,-55 -25,-5 -10,50 -80,30 -75,20 5,-10 110,10 110,-5 0,-15 -105,-5 -110,-15 -5,-10 40,-5 50,-5 10,0 15,-20 30,-10 15,10 15.00001,50 -15,50 -30.00001,0 -30,-40 -15,-50 15,-10 10,15 70,10"
       transform="rotate(90,487.38035,842.47996)" />
    <path
       style="fill:none;fill-rule:evenodd;stroke:#000000;stroke-width:3;stroke-linecap:butt;stroke-linejoin:miter;stroke-miterlimit:4;stroke-dasharray:none;stroke-opacity:1"
       d="m 489.59187,863.26532 c -4.25494,0 -22.99351,-7.24181 -25.40221,-34.05084 m -0.25507,-6.00726 c 0.007,-3.08762 0.21416,-6.39695 0.65728,-9.9419 5,-40 -25,-40 -20,10 0.002,0.0159 0.003,0.0319 0.005,0.0478 m 0.2635,5.99555 c -0.14391,8.61883 -2.72677,14.70083 -6.70723,18.84106 m -4.7234,3.70325 c -4.11223,2.40863 -8.96579,3.56907 -13.92272,3.84585 m -19.67569,-3.03282 c -7.10478,-2.63649 -11.71305,-6.45303 -10.23922,-9.40069 2.02613,-4.05227 18.83106,-3.99932 38.10454,-3.50095 m 6.24226,0.1704 c 1.96905,0.0553 3.94967,0.11107 5.92951,0.16375 m 6.32548,0.15361 c 5.91878,0.12599 11.71046,0.18791 17.03657,0.0851 m 6.22886,-0.21306 c 11.82795,-0.61144 20.13277,-2.42388 20.13277,-6.85889 0,-8.36541 -29.54718,-7.40014 -56.55222,-6.64424 m -6.06362,0.16363 c -18.97022,0.48061 -35.3833,0.48231 -37.38415,-3.51939 -1.76604,-3.53208 2.70571,-5.19282 9.66974,-5.86352 m 19.99981,-0.14268 c 3.44433,0.1446 6.79664,0.33325 9.81097,0.50808 m 6.33669,0.35723 c 1.7116,0.0863 3.13816,0.14089 4.18279,0.14089 0.5423,0 1.0699,-0.0588 1.58519,-0.16848 m 5.8571,-3.34185 c 4.51129,-3.88851 8.77174,-9.57841 15.11878,-9.27826 m 5.95928,1.87977 c 0.48229,0.27029 0.97532,0.5726 1.47965,0.90882 2.18493,1.45662 4.0516,3.54976 5.55364,6.06308 m 2.82581,6.54044 c 0.32656,1.09526 0.60099,2.22324 0.82113,3.37379 m 0.64495,6.18194 c 0.038,1.91665 -0.0725,3.84569 -0.34053,5.7456 m -1.53299,6.29217 c -0.8675,2.42555 -2.04603,4.70966 -3.55807,6.74737 m -4.25524,4.34411 c -3.80393,2.9198 -8.80942,4.7115 -15.1587,4.7115 -30.00001,0 -30,-40 -15,-50 0.55126,-0.36751 1.07551,-0.68774 1.57696,-0.96393 m 6.12492,-1.2871 c 1.10847,0.21292 2.19569,0.66881 3.36656,1.28744 m 5.53453,3.24216 c 1.5451,0.88493 3.30312,1.81973 5.36938,2.73153 m 5.79487,2.16814 c 8.71573,2.7217 21.64941,4.53704 42.23277,2.82176"
       id="path831-6-5-5-7"
       inkscape:connector-curvature="0"
       sodipodi:nodetypes="czsccszsccszzzc"
       inkscape:path-effect="#path-effect840-3-7-3-36"
       inkscape:original-d="m 489.59187,863.26532 c -5,0 -30,-10 -25,-50 5,-40 -25,-40 -20,10 2.36569,23.65687 -10.93876,31.64361 -25.08509,32.43351 m -19.67569,-3.03282 c -7.10478,-2.63649 -11.71305,-6.45303 -10.23922,-9.40069 5,-10 99.99999,5 99.99999,-10 0,-15 -94.99999,0 -99.99999,-10 -1.76604,-3.53208 2.70571,-5.19282 9.66974,-5.86352 m 19.99981,-0.14268 c 8.66403,0.36374 16.74586,1.0062 20.33045,1.0062 10,0 15,-20 30,-10 15,10 15.00001,50 -15,50 -30.00001,0 -30,-40 -15,-50 15,-10 9.99999,15 69.99999,10"
       transform="rotate(90,533.66543,876.00323)" />
  </g>
</svg>
