<?xml version="1.0" encoding="UTF-8" standalone="no"?>
<!-- Created with Inkscape (http://www.inkscape.org/) -->

<svg
   xmlns:dc="http://purl.org/dc/elements/1.1/"
   xmlns:cc="http://creativecommons.org/ns#"
   xmlns:rdf="http://www.w3.org/1999/02/22-rdf-syntax-ns#"
   xmlns:svg="http://www.w3.org/2000/svg"
   xmlns="http://www.w3.org/2000/svg"
   xmlns:sodipodi="http://sodipodi.sourceforge.net/DTD/sodipodi-0.dtd"
   xmlns:inkscape="http://www.inkscape.org/namespaces/inkscape"
   width="77.191139"
   height="137.69095"
   id="svg3080"
   version="1.1"
   inkscape:version="0.92.4 (unknown)"
   sodipodi:docname="Vederny_2_3.svg">
  <defs
     id="defs3082">
    <inkscape:path-effect
       effect="knot"
       id="path-effect1613"
       is_visible="true"
       interruption_width="3"
       prop_to_stroke_width="false"
       add_stroke_width="true"
       add_other_stroke_width="false"
       switcher_size="15"
       crossing_points_vector="373.46686 | 790.03525 | 0 | 1 | 7 | 2 | 0.72880112 | 1.7163182 | 1 | 363.3336 | 762.57637 | 0 | 1 | 4 | 5 | 0.2656938 | 2.6038175 | -1 | 367.46851 | 782.14414 | 0 | 2 | 6 | 1 | 0.49173828 | 0.92957578 | -1 | 361.56118 | 726.92991 | 0 | 2 | 0 | 5 | 0.07343343 | 2.9973646 | -1 | 362.83023 | 757.07175 | 0 | 2 | 3 | 6 | 0.22683121 | 4.1049391 | -1 | 362.1708 | 746.55251 | 0 | 2 | 2 | 11 | 0.16451506 | 5.8177477 | 1 | 361.79635 | 736.93229 | 0 | 2 | 1 | 12 | 0.11674591 | 7.0131857 | 1 | 364.73786 | 772.56265 | 0 | 2 | 5 | 16 | 0.3550647 | 9.2054191 | 1 | 366.40336 | 830.29424 | 1 | 1 | 0 | 9 | 0.67364813 | 4.3263517 | -1 | 366.40336 | 800.37855 | 1 | 1 | 1 | 8 | 1.3869632 | 3.613037 | -1 | 376.096 | 781.62556 | 1 | 2 | 3 | 2 | 1.9149051 | 1.0833761 | -1 | 375.76943 | 771.21309 | 1 | 2 | 4 | 15 | 2.1066512 | 8.8411863 | 1 | 356.47744 | 774.87199 | 1 | 2 | 6 | 17 | 2.9644405 | 9.442892 | -1 | 357.61248 | 785.77946 | 1 | 2 | 7 | 0 | 3.1743653 | 0.67712125 | 1 | 392.85284 | 757.85919 | 2 | 2 | 3 | 8 | 1.8674569 | 4.6345917 | -1 | 389.29589 | 746.02345 | 2 | 2 | 4 | 9 | 2.1378775 | 5.3609546 | 1 | 383.27629 | 758.13348 | 2 | 2 | 7 | 14 | 4.4422333 | 8.2098748 | 1 | 377.81476 | 745.70992 | 2 | 2 | 10 | 13 | 5.5463523 | 7.7650809 | -1" />
    <marker
       inkscape:stockid="Arrow2Mend"
       orient="auto"
       refY="0"
       refX="0"
       id="marker4579"
       style="overflow:visible"
       inkscape:isstock="true">
      <path
         id="path4577"
         style="fill:#fe0000;fill-opacity:1;fill-rule:evenodd;stroke:#fe0000;stroke-width:0.625;stroke-linejoin:round;stroke-opacity:1"
         d="M 8.7185878,4.0337352 -2.2072895,0.01601326 8.7185884,-4.0017078 c -1.7454984,2.3720609 -1.7354408,5.6174519 -6e-7,8.035443 z"
         transform="scale(-0.6)"
         inkscape:connector-curvature="0" />
    </marker>
    <inkscape:path-effect
       effect="knot"
       id="path-effect4573"
       is_visible="true"
       interruption_width="3"
       prop_to_stroke_width="false"
       add_stroke_width="true"
       add_other_stroke_width="false"
       switcher_size="15"
       crossing_points_vector="469.29892 | 846.76697 | 0 | 2 | 0 | 2 | 1.9244296 | 2.4877005 | 1 | 446.15852 | 794.99759 | 1 | 2 | 1 | 0 | 0.72591178 | 1.0187526 | 1 | 466.64816 | 794.99759 | 1 | 2 | 0 | 1 | 0.28162218 | 1.9812474 | -1" />
    <marker
       inkscape:stockid="Arrow2Lend"
       orient="auto"
       refY="0"
       refX="0"
       id="Arrow2Lend"
       style="overflow:visible"
       inkscape:isstock="true">
      <path
         id="path902"
         style="fill:#fe0000;fill-opacity:1;fill-rule:evenodd;stroke:#fe0000;stroke-width:0.625;stroke-linejoin:round;stroke-opacity:1"
         d="M 8.7185878,4.0337352 -2.2072895,0.01601326 8.7185884,-4.0017078 c -1.7454984,2.3720609 -1.7354408,5.6174519 -6e-7,8.035443 z"
         transform="matrix(-1.1,0,0,-1.1,-1.1,0)"
         inkscape:connector-curvature="0" />
    </marker>
    <marker
       inkscape:stockid="Arrow1Lstart"
       orient="auto"
       refY="0"
       refX="0"
       id="Arrow1Lstart"
       style="overflow:visible"
       inkscape:isstock="true">
      <path
         id="path881"
         d="M 0,0 5,-5 -12.5,0 5,5 Z"
         style="fill:#fe0000;fill-opacity:1;fill-rule:evenodd;stroke:#fe0000;stroke-width:1.00000003pt;stroke-opacity:1"
         transform="matrix(0.8,0,0,0.8,10,0)"
         inkscape:connector-curvature="0" />
    </marker>
    <inkscape:path-effect
       effect="knot"
       id="path-effect840"
       is_visible="true"
       interruption_width="3"
       prop_to_stroke_width="false"
       add_stroke_width="true"
       add_other_stroke_width="false"
       switcher_size="15"
       crossing_points_vector="217.33872 | 645.77232 | 0 | 0 | 0 | 5 | 0.24639104 | 6.3057787 | -1 | 165.83468 | 647.21396 | 0 | 0 | 1 | 6 | 0.53420183 | 7.6558914 | -1 | 161.58771 | 627.76219 | 0 | 0 | 2 | 7 | 3.6799683 | 8.1827542 | 1 | 192.31438 | 621.67245 | 0 | 0 | 3 | 8 | 4.4592386 | 9.5520222 | 1 | 221.10868 | 634.7365 | 0 | 0 | 4 | 9 | 6.013941 | 10.335915 | 1 | 233.87606 | 634.69778 | 0 | 0 | 10 | 13 | 10.522471 | 12.407143 | 1 | 246.18288 | 632.99068 | 0 | 0 | 11 | 14 | 10.72419 | 13.207406 | 1 | 251.56375 | 622.2329 | 0 | 0 | 12 | 15 | 11.625533 | 13.600624 | 1" />
    <filter
       id="filter3111"
       inkscape:label="Outline, double"
       inkscape:menu="Morphology"
       inkscape:menu-tooltip="Draws a smooth line inside colorized with the color it overlays"
       style="color-interpolation-filters:sRGB">
      <feGaussianBlur
         id="feGaussianBlur3113"
         stdDeviation="3"
         in="SourceAlpha"
         result="result1" />
      <feComposite
         id="feComposite3115"
         in2="result1"
         operator="arithmetic"
         k2="3.2"
         k1="-1"
         k4="-2"
         result="result3"
         k3="0" />
      <feColorMatrix
         id="feColorMatrix3117"
         values="0 0 0 0 0 0 1 0 0 0 0 0 1 0 0 0 0 0 10 0 "
         result="result2" />
      <feComposite
         id="feComposite3119"
         in2="result2"
         result="fbSourceGraphic"
         in="SourceGraphic"
         operator="out" />
      <feGaussianBlur
         id="feGaussianBlur3121"
         in="fbSourceGraphic"
         stdDeviation="0.5"
         result="result4" />
      <feComposite
         id="feComposite3123"
         in2="result4"
         operator="xor"
         in="result4"
         result="result5" />
      <feBlend
         id="feBlend3125"
         in2="result5"
         result="result6"
         mode="darken"
         in="result5" />
      <feBlend
         id="feBlend3127"
         in2="result6"
         in="result6"
         mode="darken" />
    </filter>
    <inkscape:path-effect
       effect="knot"
       id="path-effect840-2"
       is_visible="true"
       interruption_width="3"
       prop_to_stroke_width="false"
       add_stroke_width="true"
       add_other_stroke_width="false"
       switcher_size="15"
       crossing_points_vector="162.95393 | 722.48393 | 0 | 0 | 0 | 3 | 0.30583405 | 3.7905355 | -1 | 194.40423 | 703.42501 | 0 | 0 | 1 | 4 | 0.64654265 | 5.6367509 | 1 | 221.10868 | 714.7365 | 0 | 0 | 2 | 5 | 2.013941 | 6.3359148 | 1" />
    <marker
       inkscape:stockid="Arrow2Mend"
       orient="auto"
       refY="0"
       refX="0"
       id="Arrow2Mend-2"
       style="overflow:visible">
      <path
         id="path3832"
         style="fill-rule:evenodd;stroke-width:0.625;stroke-linejoin:round"
         d="M 8.7185878,4.0337352 -2.2072895,0.01601326 8.7185884,-4.0017078 c -1.7454984,2.3720609 -1.7354408,5.6174519 -6e-7,8.035443 z"
         transform="scale(-0.6)"
         inkscape:connector-curvature="0" />
    </marker>
    <marker
       inkscape:stockid="Arrow2Mend"
       orient="auto"
       refY="0"
       refX="0"
       id="marker1022"
       style="overflow:visible">
      <path
         id="path1020"
         style="fill-rule:evenodd;stroke-width:0.625;stroke-linejoin:round"
         d="M 8.7185878,4.0337352 -2.2072895,0.01601326 8.7185884,-4.0017078 c -1.7454984,2.3720609 -1.7354408,5.6174519 -6e-7,8.035443 z"
         transform="scale(-0.6)"
         inkscape:connector-curvature="0" />
    </marker>
    <marker
       inkscape:stockid="Arrow2Mend"
       orient="auto"
       refY="0"
       refX="0"
       id="marker1044"
       style="overflow:visible">
      <path
         id="path1042"
         style="fill-rule:evenodd;stroke-width:0.625;stroke-linejoin:round"
         d="M 8.7185878,4.0337352 -2.2072895,0.01601326 8.7185884,-4.0017078 c -1.7454984,2.3720609 -1.7354408,5.6174519 -6e-7,8.035443 z"
         transform="scale(-0.6)"
         inkscape:connector-curvature="0" />
    </marker>
    <marker
       inkscape:stockid="Arrow2Mend"
       orient="auto"
       refY="0"
       refX="0"
       id="marker1048"
       style="overflow:visible">
      <path
         id="path1046"
         style="fill-rule:evenodd;stroke-width:0.625;stroke-linejoin:round"
         d="M 8.7185878,4.0337352 -2.2072895,0.01601326 8.7185884,-4.0017078 c -1.7454984,2.3720609 -1.7354408,5.6174519 -6e-7,8.035443 z"
         transform="scale(-0.6)"
         inkscape:connector-curvature="0" />
    </marker>
    <inkscape:path-effect
       effect="knot"
       id="path-effect4573-7"
       is_visible="true"
       interruption_width="3"
       prop_to_stroke_width="false"
       add_stroke_width="true"
       add_other_stroke_width="false"
       switcher_size="15"
       crossing_points_vector="565.71444 | 829.85486 | 0 | 2 | 1 | 0 | 0.60273226 | 0.50168208 | 1 | 563.95273 | 841.89312 | 0 | 2 | 0 | 1 | 0.446292 | 1.3618327 | 1 | 526.37738 | 798.19211 | 0 | 1 | 5 | 0 | 1.7362878 | 0.061996068 | 1 | 556.5097 | 798.2229 | 0 | 1 | 2 | 3 | 1.2622688 | 0.94644614 | -1 | 547.38777 | 796.03932 | 0 | 2 | 3 | 2 | 1.4106007 | 2.3514116 | -1 | 535.41891 | 796.03932 | 0 | 2 | 4 | 5 | 1.5893993 | 3.6485884 | 1 | 547.65311 | 784.72644 | 1 | 2 | 2 | 3 | 0.64058743 | 2.4960494 | -1 | 535.15384 | 784.86347 | 1 | 2 | 1 | 4 | 0.35952346 | 3.5057707 | 1" />
    <marker
       inkscape:stockid="Arrow2Mend"
       orient="auto"
       refY="0"
       refX="0"
       id="Arrow2Mend"
       style="overflow:visible">
      <path
         id="path3827"
         style="fill-rule:evenodd;stroke-width:0.625;stroke-linejoin:round"
         d="M 8.7185878,4.0337352 -2.2072895,0.01601326 8.7185884,-4.0017078 c -1.7454984,2.3720609 -1.7354408,5.6174519 -6e-7,8.035443 z"
         transform="scale(-0.6)"
         inkscape:connector-curvature="0" />
    </marker>
    <marker
       inkscape:stockid="Arrow2Mend"
       orient="auto"
       refY="0"
       refX="0"
       id="marker1093"
       style="overflow:visible">
      <path
         id="path1091"
         style="fill-rule:evenodd;stroke-width:0.625;stroke-linejoin:round"
         d="M 8.7185878,4.0337352 -2.2072895,0.01601326 8.7185884,-4.0017078 c -1.7454984,2.3720609 -1.7354408,5.6174519 -6e-7,8.035443 z"
         transform="scale(-0.6)"
         inkscape:connector-curvature="0" />
    </marker>
    <marker
       inkscape:stockid="Arrow2Mend"
       orient="auto"
       refY="0"
       refX="0"
       id="marker1097"
       style="overflow:visible">
      <path
         id="path1095"
         style="fill-rule:evenodd;stroke-width:0.625;stroke-linejoin:round"
         d="M 8.7185878,4.0337352 -2.2072895,0.01601326 8.7185884,-4.0017078 c -1.7454984,2.3720609 -1.7354408,5.6174519 -6e-7,8.035443 z"
         transform="scale(-0.6)"
         inkscape:connector-curvature="0" />
    </marker>
    <marker
       inkscape:stockid="Arrow2Mend"
       orient="auto"
       refY="0"
       refX="0"
       id="marker1101"
       style="overflow:visible">
      <path
         id="path1099"
         style="fill-rule:evenodd;stroke-width:0.625;stroke-linejoin:round"
         d="M 8.7185878,4.0337352 -2.2072895,0.01601326 8.7185884,-4.0017078 c -1.7454984,2.3720609 -1.7354408,5.6174519 -6e-7,8.035443 z"
         transform="scale(-0.6)"
         inkscape:connector-curvature="0" />
    </marker>
    <marker
       inkscape:stockid="Arrow1Mend"
       orient="auto"
       refY="0"
       refX="0"
       id="Arrow1Mend"
       style="overflow:visible">
      <path
         id="path4435"
         d="M 0,0 5,-5 -12.5,0 5,5 Z"
         style="fill-rule:evenodd;stroke:#000000;stroke-width:1.00000003pt"
         transform="matrix(-0.4,0,0,-0.4,-4,0)"
         inkscape:connector-curvature="0" />
    </marker>
    <marker
       inkscape:stockid="Arrow1Mend"
       orient="auto"
       refY="0"
       refX="0"
       id="marker1014"
       style="overflow:visible">
      <path
         id="path1012"
         d="M 0,0 5,-5 -12.5,0 5,5 Z"
         style="fill-rule:evenodd;stroke:#000000;stroke-width:1.00000003pt"
         transform="matrix(-0.4,0,0,-0.4,-4,0)"
         inkscape:connector-curvature="0" />
    </marker>
    <marker
       inkscape:stockid="Arrow1Mend"
       orient="auto"
       refY="0"
       refX="0"
       id="marker1018"
       style="overflow:visible">
      <path
         id="path1016"
         d="M 0,0 5,-5 -12.5,0 5,5 Z"
         style="fill-rule:evenodd;stroke:#000000;stroke-width:1.00000003pt"
         transform="matrix(-0.4,0,0,-0.4,-4,0)"
         inkscape:connector-curvature="0" />
    </marker>
    <marker
       inkscape:stockid="Arrow1Mend"
       orient="auto"
       refY="0"
       refX="0"
       id="marker1022-2"
       style="overflow:visible">
      <path
         id="path1020-3"
         d="M 0,0 5,-5 -12.5,0 5,5 Z"
         style="fill-rule:evenodd;stroke:#000000;stroke-width:1.00000003pt"
         transform="matrix(-0.4,0,0,-0.4,-4,0)"
         inkscape:connector-curvature="0" />
    </marker>
    <marker
       inkscape:stockid="Arrow1Mend"
       orient="auto"
       refY="0"
       refX="0"
       id="marker1026"
       style="overflow:visible">
      <path
         id="path1024"
         d="M 0,0 5,-5 -12.5,0 5,5 Z"
         style="fill-rule:evenodd;stroke:#000000;stroke-width:1.00000003pt"
         transform="matrix(-0.4,0,0,-0.4,-4,0)"
         inkscape:connector-curvature="0" />
    </marker>
    <marker
       inkscape:stockid="Arrow1Mend"
       orient="auto"
       refY="0"
       refX="0"
       id="marker1030"
       style="overflow:visible">
      <path
         id="path1028"
         d="M 0,0 5,-5 -12.5,0 5,5 Z"
         style="fill-rule:evenodd;stroke:#000000;stroke-width:1.00000003pt"
         transform="matrix(-0.4,0,0,-0.4,-4,0)"
         inkscape:connector-curvature="0" />
    </marker>
    <marker
       inkscape:stockid="Arrow1Mend"
       orient="auto"
       refY="0"
       refX="0"
       id="marker1034"
       style="overflow:visible">
      <path
         id="path1032"
         d="M 0,0 5,-5 -12.5,0 5,5 Z"
         style="fill-rule:evenodd;stroke:#000000;stroke-width:1.00000003pt"
         transform="matrix(-0.4,0,0,-0.4,-4,0)"
         inkscape:connector-curvature="0" />
    </marker>
    <marker
       inkscape:stockid="Arrow1Mend"
       orient="auto"
       refY="0"
       refX="0"
       id="marker1038"
       style="overflow:visible">
      <path
         id="path1036"
         d="M 0,0 5,-5 -12.5,0 5,5 Z"
         style="fill-rule:evenodd;stroke:#000000;stroke-width:1.00000003pt"
         transform="matrix(-0.4,0,0,-0.4,-4,0)"
         inkscape:connector-curvature="0" />
    </marker>
    <inkscape:path-effect
       effect="knot"
       id="path-effect4573-2"
       is_visible="true"
       interruption_width="3"
       prop_to_stroke_width="false"
       add_stroke_width="true"
       add_other_stroke_width="false"
       switcher_size="15"
       crossing_points_vector="538.90559 | 791.03231 | 0 | 1 | 0 | 2 | 0.53345068 | 0.60456263 | -1 | 538.95345 | 783.23313 | 0 | 2 | 1 | 1 | 0.59417171 | 1.3526082 | -1 | 551.98179 | 790.81647 | 0 | 1 | 3 | 1 | 1.5801283 | 0.42732895 | 1 | 552.73468 | 782.85006 | 0 | 2 | 2 | 2 | 1.4888985 | 1.623854 | 1 | 561.54821 | 830.51291 | 0 | 2 | 4 | 4 | 2.4276982 | 2.4558301 | 1 | 530.9985 | 792.78434 | 1 | 2 | 3 | 0 | 0.72332083 | 1.0746637 | 1 | 561.8066 | 792.76266 | 1 | 2 | 0 | 3 | 0.28202696 | 1.9249112 | -1" />
    <marker
       inkscape:stockid="Arrow2Mend"
       orient="auto"
       refY="0"
       refX="0"
       id="Arrow2Mend-23"
       style="overflow:visible">
      <path
         id="path3999"
         style="fill-rule:evenodd;stroke-width:0.625;stroke-linejoin:round"
         d="M 8.7185878,4.0337352 -2.2072895,0.01601326 8.7185884,-4.0017078 c -1.7454984,2.3720609 -1.7354408,5.6174519 -6e-7,8.035443 z"
         transform="scale(-0.6)"
         inkscape:connector-curvature="0" />
    </marker>
    <marker
       inkscape:stockid="Arrow2Mend"
       orient="auto"
       refY="0"
       refX="0"
       id="marker861"
       style="overflow:visible">
      <path
         id="path859"
         style="fill-rule:evenodd;stroke-width:0.625;stroke-linejoin:round"
         d="M 8.7185878,4.0337352 -2.2072895,0.01601326 8.7185884,-4.0017078 c -1.7454984,2.3720609 -1.7354408,5.6174519 -6e-7,8.035443 z"
         transform="scale(-0.6)"
         inkscape:connector-curvature="0" />
    </marker>
    <inkscape:path-effect
       effect="knot"
       id="path-effect1613-2"
       is_visible="true"
       interruption_width="3"
       prop_to_stroke_width="false"
       add_stroke_width="true"
       add_other_stroke_width="false"
       switcher_size="15"
       crossing_points_vector="281.40337 | 771.92967 | 0 | 1 | 0 | 4 | 0.53846154 | 1.9999993 | 1 | 281.40337 | 791.56433 | 0 | 2 | 2 | 1 | 0.84053324 | 0.9283176 | -1 | 281.40337 | 782.76998 | 0 | 2 | 1 | 4 | 0.70523555 | 2.0716612 | 1 | 280.84931 | 827.68826 | 1 | 1 | 0 | 7 | 0.14287347 | 3.3998625 | -1 | 272.29875 | 827.82804 | 1 | 1 | 1 | 8 | 0.81552556 | 3.5922611 | -1 | 271.92113 | 791.83662 | 1 | 2 | 2 | 0 | 1.3727118 | 0.74930897 | -1 | 273.02543 | 782.92164 | 1 | 2 | 3 | 5 | 1.5453663 | 2.2243993 | 1 | 289.91796 | 781.36658 | 1 | 2 | 5 | 3 | 2.4703979 | 1.9507093 | -1 | 291.1631 | 792.90569 | 1 | 2 | 6 | 2 | 2.7114377 | 1.0681006 | 1" />
  </defs>
  <sodipodi:namedview
     id="base"
     pagecolor="#ffffff"
     bordercolor="#666666"
     borderopacity="1.0"
     inkscape:pageopacity="0.0"
     inkscape:pageshadow="2"
     inkscape:zoom="5.6"
     inkscape:cx="29.592024"
     inkscape:cy="62.96626"
     inkscape:document-units="px"
     inkscape:current-layer="layer1"
     showgrid="true"
     inkscape:object-paths="true"
     inkscape:window-width="1920"
     inkscape:window-height="1044"
     inkscape:window-x="0"
     inkscape:window-y="36"
     inkscape:window-maximized="1"
     inkscape:showpageshadow="false"
     fit-margin-top="5"
     fit-margin-left="5"
     fit-margin-right="5"
     fit-margin-bottom="5"
     inkscape:snap-intersection-paths="true"
     inkscape:snap-midpoints="true"
     inkscape:snap-smooth-nodes="true"
     inkscape:snap-nodes="false">
    <inkscape:grid
       type="xygrid"
       id="grid838"
       originx="-24.80881"
       originy="97.690964" />
  </sodipodi:namedview>
  <metadata
     id="metadata3085">
    <rdf:RDF>
      <cc:Work
         rdf:about="">
        <dc:format>image/svg+xml</dc:format>
        <dc:type
           rdf:resource="http://purl.org/dc/dcmitype/StillImage" />
        <dc:title></dc:title>
      </cc:Work>
    </rdf:RDF>
  </metadata>
  <g
     inkscape:label="Layer 1"
     inkscape:groupmode="layer"
     id="layer1"
     transform="translate(-331.21218,-701.92969)">
    <path
       id="path4634-9-7"
       style="display:inline;fill:#000000;fill-opacity:0;stroke:#000000;stroke-width:1;stroke-linecap:round;stroke-linejoin:round;stroke-miterlimit:4;stroke-dasharray:none;stroke-dashoffset:0;stroke-opacity:1;enable-background:new"
       d="m 391.40337,821.76845 -49.076,0.16128 c -2.74154,0 -5.92401,-4.01839 -5.92401,-10.01839 v -10e-6 c 0,-6 2.25846,-9.96331 5,-9.98166 23.69032,0.0815 26.31059,0.005 50.00001,-0.16118 m 4.928,10.16119 c 0,5.84351 -2.18646,9.80208 -4.928,9.80208 -2.74154,0 -5,-3.95857 -5,-9.80208 0,-5.84352 2.25846,-10.16123 5,-10.16123 2.74154,0 4.928,4.31771 4.928,10.16123 z"
       inkscape:connector-curvature="0"
       sodipodi:nodetypes="ccssccsssss" />
    <path
       style="fill:none;fill-rule:evenodd;stroke:#000000;stroke-width:3;stroke-linecap:butt;stroke-linejoin:miter;stroke-miterlimit:4;stroke-dasharray:none;stroke-opacity:1"
       d="m 361.40337,706.92969 c 0,10.28208 0.10383,19.2181 0.30354,27.00063 m 0.37819,11.00755 c 0.24497,5.52571 0.55318,10.32454 0.92007,14.50651 m 0.64689,6.26822 c 1.67664,13.85584 4.21163,19.20434 7.33367,22.60942 m 4.62284,4.0777 c 2.45886,2.04777 5.13351,4.58793 7.93765,9.70853 m 0,20 c 10e-6,15 -22.14286,14.82142 -22.14286,-5.17858 0,-6.03814 1.36722,-10.25333 3.27611,-13.74628 m 3.58748,-5.40335 c 2.91683,-3.91411 5.96295,-7.65581 7.35662,-13.60079 m 0.77075,-6.40661 c 0.006,-0.277 0.009,-0.55794 0.009,-0.84295 0,-1.016 -0.0516,-1.98038 -0.14959,-2.89315 m -1.49279,-5.81251 c -3.96751,-8.8566 -13.98946,-8.36678 -17.28729,1.46945 m -1.05994,6.45361 c -0.007,0.25737 -0.0104,0.51824 -0.0104,0.7826 0,2.49698 0.23381,4.68221 0.64304,6.63354 m 1.9762,5.83364 c 4.29924,8.94784 12.38075,12.85263 12.38075,27.5328 0,4.59358 -1.20577,8.13211 -3.06343,10.67617 m -4.64934,3.89196 c -6.63477,3.15225 -15.14437,-0.41573 -15.14437,-9.56813 m 0,-20 c 0,-4.36242 2.17495,-13.89032 16.01285,-18.38409 m 5.90174,-1.45586 c 0.30988,-0.0555 0.62405,-0.10884 0.94256,-0.16003 20,-3.21429 25,-15.00001 20,-25.00002 -0.31376,-0.62751 -0.62751,-1.25502 -0.94497,-1.88006 m -2.95805,-5.33471 c -0.88784,-1.41335 -1.85894,-2.77119 -2.96433,-4.0395 m -5.17299,-4.46144 c -4.1801,-2.6324 -9.83096,-4.28429 -17.95966,-4.28429 -20,0 -25,20.00001 -5,20.00001 1.11343,0 2.24235,-0.0155 3.38159,-0.0465 m 5.99459,-0.30116 c 17.65638,-1.29063 35.62382,-6.17476 35.62382,-14.65236 0,-7.92335 -21.97279,2.98713 -36.073,7.86028 m -5.90871,1.74498 c -1.15917,0.25324 -2.17716,0.39474 -3.01829,0.39474 -10,0 -5,-10 5,-10 4.01592,0 7.22546,0.80638 9.95245,2.41914 m 5.04412,4.46813 c 0.76603,0.9404 1.50101,1.9771 2.21831,3.11009 m 3.03296,5.51085 c 4.50226,9.47552 0.0317,14.30437 -14.05174,14.48646 m -6.0486,0.24154 c -11.12921,1.09737 -15.77492,6.01865 -20.1475,14.7638"
       id="path2487"
       inkscape:connector-curvature="0"
       sodipodi:nodetypes="ccczzzzcczzzzzzzzzc"
       inkscape:path-effect="#path-effect1613"
       inkscape:original-d="m 361.40337,706.92969 c 0,100 9.82142,72.67856 22.14285,95.17856 m 0,20 c 10e-6,15 -22.14286,14.82142 -22.14286,-5.17858 0,-20 15.00001,-19.99998 15.00001,-39.99998 0,-20 -20,-20 -20,0 0,20 14.99999,19.99997 14.99999,39.99998 0,20.00001 -22.85714,20.00001 -22.85714,5 m 0,-20 c 0,-4.99999 2.85715,-16.78569 22.85715,-19.99998 20,-3.21429 25,-15.00001 20,-25.00002 -5,-10.00001 -10,-20 -30,-20 -20,0 -25,20.00001 -5,20.00001 20,0 45,-5.00001 45,-15.00001 0,-10 -35,10 -45,10 -10,0 -5,-10 5,-10 10,0 15,5 20,15 5,10 0.35714,15.00004 -14.64286,15.00002 -15,-2e-5 -20.35714,4.99999 -25.35714,14.99999" />
  </g>
</svg>
