<?xml version="1.0" encoding="UTF-8" standalone="no"?>
<!-- Created with Inkscape (http://www.inkscape.org/) -->

<svg
   xmlns:dc="http://purl.org/dc/elements/1.1/"
   xmlns:cc="http://creativecommons.org/ns#"
   xmlns:rdf="http://www.w3.org/1999/02/22-rdf-syntax-ns#"
   xmlns:svg="http://www.w3.org/2000/svg"
   xmlns="http://www.w3.org/2000/svg"
   xmlns:sodipodi="http://sodipodi.sourceforge.net/DTD/sodipodi-0.dtd"
   xmlns:inkscape="http://www.inkscape.org/namespaces/inkscape"
   width="123.35601"
   height="44.800159"
   id="svg3080"
   version="1.1"
   inkscape:version="0.91 r13725"
   sodipodi:docname="A_tail_block_hitched_dogged_and_hitched.svg">
  <defs
     id="defs3082">
    <inkscape:path-effect
       effect="knot"
       id="path-effect5113"
       is_visible="true"
       interruption_width="3"
       prop_to_stroke_width="false"
       add_stroke_width="true"
       add_other_stroke_width="false"
       switcher_size="15"
       crossing_points_vector="631.05916 | 891.16925 | 0 | 1 | 0 | 0 | 0.59689089 | 1.525369 | -1 | 677.78825 | 909.63482 | 4 | 6 | 0 | 0 | 1.3364626 | 2.2269068 | 1" />
    <inkscape:path-effect
       crossing_points_vector="650.42491 | 908.3383 | 0 | 1 | 0 | 0 | 2.8592393 | 1.8392811 | -1"
       switcher_size="15"
       add_other_stroke_width="false"
       add_stroke_width="true"
       prop_to_stroke_width="false"
       interruption_width="3"
       is_visible="true"
       id="path-effect4911"
       effect="knot" />
    <inkscape:path-effect
       effect="knot"
       id="path-effect4845"
       is_visible="true"
       interruption_width="3"
       prop_to_stroke_width="false"
       add_stroke_width="true"
       add_other_stroke_width="false"
       switcher_size="15"
       crossing_points_vector="545.42491 | 888.33832 | 0 | 1 | 0 | 0 | 2.8592393 | 1.8392811 | -1" />
    <marker
       inkscape:isstock="true"
       style="overflow:visible"
       id="marker4634"
       refX="0"
       refY="0"
       orient="auto"
       inkscape:stockid="Arrow1Mend">
      <path
         inkscape:connector-curvature="0"
         transform="matrix(-0.4,0,0,-0.4,-4,0)"
         style="fill:#000000;fill-opacity:0;fill-rule:evenodd;stroke:#000000;stroke-width:1pt;stroke-opacity:1"
         d="M 0,0 5,-5 -12.5,0 5,5 0,0 Z"
         id="path4636" />
    </marker>
    <marker
       inkscape:isstock="true"
       style="overflow:visible"
       id="marker4504"
       refX="0"
       refY="0"
       orient="auto"
       inkscape:stockid="Arrow1Mend">
      <path
         inkscape:connector-curvature="0"
         transform="matrix(-0.4,0,0,-0.4,-4,0)"
         style="fill:#000000;fill-opacity:1;fill-rule:evenodd;stroke:#000000;stroke-width:1pt;stroke-opacity:1"
         d="M 0,0 5,-5 -12.5,0 5,5 0,0 Z"
         id="path4506" />
    </marker>
    <inkscape:path-effect
       effect="knot"
       id="path-effect4413"
       is_visible="true"
       interruption_width="3"
       prop_to_stroke_width="false"
       add_stroke_width="true"
       add_other_stroke_width="false"
       switcher_size="15"
       crossing_points_vector="516.61439 | 935.16567 | 0 | 2 | 1 | 0 | 0.59944549 | 0.8661179 | 1 | 506.38742 | 933.72061 | 0 | 2 | 0 | 1 | 0.40429174 | 2.1471073 | -1 | 546.29642 | 921.92966 | 0 | 1 | 2 | 0 | 1.7812404 | 1.3770453 | -1" />
    <inkscape:path-effect
       crossing_points_vector="434.78523 | 911.08164 | 0 | 0 | 6 | 11 | 0.50811429 | 2.7336474 | -1 | 438.64227 | 921.21796 | 0 | 0 | 5 | 12 | 0.41529289 | 4.0917779 | 1 | 428.54404 | 899.42731 | 0 | 0 | 7 | 18 | 0.62997878 | 6.723198 | -1 | 441.67604 | 931.92713 | 0 | 0 | 4 | 19 | 0.32411603 | 7.9954341 | 1 | 421.36699 | 890.63044 | 0 | 0 | 8 | 25 | 0.74589773 | 10.698795 | -1 | 443.98258 | 943.23205 | 0 | 0 | 2 | 27 | 0.23193661 | 12.144234 | 1 | 442.84324 | 937.13889 | 0 | 0 | 3 | 28 | 0.28127092 | 12.913297 | 1 | 445.73097 | 956.92275 | 0 | 0 | 0 | 31 | 0.12223538 | 14.015255 | 1 | 444.90663 | 949.41091 | 0 | 0 | 1 | 32 | 0.18237408 | 14.675067 | 1 | 432.61015 | 915.99506 | 0 | 0 | 10 | 13 | 2.6393758 | 4.2853613 | 1 | 427.29889 | 926.63063 | 0 | 0 | 9 | 20 | 2.4492664 | 8.267711 | 1 | 424.41862 | 906.05533 | 0 | 0 | 14 | 17 | 4.5194394 | 6.5992083 | -1 | 416.16971 | 897.74755 | 0 | 0 | 15 | 24 | 4.7178278 | 10.57016 | -1 | 418.38806 | 917.80399 | 0 | 0 | 16 | 21 | 6.4007926 | 8.4805606 | 1 | 410.83657 | 908.59898 | 0 | 0 | 22 | 23 | 8.695015 | 10.386916 | -1 | 455.09517 | 940.31898 | 0 | 0 | 26 | 29 | 11.934076 | 13.261572 | 1 | 457.64831 | 947.2469 | 0 | 0 | 30 | 33 | 13.510576 | 14.893302 | 1"
       switcher_size="15"
       add_other_stroke_width="false"
       add_stroke_width="true"
       prop_to_stroke_width="false"
       interruption_width="3"
       is_visible="true"
       id="path-effect4598"
       effect="knot" />
    <inkscape:path-effect
       effect="knot"
       id="path-effect4594"
       is_visible="true"
       interruption_width="3"
       prop_to_stroke_width="false"
       add_stroke_width="true"
       add_other_stroke_width="false"
       switcher_size="15"
       crossing_points_vector="556.01111 | 921.91441 | 0 | 3 | 5 | 0 | 0.90632389 | 1.0130741 | 1 | 558.84682 | 931.71872 | 0 | 5 | 4 | 0 | 0.72172047 | 0.8970092 | 1 | 561.00285 | 943.00402 | 0 | 7 | 2 | 1 | 0.51778578 | 1.0999058 | 1 | 559.98818 | 936.9605 | 0 | 7 | 3 | 2 | 0.62621357 | 1.9674907 | 1 | 562.14345 | 956.91306 | 0 | 7 | 0 | 5 | 0.27091315 | 2.9832727 | 1 | 561.69109 | 948.91312 | 0 | 7 | 1 | 6 | 0.41276747 | 3.7142061 | 1 | 544.2122 | 898.56583 | 1 | 4 | 0 | 2 | 0.18792397 | 1.7415137 | -1 | 536.69531 | 890.2803 | 1 | 6 | 1 | 2 | 0.43905655 | 1.7057733 | -1 | 547.61016 | 915.99506 | 2 | 3 | 1 | 1 | 1.6393758 | 1.2853613 | 1 | 542.29889 | 926.63065 | 2 | 5 | 0 | 1 | 1.449266 | 1.2677104 | 1 | 539.41861 | 906.0553 | 3 | 4 | 2 | 1 | 1.51944 | 1.5992088 | -1 | 531.16969 | 897.74753 | 3 | 6 | 3 | 1 | 1.7178284 | 1.5701602 | -1 | 533.38803 | 917.80399 | 4 | 5 | 0 | 2 | 1.4007926 | 1.4805606 | 1 | 525.83654 | 908.59898 | 5 | 6 | 3 | 0 | 1.695015 | 1.3869158 | -1 | 570.09514 | 940.31897 | 7 | 7 | 0 | 3 | 0.84069223 | 2.2615715 | 1 | 572.64828 | 947.2469 | 7 | 7 | 4 | 7 | 2.5105762 | 3.8933023 | 1" />
    <inkscape:path-effect
       effect="knot"
       id="path-effect4417"
       is_visible="true"
       interruption_width="3"
       prop_to_stroke_width="false"
       add_stroke_width="true"
       add_other_stroke_width="false"
       switcher_size="15"
       crossing_points_vector="558.41731 | 906.31179 | 0 | 0 | 2 | 11 | 0.58968291 | 2.7591652 | -1 | 561.0862 | 920.80901 | 0 | 0 | 1 | 12 | 0.41995613 | 4.107212 | 1 | 552.7363 | 894.68 | 0 | 0 | 3 | 22 | 0.75505816 | 6.7511063 | -1 | 561.71575 | 935.24249 | 0 | 0 | 0 | 23 | 0.25248331 | 8.1237966 | 1 | 520.35106 | 894.8503 | 0 | 0 | 4 | 17 | 1.2671836 | 4.6918839 | 1 | 522.43179 | 923.04342 | 0 | 0 | 7 | 18 | 1.7149222 | 6.3470458 | 1 | 517.51047 | 907.69324 | 0 | 0 | 5 | 28 | 1.4742525 | 8.6593338 | -1 | 517.52028 | 907.86816 | 0 | 0 | 6 | 29 | 1.4768501 | 10.529778 | -1 | 553.30696 | 916.86094 | 0 | 0 | 10 | 13 | 2.5015271 | 4.2396969 | -1 | 546.62048 | 928.05549 | 0 | 0 | 8 | 25 | 2.2250433 | 8.3046264 | 1 | 552.55753 | 918.62492 | 0 | 0 | 9 | 34 | 2.4622558 | 11.529243 | -1 | 538.83537 | 907.02609 | 0 | 0 | 15 | 20 | 4.4503813 | 6.5657602 | 1 | 525.4333 | 897.90929 | 0 | 0 | 16 | 31 | 4.6269238 | 10.737239 | 1 | 551.96279 | 916.03052 | 0 | 0 | 14 | 33 | 4.2607778 | 11.496515 | -1 | 529.41774 | 916.39386 | 0 | 0 | 19 | 26 | 6.4401921 | 8.508931 | 1 | 546.29903 | 899.98544 | 0 | 0 | 21 | 32 | 6.6652759 | 11.264482 | 1 | 517.59976 | 907.75707 | 0 | 0 | 27 | 30 | 8.6581506 | 10.5319 | -1 | 554.94215 | 932.53652 | 0 | 0 | 24 | 35 | 8.2060043 | 11.702311 | -1" />
    <inkscape:path-effect
       effect="knot"
       id="path-effect4708"
       is_visible="true"
       interruption_width="3"
       prop_to_stroke_width="false"
       add_stroke_width="true"
       add_other_stroke_width="false"
       switcher_size="15"
       crossing_points_vector="522.63062 | 913.4111 | 0 | 2 | 0 | 2 | 0.60193873 | 1.8659494 | -1 | 533.15927 | 907.78107 | 1 | 2 | 0 | 1 | 1.6099059 | 1.5198496 | 1 | 530.95517 | 898.72618 | 1 | 3 | 1 | 1 | 2.9290366 | 3.1179079 | -1 | 542.71048 | 904.89725 | 2 | 3 | 0 | 2 | 1.2423338 | 3.4288237 | 1 | 554.95842 | 915.28613 | 3 | 3 | 0 | 3 | 1.1199966 | 3.7232273 | 1" />
    <inkscape:path-effect
       effect="knot"
       id="path-effect4374"
       is_visible="true"
       interruption_width="3"
       prop_to_stroke_width="false"
       add_stroke_width="true"
       add_other_stroke_width="false"
       switcher_size="15"
       crossing_points_vector="539.03782 | 904.6588 | 0 | 1 | 1 | 0 | 0.61108018 | 0.99945645 | -1 | 531.91447 | 908.60528 | 0 | 2 | 0 | 0 | 0.41536372 | 0.21329414 | -1" />
    <inkscape:path-effect
       effect="knot"
       id="path-effect4409"
       is_visible="true"
       interruption_width="3"
       prop_to_stroke_width="false"
       add_stroke_width="true"
       add_other_stroke_width="false"
       switcher_size="15"
       crossing_points_vector="538.18689 | 905.50106 | 1 | 2 | 1 | 0 | 1.5477632 | 1.4522348 | -1 | 541.02248 | 901.33554 | 1 | 2 | 0 | 1 | 1.3587239 | 2.6119522 | 1" />
    <inkscape:path-effect
       effect="knot"
       id="path-effect4383"
       is_visible="true"
       interruption_width="3"
       prop_to_stroke_width="false"
       add_stroke_width="true"
       add_other_stroke_width="false"
       switcher_size="15"
       crossing_points_vector="551.02408 | 901.55463 | 0 | 1 | 0 | 1 | 1.0256903 | 1.340415 | 1 | 545.80828 | 897.62041 | 0 | 1 | 1 | 2 | 1.4958594 | 2.389318 | -1 | 539.75993 | 906.83519 | 1 | 1 | 0 | 3 | 0.94162732 | 2.5685911 | 1" />
    <inkscape:path-effect
       crossing_points_vector="439.73912 | 879.02954 | 0 | 0 | 0 | 1 | 1.1016633 | 3.6941086 | -1"
       switcher_size="15"
       add_other_stroke_width="false"
       add_stroke_width="true"
       prop_to_stroke_width="false"
       interruption_width="3"
       is_visible="true"
       id="path-effect4583"
       effect="knot" />
    <inkscape:path-effect
       effect="knot"
       id="path-effect4441"
       is_visible="true"
       interruption_width="3"
       prop_to_stroke_width="false"
       add_stroke_width="true"
       add_other_stroke_width="false"
       switcher_size="15"
       crossing_points_vector="489.73912 | 879.02954 | 1 | 3 | 0 | 0 | 1.1016631 | 1.6941086 | -1" />
    <inkscape:path-effect
       effect="knot"
       id="path-effect4510"
       is_visible="true"
       interruption_width="3"
       prop_to_stroke_width="false"
       add_stroke_width="true"
       add_other_stroke_width="false"
       switcher_size="15"
       crossing_points_vector="484.28907 | 907.85024 | 0 | 1 | 0 | 2 | 0.79751801 | 2.2762321 | -1 | 490.87878 | 878.00676 | 1 | 1 | 0 | 3 | 0.21748157 | 3.6781636 | 1 | 511.16212 | 891.94603 | 1 | 1 | 1 | 4 | 1.515595 | 3.9405603 | 1" />
    <inkscape:path-effect
       effect="knot"
       id="path-effect4508"
       is_visible="true"
       interruption_width="3"
       prop_to_stroke_width="false"
       add_stroke_width="true"
       add_other_stroke_width="false"
       switcher_size="15"
       crossing_points_vector="564.1571 | 881.92009 | 1 | 3 | 0 | 0 | 0.12640418 | 1.6324879 | 1" />
    <inkscape:path-effect
       effect="knot"
       id="path-effect4330"
       is_visible="true"
       interruption_width="3"
       prop_to_stroke_width="false"
       add_stroke_width="true"
       add_other_stroke_width="false"
       switcher_size="15"
       crossing_points_vector="574.10071 | 860.73008 | 1 | 2 | 1 | 0 | 1.4338181 | 1.4507078 | 1 | 568.50393 | 874.78897 | 1 | 3 | 0 | 0 | 1.1266988 | 0.27818176 | 1" />
    <inkscape:path-effect
       effect="knot"
       id="path-effect4293"
       is_visible="true"
       interruption_width="3"
       prop_to_stroke_width="false"
       add_stroke_width="true"
       add_other_stroke_width="false"
       switcher_size="15"
       crossing_points_vector="567.01813 | 924.14519 | 0 | 1 | 0 | 1 | 0.35366327 | 1.5474674 | -1 | 556.98282 | 912.38322 | 0 | 1 | 1 | 2 | 0.65933317 | 2.2172825 | -1 | 570.86864 | 888.12159 | 1 | 1 | 0 | 3 | 0.56147773 | 2.5940693 | -1" />
    <inkscape:path-effect
       crossing_points_vector="563.34662 | 878.32875 | 0 | 0 | 0 | 1 | 0.57478741 | 4.7005785 | -1"
       switcher_size="15"
       add_other_stroke_width="false"
       add_stroke_width="true"
       prop_to_stroke_width="false"
       interruption_width="3"
       is_visible="true"
       id="path-effect4381"
       effect="knot" />
    <inkscape:path-effect
       effect="knot"
       id="path-effect9059"
       is_visible="true"
       interruption_width="3"
       prop_to_stroke_width="false"
       add_stroke_width="true"
       add_other_stroke_width="false"
       switcher_size="15"
       crossing_points_vector="563.34662 | 878.32875 | 0 | 0 | 0 | 1 | 0.57478741 | 4.7005785 | -1" />
    <inkscape:path-effect
       effect="simplify"
       id="path-effect1032"
       is_visible="true"
       steps="1"
       threshold="0.00243902"
       smooth_angles="360"
       helper_size="0"
       simplify_individual_paths="false"
       simplify_just_coalesce="false"
       simplifyindividualpaths="false"
       simplifyJustCoalesce="false" />
    <marker
       inkscape:stockid="Arrow2Mend"
       orient="auto"
       refY="0"
       refX="0"
       id="Arrow2Mend"
       style="overflow:visible"
       inkscape:isstock="true">
      <path
         id="path908"
         style="fill:#ff0000;fill-opacity:1;fill-rule:evenodd;stroke:#ff0000;stroke-width:0.625;stroke-linejoin:round;stroke-opacity:1"
         d="M 8.7185878,4.0337352 -2.2072895,0.01601326 8.7185884,-4.0017078 c -1.7454984,2.3720609 -1.7354408,5.6174519 -6e-7,8.035443 z"
         transform="scale(-0.6,-0.6)"
         inkscape:connector-curvature="0" />
    </marker>
    <marker
       inkscape:stockid="Arrow2Lend"
       orient="auto"
       refY="0"
       refX="0"
       id="Arrow2Lend"
       style="overflow:visible"
       inkscape:isstock="true">
      <path
         id="path902"
         style="fill:#fe0000;fill-opacity:1;fill-rule:evenodd;stroke:#fe0000;stroke-width:0.625;stroke-linejoin:round;stroke-opacity:1"
         d="M 8.7185878,4.0337352 -2.2072895,0.01601326 8.7185884,-4.0017078 c -1.7454984,2.3720609 -1.7354408,5.6174519 -6e-7,8.035443 z"
         transform="matrix(-1.1,0,0,-1.1,-1.1,0)"
         inkscape:connector-curvature="0" />
    </marker>
    <marker
       inkscape:stockid="Arrow1Lstart"
       orient="auto"
       refY="0"
       refX="0"
       id="Arrow1Lstart"
       style="overflow:visible"
       inkscape:isstock="true">
      <path
         id="path881"
         d="M 0,0 5,-5 -12.5,0 5,5 Z"
         style="fill:#fe0000;fill-opacity:1;fill-rule:evenodd;stroke:#fe0000;stroke-width:1pt;stroke-opacity:1"
         transform="matrix(0.8,0,0,0.8,10,0)"
         inkscape:connector-curvature="0" />
    </marker>
    <inkscape:path-effect
       effect="knot"
       id="path-effect840"
       is_visible="true"
       interruption_width="3"
       prop_to_stroke_width="false"
       add_stroke_width="true"
       add_other_stroke_width="false"
       switcher_size="15"
       crossing_points_vector="555.9833 | 747.10163 | 0 | 0 | 0 | 1 | 0.6803812 | 2.7128593 | -1 | 552.23485 | 788.43362 | 0 | 0 | 2 | 7 | 3.2447083 | 9.4155824 | 1 | 554.77393 | 832.80342 | 0 | 0 | 3 | 8 | 3.5338778 | 10.513978 | 1 | 526.40166 | 839.74908 | 0 | 0 | 4 | 9 | 6.8382141 | 11.291791 | -1 | 519.26725 | 810.88166 | 0 | 0 | 5 | 10 | 7.6725215 | 12.32748 | -1 | 526.37124 | 784.03924 | 0 | 0 | 6 | 11 | 8.7301526 | 12.955812 | -1" />
    <filter
       id="filter3111"
       inkscape:label="Outline, double"
       inkscape:menu="Morphology"
       inkscape:menu-tooltip="Draws a smooth line inside colorized with the color it overlays"
       style="color-interpolation-filters:sRGB">
      <feGaussianBlur
         id="feGaussianBlur3113"
         stdDeviation="3"
         in="SourceAlpha"
         result="result1" />
      <feComposite
         id="feComposite3115"
         in2="result1"
         operator="arithmetic"
         k2="3.2"
         k1="-1"
         k4="-2"
         result="result3"
         k3="0" />
      <feColorMatrix
         id="feColorMatrix3117"
         values="0 0 0 0 0 0 1 0 0 0 0 0 1 0 0 0 0 0 10 0 "
         result="result2" />
      <feComposite
         id="feComposite3119"
         in2="result2"
         result="fbSourceGraphic"
         in="SourceGraphic"
         operator="out" />
      <feGaussianBlur
         id="feGaussianBlur3121"
         in="fbSourceGraphic"
         stdDeviation="0.5"
         result="result4" />
      <feComposite
         id="feComposite3123"
         in2="result4"
         operator="xor"
         in="result4"
         result="result5" />
      <feBlend
         id="feBlend3125"
         in2="result5"
         result="result6"
         mode="darken"
         in="result5" />
      <feBlend
         id="feBlend3127"
         in2="result6"
         in="result6"
         mode="darken" />
    </filter>
    <inkscape:path-effect
       effect="knot"
       id="path-effect840-2"
       is_visible="true"
       interruption_width="3"
       prop_to_stroke_width="false"
       add_stroke_width="true"
       add_other_stroke_width="false"
       switcher_size="15"
       crossing_points_vector="403.23988 | 875.24536 | 0 | 0 | 0 | 3 | 0.30583405 | 3.7905355 | -1 | 434.69018 | 856.18644 | 0 | 0 | 1 | 4 | 0.64654265 | 5.6367509 | 1 | 461.39463 | 867.49793 | 0 | 0 | 2 | 5 | 2.013941 | 6.3359148 | 1" />
    <marker
       inkscape:stockid="Arrow2Mend"
       orient="auto"
       refY="0"
       refX="0"
       id="Arrow2Mend-2"
       style="overflow:visible">
      <path
         id="path3886"
         style="fill-rule:evenodd;stroke-width:0.625;stroke-linejoin:round"
         d="M 8.7185878,4.0337352 -2.2072895,0.01601326 8.7185884,-4.0017078 c -1.7454984,2.3720609 -1.7354408,5.6174519 -6e-7,8.035443 z"
         transform="scale(-0.6,-0.6)"
         inkscape:connector-curvature="0" />
    </marker>
    <marker
       inkscape:stockid="Arrow2Mend"
       orient="auto"
       refY="0"
       refX="0"
       id="marker910"
       style="overflow:visible">
      <path
         id="path908-3"
         style="fill-rule:evenodd;stroke-width:0.625;stroke-linejoin:round"
         d="M 8.7185878,4.0337352 -2.2072895,0.01601326 8.7185884,-4.0017078 c -1.7454984,2.3720609 -1.7354408,5.6174519 -6e-7,8.035443 z"
         transform="scale(-0.6,-0.6)"
         inkscape:connector-curvature="0" />
    </marker>
    <marker
       inkscape:stockid="Arrow2Mend"
       orient="auto"
       refY="0"
       refX="0"
       id="marker914"
       style="overflow:visible">
      <path
         id="path912"
         style="fill-rule:evenodd;stroke-width:0.625;stroke-linejoin:round"
         d="M 8.7185878,4.0337352 -2.2072895,0.01601326 8.7185884,-4.0017078 c -1.7454984,2.3720609 -1.7354408,5.6174519 -6e-7,8.035443 z"
         transform="scale(-0.6,-0.6)"
         inkscape:connector-curvature="0" />
    </marker>
    <marker
       inkscape:stockid="Arrow2Mend"
       orient="auto"
       refY="0"
       refX="0"
       id="marker918"
       style="overflow:visible">
      <path
         id="path916"
         style="fill-rule:evenodd;stroke-width:0.625;stroke-linejoin:round"
         d="M 8.7185878,4.0337352 -2.2072895,0.01601326 8.7185884,-4.0017078 c -1.7454984,2.3720609 -1.7354408,5.6174519 -6e-7,8.035443 z"
         transform="scale(-0.6,-0.6)"
         inkscape:connector-curvature="0" />
    </marker>
    <marker
       inkscape:stockid="Arrow2Mend"
       orient="auto"
       refY="0"
       refX="0"
       id="marker922"
       style="overflow:visible">
      <path
         id="path920"
         style="fill-rule:evenodd;stroke-width:0.625;stroke-linejoin:round"
         d="M 8.7185878,4.0337352 -2.2072895,0.01601326 8.7185884,-4.0017078 c -1.7454984,2.3720609 -1.7354408,5.6174519 -6e-7,8.035443 z"
         transform="scale(-0.6,-0.6)"
         inkscape:connector-curvature="0" />
    </marker>
    <marker
       inkscape:stockid="Arrow2Mend"
       orient="auto"
       refY="0"
       refX="0"
       id="marker926"
       style="overflow:visible">
      <path
         id="path924"
         style="fill-rule:evenodd;stroke-width:0.625;stroke-linejoin:round"
         d="M 8.7185878,4.0337352 -2.2072895,0.01601326 8.7185884,-4.0017078 c -1.7454984,2.3720609 -1.7354408,5.6174519 -6e-7,8.035443 z"
         transform="scale(-0.6,-0.6)"
         inkscape:connector-curvature="0" />
    </marker>
    <marker
       inkscape:stockid="Arrow2Mend"
       orient="auto"
       refY="0"
       refX="0"
       id="Arrow2Mend-23"
       style="overflow:visible">
      <path
         id="path3940"
         style="fill-rule:evenodd;stroke-width:0.625;stroke-linejoin:round"
         d="M 8.7185878,4.0337352 -2.2072895,0.01601326 8.7185884,-4.0017078 c -1.7454984,2.3720609 -1.7354408,5.6174519 -6e-7,8.035443 z"
         transform="scale(-0.6,-0.6)"
         inkscape:connector-curvature="0" />
    </marker>
    <marker
       inkscape:stockid="Arrow2Mend"
       orient="auto"
       refY="0"
       refX="0"
       id="marker890"
       style="overflow:visible">
      <path
         id="path888"
         style="fill-rule:evenodd;stroke-width:0.625;stroke-linejoin:round"
         d="M 8.7185878,4.0337352 -2.2072895,0.01601326 8.7185884,-4.0017078 c -1.7454984,2.3720609 -1.7354408,5.6174519 -6e-7,8.035443 z"
         transform="scale(-0.6,-0.6)"
         inkscape:connector-curvature="0" />
    </marker>
    <marker
       inkscape:stockid="Arrow2Mend"
       orient="auto"
       refY="0"
       refX="0"
       id="marker894"
       style="overflow:visible">
      <path
         id="path892"
         style="fill-rule:evenodd;stroke-width:0.625;stroke-linejoin:round"
         d="M 8.7185878,4.0337352 -2.2072895,0.01601326 8.7185884,-4.0017078 c -1.7454984,2.3720609 -1.7354408,5.6174519 -6e-7,8.035443 z"
         transform="scale(-0.6,-0.6)"
         inkscape:connector-curvature="0" />
    </marker>
    <marker
       inkscape:stockid="Arrow2Mend"
       orient="auto"
       refY="0"
       refX="0"
       id="marker898"
       style="overflow:visible">
      <path
         id="path896"
         style="fill-rule:evenodd;stroke-width:0.625;stroke-linejoin:round"
         d="M 8.7185878,4.0337352 -2.2072895,0.01601326 8.7185884,-4.0017078 c -1.7454984,2.3720609 -1.7354408,5.6174519 -6e-7,8.035443 z"
         transform="scale(-0.6,-0.6)"
         inkscape:connector-curvature="0" />
    </marker>
    <marker
       inkscape:stockid="Arrow2Mend"
       orient="auto"
       refY="0"
       refX="0"
       id="Arrow2Mend-237"
       style="overflow:visible">
      <path
         id="path3837"
         style="fill-rule:evenodd;stroke-width:0.625;stroke-linejoin:round"
         d="M 8.7185878,4.0337352 -2.2072895,0.01601326 8.7185884,-4.0017078 c -1.7454984,2.3720609 -1.7354408,5.6174519 -6e-7,8.035443 z"
         transform="scale(-0.6,-0.6)"
         inkscape:connector-curvature="0" />
    </marker>
    <marker
       inkscape:stockid="Arrow2Mend"
       orient="auto"
       refY="0"
       refX="0"
       id="marker4177"
       style="overflow:visible">
      <path
         id="path4179"
         style="fill-rule:evenodd;stroke-width:0.625;stroke-linejoin:round"
         d="M 8.7185878,4.0337352 -2.2072895,0.01601326 8.7185884,-4.0017078 c -1.7454984,2.3720609 -1.7354408,5.6174519 -6e-7,8.035443 z"
         transform="scale(-0.6,-0.6)"
         inkscape:connector-curvature="0" />
    </marker>
    <inkscape:path-effect
       crossing_points_vector="566.40336 | 819.48052 | 0 | 1 | 0 | 0 | 0.44550334 | 1.2743027 | 1"
       switcher_size="15"
       add_other_stroke_width="false"
       add_stroke_width="true"
       prop_to_stroke_width="false"
       interruption_width="3"
       is_visible="true"
       id="path-effect4381-2"
       effect="knot" />
    <marker
       inkscape:stockid="Arrow2Mend"
       orient="auto"
       refY="0"
       refX="0"
       id="Arrow2Mend-2375"
       style="overflow:visible">
      <path
         id="path3837-9"
         style="fill-rule:evenodd;stroke-width:0.625;stroke-linejoin:round"
         d="M 8.7185878,4.0337352 -2.2072895,0.01601326 8.7185884,-4.0017078 c -1.7454984,2.3720609 -1.7354408,5.6174519 -6e-7,8.035443 z"
         transform="scale(-0.6,-0.6)"
         inkscape:connector-curvature="0" />
    </marker>
    <marker
       inkscape:stockid="Arrow2Mend"
       orient="auto"
       refY="0"
       refX="0"
       id="marker4179"
       style="overflow:visible">
      <path
         id="path4181"
         style="fill-rule:evenodd;stroke-width:0.625;stroke-linejoin:round"
         d="M 8.7185878,4.0337352 -2.2072895,0.01601326 8.7185884,-4.0017078 c -1.7454984,2.3720609 -1.7354408,5.6174519 -6e-7,8.035443 z"
         transform="scale(-0.6,-0.6)"
         inkscape:connector-curvature="0" />
    </marker>
    <marker
       inkscape:stockid="Arrow2Mend"
       orient="auto"
       refY="0"
       refX="0"
       id="marker4183"
       style="overflow:visible">
      <path
         id="path4185"
         style="fill-rule:evenodd;stroke-width:0.625;stroke-linejoin:round"
         d="M 8.7185878,4.0337352 -2.2072895,0.01601326 8.7185884,-4.0017078 c -1.7454984,2.3720609 -1.7354408,5.6174519 -6e-7,8.035443 z"
         transform="scale(-0.6,-0.6)"
         inkscape:connector-curvature="0" />
    </marker>
    <marker
       inkscape:stockid="Arrow2Mend"
       orient="auto"
       refY="0"
       refX="0"
       id="marker4187"
       style="overflow:visible">
      <path
         id="path4189"
         style="fill-rule:evenodd;stroke-width:0.625;stroke-linejoin:round"
         d="M 8.7185878,4.0337352 -2.2072895,0.01601326 8.7185884,-4.0017078 c -1.7454984,2.3720609 -1.7354408,5.6174519 -6e-7,8.035443 z"
         transform="scale(-0.6,-0.6)"
         inkscape:connector-curvature="0" />
    </marker>
    <marker
       inkscape:stockid="Arrow1Mend"
       orient="auto"
       refY="0"
       refX="0"
       id="Arrow1Mend"
       style="overflow:visible"
       inkscape:isstock="true">
      <path
         id="path4161"
         d="M 0,0 5,-5 -12.5,0 5,5 0,0 Z"
         style="fill:#ff0000;fill-opacity:1;fill-rule:evenodd;stroke:#ff0000;stroke-width:1pt;stroke-opacity:1"
         transform="matrix(-0.4,0,0,-0.4,-4,0)"
         inkscape:connector-curvature="0" />
    </marker>
    <marker
       inkscape:stockid="Arrow1Mend"
       orient="auto"
       refY="0"
       refX="0"
       id="marker4269"
       style="overflow:visible"
       inkscape:isstock="true">
      <path
         id="path4271"
         d="M 0,0 5,-5 -12.5,0 5,5 0,0 Z"
         style="fill:#ff0000;fill-opacity:1;fill-rule:evenodd;stroke:#ff0000;stroke-width:1pt;stroke-opacity:1"
         transform="matrix(-0.4,0,0,-0.4,-4,0)"
         inkscape:connector-curvature="0" />
    </marker>
    <marker
       inkscape:stockid="Arrow1Mend"
       orient="auto"
       refY="0"
       refX="0"
       id="Arrow1Mend-8"
       style="overflow:visible"
       inkscape:isstock="true">
      <path
         id="path4161-9"
         d="M 0,0 5,-5 -12.5,0 5,5 0,0 Z"
         style="fill:#ff0000;fill-opacity:1;fill-rule:evenodd;stroke:#ff0000;stroke-width:1pt;stroke-opacity:1"
         transform="matrix(-0.4,0,0,-0.4,-4,0)"
         inkscape:connector-curvature="0" />
    </marker>
    <marker
       inkscape:stockid="Arrow1Mend"
       orient="auto"
       refY="0"
       refX="0"
       id="marker10242"
       style="overflow:visible"
       inkscape:isstock="true">
      <path
         id="path10244"
         d="M 0,0 5,-5 -12.5,0 5,5 0,0 Z"
         style="fill:#ff0000;fill-opacity:1;fill-rule:evenodd;stroke:#ff0000;stroke-width:1pt;stroke-opacity:1"
         transform="matrix(-0.4,0,0,-0.4,-4,0)"
         inkscape:connector-curvature="0" />
    </marker>
    <marker
       inkscape:stockid="Arrow2Mend"
       orient="auto"
       refY="0"
       refX="0"
       id="Arrow2Mend-23759"
       style="overflow:visible">
      <path
         id="path3861"
         style="fill-rule:evenodd;stroke-width:0.625;stroke-linejoin:round"
         d="M 8.7185878,4.0337352 -2.2072895,0.01601326 8.7185884,-4.0017078 c -1.7454984,2.3720609 -1.7354408,5.6174519 -6e-7,8.035443 z"
         transform="scale(-0.6,-0.6)"
         inkscape:connector-curvature="0" />
    </marker>
    <marker
       inkscape:stockid="Arrow2Mend"
       orient="auto"
       refY="0"
       refX="0"
       id="marker4204"
       style="overflow:visible">
      <path
         id="path4206"
         style="fill-rule:evenodd;stroke-width:0.625;stroke-linejoin:round"
         d="M 8.7185878,4.0337352 -2.2072895,0.01601326 8.7185884,-4.0017078 c -1.7454984,2.3720609 -1.7354408,5.6174519 -6e-7,8.035443 z"
         transform="scale(-0.6,-0.6)"
         inkscape:connector-curvature="0" />
    </marker>
    <marker
       inkscape:stockid="Arrow2Mend"
       orient="auto"
       refY="0"
       refX="0"
       id="marker4208"
       style="overflow:visible">
      <path
         id="path4210"
         style="fill-rule:evenodd;stroke-width:0.625;stroke-linejoin:round"
         d="M 8.7185878,4.0337352 -2.2072895,0.01601326 8.7185884,-4.0017078 c -1.7454984,2.3720609 -1.7354408,5.6174519 -6e-7,8.035443 z"
         transform="scale(-0.6,-0.6)"
         inkscape:connector-curvature="0" />
    </marker>
    <marker
       inkscape:stockid="Arrow2Mend"
       orient="auto"
       refY="0"
       refX="0"
       id="marker4212"
       style="overflow:visible">
      <path
         id="path4214"
         style="fill-rule:evenodd;stroke-width:0.625;stroke-linejoin:round"
         d="M 8.7185878,4.0337352 -2.2072895,0.01601326 8.7185884,-4.0017078 c -1.7454984,2.3720609 -1.7354408,5.6174519 -6e-7,8.035443 z"
         transform="scale(-0.6,-0.6)"
         inkscape:connector-curvature="0" />
    </marker>
    <marker
       inkscape:stockid="Arrow1Mend"
       orient="auto"
       refY="0"
       refX="0"
       id="marker4363"
       style="overflow:visible"
       inkscape:isstock="true">
      <path
         id="path4365"
         d="M 0,0 5,-5 -12.5,0 5,5 0,0 Z"
         style="fill:#ff0000;fill-opacity:1;fill-rule:evenodd;stroke:#ff0000;stroke-width:1pt;stroke-opacity:1"
         transform="matrix(-0.4,0,0,-0.4,-4,0)"
         inkscape:connector-curvature="0" />
    </marker>
    <inkscape:path-effect
       crossing_points_vector="660.42491 | 903.3383 | 0 | 1 | 0 | 0 | 2.8592393 | 1.8392811 | -1"
       switcher_size="15"
       add_other_stroke_width="false"
       add_stroke_width="true"
       prop_to_stroke_width="false"
       interruption_width="3"
       is_visible="true"
       id="path-effect4911-2"
       effect="knot" />
  </defs>
  <sodipodi:namedview
     id="base"
     pagecolor="#ffffff"
     bordercolor="#666666"
     borderopacity="1.0"
     inkscape:pageopacity="0.0"
     inkscape:pageshadow="2"
     inkscape:zoom="3.959798"
     inkscape:cx="147.87653"
     inkscape:cy="16.256455"
     inkscape:document-units="px"
     inkscape:current-layer="layer1"
     showgrid="true"
     inkscape:object-paths="false"
     inkscape:window-width="1920"
     inkscape:window-height="1051"
     inkscape:window-x="0"
     inkscape:window-y="0"
     inkscape:window-maximized="1"
     inkscape:showpageshadow="false"
     fit-margin-top="5"
     fit-margin-left="5"
     fit-margin-right="5"
     fit-margin-bottom="5"
     inkscape:snap-intersection-paths="false"
     inkscape:snap-midpoints="false"
     inkscape:snap-smooth-nodes="false"
     inkscape:object-nodes="true"
     inkscape:snap-nodes="true">
    <inkscape:grid
       type="xygrid"
       id="grid838"
       originx="-292.65754"
       originy="178.30016" />
  </sodipodi:namedview>
  <metadata
     id="metadata3085">
    <rdf:RDF>
      <cc:Work
         rdf:about="">
        <dc:format>image/svg+xml</dc:format>
        <dc:type
           rdf:resource="http://purl.org/dc/dcmitype/StillImage" />
        <dc:title></dc:title>
      </cc:Work>
    </rdf:RDF>
  </metadata>
  <g
     inkscape:label="Layer 1"
     inkscape:groupmode="layer"
     id="layer1"
     transform="translate(-599.06088,-875.42966)">
    <path
       sodipodi:nodetypes="cczcczzzzz"
       inkscape:connector-curvature="0"
       d="m 696.40334,896.92964 c -17.82317,-3e-5 -72.17683,1e-5 -90,2e-5 -1.49447,0 -1.95707,-2.91671 -1.95707,-5.00004 0,-2.08329 0.4626,-4.99994 1.95707,-4.99994 17.82284,-0.063 72.17742,0.0914 90,-2e-5 m 1.86061,4.90513 c 0,2.43481 -0.49491,5.09485 -1.86061,5.09485 -1.36567,0 -1.86179,-2.58561 -1.86179,-5.02043 0,-2.43475 0.49609,-4.97955 1.86179,-4.97955 1.3657,0 1.86061,2.47039 1.86061,4.90513 z"
       style="display:inline;fill:#000000;fill-opacity:0;stroke:#000000;stroke-width:0.77078176;stroke-linecap:round;stroke-linejoin:round;stroke-miterlimit:4;stroke-dasharray:none;stroke-dashoffset:0;stroke-opacity:1;enable-background:new"
       id="path4907" />
    <path
       id="path3873"
       style="fill:#cccccc;stroke:#000000;stroke-width:0.60681629;stroke-linecap:butt;stroke-linejoin:bevel;stroke-miterlimit:4;stroke-dashoffset:0;stroke-opacity:1"
       d="m 735.22286,883.22996 86.77499,-0.98967 c 1.44104,-0.0164 2.64528,3.129 2.68972,7.02547 0.0444,3.89647 -1.08775,7.06856 -2.52879,7.085 l -86.77499,0.98967 m -2.68972,-7.02548 c -0.0444,-3.89647 1.08774,-7.06856 2.52879,-7.08499 1.44105,-0.0164 2.64527,3.129 2.68971,7.02547 0.0444,3.89647 -1.08773,7.06856 -2.52878,7.085 -1.44105,0.0164 -2.64528,-3.12902 -2.68972,-7.02548 z"
       inkscape:connector-curvature="0"
       sodipodi:nodetypes="cssscsssss" />
    <path
       id="path3897"
       style="fill:#808080;stroke:#000000;stroke-width:0.60681629px;stroke-linecap:butt;stroke-linejoin:miter;stroke-opacity:1"
       d="m 824.39082,909.82378 0.62616,-5.94755 m -1.67746,5.76835 0.60805,-5.8606 m -1.65924,5.68782 0.59103,-5.67381 m -1.64205,5.51973 0.5728,-5.59663 m -1.62368,5.45117 0.55291,-5.66171 m -1.60374,5.51957 0.53349,-5.68555 m -3.97371,2.21298 c 7.31775,1.36137 15.73229,1.4445 19.31478,1.76426 4.83381,0.43145 8.38271,1.59891 10.61798,2.87777 1.11767,0.63943 1.9138,1.32152 2.35368,1.8695 0.43978,0.54798 0.44733,0.86841 0.44982,0.83278 0.01,-0.0357 0.0479,0.0812 -0.4039,0.33537 -0.45133,0.25423 -1.29494,0.47704 -2.45741,0.46904 -2.3251,-0.0161 -5.94485,-0.87063 -10.73544,-3.16309 -6.8187,-3.26298 -9.7783,-3.54689 -17.69989,-4.60513 -0.56499,-0.12895 -1.1573,0.48935 -1.20682,1.25963 -0.0495,0.7703 0.45448,1.5276 1.02673,1.54283 7.93899,1.06058 10.51433,1.2608 17.19261,4.45657 4.94529,2.3665 8.73655,3.31315 11.4224,3.33166 1.34289,0.009 2.41901,-0.19715 3.27049,-0.67678 0.85159,-0.47961 1.57708,-1.41447 1.66582,-2.66505 0.0887,-1.25057 -0.42433,-2.30638 -1.12899,-3.18444 -0.70486,-0.87806 -1.67489,-1.66424 -2.94677,-2.39195 -2.54396,-1.45541 -6.27881,-2.64342 -11.28917,-3.09061 -3.76252,-0.33584 -12.06898,-0.44203 -19.18431,-1.76576 -1.41019,-0.26234 -2.77277,-0.57391 -4.03466,-0.94457 -3.54972,-1.04266 -5.55686,-3.41303 -6.69289,-6.2301 -1.13605,-2.81709 -1.35088,-6.16312 -0.98247,-8.91925 0.36841,-2.75613 1.40355,-4.79491 2.0772,-5.20555 0.33686,-0.20532 0.54726,-0.20822 0.96421,0.16541 0.17965,0.16098 0.43451,0.39987 0.65859,0.78045 l 2.44622,-0.0279 c -0.56093,-1.40762 -1.23683,-2.44254 -1.97364,-3.1028 -0.91909,-0.82364 -2.05522,-0.93464 -2.95646,-0.38524 -1.80255,1.09877 -2.83352,3.92861 -3.2772,7.24788 -0.11093,0.82982 -0.18019,1.71298 -0.19863,2.60422 -0.0554,2.67371 0.33879,5.5385 1.39791,8.16479 1.41212,3.5017 4.05549,6.48212 8.20377,7.70095 1.36758,0.40183 2.71843,0.6969 4.10644,0.95511 z"
       inkscape:connector-curvature="0"
       sodipodi:nodetypes="ccccccccccccsssscssscscsssssssssssssccsssssss" />
    <path
       style="color:#000000;font-style:normal;font-variant:normal;font-weight:normal;font-stretch:normal;font-size:medium;line-height:normal;font-family:Sans;-inkscape-font-specification:Sans;text-indent:0;text-align:start;text-decoration:none;text-decoration-line:none;letter-spacing:normal;word-spacing:normal;text-transform:none;direction:ltr;block-progression:tb;writing-mode:lr-tb;baseline-shift:baseline;text-anchor:start;display:inline;overflow:visible;visibility:visible;fill:#808080;fill-opacity:1;stroke:#000000;stroke-width:0.60681629;stroke-miterlimit:4;stroke-dasharray:none;stroke-opacity:1;marker:none;enable-background:accumulate"
       d="m 799.55189,896.60859 c 0.9321,4.41218 3.29766,6.95327 5.78384,6.86375 2.42843,-0.0875 4.68783,-2.67178 5.59746,-6.99355 l -2.20679,0.0252 c -0.77585,2.85025 -2.17442,4.10054 -3.45547,4.14665 -1.32455,0.0477 -2.74433,-1.11929 -3.53509,-4.06693 z"
       id="path3958"
       inkscape:connector-curvature="0"
       sodipodi:nodetypes="csccscc" />
    <path
       style="color:#000000;font-style:normal;font-variant:normal;font-weight:normal;font-stretch:normal;font-size:medium;line-height:normal;font-family:Sans;-inkscape-font-specification:Sans;text-indent:0;text-align:start;text-decoration:none;text-decoration-line:none;letter-spacing:normal;word-spacing:normal;text-transform:none;direction:ltr;block-progression:tb;writing-mode:lr-tb;baseline-shift:baseline;text-anchor:start;display:inline;overflow:visible;visibility:visible;fill:#808080;fill-opacity:1;stroke:#000000;stroke-width:0.60681629;stroke-linejoin:bevel;stroke-miterlimit:4;stroke-dasharray:none;stroke-opacity:1;marker:none;enable-background:accumulate"
       d="m 796.84632,881.29817 c 0.33354,-0.53612 0.40174,0.71085 0.50248,1.22324 l 2.11324,-0.0241 c -0.13801,-0.96211 -0.29155,-1.78004 -0.49324,-2.43616 -0.2233,-0.72624 -0.49809,-1.3702 -1.01542,-1.79656 -0.51734,-0.42636 -1.24214,-0.35438 -1.6965,-0.0248 -0.45437,0.32963 -0.77233,0.79756 -1.07755,1.33533 -1.22086,2.15106 -2.33175,5.92575 -3.42289,9.5149 -1.08757,3.57741 -2.27456,7.46048 -3.15296,8.87237 -0.33354,0.53612 -0.43468,-0.71047 -0.53542,-1.22286 l -2.08028,0.0237 c 0.13799,0.96211 0.2915,1.78003 0.49323,2.43615 0.22329,0.72625 0.49806,1.3702 1.01539,1.79657 0.51735,0.42636 1.24216,0.35437 1.69653,0.0248 0.45436,-0.32963 0.77231,-0.79755 1.07753,-1.33532 1.22088,-2.15107 2.33176,-5.92575 3.4229,-9.5149 1.08756,-3.57741 2.27456,-7.46048 3.15296,-8.87237 z"
       id="path3960"
       inkscape:connector-curvature="0"
       sodipodi:nodetypes="sccssssssccssssss" />
    <path
       style="color:#000000;font-style:normal;font-variant:normal;font-weight:normal;font-stretch:normal;font-size:medium;line-height:normal;font-family:Sans;-inkscape-font-specification:Sans;text-indent:0;text-align:start;text-decoration:none;text-decoration-line:none;letter-spacing:normal;word-spacing:normal;text-transform:none;direction:ltr;block-progression:tb;writing-mode:lr-tb;baseline-shift:baseline;text-anchor:start;display:inline;overflow:visible;visibility:visible;fill:#808080;fill-opacity:1;stroke:#000000;stroke-width:0.60681629;stroke-miterlimit:4;stroke-dasharray:none;stroke-opacity:1;marker:none;enable-background:accumulate"
       d="m 743.52768,883.13524 c 0.24181,-0.77686 0.35693,-0.61254 0.56854,-0.37549 0.79178,0.88697 2.21707,3.95274 3.59369,7.63259 1.37662,3.67985 2.81894,8.02049 4.2125,11.83717 1.39355,3.81666 2.64275,7.05033 3.9989,8.84074 0.38752,0.53774 1.10329,0.54439 1.49072,0.0138 0.38743,-0.53055 0.37334,-1.49809 -0.029,-2.01507 -0.83944,-1.10823 -2.21274,-4.32245 -3.58242,-8.07372 -1.36967,-3.75129 -2.82075,-8.09453 -4.22905,-11.85904 -1.40828,-3.76449 -2.65757,-6.88877 -4.12585,-8.53058 -0.36706,-0.41045 -0.78051,-0.75449 -1.28232,-0.88944 -0.5018,-0.13496 -1.09788,0.0215 -1.52816,0.43638 -0.70215,0.67633 -1.06829,1.60849 -1.35296,3.00845 z"
       id="path3962"
       inkscape:connector-curvature="0"
       sodipodi:nodetypes="cssscscssssccc" />
    <path
       sodipodi:nodetypes="sccssssssccssssss"
       inkscape:connector-curvature="0"
       id="path3978"
       d="m 782.26187,881.46451 c 0.33355,-0.53612 0.40173,0.71084 0.50248,1.22324 l 2.11322,-0.0241 c -0.13798,-0.9621 -0.2915,-1.78004 -0.49323,-2.43616 -0.22328,-0.72623 -0.49806,-1.3702 -1.01539,-1.79656 -0.51734,-0.42635 -1.24216,-0.35437 -1.69653,-0.0247 -0.45436,0.32962 -0.77231,0.79756 -1.07753,1.33533 -1.22088,2.15106 -2.33175,5.92574 -3.4229,9.5149 -1.08756,3.57741 -2.27456,7.46048 -3.15295,8.87236 -0.33355,0.53612 -0.43468,-0.71046 -0.53542,-1.22286 l -2.08028,0.0237 c 0.13798,0.96211 0.2915,1.78003 0.49323,2.43615 0.22327,0.72624 0.49806,1.3702 1.01539,1.79657 0.51734,0.42635 1.24215,0.35436 1.69653,0.0248 0.45436,-0.32962 0.77231,-0.79755 1.07753,-1.33531 1.22087,-2.15108 2.33175,-5.92575 3.4229,-9.51491 1.08756,-3.5774 2.27456,-7.46047 3.15295,-8.87236 z"
       style="color:#000000;font-style:normal;font-variant:normal;font-weight:normal;font-stretch:normal;font-size:medium;line-height:normal;font-family:Sans;-inkscape-font-specification:Sans;text-indent:0;text-align:start;text-decoration:none;text-decoration-line:none;letter-spacing:normal;word-spacing:normal;text-transform:none;direction:ltr;block-progression:tb;writing-mode:lr-tb;baseline-shift:baseline;text-anchor:start;display:inline;overflow:visible;visibility:visible;fill:#808080;fill-opacity:1;stroke:#000000;stroke-width:0.60681629;stroke-linejoin:bevel;stroke-miterlimit:4;stroke-dasharray:none;stroke-opacity:1;marker:none;enable-background:accumulate" />
    <path
       style="color:#000000;font-style:normal;font-variant:normal;font-weight:normal;font-stretch:normal;font-size:medium;line-height:normal;font-family:Sans;-inkscape-font-specification:Sans;text-indent:0;text-align:start;text-decoration:none;text-decoration-line:none;letter-spacing:normal;word-spacing:normal;text-transform:none;direction:ltr;block-progression:tb;writing-mode:lr-tb;baseline-shift:baseline;text-anchor:start;display:inline;overflow:visible;visibility:visible;fill:#808080;fill-opacity:1;stroke:#000000;stroke-width:0.60681629;stroke-linejoin:bevel;stroke-miterlimit:4;stroke-dasharray:none;stroke-opacity:1;marker:none;enable-background:accumulate"
       d="m 767.67742,881.63084 c 0.33355,-0.53612 0.40173,0.71085 0.50248,1.22324 l 2.11322,-0.0241 c -0.13799,-0.96211 -0.2915,-1.78004 -0.49323,-2.43616 -0.22328,-0.72623 -0.49805,-1.3702 -1.01539,-1.79656 -0.51734,-0.42636 -1.24216,-0.35438 -1.69652,-0.0248 -0.45437,0.32962 -0.77232,0.79756 -1.07754,1.33532 -1.22088,2.15106 -2.33175,5.92575 -3.4229,9.51491 -1.08756,3.5774 -2.27456,7.46047 -3.15295,8.87236 -0.33354,0.53612 -0.43468,-0.71047 -0.53542,-1.22286 l -2.08028,0.0237 c 0.13798,0.96211 0.2915,1.78003 0.49323,2.43616 0.22327,0.72624 0.49805,1.37019 1.01539,1.79656 0.51735,0.42636 1.24215,0.35437 1.69652,0.0248 0.45436,-0.32963 0.77232,-0.79755 1.07754,-1.33532 1.22087,-2.15107 2.33175,-5.92575 3.4229,-9.5149 1.08756,-3.57741 2.27455,-7.46048 3.15295,-8.87237 z"
       id="path3980"
       inkscape:connector-curvature="0"
       sodipodi:nodetypes="sccssssssccssssss" />
    <path
       sodipodi:nodetypes="sccssssssccssssss"
       inkscape:connector-curvature="0"
       id="path3982"
       d="m 753.09297,881.79718 c 0.33354,-0.53612 0.40173,0.71084 0.50248,1.22324 l 2.11321,-0.0241 c -0.13798,-0.96211 -0.2915,-1.78004 -0.49322,-2.43617 -0.22328,-0.72623 -0.49806,-1.3702 -1.0154,-1.79655 -0.51734,-0.42636 -1.24215,-0.35438 -1.69652,-0.0248 -0.45436,0.32963 -0.77231,0.79756 -1.07753,1.33533 -1.22088,2.15106 -2.33176,5.92574 -3.4229,9.5149 -1.08757,3.57741 -2.27456,7.46048 -3.15296,8.87237 -0.33354,0.53611 -0.43467,-0.71047 -0.53543,-1.22287 l -2.08027,0.0237 c 0.13799,0.96211 0.29151,1.78003 0.49323,2.43615 0.22328,0.72624 0.49805,1.3702 1.0154,1.79657 0.51734,0.42636 1.24215,0.35437 1.69651,0.0248 0.45437,-0.32962 0.77233,-0.79755 1.07754,-1.33531 1.22088,-2.15108 2.33176,-5.92575 3.42291,-9.51491 1.08756,-3.5774 2.27455,-7.46047 3.15295,-8.87236 z"
       style="color:#000000;font-style:normal;font-variant:normal;font-weight:normal;font-stretch:normal;font-size:medium;line-height:normal;font-family:Sans;-inkscape-font-specification:Sans;text-indent:0;text-align:start;text-decoration:none;text-decoration-line:none;letter-spacing:normal;word-spacing:normal;text-transform:none;direction:ltr;block-progression:tb;writing-mode:lr-tb;baseline-shift:baseline;text-anchor:start;display:inline;overflow:visible;visibility:visible;fill:#808080;fill-opacity:1;stroke:#000000;stroke-width:0.60681629;stroke-linejoin:bevel;stroke-miterlimit:4;stroke-dasharray:none;stroke-opacity:1;marker:none;enable-background:accumulate" />
    <path
       style="fill:none;fill-rule:evenodd;stroke:#000000;stroke-width:3;stroke-linecap:butt;stroke-linejoin:miter;stroke-miterlimit:4;stroke-dasharray:none;stroke-opacity:1"
       d="m 636.40334,911.92966 c 0,-2.46937 -1.21956,-9.81697 -3.65867,-16.62203 m -3.58826,-7.68033 c -2.11946,-3.37315 -4.70381,-5.69764 -7.75307,-5.69764 -3.2386,0 -5.42835,2.09771 -6.56924,4.93439 m -0.12828,9.79717 c 1.10053,3.00449 3.33304,5.26844 6.69752,5.26844 10,0 10,-20 15,-20 1.57457,0 2.15743,1.98341 2.37319,4.70101 m 0.21766,10.08573 c 0.18343,2.97699 0.73722,5.21326 2.40915,5.21326 5,0 0,-20 5,-20 1.57226,0 2.15572,1.97761 2.37224,4.68909 m 0.21804,10.08844 c 0.18286,2.98159 0.73607,5.22247 2.40972,5.22247 5,0 0,-20 5,-20 1.25013,0 1.87513,1.87538 2.34389,4.68835 m 1.3921,10.22729 c 1.24533,7.52802 3.73589,15.08436 11.26401,15.08436 7.55885,0 11.30862,-7.61817 12.52897,-15.17656 m 0.14606,-10.02117 c -0.4622,-2.87615 -1.4081,-4.80227 -2.67503,-4.80227 -5,0 0,20 -5,20 -1.67364,0 -2.22685,-2.24084 -2.40971,-5.22239 m -0.21885,-10.09849 c -0.21715,-2.70636 -0.80111,-4.67912 -2.37144,-4.67912 -5,0 -7,18 0,25 0.78017,0.78017 1.7094,1.37401 2.76001,1.81199 m 8.24486,0.96225 c 8.40036,-0.54591 18.87409,-4.12687 25.99513,-4.77424 11,-1 9,5 0,6 -9,1 -15.59367,-0.28798 -22,2"
       id="path5107"
       inkscape:connector-curvature="0"
       sodipodi:nodetypes="csccssccssccssccsccssccszzzc"
       inkscape:path-effect="#path-effect5113"
       inkscape:original-d="m 636.40334,911.92966 c 0,-5 -5,-30 -15,-30 -3.2386,0 -5.42835,2.09771 -6.56924,4.93439 m -0.12828,9.79717 c 1.10053,3.00449 3.33304,5.26844 6.69752,5.26844 10,0 10,-20 15,-20 1.57457,0 2.15743,1.98341 2.37319,4.70101 m 0.21766,10.08573 c 0.18343,2.97699 0.73722,5.21326 2.40915,5.21326 5,0 0,-20 5,-20 1.57226,0 2.15572,1.97761 2.37224,4.68909 m 0.21804,10.08844 c 0.18286,2.98159 0.73607,5.22247 2.40972,5.22247 5,0 0,-20 5,-20 1.25013,0 1.87513,1.87538 2.34389,4.68835 m 1.3921,10.22729 c 1.24533,7.52802 3.73589,15.08436 11.26401,15.08436 7.55885,0 11.30862,-7.61817 12.52897,-15.17656 m 0.14606,-10.02117 c -0.4622,-2.87615 -1.4081,-4.80227 -2.67503,-4.80227 -5,0 0,20 -5,20 -1.67364,0 -2.22685,-2.24084 -2.40971,-5.22239 m -0.21885,-10.09849 c -0.21715,-2.70636 -0.80111,-4.67912 -2.37144,-4.67912 -5,0 -7,18 0,25 7,7 26,-1 37,-2 11,-1 9,5 0,6 -9,1 -15.59367,-0.28798 -22,2" />
    <path
       id="path5123"
       style="fill:none;fill-rule:evenodd;stroke:#000000;stroke-width:1px;stroke-linecap:butt;stroke-linejoin:miter;stroke-opacity:1"
       d="m 694.04676,905.22641 1.58381,8.85954 m -1.96879,0.35197 -1.58381,-8.85955 m -1.96879,0.35195 1.58381,8.85955 m -3.5526,-8.50758 1.58381,8.85954"
       inkscape:connector-curvature="0" />
  </g>
</svg>
