<?xml version="1.0" encoding="UTF-8" standalone="no"?>
<!-- Created with Inkscape (http://www.inkscape.org/) -->

<svg
   xmlns:dc="http://purl.org/dc/elements/1.1/"
   xmlns:cc="http://creativecommons.org/ns#"
   xmlns:rdf="http://www.w3.org/1999/02/22-rdf-syntax-ns#"
   xmlns:svg="http://www.w3.org/2000/svg"
   xmlns="http://www.w3.org/2000/svg"
   xmlns:sodipodi="http://sodipodi.sourceforge.net/DTD/sodipodi-0.dtd"
   xmlns:inkscape="http://www.inkscape.org/namespaces/inkscape"
   width="114.58846"
   height="112.43205"
   id="svg3080"
   version="1.1"
   inkscape:version="0.91 r13725"
   sodipodi:docname="Cleat_hitch_with_stop.svg">
  <defs
     id="defs3082">
    <inkscape:path-effect
       crossing_points_vector="434.78523 | 911.08164 | 0 | 0 | 6 | 11 | 0.50811429 | 2.7336474 | -1 | 438.64227 | 921.21796 | 0 | 0 | 5 | 12 | 0.41529289 | 4.0917779 | 1 | 428.54404 | 899.42731 | 0 | 0 | 7 | 18 | 0.62997878 | 6.723198 | -1 | 441.67604 | 931.92713 | 0 | 0 | 4 | 19 | 0.32411603 | 7.9954341 | 1 | 421.36699 | 890.63044 | 0 | 0 | 8 | 25 | 0.74589773 | 10.698795 | -1 | 443.98258 | 943.23205 | 0 | 0 | 2 | 27 | 0.23193661 | 12.144234 | 1 | 442.84324 | 937.13889 | 0 | 0 | 3 | 28 | 0.28127092 | 12.913297 | 1 | 445.73097 | 956.92275 | 0 | 0 | 0 | 31 | 0.12223538 | 14.015255 | 1 | 444.90663 | 949.41091 | 0 | 0 | 1 | 32 | 0.18237408 | 14.675067 | 1 | 432.61015 | 915.99506 | 0 | 0 | 10 | 13 | 2.6393758 | 4.2853613 | 1 | 427.29889 | 926.63063 | 0 | 0 | 9 | 20 | 2.4492664 | 8.267711 | 1 | 424.41862 | 906.05533 | 0 | 0 | 14 | 17 | 4.5194394 | 6.5992083 | -1 | 416.16971 | 897.74755 | 0 | 0 | 15 | 24 | 4.7178278 | 10.57016 | -1 | 418.38806 | 917.80399 | 0 | 0 | 16 | 21 | 6.4007926 | 8.4805606 | 1 | 410.83657 | 908.59898 | 0 | 0 | 22 | 23 | 8.695015 | 10.386916 | -1 | 455.09517 | 940.31898 | 0 | 0 | 26 | 29 | 11.934076 | 13.261572 | 1 | 457.64831 | 947.2469 | 0 | 0 | 30 | 33 | 13.510576 | 14.893302 | 1"
       switcher_size="15"
       add_other_stroke_width="false"
       add_stroke_width="true"
       prop_to_stroke_width="false"
       interruption_width="3"
       is_visible="true"
       id="path-effect4598"
       effect="knot" />
    <inkscape:path-effect
       effect="knot"
       id="path-effect4594"
       is_visible="true"
       interruption_width="3"
       prop_to_stroke_width="false"
       add_stroke_width="true"
       add_other_stroke_width="false"
       switcher_size="15"
       crossing_points_vector="556.01111 | 921.91441 | 0 | 3 | 5 | 0 | 0.90632389 | 1.0130741 | 1 | 558.84682 | 931.71872 | 0 | 5 | 4 | 0 | 0.72172047 | 0.8970092 | 1 | 561.00285 | 943.00402 | 0 | 7 | 2 | 1 | 0.51778578 | 1.0999058 | 1 | 559.98818 | 936.9605 | 0 | 7 | 3 | 2 | 0.62621357 | 1.9674907 | 1 | 562.14345 | 956.91306 | 0 | 7 | 0 | 5 | 0.27091315 | 2.9832727 | 1 | 561.69109 | 948.91312 | 0 | 7 | 1 | 6 | 0.41276747 | 3.7142061 | 1 | 544.2122 | 898.56583 | 1 | 4 | 0 | 2 | 0.18792397 | 1.7415137 | -1 | 536.69531 | 890.2803 | 1 | 6 | 1 | 2 | 0.43905655 | 1.7057733 | -1 | 547.61016 | 915.99506 | 2 | 3 | 1 | 1 | 1.6393758 | 1.2853613 | 1 | 542.29889 | 926.63065 | 2 | 5 | 0 | 1 | 1.449266 | 1.2677104 | 1 | 539.41861 | 906.0553 | 3 | 4 | 2 | 1 | 1.51944 | 1.5992088 | -1 | 531.16969 | 897.74753 | 3 | 6 | 3 | 1 | 1.7178284 | 1.5701602 | -1 | 533.38803 | 917.80399 | 4 | 5 | 0 | 2 | 1.4007926 | 1.4805606 | 1 | 525.83654 | 908.59898 | 5 | 6 | 3 | 0 | 1.695015 | 1.3869158 | -1 | 570.09514 | 940.31897 | 7 | 7 | 0 | 3 | 0.84069223 | 2.2615715 | 1 | 572.64828 | 947.2469 | 7 | 7 | 4 | 7 | 2.5105762 | 3.8933023 | 1" />
    <inkscape:path-effect
       effect="knot"
       id="path-effect4417"
       is_visible="true"
       interruption_width="3"
       prop_to_stroke_width="false"
       add_stroke_width="true"
       add_other_stroke_width="false"
       switcher_size="15"
       crossing_points_vector="558.41731 | 906.31179 | 0 | 0 | 2 | 11 | 0.58968291 | 2.7591652 | -1 | 561.0862 | 920.80901 | 0 | 0 | 1 | 12 | 0.41995613 | 4.107212 | 1 | 552.7363 | 894.68 | 0 | 0 | 3 | 22 | 0.75505816 | 6.7511063 | -1 | 561.71575 | 935.24249 | 0 | 0 | 0 | 23 | 0.25248331 | 8.1237966 | 1 | 520.35106 | 894.8503 | 0 | 0 | 4 | 17 | 1.2671836 | 4.6918839 | 1 | 522.43179 | 923.04342 | 0 | 0 | 7 | 18 | 1.7149222 | 6.3470458 | 1 | 517.51047 | 907.69324 | 0 | 0 | 5 | 28 | 1.4742525 | 8.6593338 | -1 | 517.52028 | 907.86816 | 0 | 0 | 6 | 29 | 1.4768501 | 10.529778 | -1 | 553.30696 | 916.86094 | 0 | 0 | 10 | 13 | 2.5015271 | 4.2396969 | -1 | 546.62048 | 928.05549 | 0 | 0 | 8 | 25 | 2.2250433 | 8.3046264 | 1 | 552.55753 | 918.62492 | 0 | 0 | 9 | 34 | 2.4622558 | 11.529243 | -1 | 538.83537 | 907.02609 | 0 | 0 | 15 | 20 | 4.4503813 | 6.5657602 | 1 | 525.4333 | 897.90929 | 0 | 0 | 16 | 31 | 4.6269238 | 10.737239 | 1 | 551.96279 | 916.03052 | 0 | 0 | 14 | 33 | 4.2607778 | 11.496515 | -1 | 529.41774 | 916.39386 | 0 | 0 | 19 | 26 | 6.4401921 | 8.508931 | 1 | 546.29903 | 899.98544 | 0 | 0 | 21 | 32 | 6.6652759 | 11.264482 | 1 | 517.59976 | 907.75707 | 0 | 0 | 27 | 30 | 8.6581506 | 10.5319 | -1 | 554.94215 | 932.53652 | 0 | 0 | 24 | 35 | 8.2060043 | 11.702311 | -1" />
    <inkscape:path-effect
       effect="knot"
       id="path-effect4708"
       is_visible="true"
       interruption_width="3"
       prop_to_stroke_width="false"
       add_stroke_width="true"
       add_other_stroke_width="false"
       switcher_size="15"
       crossing_points_vector="522.63062 | 913.4111 | 0 | 2 | 0 | 2 | 0.60193873 | 1.8659494 | -1 | 533.15927 | 907.78107 | 1 | 2 | 0 | 1 | 1.6099059 | 1.5198496 | 1 | 530.95517 | 898.72618 | 1 | 3 | 1 | 1 | 2.9290366 | 3.1179079 | -1 | 542.71048 | 904.89725 | 2 | 3 | 0 | 2 | 1.2423338 | 3.4288237 | 1 | 554.95842 | 915.28613 | 3 | 3 | 0 | 3 | 1.1199966 | 3.7232273 | 1" />
    <inkscape:path-effect
       effect="knot"
       id="path-effect4374"
       is_visible="true"
       interruption_width="3"
       prop_to_stroke_width="false"
       add_stroke_width="true"
       add_other_stroke_width="false"
       switcher_size="15"
       crossing_points_vector="539.03782 | 904.6588 | 0 | 1 | 1 | 0 | 0.61108018 | 0.99945645 | -1 | 531.91447 | 908.60528 | 0 | 2 | 0 | 0 | 0.41536372 | 0.21329414 | -1" />
    <inkscape:path-effect
       effect="knot"
       id="path-effect4409"
       is_visible="true"
       interruption_width="3"
       prop_to_stroke_width="false"
       add_stroke_width="true"
       add_other_stroke_width="false"
       switcher_size="15"
       crossing_points_vector="538.18689 | 905.50106 | 1 | 2 | 1 | 0 | 1.5477632 | 1.4522348 | -1 | 541.02248 | 901.33554 | 1 | 2 | 0 | 1 | 1.3587239 | 2.6119522 | 1" />
    <inkscape:path-effect
       effect="knot"
       id="path-effect4383"
       is_visible="true"
       interruption_width="3"
       prop_to_stroke_width="false"
       add_stroke_width="true"
       add_other_stroke_width="false"
       switcher_size="15"
       crossing_points_vector="551.02408 | 901.55463 | 0 | 1 | 0 | 1 | 1.0256903 | 1.340415 | 1 | 545.80828 | 897.62041 | 0 | 1 | 1 | 2 | 1.4958594 | 2.389318 | -1 | 539.75993 | 906.83519 | 1 | 1 | 0 | 3 | 0.94162732 | 2.5685911 | 1" />
    <inkscape:path-effect
       crossing_points_vector="439.73912 | 879.02954 | 0 | 0 | 0 | 1 | 1.1016633 | 3.6941086 | -1"
       switcher_size="15"
       add_other_stroke_width="false"
       add_stroke_width="true"
       prop_to_stroke_width="false"
       interruption_width="3"
       is_visible="true"
       id="path-effect4583"
       effect="knot" />
    <inkscape:path-effect
       effect="knot"
       id="path-effect4441"
       is_visible="true"
       interruption_width="3"
       prop_to_stroke_width="false"
       add_stroke_width="true"
       add_other_stroke_width="false"
       switcher_size="15"
       crossing_points_vector="489.73912 | 879.02954 | 1 | 3 | 0 | 0 | 1.1016631 | 1.6941086 | -1" />
    <inkscape:path-effect
       effect="knot"
       id="path-effect4510"
       is_visible="true"
       interruption_width="3"
       prop_to_stroke_width="false"
       add_stroke_width="true"
       add_other_stroke_width="false"
       switcher_size="15"
       crossing_points_vector="484.28907 | 907.85024 | 0 | 1 | 0 | 2 | 0.79751801 | 2.2762321 | -1 | 490.87878 | 878.00676 | 1 | 1 | 0 | 3 | 0.21748157 | 3.6781636 | 1 | 511.16212 | 891.94603 | 1 | 1 | 1 | 4 | 1.515595 | 3.9405603 | 1" />
    <inkscape:path-effect
       effect="knot"
       id="path-effect4508"
       is_visible="true"
       interruption_width="3"
       prop_to_stroke_width="false"
       add_stroke_width="true"
       add_other_stroke_width="false"
       switcher_size="15"
       crossing_points_vector="564.1571 | 881.92009 | 1 | 3 | 0 | 0 | 0.12640418 | 1.6324879 | 1" />
    <inkscape:path-effect
       effect="knot"
       id="path-effect4330"
       is_visible="true"
       interruption_width="3"
       prop_to_stroke_width="false"
       add_stroke_width="true"
       add_other_stroke_width="false"
       switcher_size="15"
       crossing_points_vector="574.10071 | 860.73008 | 1 | 2 | 1 | 0 | 1.4338181 | 1.4507078 | 1 | 568.50393 | 874.78897 | 1 | 3 | 0 | 0 | 1.1266988 | 0.27818176 | 1" />
    <inkscape:path-effect
       effect="knot"
       id="path-effect4293"
       is_visible="true"
       interruption_width="3"
       prop_to_stroke_width="false"
       add_stroke_width="true"
       add_other_stroke_width="false"
       switcher_size="15"
       crossing_points_vector="567.01813 | 924.14519 | 0 | 1 | 0 | 1 | 0.35366327 | 1.5474674 | -1 | 556.98282 | 912.38322 | 0 | 1 | 1 | 2 | 0.65933317 | 2.2172825 | -1 | 570.86864 | 888.12159 | 1 | 1 | 0 | 3 | 0.56147773 | 2.5940693 | -1" />
    <inkscape:path-effect
       crossing_points_vector="563.34662 | 878.32875 | 0 | 0 | 0 | 1 | 0.57478741 | 4.7005785 | -1"
       switcher_size="15"
       add_other_stroke_width="false"
       add_stroke_width="true"
       prop_to_stroke_width="false"
       interruption_width="3"
       is_visible="true"
       id="path-effect4381"
       effect="knot" />
    <inkscape:path-effect
       effect="knot"
       id="path-effect9059"
       is_visible="true"
       interruption_width="3"
       prop_to_stroke_width="false"
       add_stroke_width="true"
       add_other_stroke_width="false"
       switcher_size="15"
       crossing_points_vector="563.34662 | 878.32875 | 0 | 0 | 0 | 1 | 0.57478741 | 4.7005785 | -1" />
    <inkscape:path-effect
       effect="simplify"
       id="path-effect1032"
       is_visible="true"
       steps="1"
       threshold="0.00243902"
       smooth_angles="360"
       helper_size="0"
       simplify_individual_paths="false"
       simplify_just_coalesce="false"
       simplifyindividualpaths="false"
       simplifyJustCoalesce="false" />
    <marker
       inkscape:stockid="Arrow2Mend"
       orient="auto"
       refY="0"
       refX="0"
       id="Arrow2Mend"
       style="overflow:visible"
       inkscape:isstock="true">
      <path
         id="path908"
         style="fill:#ff0000;fill-opacity:1;fill-rule:evenodd;stroke:#ff0000;stroke-width:0.625;stroke-linejoin:round;stroke-opacity:1"
         d="M 8.7185878,4.0337352 -2.2072895,0.01601326 8.7185884,-4.0017078 c -1.7454984,2.3720609 -1.7354408,5.6174519 -6e-7,8.035443 z"
         transform="scale(-0.6,-0.6)"
         inkscape:connector-curvature="0" />
    </marker>
    <marker
       inkscape:stockid="Arrow2Lend"
       orient="auto"
       refY="0"
       refX="0"
       id="Arrow2Lend"
       style="overflow:visible"
       inkscape:isstock="true">
      <path
         id="path902"
         style="fill:#fe0000;fill-opacity:1;fill-rule:evenodd;stroke:#fe0000;stroke-width:0.625;stroke-linejoin:round;stroke-opacity:1"
         d="M 8.7185878,4.0337352 -2.2072895,0.01601326 8.7185884,-4.0017078 c -1.7454984,2.3720609 -1.7354408,5.6174519 -6e-7,8.035443 z"
         transform="matrix(-1.1,0,0,-1.1,-1.1,0)"
         inkscape:connector-curvature="0" />
    </marker>
    <marker
       inkscape:stockid="Arrow1Lstart"
       orient="auto"
       refY="0"
       refX="0"
       id="Arrow1Lstart"
       style="overflow:visible"
       inkscape:isstock="true">
      <path
         id="path881"
         d="M 0,0 5,-5 -12.5,0 5,5 Z"
         style="fill:#fe0000;fill-opacity:1;fill-rule:evenodd;stroke:#fe0000;stroke-width:1pt;stroke-opacity:1"
         transform="matrix(0.8,0,0,0.8,10,0)"
         inkscape:connector-curvature="0" />
    </marker>
    <inkscape:path-effect
       effect="knot"
       id="path-effect840"
       is_visible="true"
       interruption_width="3"
       prop_to_stroke_width="false"
       add_stroke_width="true"
       add_other_stroke_width="false"
       switcher_size="15"
       crossing_points_vector="555.9833 | 747.10163 | 0 | 0 | 0 | 1 | 0.6803812 | 2.7128593 | -1 | 552.23485 | 788.43362 | 0 | 0 | 2 | 7 | 3.2447083 | 9.4155824 | 1 | 554.77393 | 832.80342 | 0 | 0 | 3 | 8 | 3.5338778 | 10.513978 | 1 | 526.40166 | 839.74908 | 0 | 0 | 4 | 9 | 6.8382141 | 11.291791 | -1 | 519.26725 | 810.88166 | 0 | 0 | 5 | 10 | 7.6725215 | 12.32748 | -1 | 526.37124 | 784.03924 | 0 | 0 | 6 | 11 | 8.7301526 | 12.955812 | -1" />
    <filter
       id="filter3111"
       inkscape:label="Outline, double"
       inkscape:menu="Morphology"
       inkscape:menu-tooltip="Draws a smooth line inside colorized with the color it overlays"
       style="color-interpolation-filters:sRGB">
      <feGaussianBlur
         id="feGaussianBlur3113"
         stdDeviation="3"
         in="SourceAlpha"
         result="result1" />
      <feComposite
         id="feComposite3115"
         in2="result1"
         operator="arithmetic"
         k2="3.2"
         k1="-1"
         k4="-2"
         result="result3"
         k3="0" />
      <feColorMatrix
         id="feColorMatrix3117"
         values="0 0 0 0 0 0 1 0 0 0 0 0 1 0 0 0 0 0 10 0 "
         result="result2" />
      <feComposite
         id="feComposite3119"
         in2="result2"
         result="fbSourceGraphic"
         in="SourceGraphic"
         operator="out" />
      <feGaussianBlur
         id="feGaussianBlur3121"
         in="fbSourceGraphic"
         stdDeviation="0.5"
         result="result4" />
      <feComposite
         id="feComposite3123"
         in2="result4"
         operator="xor"
         in="result4"
         result="result5" />
      <feBlend
         id="feBlend3125"
         in2="result5"
         result="result6"
         mode="darken"
         in="result5" />
      <feBlend
         id="feBlend3127"
         in2="result6"
         in="result6"
         mode="darken" />
    </filter>
    <inkscape:path-effect
       effect="knot"
       id="path-effect840-2"
       is_visible="true"
       interruption_width="3"
       prop_to_stroke_width="false"
       add_stroke_width="true"
       add_other_stroke_width="false"
       switcher_size="15"
       crossing_points_vector="403.23988 | 875.24536 | 0 | 0 | 0 | 3 | 0.30583405 | 3.7905355 | -1 | 434.69018 | 856.18644 | 0 | 0 | 1 | 4 | 0.64654265 | 5.6367509 | 1 | 461.39463 | 867.49793 | 0 | 0 | 2 | 5 | 2.013941 | 6.3359148 | 1" />
    <marker
       inkscape:stockid="Arrow2Mend"
       orient="auto"
       refY="0"
       refX="0"
       id="Arrow2Mend-2"
       style="overflow:visible">
      <path
         id="path3886"
         style="fill-rule:evenodd;stroke-width:0.625;stroke-linejoin:round"
         d="M 8.7185878,4.0337352 -2.2072895,0.01601326 8.7185884,-4.0017078 c -1.7454984,2.3720609 -1.7354408,5.6174519 -6e-7,8.035443 z"
         transform="scale(-0.6,-0.6)"
         inkscape:connector-curvature="0" />
    </marker>
    <marker
       inkscape:stockid="Arrow2Mend"
       orient="auto"
       refY="0"
       refX="0"
       id="marker910"
       style="overflow:visible">
      <path
         id="path908-3"
         style="fill-rule:evenodd;stroke-width:0.625;stroke-linejoin:round"
         d="M 8.7185878,4.0337352 -2.2072895,0.01601326 8.7185884,-4.0017078 c -1.7454984,2.3720609 -1.7354408,5.6174519 -6e-7,8.035443 z"
         transform="scale(-0.6,-0.6)"
         inkscape:connector-curvature="0" />
    </marker>
    <marker
       inkscape:stockid="Arrow2Mend"
       orient="auto"
       refY="0"
       refX="0"
       id="marker914"
       style="overflow:visible">
      <path
         id="path912"
         style="fill-rule:evenodd;stroke-width:0.625;stroke-linejoin:round"
         d="M 8.7185878,4.0337352 -2.2072895,0.01601326 8.7185884,-4.0017078 c -1.7454984,2.3720609 -1.7354408,5.6174519 -6e-7,8.035443 z"
         transform="scale(-0.6,-0.6)"
         inkscape:connector-curvature="0" />
    </marker>
    <marker
       inkscape:stockid="Arrow2Mend"
       orient="auto"
       refY="0"
       refX="0"
       id="marker918"
       style="overflow:visible">
      <path
         id="path916"
         style="fill-rule:evenodd;stroke-width:0.625;stroke-linejoin:round"
         d="M 8.7185878,4.0337352 -2.2072895,0.01601326 8.7185884,-4.0017078 c -1.7454984,2.3720609 -1.7354408,5.6174519 -6e-7,8.035443 z"
         transform="scale(-0.6,-0.6)"
         inkscape:connector-curvature="0" />
    </marker>
    <marker
       inkscape:stockid="Arrow2Mend"
       orient="auto"
       refY="0"
       refX="0"
       id="marker922"
       style="overflow:visible">
      <path
         id="path920"
         style="fill-rule:evenodd;stroke-width:0.625;stroke-linejoin:round"
         d="M 8.7185878,4.0337352 -2.2072895,0.01601326 8.7185884,-4.0017078 c -1.7454984,2.3720609 -1.7354408,5.6174519 -6e-7,8.035443 z"
         transform="scale(-0.6,-0.6)"
         inkscape:connector-curvature="0" />
    </marker>
    <marker
       inkscape:stockid="Arrow2Mend"
       orient="auto"
       refY="0"
       refX="0"
       id="marker926"
       style="overflow:visible">
      <path
         id="path924"
         style="fill-rule:evenodd;stroke-width:0.625;stroke-linejoin:round"
         d="M 8.7185878,4.0337352 -2.2072895,0.01601326 8.7185884,-4.0017078 c -1.7454984,2.3720609 -1.7354408,5.6174519 -6e-7,8.035443 z"
         transform="scale(-0.6,-0.6)"
         inkscape:connector-curvature="0" />
    </marker>
    <marker
       inkscape:stockid="Arrow2Mend"
       orient="auto"
       refY="0"
       refX="0"
       id="Arrow2Mend-23"
       style="overflow:visible">
      <path
         id="path3940"
         style="fill-rule:evenodd;stroke-width:0.625;stroke-linejoin:round"
         d="M 8.7185878,4.0337352 -2.2072895,0.01601326 8.7185884,-4.0017078 c -1.7454984,2.3720609 -1.7354408,5.6174519 -6e-7,8.035443 z"
         transform="scale(-0.6,-0.6)"
         inkscape:connector-curvature="0" />
    </marker>
    <marker
       inkscape:stockid="Arrow2Mend"
       orient="auto"
       refY="0"
       refX="0"
       id="marker890"
       style="overflow:visible">
      <path
         id="path888"
         style="fill-rule:evenodd;stroke-width:0.625;stroke-linejoin:round"
         d="M 8.7185878,4.0337352 -2.2072895,0.01601326 8.7185884,-4.0017078 c -1.7454984,2.3720609 -1.7354408,5.6174519 -6e-7,8.035443 z"
         transform="scale(-0.6,-0.6)"
         inkscape:connector-curvature="0" />
    </marker>
    <marker
       inkscape:stockid="Arrow2Mend"
       orient="auto"
       refY="0"
       refX="0"
       id="marker894"
       style="overflow:visible">
      <path
         id="path892"
         style="fill-rule:evenodd;stroke-width:0.625;stroke-linejoin:round"
         d="M 8.7185878,4.0337352 -2.2072895,0.01601326 8.7185884,-4.0017078 c -1.7454984,2.3720609 -1.7354408,5.6174519 -6e-7,8.035443 z"
         transform="scale(-0.6,-0.6)"
         inkscape:connector-curvature="0" />
    </marker>
    <marker
       inkscape:stockid="Arrow2Mend"
       orient="auto"
       refY="0"
       refX="0"
       id="marker898"
       style="overflow:visible">
      <path
         id="path896"
         style="fill-rule:evenodd;stroke-width:0.625;stroke-linejoin:round"
         d="M 8.7185878,4.0337352 -2.2072895,0.01601326 8.7185884,-4.0017078 c -1.7454984,2.3720609 -1.7354408,5.6174519 -6e-7,8.035443 z"
         transform="scale(-0.6,-0.6)"
         inkscape:connector-curvature="0" />
    </marker>
    <marker
       inkscape:stockid="Arrow2Mend"
       orient="auto"
       refY="0"
       refX="0"
       id="Arrow2Mend-237"
       style="overflow:visible">
      <path
         id="path3837"
         style="fill-rule:evenodd;stroke-width:0.625;stroke-linejoin:round"
         d="M 8.7185878,4.0337352 -2.2072895,0.01601326 8.7185884,-4.0017078 c -1.7454984,2.3720609 -1.7354408,5.6174519 -6e-7,8.035443 z"
         transform="scale(-0.6,-0.6)"
         inkscape:connector-curvature="0" />
    </marker>
    <marker
       inkscape:stockid="Arrow2Mend"
       orient="auto"
       refY="0"
       refX="0"
       id="marker4177"
       style="overflow:visible">
      <path
         id="path4179"
         style="fill-rule:evenodd;stroke-width:0.625;stroke-linejoin:round"
         d="M 8.7185878,4.0337352 -2.2072895,0.01601326 8.7185884,-4.0017078 c -1.7454984,2.3720609 -1.7354408,5.6174519 -6e-7,8.035443 z"
         transform="scale(-0.6,-0.6)"
         inkscape:connector-curvature="0" />
    </marker>
    <inkscape:path-effect
       crossing_points_vector="566.40336 | 819.48052 | 0 | 1 | 0 | 0 | 0.44550334 | 1.2743027 | 1"
       switcher_size="15"
       add_other_stroke_width="false"
       add_stroke_width="true"
       prop_to_stroke_width="false"
       interruption_width="3"
       is_visible="true"
       id="path-effect4381-2"
       effect="knot" />
    <marker
       inkscape:stockid="Arrow2Mend"
       orient="auto"
       refY="0"
       refX="0"
       id="Arrow2Mend-2375"
       style="overflow:visible">
      <path
         id="path3837-9"
         style="fill-rule:evenodd;stroke-width:0.625;stroke-linejoin:round"
         d="M 8.7185878,4.0337352 -2.2072895,0.01601326 8.7185884,-4.0017078 c -1.7454984,2.3720609 -1.7354408,5.6174519 -6e-7,8.035443 z"
         transform="scale(-0.6,-0.6)"
         inkscape:connector-curvature="0" />
    </marker>
    <marker
       inkscape:stockid="Arrow2Mend"
       orient="auto"
       refY="0"
       refX="0"
       id="marker4179"
       style="overflow:visible">
      <path
         id="path4181"
         style="fill-rule:evenodd;stroke-width:0.625;stroke-linejoin:round"
         d="M 8.7185878,4.0337352 -2.2072895,0.01601326 8.7185884,-4.0017078 c -1.7454984,2.3720609 -1.7354408,5.6174519 -6e-7,8.035443 z"
         transform="scale(-0.6,-0.6)"
         inkscape:connector-curvature="0" />
    </marker>
    <marker
       inkscape:stockid="Arrow2Mend"
       orient="auto"
       refY="0"
       refX="0"
       id="marker4183"
       style="overflow:visible">
      <path
         id="path4185"
         style="fill-rule:evenodd;stroke-width:0.625;stroke-linejoin:round"
         d="M 8.7185878,4.0337352 -2.2072895,0.01601326 8.7185884,-4.0017078 c -1.7454984,2.3720609 -1.7354408,5.6174519 -6e-7,8.035443 z"
         transform="scale(-0.6,-0.6)"
         inkscape:connector-curvature="0" />
    </marker>
    <marker
       inkscape:stockid="Arrow2Mend"
       orient="auto"
       refY="0"
       refX="0"
       id="marker4187"
       style="overflow:visible">
      <path
         id="path4189"
         style="fill-rule:evenodd;stroke-width:0.625;stroke-linejoin:round"
         d="M 8.7185878,4.0337352 -2.2072895,0.01601326 8.7185884,-4.0017078 c -1.7454984,2.3720609 -1.7354408,5.6174519 -6e-7,8.035443 z"
         transform="scale(-0.6,-0.6)"
         inkscape:connector-curvature="0" />
    </marker>
    <marker
       inkscape:stockid="Arrow1Mend"
       orient="auto"
       refY="0"
       refX="0"
       id="Arrow1Mend"
       style="overflow:visible"
       inkscape:isstock="true">
      <path
         id="path4161"
         d="M 0,0 5,-5 -12.5,0 5,5 0,0 Z"
         style="fill:#ff0000;fill-opacity:1;fill-rule:evenodd;stroke:#ff0000;stroke-width:1pt;stroke-opacity:1"
         transform="matrix(-0.4,0,0,-0.4,-4,0)"
         inkscape:connector-curvature="0" />
    </marker>
    <marker
       inkscape:stockid="Arrow1Mend"
       orient="auto"
       refY="0"
       refX="0"
       id="marker4269"
       style="overflow:visible"
       inkscape:isstock="true">
      <path
         id="path4271"
         d="M 0,0 5,-5 -12.5,0 5,5 0,0 Z"
         style="fill:#ff0000;fill-opacity:1;fill-rule:evenodd;stroke:#ff0000;stroke-width:1pt;stroke-opacity:1"
         transform="matrix(-0.4,0,0,-0.4,-4,0)"
         inkscape:connector-curvature="0" />
    </marker>
    <marker
       inkscape:stockid="Arrow1Mend"
       orient="auto"
       refY="0"
       refX="0"
       id="Arrow1Mend-8"
       style="overflow:visible"
       inkscape:isstock="true">
      <path
         id="path4161-9"
         d="M 0,0 5,-5 -12.5,0 5,5 0,0 Z"
         style="fill:#ff0000;fill-opacity:1;fill-rule:evenodd;stroke:#ff0000;stroke-width:1pt;stroke-opacity:1"
         transform="matrix(-0.4,0,0,-0.4,-4,0)"
         inkscape:connector-curvature="0" />
    </marker>
    <marker
       inkscape:stockid="Arrow1Mend"
       orient="auto"
       refY="0"
       refX="0"
       id="marker10242"
       style="overflow:visible"
       inkscape:isstock="true">
      <path
         id="path10244"
         d="M 0,0 5,-5 -12.5,0 5,5 0,0 Z"
         style="fill:#ff0000;fill-opacity:1;fill-rule:evenodd;stroke:#ff0000;stroke-width:1pt;stroke-opacity:1"
         transform="matrix(-0.4,0,0,-0.4,-4,0)"
         inkscape:connector-curvature="0" />
    </marker>
  </defs>
  <sodipodi:namedview
     id="base"
     pagecolor="#ffffff"
     bordercolor="#666666"
     borderopacity="1.0"
     inkscape:pageopacity="0.0"
     inkscape:pageshadow="2"
     inkscape:zoom="5.6"
     inkscape:cx="8.173391"
     inkscape:cy="55.590665"
     inkscape:document-units="px"
     inkscape:current-layer="layer1"
     showgrid="true"
     inkscape:object-paths="false"
     inkscape:window-width="1920"
     inkscape:window-height="1051"
     inkscape:window-x="0"
     inkscape:window-y="0"
     inkscape:window-maximized="1"
     inkscape:showpageshadow="false"
     fit-margin-top="5"
     fit-margin-left="5"
     fit-margin-right="5"
     fit-margin-bottom="5"
     inkscape:snap-intersection-paths="false"
     inkscape:snap-midpoints="false"
     inkscape:snap-smooth-nodes="false"
     inkscape:object-nodes="true"
     inkscape:snap-nodes="true">
    <inkscape:grid
       type="xygrid"
       id="grid838"
       originx="-172.65754"
       originy="235.18605" />
  </sodipodi:namedview>
  <metadata
     id="metadata3085">
    <rdf:RDF>
      <cc:Work
         rdf:about="">
        <dc:format>image/svg+xml</dc:format>
        <dc:type
           rdf:resource="http://purl.org/dc/dcmitype/StillImage" />
        <dc:title></dc:title>
      </cc:Work>
    </rdf:RDF>
  </metadata>
  <g
     inkscape:label="Layer 1"
     inkscape:groupmode="layer"
     id="layer1"
     transform="translate(-479.06088,-864.68366)">
    <path
       sodipodi:nodetypes="cccczcccczzzzz"
       inkscape:connector-curvature="0"
       d="m 531.40374,871.92966 -3.8e-4,34.8435 m 10e-6,10 -10e-6,35.1565 c 0,1.49447 2.91671,1.95707 5.00004,1.95707 2.08329,0 4.99994,-0.4626 4.99994,-1.95707 0.0266,-7.52681 0.0144,-26.16598 -0.002,-34.97797 m -0.0181,-10.08925 c -0.0138,-8.69416 -0.018,-27.50283 0.0201,-34.93278 m -4.90513,-1.86061 c -2.43481,0 -5.09485,0.49491 -5.09485,1.86061 0,1.36567 2.58561,1.86179 5.02043,1.86179 2.43475,0 4.97955,-0.49609 4.97955,-1.86179 0,-1.3657 -2.47039,-1.86061 -4.90513,-1.86061 z"
       style="display:inline;fill:#000000;fill-opacity:0;stroke:#000000;stroke-width:0.77078176;stroke-linecap:round;stroke-linejoin:round;stroke-miterlimit:4;stroke-dasharray:none;stroke-dashoffset:0;stroke-opacity:1;enable-background:new"
       id="path4372" />
    <path
       id="path4710"
       style="display:inline;fill:#000000;fill-opacity:0;stroke:#000000;stroke-width:0.77078176;stroke-linecap:round;stroke-linejoin:round;stroke-miterlimit:4;stroke-dasharray:none;stroke-dashoffset:0;stroke-opacity:1;enable-background:new"
       d="m 586.40334,906.92968 c -8.19189,1e-5 -26.21336,2e-5 -45.02867,2e-5 m -9.97526,-10e-6 c -18.80353,0 -36.80892,-1e-5 -44.99607,-1e-5 -1.49447,0 -1.95707,2.91671 -1.95707,5.00004 0,2.08329 0.4626,4.99994 1.95707,4.99994 8.18699,0.0289 26.19244,0.012 44.99605,-0.006 m 9.91211,-0.009 c 18.83828,-0.0169 36.89104,-0.0269 45.09184,0.0152 m 1.86061,-4.90513 c 0,-2.43481 -0.49491,-5.09485 -1.86061,-5.09485 -1.36567,0 -1.86179,2.58561 -1.86179,5.02043 0,2.43475 0.49609,4.97955 1.86179,4.97955 1.3657,0 1.86061,-2.47039 1.86061,-4.90513 z"
       inkscape:connector-curvature="0"
       sodipodi:nodetypes="cccczcccczzzzz" />
    <path
       style="fill:none;fill-rule:evenodd;stroke:#000000;stroke-width:3;stroke-linecap:butt;stroke-linejoin:miter;stroke-miterlimit:4;stroke-dasharray:none;stroke-opacity:1"
       d="m 561.40334,971.92966 c 0.49092,-3.92739 0.74084,-7.95119 0.76395,-12.0146 m -0.12798,-6.00036 c -0.12678,-2.64526 -0.34557,-5.29544 -0.65255,-7.93516 m -0.84212,-5.94061 c -0.30282,-1.80959 -0.64647,-3.60861 -1.02967,-5.392 m -1.41223,-5.84291 c -0.34449,-1.27998 -0.70956,-2.54847 -1.09471,-3.80347 m -2.101,-6.18058 c -0.20884,-0.55763 -0.42181,-1.11164 -0.63885,-1.66183 m -5.17311,-10.98369 c -0.98156,-1.7559 -2.01162,-3.44364 -3.0878,-5.05377 m -3.68903,-4.98675 c -1.10705,-1.34765 -2.25282,-2.61716 -3.43533,-3.80062 m -4.51838,-3.95556 c -5.41421,-4.09447 -11.45234,-6.44809 -17.96119,-6.44809 -13.04497,0 -20.41757,11.34475 -22.11779,24.16812 m -0.0821,11.00582 c 1.53228,13.09069 8.93225,24.82606 22.1999,24.82606 12.07732,0 19.29259,-5.6724 24.2556,-12.77626 m 3.13955,-5.15293 c 0.89225,-1.65969 1.70489,-3.34079 2.46577,-4.99808 m 2.67375,-6.03493 c 2.31313,-5.2327 4.42794,-9.51911 7.46533,-11.0378 3.75028,-1.87514 6.0941,0.4691 7.03146,4.13169 m -0.91861,11.05056 c -1.22555,2.78757 -3.26316,4.81775 -6.11285,4.81775 -4.64046,0 -9.28092,-6.46017 -14.92066,-13.38487 m -4.17119,-4.89946 c -1.22691,-1.35492 -2.5027,-2.67224 -3.83525,-3.90475 m -4.73598,-3.77844 c -3.66425,-2.44483 -7.73598,-4.03248 -12.33692,-4.03248 -8.0271,0 -12.83249,6.44344 -14.41615,14.15811 m -0.0989,11.17816 c 1.47481,7.93667 6.31315,14.66373 14.51501,14.66373 7.02727,0 11.58541,-4.93825 15.40955,-11.34451 m 3.07696,-5.64885 c 5.55845,-10.89431 10.50789,-23.00664 21.51349,-23.00664 7.92855,0 12.714,6.28618 14.35636,13.87452 m 0.18944,11.29315 c -1.43732,8.00977 -6.28592,14.83233 -14.5458,14.83233 -12.61443,0 -21.25076,-11.93428 -28.41807,-20.74843 m -4.36102,-5.01788 c -2.49493,-2.55858 -4.85792,-4.23369 -7.22091,-4.23369 -3.03389,0 -5.14733,1.8409 -6.34032,4.40567 m -0.20162,10.72719 c 1.14834,2.80253 3.32899,4.86714 6.54194,4.86714 10,0 10,-40 40,-40 13.65487,0 21.09456,11.3945 23.26203,24.28229 m 0.58368,11.26445 c -0.52049,8.52095 -3.21375,16.45239 -7.80972,20.95868 m -5.17319,3.24406 c -0.28332,0.0939 -0.57093,0.17755 -0.8628,0.25052 -17.79205,4.44801 -19.75625,-2.97487 -9.41271,-4.66801 m 6.06421,-0.24686 c 5.15524,0.54621 8.23387,3.64994 9.23588,7.25078 m -0.22596,6.03523 c -1.3231,3.65458 -4.87691,6.62886 -10.66142,6.62886 -9.70477,0 -11.03776,-4.18589 -2.64486,-7.14126 m 5.88615,-1.52161 c 4.31103,-0.81095 9.87715,-1.33713 16.75871,-1.33713"
       id="path4586"
       inkscape:connector-curvature="0"
       sodipodi:nodetypes="cccsccssccssccssccssccssccszzc"
       inkscape:path-effect="#path-effect4594"
       inkscape:original-d="m 561.40334,971.92966 c 2.25742,-18.05939 -0.58111,-38.15716 -7.13516,-54.77152 m -5.17311,-10.98369 c -8.06178,-14.42156 -19.39443,-24.24479 -32.69173,-24.24479 -13.04497,0 -20.41757,11.34475 -22.11779,24.16812 m -0.0821,11.00582 c 1.53228,13.09069 8.93225,24.82606 22.1999,24.82606 30,0 30,-35 40,-40 3.75028,-1.87514 6.0941,0.4691 7.03146,4.13169 m -0.91861,11.05056 c -1.22555,2.78757 -3.26316,4.81775 -6.11285,4.81775 -10,0 -20,-30 -40,-30 -8.0271,0 -12.83249,6.44344 -14.41615,14.15811 m -0.0989,11.17816 c 1.47481,7.93667 6.31315,14.66373 14.51501,14.66373 20,0 20,-40 40,-40 7.92855,0 12.714,6.28618 14.35636,13.87452 m 0.18944,11.29315 c -1.43732,8.00977 -6.28592,14.83233 -14.5458,14.83233 -20,0 -30,-30 -40,-30 -3.03389,0 -5.14733,1.8409 -6.34032,4.40567 m -0.20162,10.72719 c 1.14834,2.80253 3.32899,4.86714 6.54194,4.86714 10,0 10,-40 40,-40 13.65487,0 21.09456,11.3945 23.26203,24.28229 m 0.58368,11.26445 c -0.71791,11.75284 -5.56936,22.38417 -13.84571,24.45326 -20,5 -20,-5 -5,-5 15,0 15,20 0,20 -15,0 -10,-10 20,-10" />
    <path
       inkscape:original-d="m 446.40334,971.92966 c 0,-40 -15,-90 -45,-90 -30,0 -30,60 0,60 30,0 30,-35 40,-40 10,-5 10,20 0,20 -10,0 -20,-30 -40,-30 -20,0 -20,40 0,40 20,0 20,-40 40,-40 20,0 20,40 0,40 -20,0 -30,-30 -40,-30 -10,0 -10,20 0,20 10,0 10,-40 40,-40 30,0 30,55 10,60 -20,5 -20,-5 -5,-5 15,0 15,20 0,20 -15,0 -10,-10 20,-10"
       inkscape:path-effect="#path-effect4598"
       sodipodi:nodetypes="czzzzzzzzzzzzzzc"
       inkscape:connector-curvature="0"
       id="path4596"
       d="m 446.40334,971.92966 c 0,-3.92309 -0.14429,-7.94238 -0.43286,-12.00125 m -0.53067,-6.01239 c -0.27103,-2.57104 -0.59925,-5.14673 -0.98464,-7.71296 m -0.99812,-5.93767 c -0.33459,-1.7953 -0.69767,-3.58042 -1.08925,-5.35041 m -1.44699,-5.97446 c -0.33429,-1.26645 -0.68387,-2.52175 -1.04873,-3.76395 m -2.63651,-8.00496 c -0.28696,-0.77994 -0.58065,-1.55221 -0.88109,-2.31623 m -3.23032,-7.34735 c -0.91261,-1.85688 -1.87225,-3.6429 -2.87894,-5.34754 m -3.50383,-5.33086 c -1.05256,-1.43335 -2.14738,-2.78313 -3.28447,-4.04038 m -4.32986,-4.15515 c -5.1723,-4.25243 -11.08021,-6.70444 -17.72372,-6.70444 -30,0 -30,60 0,60 12.07733,0 19.2926,-5.67241 24.25561,-12.77628 m 3.13955,-5.15293 c 0.89224,-1.65969 1.70489,-3.34078 2.46576,-4.99806 m 2.67375,-6.03493 c 2.31313,-5.2327 4.42794,-9.51911 7.46533,-11.0378 10,-5 10,20 0,20 -4.64046,0 -9.28091,-6.46015 -14.92063,-13.38484 m -4.1712,-4.89947 c -1.2269,-1.35492 -2.5027,-2.67224 -3.83524,-3.90475 m -4.73598,-3.77844 c -3.66426,-2.44484 -7.736,-4.0325 -12.33695,-4.0325 -20,0 -20,40 0,40 7.02727,0 11.58541,-4.93825 15.40955,-11.34451 m 3.07696,-5.64885 c 5.55845,-10.89431 10.50789,-23.00664 21.51349,-23.00664 20,0 20,40 0,40 -12.61443,0 -21.25076,-11.93428 -28.41807,-20.74843 m -4.36102,-5.01788 c -2.49493,-2.55858 -4.85792,-4.23369 -7.22091,-4.23369 -10,0 -10,20 0,20 10,0 10,-40 40,-40 26.58616,0 29.61152,43.19479 16.03599,56.50542 m -5.17319,3.24406 c -0.28332,0.0939 -0.57093,0.17755 -0.8628,0.25052 -16.47735,4.11934 -19.37955,-1.94269 -11.50262,-4.20592 m 5.96348,-0.78971 c 0.1775,-0.003 0.35722,-0.004 0.53914,-0.004 6.15349,0 9.78261,3.36581 10.88738,7.33591 m -0.22596,6.03523 c -1.3231,3.65458 -4.87691,6.62886 -10.66142,6.62886 -8.971,0 -10.78833,-3.57684 -4.38238,-6.45214 m 5.81026,-1.83688 c 4.5224,-1.01941 10.68279,-1.71098 18.57212,-1.71098"
       style="fill:none;fill-rule:evenodd;stroke:#000000;stroke-width:3;stroke-linecap:butt;stroke-linejoin:miter;stroke-miterlimit:4;stroke-dasharray:none;stroke-opacity:1" />
  </g>
</svg>
