<?xml version="1.0" encoding="UTF-8" standalone="no"?>
<!-- Created with Inkscape (http://www.inkscape.org/) -->

<svg
   xmlns:dc="http://purl.org/dc/elements/1.1/"
   xmlns:cc="http://creativecommons.org/ns#"
   xmlns:rdf="http://www.w3.org/1999/02/22-rdf-syntax-ns#"
   xmlns:svg="http://www.w3.org/2000/svg"
   xmlns="http://www.w3.org/2000/svg"
   xmlns:sodipodi="http://sodipodi.sourceforge.net/DTD/sodipodi-0.dtd"
   xmlns:inkscape="http://www.inkscape.org/namespaces/inkscape"
   width="140.26874"
   height="64.157326"
   id="svg3080"
   version="1.1"
   inkscape:version="0.92.4 (unknown)"
   sodipodi:docname="Slip_Noose_Hitch_1.svg">
  <defs
     id="defs3082">
    <marker
       inkscape:stockid="Arrow2Mend"
       orient="auto"
       refY="0"
       refX="0"
       id="Arrow2Mend"
       style="overflow:visible"
       inkscape:isstock="true">
      <path
         id="path908"
         style="fill:#fe0000;fill-opacity:1;fill-rule:evenodd;stroke:#fe0000;stroke-width:0.625;stroke-linejoin:round;stroke-opacity:1"
         d="M 8.7185878,4.0337352 -2.2072895,0.01601326 8.7185884,-4.0017078 c -1.7454984,2.3720609 -1.7354408,5.6174519 -6e-7,8.035443 z"
         transform="scale(-0.6)"
         inkscape:connector-curvature="0" />
    </marker>
    <marker
       inkscape:stockid="Arrow2Lend"
       orient="auto"
       refY="0"
       refX="0"
       id="Arrow2Lend"
       style="overflow:visible"
       inkscape:isstock="true">
      <path
         id="path902"
         style="fill:#fe0000;fill-opacity:1;fill-rule:evenodd;stroke:#fe0000;stroke-width:0.625;stroke-linejoin:round;stroke-opacity:1"
         d="M 8.7185878,4.0337352 -2.2072895,0.01601326 8.7185884,-4.0017078 c -1.7454984,2.3720609 -1.7354408,5.6174519 -6e-7,8.035443 z"
         transform="matrix(-1.1,0,0,-1.1,-1.1,0)"
         inkscape:connector-curvature="0" />
    </marker>
    <marker
       inkscape:stockid="Arrow1Lstart"
       orient="auto"
       refY="0"
       refX="0"
       id="Arrow1Lstart"
       style="overflow:visible"
       inkscape:isstock="true">
      <path
         id="path881"
         d="M 0,0 5,-5 -12.5,0 5,5 Z"
         style="fill:#fe0000;fill-opacity:1;fill-rule:evenodd;stroke:#fe0000;stroke-width:1.00000003pt;stroke-opacity:1"
         transform="matrix(0.8,0,0,0.8,10,0)"
         inkscape:connector-curvature="0" />
    </marker>
    <inkscape:path-effect
       effect="knot"
       id="path-effect840"
       is_visible="true"
       interruption_width="3"
       prop_to_stroke_width="false"
       add_stroke_width="true"
       add_other_stroke_width="false"
       switcher_size="15"
       crossing_points_vector="358.78658 | 796.69776 | 0 | 1 | 0 | 6 | 0.83045366 | 2.7093188 | -1 | 383.69888 | 797.05929 | 0 | 1 | 1 | 7 | 1.179512 | 3.2793061 | -1 | 385.97443 | 776.67984 | 1 | 1 | 0 | 8 | 0.84851939 | 3.8087011 | 1 | 371.40333 | 772.55467 | 1 | 1 | 1 | 9 | 1.5 | 4.5 | 1 | 371.40333 | 772.55467 | 1 | 1 | 2 | 10 | 1.5 | 4.5 | 1 | 357.04415 | 776.2927 | 1 | 1 | 3 | 11 | 2.1794247 | 5.1397447 | 1 | 354.98358 | 782.78556 | 1 | 1 | 4 | 14 | 2.3545722 | 6.984984 | -1 | 356.12066 | 792.22544 | 1 | 1 | 5 | 15 | 2.5849062 | 7.7551394 | -1 | 341.53249 | 769.81607 | 1 | 1 | 12 | 17 | 5.6545782 | 8.7148159 | -1 | 343.86787 | 779.11122 | 1 | 1 | 13 | 16 | 6.5879127 | 8.4498904 | -1" />
    <filter
       id="filter3111"
       inkscape:label="Outline, double"
       inkscape:menu="Morphology"
       inkscape:menu-tooltip="Draws a smooth line inside colorized with the color it overlays"
       style="color-interpolation-filters:sRGB">
      <feGaussianBlur
         id="feGaussianBlur3113"
         stdDeviation="3"
         in="SourceAlpha"
         result="result1" />
      <feComposite
         id="feComposite3115"
         in2="result1"
         operator="arithmetic"
         k2="3.2"
         k1="-1"
         k4="-2"
         result="result3"
         k3="0" />
      <feColorMatrix
         id="feColorMatrix3117"
         values="0 0 0 0 0 0 1 0 0 0 0 0 1 0 0 0 0 0 10 0 "
         result="result2" />
      <feComposite
         id="feComposite3119"
         in2="result2"
         result="fbSourceGraphic"
         in="SourceGraphic"
         operator="out" />
      <feGaussianBlur
         id="feGaussianBlur3121"
         in="fbSourceGraphic"
         stdDeviation="0.5"
         result="result4" />
      <feComposite
         id="feComposite3123"
         in2="result4"
         operator="xor"
         in="result4"
         result="result5" />
      <feBlend
         id="feBlend3125"
         in2="result5"
         result="result6"
         mode="darken"
         in="result5" />
      <feBlend
         id="feBlend3127"
         in2="result6"
         in="result6"
         mode="darken" />
    </filter>
    <inkscape:path-effect
       effect="knot"
       id="path-effect840-2"
       is_visible="true"
       interruption_width="3"
       prop_to_stroke_width="false"
       add_stroke_width="true"
       add_other_stroke_width="false"
       switcher_size="15"
       crossing_points_vector="403.23988 | 875.24536 | 0 | 0 | 0 | 3 | 0.30583405 | 3.7905355 | -1 | 434.69018 | 856.18644 | 0 | 0 | 1 | 4 | 0.64654265 | 5.6367509 | 1 | 461.39463 | 867.49793 | 0 | 0 | 2 | 5 | 2.013941 | 6.3359148 | 1" />
    <marker
       inkscape:stockid="Arrow2Mend"
       orient="auto"
       refY="0"
       refX="0"
       id="Arrow2Mend-2"
       style="overflow:visible">
      <path
         id="path3886"
         style="fill-rule:evenodd;stroke-width:0.625;stroke-linejoin:round"
         d="M 8.7185878,4.0337352 -2.2072895,0.01601326 8.7185884,-4.0017078 c -1.7454984,2.3720609 -1.7354408,5.6174519 -6e-7,8.035443 z"
         transform="scale(-0.6)"
         inkscape:connector-curvature="0" />
    </marker>
    <marker
       inkscape:stockid="Arrow2Mend"
       orient="auto"
       refY="0"
       refX="0"
       id="marker910"
       style="overflow:visible">
      <path
         id="path908-3"
         style="fill-rule:evenodd;stroke-width:0.625;stroke-linejoin:round"
         d="M 8.7185878,4.0337352 -2.2072895,0.01601326 8.7185884,-4.0017078 c -1.7454984,2.3720609 -1.7354408,5.6174519 -6e-7,8.035443 z"
         transform="scale(-0.6)"
         inkscape:connector-curvature="0" />
    </marker>
    <marker
       inkscape:stockid="Arrow2Mend"
       orient="auto"
       refY="0"
       refX="0"
       id="marker914"
       style="overflow:visible">
      <path
         id="path912"
         style="fill-rule:evenodd;stroke-width:0.625;stroke-linejoin:round"
         d="M 8.7185878,4.0337352 -2.2072895,0.01601326 8.7185884,-4.0017078 c -1.7454984,2.3720609 -1.7354408,5.6174519 -6e-7,8.035443 z"
         transform="scale(-0.6)"
         inkscape:connector-curvature="0" />
    </marker>
    <marker
       inkscape:stockid="Arrow2Mend"
       orient="auto"
       refY="0"
       refX="0"
       id="marker918"
       style="overflow:visible">
      <path
         id="path916"
         style="fill-rule:evenodd;stroke-width:0.625;stroke-linejoin:round"
         d="M 8.7185878,4.0337352 -2.2072895,0.01601326 8.7185884,-4.0017078 c -1.7454984,2.3720609 -1.7354408,5.6174519 -6e-7,8.035443 z"
         transform="scale(-0.6)"
         inkscape:connector-curvature="0" />
    </marker>
    <marker
       inkscape:stockid="Arrow2Mend"
       orient="auto"
       refY="0"
       refX="0"
       id="marker922"
       style="overflow:visible">
      <path
         id="path920"
         style="fill-rule:evenodd;stroke-width:0.625;stroke-linejoin:round"
         d="M 8.7185878,4.0337352 -2.2072895,0.01601326 8.7185884,-4.0017078 c -1.7454984,2.3720609 -1.7354408,5.6174519 -6e-7,8.035443 z"
         transform="scale(-0.6)"
         inkscape:connector-curvature="0" />
    </marker>
    <marker
       inkscape:stockid="Arrow2Mend"
       orient="auto"
       refY="0"
       refX="0"
       id="marker926"
       style="overflow:visible">
      <path
         id="path924"
         style="fill-rule:evenodd;stroke-width:0.625;stroke-linejoin:round"
         d="M 8.7185878,4.0337352 -2.2072895,0.01601326 8.7185884,-4.0017078 c -1.7454984,2.3720609 -1.7354408,5.6174519 -6e-7,8.035443 z"
         transform="scale(-0.6)"
         inkscape:connector-curvature="0" />
    </marker>
    <inkscape:path-effect
       effect="knot"
       id="path-effect840-23"
       is_visible="true"
       interruption_width="3"
       prop_to_stroke_width="false"
       add_stroke_width="true"
       add_other_stroke_width="false"
       switcher_size="15"
       crossing_points_vector="504.33352 | 781.66597 | 0 | 0 | 0 | 3 | 0.37501026 | 2.3802541 | 1 | 516.60975 | 780.53839 | 0 | 0 | 1 | 4 | 0.65285069 | 3.2146916 | 1 | 521.8497 | 769.99432 | 0 | 0 | 2 | 5 | 1.6255331 | 3.6006236 | 1" />
  </defs>
  <sodipodi:namedview
     id="base"
     pagecolor="#ffffff"
     bordercolor="#666666"
     borderopacity="1.0"
     inkscape:pageopacity="0.0"
     inkscape:pageshadow="2"
     inkscape:zoom="5.6"
     inkscape:cx="80.59993"
     inkscape:cy="15.737157"
     inkscape:document-units="px"
     inkscape:current-layer="layer1"
     showgrid="true"
     inkscape:object-paths="false"
     inkscape:window-width="1908"
     inkscape:window-height="1001"
     inkscape:window-x="0"
     inkscape:window-y="36"
     inkscape:window-maximized="1"
     inkscape:showpageshadow="false"
     fit-margin-top="5"
     fit-margin-left="5"
     fit-margin-right="5"
     fit-margin-bottom="5"
     inkscape:snap-intersection-paths="false"
     inkscape:snap-midpoints="false"
     inkscape:snap-smooth-nodes="false"
     inkscape:object-nodes="true"
     inkscape:snap-nodes="false">
    <inkscape:grid
       type="xygrid"
       id="grid838"
       originx="-6.1096692"
       originy="74.466528" />
  </sodipodi:namedview>
  <metadata
     id="metadata3085">
    <rdf:RDF>
      <cc:Work
         rdf:about="">
        <dc:format>image/svg+xml</dc:format>
        <dc:type
           rdf:resource="http://purl.org/dc/dcmitype/StillImage" />
        <dc:title></dc:title>
      </cc:Work>
    </rdf:RDF>
  </metadata>
  <g
     inkscape:label="Layer 1"
     inkscape:groupmode="layer"
     id="layer1"
     transform="translate(-312.513,-752.23888)">
    <path
       style="fill:none;fill-rule:evenodd;stroke:#000000;stroke-width:2.75681067;stroke-linecap:butt;stroke-linejoin:miter;stroke-miterlimit:4;stroke-dasharray:none;stroke-opacity:1"
       d="m 317.8319,802.82253 c 0,0 17.94177,-4.26664 37.38434,-5.86389 m 7.19824,-0.45474 c 3.02904,-0.12963 6.04566,-0.17486 8.98885,-0.10994 24.28571,0.53571 40,5.53571 55,5.53571 15,0 20,-7 20,-15 0,-5.89727 -2.71702,-11.25114 -10.15392,-13.65816 m -14.80512,-1.18291 c -14.19907,0.85208 -31.10901,4.84107 -40.04096,4.84107 -3.46346,0 -5.72737,-1.19956 -7.62264,-2.56001 m -5.05981,-3.40116 c -1.83393,-0.70506 -4.03796,-0.67863 -7.31755,0.96117 -5.15472,2.57736 -7.65233,10.46896 -6.12315,17.51127 m 2.2045,5.49042 c 2.55861,4.06164 7.06396,6.99831 13.91865,6.99831 3.67856,0 6.68053,-0.84574 9.06813,-2.25722 m 5.20528,-5.33308 c 2.56814,-4.5083 2.87844,-10.23264 1.44134,-14.87604 m -3.04086,-5.49606 c -0.78612,-0.8471 -1.68068,-1.541 -2.67389,-2.0376 -10,-5 -10,5 -20,5 -0.44994,0 -0.90711,-0.0249 -1.37009,-0.072 m -5.79003,-1.46141 c -3.31651,-1.2212 -6.63814,-2.93835 -9.51759,-4.25582 m -6.24725,-1.94025 c -1.1424,0.045 -1.93424,0.58775 -2.25361,1.87234 -1.42567,5.73437 7.46295,8.09623 15.97048,10.80028 m 5.53222,2.18969 c 5.72161,3.88568 0.0483,11.39181 -6.60984,6.76003 -2.50095,-1.73979 -4.40925,-4.64034 -5.90189,-8.11125 m -2.36567,-7.07349 c -1.38075,-5.24998 -2.22497,-10.85122 -2.94673,-15.42241"
       id="path831"
       inkscape:connector-curvature="0"
       sodipodi:nodetypes="czzsccszzzzzzzc"
       inkscape:path-effect="#path-effect840"
       inkscape:original-d="m 317.8319,802.82253 c 0,0 29.28572,-6.96429 53.57143,-6.42857 24.28571,0.53571 40,5.53571 55,5.53571 15,0 20,-7 20,-15 0,-5.89727 -2.71702,-11.25114 -10.15392,-13.65816 m -14.80512,-1.18291 c -14.19907,0.85208 -31.10901,4.84107 -40.04096,4.84107 -10,0 -10,-10 -20,-5 -10,5 -10,30 10,30 20,0 20,-25 10,-30 -10,-5 -10,5 -20,5 -10,0 -23.57143,-12.32143 -25.17857,-5.85714 -1.60714,6.46428 9.89286,8.64285 19.17857,11.85714 9.28571,3.21429 3.10714,13.03571 -4.28571,7.89286 -7.39286,-5.14286 -9.60715,-20.42856 -11.21429,-30.60715" />
    <path
       id="path4751"
       style="fill:none;stroke:#000000;stroke-width:0.7941438;stroke-linecap:butt;stroke-linejoin:bevel;stroke-miterlimit:4;stroke-dashoffset:0;stroke-opacity:1"
       d="m 421.31404,761.84038 0.12389,44.95435 c 0.006,2.322 3.3579,4.2044 7.5,4.2044 4.1421,0 7.5064,-1.8824 7.5,-4.2044 l -0.12389,-44.95435 m -7.5,-4.20443 c -4.1421,0 -7.5,1.88239 -7.5,4.20443 0,2.32205 3.3579,4.20443 7.5,4.20443 4.1421,0 7.5,-1.88238 7.5,-4.20443 0,-2.32204 -3.3579,-4.20443 -7.5,-4.20443 z"
       inkscape:connector-curvature="0"
       sodipodi:nodetypes="cssscsssss" />
  </g>
</svg>
