<?xml version="1.0" encoding="UTF-8" standalone="no"?>
<!-- Created with Inkscape (http://www.inkscape.org/) -->

<svg
   xmlns:dc="http://purl.org/dc/elements/1.1/"
   xmlns:cc="http://creativecommons.org/ns#"
   xmlns:rdf="http://www.w3.org/1999/02/22-rdf-syntax-ns#"
   xmlns:svg="http://www.w3.org/2000/svg"
   xmlns="http://www.w3.org/2000/svg"
   xmlns:sodipodi="http://sodipodi.sourceforge.net/DTD/sodipodi-0.dtd"
   xmlns:inkscape="http://www.inkscape.org/namespaces/inkscape"
   width="141.4335"
   height="64.157326"
   id="svg3080"
   version="1.1"
   inkscape:version="0.92.4 (unknown)"
   sodipodi:docname="Slip_Noose_Hitch.svg">
  <defs
     id="defs3082">
    <marker
       inkscape:stockid="Arrow2Mend"
       orient="auto"
       refY="0"
       refX="0"
       id="Arrow2Mend"
       style="overflow:visible"
       inkscape:isstock="true">
      <path
         id="path908"
         style="fill:#fe0000;fill-opacity:1;fill-rule:evenodd;stroke:#fe0000;stroke-width:0.625;stroke-linejoin:round;stroke-opacity:1"
         d="M 8.7185878,4.0337352 -2.2072895,0.01601326 8.7185884,-4.0017078 c -1.7454984,2.3720609 -1.7354408,5.6174519 -6e-7,8.035443 z"
         transform="scale(-0.6,-0.6)"
         inkscape:connector-curvature="0" />
    </marker>
    <marker
       inkscape:stockid="Arrow2Lend"
       orient="auto"
       refY="0"
       refX="0"
       id="Arrow2Lend"
       style="overflow:visible"
       inkscape:isstock="true">
      <path
         id="path902"
         style="fill:#fe0000;fill-opacity:1;fill-rule:evenodd;stroke:#fe0000;stroke-width:0.625;stroke-linejoin:round;stroke-opacity:1"
         d="M 8.7185878,4.0337352 -2.2072895,0.01601326 8.7185884,-4.0017078 c -1.7454984,2.3720609 -1.7354408,5.6174519 -6e-7,8.035443 z"
         transform="matrix(-1.1,0,0,-1.1,-1.1,0)"
         inkscape:connector-curvature="0" />
    </marker>
    <marker
       inkscape:stockid="Arrow1Lstart"
       orient="auto"
       refY="0"
       refX="0"
       id="Arrow1Lstart"
       style="overflow:visible"
       inkscape:isstock="true">
      <path
         id="path881"
         d="M 0,0 5,-5 -12.5,0 5,5 Z"
         style="fill:#fe0000;fill-opacity:1;fill-rule:evenodd;stroke:#fe0000;stroke-width:1pt;stroke-opacity:1"
         transform="matrix(0.8,0,0,0.8,10,0)"
         inkscape:connector-curvature="0" />
    </marker>
    <inkscape:path-effect
       effect="knot"
       id="path-effect840"
       is_visible="true"
       interruption_width="3"
       prop_to_stroke_width="false"
       add_stroke_width="true"
       add_other_stroke_width="false"
       switcher_size="15"
       crossing_points_vector="358.70703 | 796.60429 | 0 | 1 | 0 | 5 | 0.559855 | 2.7064249 | -1 | 383.74784 | 797.00574 | 0 | 1 | 1 | 6 | 1.0730138 | 3.28101 | -1 | 385.97443 | 776.67984 | 1 | 1 | 0 | 8 | 0.84851939 | 3.8087011 | 1 | 371.40337 | 772.5547 | 1 | 1 | 1 | 10 | 1.4999974 | 4.4999983 | 1 | 371.40328 | 772.55463 | 1 | 1 | 2 | 9 | 1.5000033 | 4.4999977 | 1 | 356.83297 | 776.67844 | 1 | 1 | 3 | 11 | 2.1912564 | 5.143971 | 1 | 354.84489 | 785.87995 | 1 | 1 | 4 | 12 | 2.4296181 | 6.4715762 | -1 | 387.82277 | 782.78304 | 1 | 1 | 7 | 13 | 3.64549 | 6.8129378 | -1" />
    <filter
       id="filter3111"
       inkscape:label="Outline, double"
       inkscape:menu="Morphology"
       inkscape:menu-tooltip="Draws a smooth line inside colorized with the color it overlays"
       style="color-interpolation-filters:sRGB">
      <feGaussianBlur
         id="feGaussianBlur3113"
         stdDeviation="3"
         in="SourceAlpha"
         result="result1" />
      <feComposite
         id="feComposite3115"
         in2="result1"
         operator="arithmetic"
         k2="3.2"
         k1="-1"
         k4="-2"
         result="result3"
         k3="0" />
      <feColorMatrix
         id="feColorMatrix3117"
         values="0 0 0 0 0 0 1 0 0 0 0 0 1 0 0 0 0 0 10 0 "
         result="result2" />
      <feComposite
         id="feComposite3119"
         in2="result2"
         result="fbSourceGraphic"
         in="SourceGraphic"
         operator="out" />
      <feGaussianBlur
         id="feGaussianBlur3121"
         in="fbSourceGraphic"
         stdDeviation="0.5"
         result="result4" />
      <feComposite
         id="feComposite3123"
         in2="result4"
         operator="xor"
         in="result4"
         result="result5" />
      <feBlend
         id="feBlend3125"
         in2="result5"
         result="result6"
         mode="darken"
         in="result5" />
      <feBlend
         id="feBlend3127"
         in2="result6"
         in="result6"
         mode="darken" />
    </filter>
    <inkscape:path-effect
       effect="knot"
       id="path-effect840-2"
       is_visible="true"
       interruption_width="3"
       prop_to_stroke_width="false"
       add_stroke_width="true"
       add_other_stroke_width="false"
       switcher_size="15"
       crossing_points_vector="403.23988 | 875.24536 | 0 | 0 | 0 | 3 | 0.30583405 | 3.7905355 | -1 | 434.69018 | 856.18644 | 0 | 0 | 1 | 4 | 0.64654265 | 5.6367509 | 1 | 461.39463 | 867.49793 | 0 | 0 | 2 | 5 | 2.013941 | 6.3359148 | 1" />
    <marker
       inkscape:stockid="Arrow2Mend"
       orient="auto"
       refY="0"
       refX="0"
       id="Arrow2Mend-2"
       style="overflow:visible">
      <path
         id="path3886"
         style="fill-rule:evenodd;stroke-width:0.625;stroke-linejoin:round"
         d="M 8.7185878,4.0337352 -2.2072895,0.01601326 8.7185884,-4.0017078 c -1.7454984,2.3720609 -1.7354408,5.6174519 -6e-7,8.035443 z"
         transform="scale(-0.6,-0.6)"
         inkscape:connector-curvature="0" />
    </marker>
    <marker
       inkscape:stockid="Arrow2Mend"
       orient="auto"
       refY="0"
       refX="0"
       id="marker910"
       style="overflow:visible">
      <path
         id="path908-3"
         style="fill-rule:evenodd;stroke-width:0.625;stroke-linejoin:round"
         d="M 8.7185878,4.0337352 -2.2072895,0.01601326 8.7185884,-4.0017078 c -1.7454984,2.3720609 -1.7354408,5.6174519 -6e-7,8.035443 z"
         transform="scale(-0.6,-0.6)"
         inkscape:connector-curvature="0" />
    </marker>
    <marker
       inkscape:stockid="Arrow2Mend"
       orient="auto"
       refY="0"
       refX="0"
       id="marker914"
       style="overflow:visible">
      <path
         id="path912"
         style="fill-rule:evenodd;stroke-width:0.625;stroke-linejoin:round"
         d="M 8.7185878,4.0337352 -2.2072895,0.01601326 8.7185884,-4.0017078 c -1.7454984,2.3720609 -1.7354408,5.6174519 -6e-7,8.035443 z"
         transform="scale(-0.6,-0.6)"
         inkscape:connector-curvature="0" />
    </marker>
    <marker
       inkscape:stockid="Arrow2Mend"
       orient="auto"
       refY="0"
       refX="0"
       id="marker918"
       style="overflow:visible">
      <path
         id="path916"
         style="fill-rule:evenodd;stroke-width:0.625;stroke-linejoin:round"
         d="M 8.7185878,4.0337352 -2.2072895,0.01601326 8.7185884,-4.0017078 c -1.7454984,2.3720609 -1.7354408,5.6174519 -6e-7,8.035443 z"
         transform="scale(-0.6,-0.6)"
         inkscape:connector-curvature="0" />
    </marker>
    <marker
       inkscape:stockid="Arrow2Mend"
       orient="auto"
       refY="0"
       refX="0"
       id="marker922"
       style="overflow:visible">
      <path
         id="path920"
         style="fill-rule:evenodd;stroke-width:0.625;stroke-linejoin:round"
         d="M 8.7185878,4.0337352 -2.2072895,0.01601326 8.7185884,-4.0017078 c -1.7454984,2.3720609 -1.7354408,5.6174519 -6e-7,8.035443 z"
         transform="scale(-0.6,-0.6)"
         inkscape:connector-curvature="0" />
    </marker>
    <marker
       inkscape:stockid="Arrow2Mend"
       orient="auto"
       refY="0"
       refX="0"
       id="marker926"
       style="overflow:visible">
      <path
         id="path924"
         style="fill-rule:evenodd;stroke-width:0.625;stroke-linejoin:round"
         d="M 8.7185878,4.0337352 -2.2072895,0.01601326 8.7185884,-4.0017078 c -1.7454984,2.3720609 -1.7354408,5.6174519 -6e-7,8.035443 z"
         transform="scale(-0.6,-0.6)"
         inkscape:connector-curvature="0" />
    </marker>
    <inkscape:path-effect
       effect="knot"
       id="path-effect840-23"
       is_visible="true"
       interruption_width="3"
       prop_to_stroke_width="false"
       add_stroke_width="true"
       add_other_stroke_width="false"
       switcher_size="15"
       crossing_points_vector="504.33352 | 781.66597 | 0 | 0 | 0 | 3 | 0.37501026 | 2.3802541 | 1 | 516.60975 | 780.53839 | 0 | 0 | 1 | 4 | 0.65285069 | 3.2146916 | 1 | 521.8497 | 769.99432 | 0 | 0 | 2 | 5 | 1.6255331 | 3.6006236 | 1" />
  </defs>
  <sodipodi:namedview
     id="base"
     pagecolor="#ffffff"
     bordercolor="#666666"
     borderopacity="1.0"
     inkscape:pageopacity="0.0"
     inkscape:pageshadow="2"
     inkscape:zoom="7.919596"
     inkscape:cx="88.262873"
     inkscape:cy="30.786685"
     inkscape:document-units="px"
     inkscape:current-layer="layer1"
     showgrid="true"
     inkscape:object-paths="false"
     inkscape:window-width="1908"
     inkscape:window-height="1001"
     inkscape:window-x="0"
     inkscape:window-y="36"
     inkscape:window-maximized="1"
     inkscape:showpageshadow="false"
     fit-margin-top="5"
     fit-margin-left="5"
     fit-margin-right="5"
     fit-margin-bottom="5"
     inkscape:snap-intersection-paths="false"
     inkscape:snap-midpoints="false"
     inkscape:snap-smooth-nodes="false"
     inkscape:object-nodes="true"
     inkscape:snap-nodes="false">
    <inkscape:grid
       type="xygrid"
       id="grid838"
       originx="-4.9449076"
       originy="74.466532" />
  </sodipodi:namedview>
  <metadata
     id="metadata3085">
    <rdf:RDF>
      <cc:Work
         rdf:about="">
        <dc:format>image/svg+xml</dc:format>
        <dc:type
           rdf:resource="http://purl.org/dc/dcmitype/StillImage" />
        <dc:title></dc:title>
      </cc:Work>
    </rdf:RDF>
  </metadata>
  <g
     inkscape:label="Layer 1"
     inkscape:groupmode="layer"
     id="layer1"
     transform="translate(-311.34824,-752.23888)">
    <path
       style="fill:none;fill-rule:evenodd;stroke:#000000;stroke-width:2.75681067;stroke-linecap:butt;stroke-linejoin:miter;stroke-miterlimit:4;stroke-dasharray:none;stroke-opacity:1"
       d="m 316.40333,796.92967 c 0,0 17.90439,-1.55224 37.57607,-2.25839 m 6.5705,-0.20002 c 3.65182,-0.09 7.30305,-0.14247 10.85343,-0.14247 25,0 40,7.60088 55,7.60088 15,0 20,-7 20,-15 0,-5.89727 -2.71702,-11.25114 -10.15392,-13.65816 m -14.80512,-1.18291 c -14.19907,0.85208 -31.10901,4.84107 -40.04096,4.84107 -3.46346,0 -5.72737,-1.19956 -7.62264,-2.56001 m -5.05981,-3.40116 c -1.83393,-0.70506 -4.03796,-0.67863 -7.31755,0.96117 -10,5 -10,30 10,30 5.12707,0 8.9398,-1.64293 11.60665,-4.17068 m 3.61657,-5.38462 c 0.3747,-0.92603 0.66818,-1.88526 0.8841,-2.86122 m 0.40764,-5.74926 c -0.10828,-1.48778 -0.37929,-2.94053 -0.80021,-4.30056 m -3.04086,-5.49606 c -0.78612,-0.8471 -1.68068,-1.541 -2.67389,-2.0376 -10,-5 -10,5 -20,5 -0.47192,0 -0.96611,0 -1.4789,5.3e-4 m -6.47176,0.058 c -9.84426,0.19932 -20.91379,1.07698 -17.04934,4.94143 1.34697,1.34697 7.4112,2.33108 15.55332,3.05007 m 5.75633,0.44447 c 22.2444,1.50546 53.69035,1.50546 53.69035,1.50546"
       id="path831"
       inkscape:connector-curvature="0"
       sodipodi:nodetypes="czzsccszzzzzc"
       inkscape:path-effect="#path-effect840"
       inkscape:original-d="m 316.40333,796.92967 c 0,0 30,-2.60088 55,-2.60088 25,0 40,7.60088 55,7.60088 15,0 20,-7 20,-15 0,-5.89727 -2.71702,-11.25114 -10.15392,-13.65816 m -14.80512,-1.18291 c -14.19907,0.85208 -31.10901,4.84107 -40.04096,4.84107 -10,0 -10,-10 -20,-5 -10,5 -10,30 10,30 20,0 20,-25 10,-30 -10,-5 -10,5 -20,5 -10,0 -30,0 -25,5 5,5 75,5 75,5" />
    <path
       id="path4751"
       style="fill:none;stroke:#000000;stroke-width:0.7941438;stroke-linecap:butt;stroke-linejoin:bevel;stroke-miterlimit:4;stroke-dashoffset:0;stroke-opacity:1"
       d="m 421.31404,761.84038 0.12389,44.95435 c 0.006,2.322 3.3579,4.2044 7.5,4.2044 4.1421,0 7.5064,-1.8824 7.5,-4.2044 l -0.12389,-44.95435 m -7.5,-4.20443 c -4.1421,0 -7.5,1.88239 -7.5,4.20443 0,2.32205 3.3579,4.20443 7.5,4.20443 4.1421,0 7.5,-1.88238 7.5,-4.20443 0,-2.32204 -3.3579,-4.20443 -7.5,-4.20443 z"
       inkscape:connector-curvature="0"
       sodipodi:nodetypes="cssscsssss" />
  </g>
</svg>
