<?xml version="1.0" encoding="UTF-8" standalone="no"?>
<!-- Created with Inkscape (http://www.inkscape.org/) -->

<svg
   xmlns:dc="http://purl.org/dc/elements/1.1/"
   xmlns:cc="http://creativecommons.org/ns#"
   xmlns:rdf="http://www.w3.org/1999/02/22-rdf-syntax-ns#"
   xmlns:svg="http://www.w3.org/2000/svg"
   xmlns="http://www.w3.org/2000/svg"
   xmlns:sodipodi="http://sodipodi.sourceforge.net/DTD/sodipodi-0.dtd"
   xmlns:inkscape="http://www.inkscape.org/namespaces/inkscape"
   width="59.741299"
   height="259.29663"
   id="svg3906"
   version="1.1"
   inkscape:version="0.48.4 r9939"
   sodipodi:docname="UIAA + простой.svg">
  <defs
     id="defs3908">
    <inkscape:path-effect
       effect="knot"
       id="path-effect3804"
       is_visible="true"
       interruption_width="3"
       prop_to_stroke_width="true"
       add_stroke_width="false"
       add_other_stroke_width="false"
       switcher_size="15"
       crossing_points_vector="372.21757 | 177.5475 | 0 | 0 | 1 | 8 | 1.7739881 | 4.7751512 | -1 | 372.36331 | 170.02597 | 0 | 0 | 0 | 21 | 1.639165 | 9.4168161 | 1 | 363.00908 | 202.64815 | 0 | 0 | 3 | 12 | 2.4491937 | 6.1010258 | -1 | 368.24286 | 194.75136 | 0 | 0 | 2 | 17 | 2.162049 | 8.5336165 | 1 | 359.05433 | 209.31392 | 0 | 0 | 4 | 25 | 2.7334529 | 11.351689 | 1 | 362.42874 | 222.79732 | 0 | 0 | 5 | 14 | 3.2178094 | 6.6593806 | -1 | 373.98654 | 225.0331 | 0 | 0 | 6 | 15 | 3.5738672 | 8.1052494 | 1 | 388.10229 | 197.37706 | 0 | 0 | 7 | 22 | 4.3156044 | 9.9483337 | -1 | 365.10248 | 177.06421 | 0 | 0 | 9 | 28 | 4.9155851 | 12.406938 | 1 | 358.28615 | 180.28586 | 0 | 0 | 10 | 19 | 5.1003465 | 8.9348892 | 1 | 359.00774 | 196.05216 | 0 | 0 | 11 | 26 | 5.8606063 | 11.878336 | 1 | 364.25164 | 213.2359 | 0 | 0 | 13 | 24 | 6.3952422 | 11.141686 | 1 | 374.58308 | 214.37477 | 0 | 0 | 16 | 23 | 8.2233271 | 10.757377 | -1 | 363.38749 | 188.10821 | 0 | 0 | 18 | 27 | 8.692104 | 12.133926 | -1 | 364.98357 | 169.62975 | 0 | 0 | 20 | 29 | 9.2680284 | 12.579852 | -1" />
    <marker
       inkscape:stockid="Arrow2Mend"
       orient="auto"
       refY="0"
       refX="0"
       id="Arrow2Mend"
       style="overflow:visible">
      <path
         id="path3868"
         style="fill-rule:evenodd;stroke-width:0.625;stroke-linejoin:round"
         d="M 8.7185878,4.0337352 -2.2072895,0.01601326 8.7185884,-4.0017078 c -1.7454984,2.3720609 -1.7354408,5.6174519 -6e-7,8.035443 z"
         transform="scale(-0.6,-0.6)"
         inkscape:connector-curvature="0" />
    </marker>
    <inkscape:path-effect
       effect="knot"
       id="path-effect4087"
       is_visible="true"
       interruption_width="3"
       prop_to_stroke_width="true"
       add_stroke_width="false"
       add_other_stroke_width="false"
       switcher_size="15"
       crossing_points_vector="32.463726 | 41.303278 | 0 | 0 | 0 | 1 | 0.084446579 | 1.6544691 | 1" />
    <inkscape:path-effect
       effect="knot"
       id="path-effect4072"
       is_visible="true"
       interruption_width="3"
       prop_to_stroke_width="true"
       add_stroke_width="false"
       add_other_stroke_width="false"
       switcher_size="15"
       crossing_points_vector="33.616338 | 48.640227 | 0 | 0 | 0 | 1 | 0.089809098 | 1.6717152 | 1" />
    <inkscape:path-effect
       effect="knot"
       id="path-effect4049"
       is_visible="true"
       interruption_width="3"
       prop_to_stroke_width="true"
       add_stroke_width="false"
       add_other_stroke_width="false"
       switcher_size="15"
       crossing_points_vector="32.823963 | 112.52546 | 0 | 0 | 0 | 1 | 0.066999743 | 2.1791246 | 1" />
    <inkscape:path-effect
       effect="knot"
       id="path-effect3815"
       is_visible="true"
       interruption_width="3"
       prop_to_stroke_width="true"
       add_stroke_width="true"
       add_other_stroke_width="false"
       switcher_size="15"
       crossing_points_vector="-28.640616 | -96.925624 | 0 | 0 | 1 | 4 | 0.63066449 | 2.5842733 | -1 | -43.251433 | -88.665474 | 0 | 0 | 0 | 5 | 0.2988662 | 3.6179085 | -1 | -16.916064 | -116.97981 | 0 | 0 | 2 | 7 | 1.3863372 | 4.8031317 | 1 | -30.17635 | -107.03611 | 0 | 0 | 3 | 6 | 2.2597949 | 4.3813383 | 1" />
    <inkscape:path-effect
       effect="knot"
       id="path-effect3788"
       is_visible="true"
       interruption_width="3"
       prop_to_stroke_width="true"
       add_stroke_width="true"
       add_other_stroke_width="false"
       switcher_size="15"
       crossing_points_vector="78.91006 | -35.739348 | 0 | 0 | 0 | 7 | 0.61748482 | 8.3650114 | -1 | 79.3125 | -77.34375 | 0 | 0 | 1 | 6 | 1.5 | 7.5 | -1 | 79.3125 | -117.34375 | 0 | 0 | 2 | 5 | 2.5 | 6.5 | -1 | 79.3125 | -157.34375 | 0 | 0 | 3 | 4 | 3.5 | 5.5 | -1" />
    <inkscape:path-effect
       effect="knot"
       id="path-effect3986"
       is_visible="true"
       interruption_width="2"
       prop_to_stroke_width="true"
       add_stroke_width="false"
       add_other_stroke_width="false"
       switcher_size="15"
       crossing_points_vector="482.41054 | 570.77916 | 0 | 0 | 0 | 1 | 0.3719084 | 1.9323145 | 1 | 477.28098 | 571.21235 | 0 | 0 | 2 | 3 | 2.0396716 | 3.596587 | -1" />
    <filter
       id="filter3773"
       inkscape:label="Outline, double"
       inkscape:menu="Morphology"
       inkscape:menu-tooltip="Draws a smooth line inside colorized with the color it overlays"
       color-interpolation-filters="sRGB">
      <feGaussianBlur
         id="feGaussianBlur3775"
         stdDeviation="3"
         in="SourceAlpha"
         result="result1" />
      <feComposite
         k3="0"
         id="feComposite3777"
         in2="result1"
         operator="arithmetic"
         k2="3.2"
         k1="-1"
         k4="-2"
         result="result3" />
      <feColorMatrix
         id="feColorMatrix3779"
         values="0 0 0 0 0 0 1 0 0 0 0 0 1 0 0 0 0 0 10 0 "
         result="result2" />
      <feComposite
         id="feComposite3781"
         in2="result2"
         result="fbSourceGraphic"
         in="SourceGraphic"
         operator="out" />
      <feGaussianBlur
         id="feGaussianBlur3783"
         in="fbSourceGraphic"
         stdDeviation="0.5"
         result="result4" />
      <feComposite
         id="feComposite3785"
         in2="result4"
         operator="xor"
         in="result4"
         result="result5" />
      <feBlend
         id="feBlend3787"
         in2="result5"
         result="result6"
         mode="darken"
         in="result5" />
      <feBlend
         id="feBlend3789"
         in2="result6"
         in="result6"
         mode="darken" />
    </filter>
    <filter
       id="filter4559"
       inkscape:label="Outline, double"
       inkscape:menu="Morphology"
       inkscape:menu-tooltip="Draws a smooth line inside colorized with the color it overlays"
       color-interpolation-filters="sRGB">
      <feGaussianBlur
         id="feGaussianBlur4561"
         stdDeviation="3"
         in="SourceAlpha"
         result="result1" />
      <feComposite
         id="feComposite4563"
         in2="result1"
         operator="arithmetic"
         k2="3.2"
         k1="-1"
         k4="-2"
         result="result3"
         k3="0" />
      <feColorMatrix
         id="feColorMatrix4565"
         values="0 0 0 0 0 0 1 0 0 0 0 0 1 0 0 0 0 0 10 0 "
         result="result2" />
      <feComposite
         id="feComposite4567"
         in2="result2"
         result="fbSourceGraphic"
         in="SourceGraphic"
         operator="out" />
      <feGaussianBlur
         id="feGaussianBlur4569"
         in="fbSourceGraphic"
         stdDeviation="0.5"
         result="result4" />
      <feComposite
         id="feComposite4571"
         in2="result4"
         operator="xor"
         in="result4"
         result="result5" />
      <feBlend
         id="feBlend4573"
         in2="result5"
         result="result6"
         mode="darken"
         in="result5" />
      <feBlend
         id="feBlend4575"
         in2="result6"
         in="result6"
         mode="darken" />
    </filter>
  </defs>
  <sodipodi:namedview
     id="base"
     pagecolor="#ffffff"
     bordercolor="#666666"
     borderopacity="1.0"
     inkscape:pageopacity="0.0"
     inkscape:pageshadow="2"
     inkscape:zoom="1.4142136"
     inkscape:cx="54.772332"
     inkscape:cy="80.7926"
     inkscape:document-units="px"
     inkscape:current-layer="layer1"
     showgrid="false"
     inkscape:object-paths="true"
     inkscape:window-width="1280"
     inkscape:window-height="962"
     inkscape:window-x="-8"
     inkscape:window-y="-8"
     inkscape:window-maximized="1"
     fit-margin-top="0"
     fit-margin-left="0"
     fit-margin-right="0"
     fit-margin-bottom="0"
     inkscape:showpageshadow="false"
     showborder="false">
    <inkscape:grid
       type="xygrid"
       id="grid3779"
       empspacing="5"
       visible="true"
       enabled="true"
       snapvisiblegridlinesonly="true"
       originx="-62.190806px"
       originy="57.937499px" />
  </sodipodi:namedview>
  <metadata
     id="metadata3911">
    <rdf:RDF>
      <cc:Work
         rdf:about="">
        <dc:format>image/svg+xml</dc:format>
        <dc:type
           rdf:resource="http://purl.org/dc/dcmitype/StillImage" />
        <dc:title />
      </cc:Work>
    </rdf:RDF>
  </metadata>
  <g
     inkscape:label="Layer 1"
     inkscape:groupmode="layer"
     id="layer1"
     transform="translate(-363.65956,-447.04713)">
    <path
       style="font-size:medium;font-style:normal;font-variant:normal;font-weight:normal;font-stretch:normal;text-indent:0;text-align:start;text-decoration:none;line-height:normal;letter-spacing:normal;word-spacing:normal;text-transform:none;direction:ltr;block-progression:tb;writing-mode:lr-tb;text-anchor:start;baseline-shift:baseline;color:#000000;fill:#b3b3b3;fill-opacity:1;stroke:#000000;stroke-width:1;stroke-miterlimit:4;stroke-opacity:1;stroke-dasharray:none;marker:none;visibility:visible;display:inline;overflow:visible;enable-background:accumulate;font-family:Sans;-inkscape-font-specification:Sans"
       d="m 418.25165,478.2122 c 0,-13.50055 -11.457,-23.61659 -22.63032,-28.11667 -5.58666,-2.25005 -11.27513,-3.25193 -16.26554,-1.98206 -2.4952,0.63495 -4.85247,1.94458 -6.5345,4.04903 -1.68204,2.10447 -2.54591,4.88488 -2.54591,7.92818 l 0,81.54686 c 0,2.94475 0.89624,5.68201 2.60249,7.70164 1.70624,2.01965 4.06365,3.22712 6.53449,3.82252 4.94171,1.1908 10.57202,0.24681 16.1524,-1.92542 5.58037,-2.17222 11.09205,-5.66698 15.36033,-10.33492 4.26827,-4.66795 7.32656,-10.63508 7.32656,-17.38535 l -7.2417,0 c 0,4.57568 -2.03353,8.80191 -5.40298,12.48686 -3.36946,3.68495 -8.04143,6.70261 -12.6447,8.49447 -4.60327,1.79187 -9.1566,2.26361 -11.85263,1.61396 -1.34801,-0.32484 -2.16593,-0.8552 -2.68735,-1.47238 -0.52143,-0.6172 -0.90522,-1.41575 -0.90522,-3.00138 l 0,-81.54686 c 0,-1.76191 0.41617,-2.71514 0.9618,-3.39779 0.54563,-0.68266 1.36368,-1.22049 2.68735,-1.55733 2.64731,-0.67363 7.14248,-0.18087 11.73947,1.67059 9.19398,3.7029 18.10426,12.25468 18.10426,21.40605 z"
       id="path3035"
       inkscape:connector-curvature="0"
       sodipodi:nodetypes="csssssssssccsscsssssscc" />
    <path
       style="fill:#b3b3b3;fill-opacity:1;fill-rule:nonzero;stroke:#000000;stroke-width:1;stroke-linecap:round;stroke-linejoin:bevel;stroke-miterlimit:4;stroke-opacity:1;stroke-dasharray:none;stroke-dashoffset:0"
       d="m 421.0966,477.2414 0,47.569 -12.28503,0 0,-47.569 z"
       id="path3037"
       inkscape:connector-curvature="0"
       sodipodi:nodetypes="ccccc" />
    <path
       style="font-size:medium;font-style:normal;font-variant:normal;font-weight:normal;font-stretch:normal;text-indent:0;text-align:start;text-decoration:none;line-height:normal;letter-spacing:normal;word-spacing:normal;text-transform:none;direction:ltr;block-progression:tb;writing-mode:lr-tb;text-anchor:start;baseline-shift:baseline;color:#000000;fill:#808080;fill-opacity:1;stroke:#000000;stroke-width:1;stroke-miterlimit:4;stroke-opacity:1;stroke-dasharray:none;marker:none;visibility:visible;display:inline;overflow:visible;enable-background:accumulate;font-family:Sans;-inkscape-font-specification:Sans"
       d="m 396.94489,644.55483 c -1.32506,8.0689 -6.44225,12.4061 -11.00739,14.19517 -4.56514,1.78907 -10.43938,0.35762 -14.44102,-3.44638 l -2.75,2.90625 c 5.09332,4.84176 12.85847,6.5324 18.65977,4.25888 5.8013,-2.27352 12.26191,-8.48098 13.38239,-16.82017 z"
       id="path3817"
       inkscape:connector-curvature="0"
       sodipodi:nodetypes="csccscc" />
    <path
       style="font-size:medium;font-style:normal;font-variant:normal;font-weight:normal;font-stretch:normal;text-indent:0;text-align:start;text-decoration:none;line-height:normal;letter-spacing:normal;word-spacing:normal;text-transform:none;direction:ltr;block-progression:tb;writing-mode:lr-tb;text-anchor:start;baseline-shift:baseline;color:#000000;fill:#808080;fill-opacity:1;stroke:#000000;stroke-width:1;stroke-miterlimit:4;stroke-opacity:1;stroke-dasharray:none;marker:none;visibility:visible;display:inline;overflow:visible;enable-background:accumulate;font-family:Sans;-inkscape-font-specification:Sans"
       d="m 398.98348,533.32838 c -0.91748,-0.0438 -1.83471,0.32741 -2.46875,0.84375 -1.26808,1.03267 -1.86265,2.47196 -2.46875,4.28125 -0.6061,1.80929 -1.12686,4.01944 -1.5625,6.65625 -1.74255,10.54726 -2.45349,27.6229 -2.6875,46.4375 -0.46801,37.6292 1.09375,101.58423 1.09375,112.28125 -0.0149,1.05663 0.94327,2.02848 2,2.02848 1.05673,0 2.01494,-0.97185 2,-2.02848 0,-11.0805 -1.55989,-74.73995 -1.09375,-112.21875 0.23307,-18.7394 0.9991,-35.81339 2.65625,-45.84375 0.41429,-2.50759 0.8776,-4.57771 1.375,-6.0625 1.09307,-2.97391 2.02665,-1.06628 2.90669,0.57653 1.2014,-0.89857 2.08661,-1.5942 3.20581,-2.60291 -0.769,-1.37426 -1.62399,-2.61536 -2.58125,-3.37987 -0.64714,-0.51684 -1.45752,-0.92494 -2.375,-0.96875 z"
       id="path3047"
       inkscape:connector-curvature="0"
       sodipodi:nodetypes="csssscscsscccsc" />
    <path
       style="font-size:medium;font-style:normal;font-variant:normal;font-weight:normal;font-stretch:normal;text-indent:0;text-align:start;text-decoration:none;line-height:normal;letter-spacing:normal;word-spacing:normal;text-transform:none;direction:ltr;block-progression:tb;writing-mode:lr-tb;text-anchor:start;baseline-shift:baseline;color:#000000;fill:#808080;fill-opacity:1;stroke:#000000;stroke-width:1;stroke-linejoin:bevel;stroke-miterlimit:4;stroke-opacity:1;stroke-dasharray:none;marker:none;visibility:visible;display:inline;overflow:visible;enable-background:accumulate;font-family:Sans;-inkscape-font-specification:Sans"
       d="m 404.37853,546.6366 c 3.88792,9.47154 2.95411,16.33301 -0.16461,21.14304 -3.33023,5.13625 -9.42498,8.07151 -15.59375,8.53125 -6.16876,0.45974 -12.1949,-1.56699 -15.46875,-5.78125 -3.02538,-3.89441 -3.19327,-11.31728 0.54785,-20.29139 -1.13827,-1.05323 -1.96981,-2.38194 -2.60698,-3.96752 -5.15318,10.82279 -5.42002,21.13176 -1.09707,26.69641 4.32291,5.56465 11.71585,7.85071 18.9375,7.3125 7.22166,-0.53821 14.47505,-3.91198 18.625,-10.3125 4.01405,-6.19092 4.82883,-15.0155 0.11385,-25.85642 -1.09768,0.92148 -2.19536,1.71828 -3.29304,2.52588 z"
       id="path3041"
       inkscape:connector-curvature="0"
       sodipodi:nodetypes="csssccssscc" />
    <path
       style="font-size:medium;font-style:normal;font-variant:normal;font-weight:normal;font-stretch:normal;text-indent:0;text-align:start;text-decoration:none;line-height:normal;letter-spacing:normal;word-spacing:normal;text-transform:none;direction:ltr;block-progression:tb;writing-mode:lr-tb;text-anchor:start;baseline-shift:baseline;color:#000000;fill:#808080;fill-opacity:1;stroke:#000000;stroke-width:1;stroke-miterlimit:4;stroke-opacity:1;stroke-dasharray:none;marker:none;visibility:visible;display:inline;overflow:visible;enable-background:accumulate;font-family:Sans;-inkscape-font-specification:Sans"
       d="m 393.28125,591.1875 c -3.44036,0.165 -6.18493,1.92029 -7.9375,4.375 -1.75257,2.45471 -2.67496,5.52331 -3.25,8.78125 -1.15008,6.51588 -0.81541,13.94069 -0.9375,18.625 l 4,0.125 c 0.12933,-4.96189 -0.1585,-12.20709 0.875,-18.0625 0.51675,-2.92771 1.39083,-5.47139 2.59375,-7.15625 1.20292,-1.68486 2.57572,-2.57723 4.875,-2.6875 2.10794,-0.1011 3.2144,0.44243 3.84375,1.0625 0.62935,0.62007 0.9059,1.44064 0.8125,2.4375 -0.18679,1.99371 -1.27831,4.07136 -4.44086,4.07289 l -0.006,4.08822 c 5.1287,-0.002 8.04102,-3.78547 8.41584,-7.78611 0.18741,-2.00032 -0.40844,-4.11895 -1.96875,-5.65625 -1.56031,-1.5373 -3.96409,-2.35835 -6.875,-2.21875 z"
       id="path3837"
       inkscape:connector-curvature="0"
       sodipodi:nodetypes="cssccsssssccsscc" />
    <path
       style="font-size:medium;font-style:normal;font-variant:normal;font-weight:normal;font-stretch:normal;text-indent:0;text-align:start;text-decoration:none;line-height:normal;letter-spacing:normal;word-spacing:normal;text-transform:none;direction:ltr;block-progression:tb;writing-mode:lr-tb;text-anchor:start;baseline-shift:baseline;color:#000000;fill:#808080;fill-opacity:1;stroke:#000000;stroke-width:1;stroke-miterlimit:4;stroke-opacity:1;stroke-dasharray:none;marker:none;visibility:visible;display:inline;overflow:visible;enable-background:accumulate;font-family:Sans;-inkscape-font-specification:Sans"
       d="m 371.20895,627.34467 -3.5625,1.8125 c 2.51771,4.95957 7.03661,9.18842 9.47227,13.07583 l 3.375,-2.125 c -2.84728,-4.54437 -7.19954,-8.65568 -9.28477,-12.76333 z"
       id="path3823"
       inkscape:connector-curvature="0"
       sodipodi:nodetypes="ccccc" />
    <path
       style="font-size:medium;font-style:normal;font-variant:normal;font-weight:normal;font-stretch:normal;text-indent:0;text-align:start;text-decoration:none;line-height:normal;letter-spacing:normal;word-spacing:normal;text-transform:none;direction:ltr;block-progression:tb;writing-mode:lr-tb;text-anchor:start;baseline-shift:baseline;color:#000000;fill:#808080;fill-opacity:1;stroke:#000000;stroke-width:1;stroke-miterlimit:4;stroke-opacity:1;stroke-dasharray:none;marker:none;visibility:visible;display:inline;overflow:visible;enable-background:accumulate;font-family:Sans;-inkscape-font-specification:Sans"
       d="m 372.24209,642.97765 -3.3125,2.21875 c 0.79376,1.17467 1.96537,3.18214 2.62576,4.31568 l 3.53125,-1.84375 c -0.70887,-1.38239 -2.0238,-3.49565 -2.84451,-4.69068 z"
       id="path3827"
       inkscape:connector-curvature="0"
       sodipodi:nodetypes="ccccc" />
    <path
       style="font-size:medium;font-style:normal;font-variant:normal;font-weight:normal;font-stretch:normal;text-indent:0;text-align:start;text-decoration:none;line-height:normal;letter-spacing:normal;word-spacing:normal;text-transform:none;direction:ltr;block-progression:tb;writing-mode:lr-tb;text-anchor:start;baseline-shift:baseline;color:#000000;fill:#808080;fill-opacity:1;stroke:#000000;stroke-width:1;stroke-miterlimit:4;stroke-opacity:1;stroke-dasharray:none;marker:none;visibility:visible;display:inline;overflow:visible;enable-background:accumulate;font-family:Sans;-inkscape-font-specification:Sans"
       d="m 381.03125,626.03125 c -0.18221,3.44828 -0.56183,6.6062 -1.3125,9.0625 -2.06841,6.76815 -5.44953,10.643 -8.3125,14.625 -2.86297,3.982 -5.1396,8.44669 -3.71875,14.90625 0.47583,2.16325 1.87743,5.09033 3.733,6.56066 l 2.875,-2.78125 c -1.46303,-0.88172 -2.38188,-3.2002 -2.70175,-4.65441 -1.17169,-5.32686 0.3706,-7.94343 3.0625,-11.6875 2.6919,-3.74407 6.60161,-8.24011 8.90625,-15.78125 0.91447,-2.99226 1.27838,-6.42861 1.46875,-10.03125 z"
       id="path3833"
       inkscape:connector-curvature="0"
       sodipodi:nodetypes="csssccssscc" />
    <path
       style="font-size:medium;font-style:normal;font-variant:normal;font-weight:normal;font-stretch:normal;text-indent:0;text-align:start;text-decoration:none;line-height:normal;letter-spacing:normal;word-spacing:normal;text-transform:none;direction:ltr;block-progression:tb;writing-mode:lr-tb;text-anchor:start;baseline-shift:baseline;color:#000000;fill:#808080;fill-opacity:1;stroke:#000000;stroke-width:1;stroke-miterlimit:4;stroke-opacity:1;stroke-dasharray:none;marker:none;visibility:visible;display:inline;overflow:visible;enable-background:accumulate;font-family:Sans;-inkscape-font-specification:Sans"
       d="m 373.96875,625.5625 c -0.19624,4.95702 -1.07819,9.36707 -3.96875,13.46875 -3.32677,4.72067 -5.4626,13.69189 -2.17575,17.60489 0.55709,-1.74141 1.3716,-3.43133 2.34481,-5.08951 -0.42645,-3.3787 1.06157,-7.29306 3.11219,-10.20288 3.46252,-4.9133 4.44491,-10.28652 4.65625,-15.625 z"
       id="path3811"
       inkscape:connector-curvature="0"
       sodipodi:nodetypes="csccscc" />
    <path
       style="font-size:medium;font-style:normal;font-variant:normal;font-weight:normal;font-stretch:normal;text-indent:0;text-align:start;text-decoration:none;line-height:normal;letter-spacing:normal;word-spacing:normal;text-transform:none;direction:ltr;block-progression:tb;writing-mode:lr-tb;text-anchor:start;baseline-shift:baseline;color:#000000;fill:#808080;fill-opacity:1;stroke:#000000;stroke-width:1;stroke-miterlimit:4;stroke-opacity:1;stroke-dasharray:none;marker:none;visibility:visible;display:inline;overflow:visible;enable-background:accumulate;font-family:Sans;-inkscape-font-specification:Sans"
       d="m 400.875,582.0625 c -10.10161,-0.5216 -20.65649,4.15632 -24.625,14.9375 -2.83973,7.71464 -2.29297,17.5556 -2.25,25.59375 a 2.0002,2.0002 0 1 0 4,-0.0312 c -0.0436,-8.16169 -0.35138,-17.71466 2.03125,-24.1875 6.59497,-17.91645 35.45392,-14.83629 38.90625,0.75 a 2.0015253,2.0015253 0 1 0 3.90625,-0.875 c -2.2046,-9.95314 -11.86714,-15.6659 -21.96875,-16.1875 z"
       id="path3809"
       inkscape:connector-curvature="0" />
    <path
       style="font-size:medium;font-style:normal;font-variant:normal;font-weight:normal;font-stretch:normal;text-indent:0;text-align:start;text-decoration:none;line-height:normal;letter-spacing:normal;word-spacing:normal;text-transform:none;direction:ltr;block-progression:tb;writing-mode:lr-tb;text-anchor:start;baseline-shift:baseline;color:#000000;fill:#808080;fill-opacity:1;stroke:#000000;stroke-width:1;stroke-miterlimit:4;stroke-opacity:1;stroke-dasharray:none;marker:none;visibility:visible;display:inline;overflow:visible;enable-background:accumulate;font-family:Sans;-inkscape-font-specification:Sans"
       d="m 367.09738,626.56311 4,0.0625 c -4.02243,-8.8527 8.07784,-9.48276 13.27762,-7.09436 6.05123,2.276 13.89957,9.04672 13.67267,18.66036 l 2.99425,5.9254 c 4.33365,-14.25606 -6.64418,-25.09491 -15.26067,-28.33576 -9.64436,-4.02299 -22.99246,1.2936 -18.68387,10.78186 z"
       id="path3819"
       inkscape:connector-curvature="0"
       sodipodi:nodetypes="ccccccc" />
    <path
       style="font-size:medium;font-style:normal;font-variant:normal;font-weight:normal;font-stretch:normal;text-indent:0;text-align:start;text-decoration:none;line-height:normal;letter-spacing:normal;word-spacing:normal;text-transform:none;direction:ltr;block-progression:tb;writing-mode:lr-tb;text-anchor:start;baseline-shift:baseline;color:#000000;fill:#808080;fill-opacity:1;stroke:#000000;stroke-width:1;stroke-miterlimit:4;stroke-opacity:1;stroke-dasharray:none;marker:none;visibility:visible;display:inline;overflow:visible;enable-background:accumulate;font-family:Sans;-inkscape-font-specification:Sans"
       d="m 390.31867,667.40972 c -0.92586,0.56043 -1.91363,1.10347 -2.94367,1.49653 -3.85719,1.47189 -8.19585,1.65861 -11.90625,-0.0312 l -1.65625,3.625 c 4.85758,2.21233 10.27779,1.9463 14.96875,0.15625 0.55887,-0.21326 1.07248,-0.50886 1.61158,-0.76386 z m 4.03874,2.13712 c 2.29526,-1.71555 4.08347,-3.74295 5.33009,-6.20304 4.66484,-9.20566 2.25197,-21.36409 -3.5,-30.1875 -2.87599,-4.41171 -6.62045,-8.0455 -11.0625,-9.9375 -2.22102,-0.946 -4.62978,-1.43952 -7.09375,-1.34375 l 0,-5e-5 c -2.46397,0.0958 -4.99808,0.77417 -7.46875,2.125 -4.00007,2.18702 -6.14556,5.32568 -6.375,8.6875 -0.22944,3.36182 1.08621,7.85864 3.59935,10.55483 0.6629,-1.37294 1.22333,-2.80799 2.13439,-4.09821 -1.58827,-1.78393 -1.83594,-4.67795 -1.73374,-6.17537 0.13713,-2.00922 1.06106,-3.67687 4.28125,-5.4375 3.95107,-2.16023 7.58055,-2.10807 11.0625,-0.625 3.48195,1.48307 6.76948,4.53656 9.3125,8.4375 5.08604,7.80188 6.98647,18.81392 3.25,26.1875 -0.4749,0.93718 -1.07574,1.8465 -1.82297,2.69374 z"
       id="path3831"
       inkscape:connector-curvature="0"
       sodipodi:nodetypes="csccscccsssccssccssssscc" />
    <path
       style="font-size:medium;font-style:normal;font-variant:normal;font-weight:normal;font-stretch:normal;text-indent:0;text-align:start;text-decoration:none;line-height:normal;letter-spacing:normal;word-spacing:normal;text-transform:none;direction:ltr;block-progression:tb;writing-mode:lr-tb;text-anchor:start;baseline-shift:baseline;color:#000000;fill:#808080;fill-opacity:1;stroke:#000000;stroke-width:1;stroke-linejoin:bevel;stroke-miterlimit:4;stroke-opacity:1;stroke-dasharray:none;marker:none;visibility:visible;display:inline;overflow:visible;enable-background:accumulate;font-family:Sans;-inkscape-font-specification:Sans"
       d="m 381.56234,641.43315 c -0.68591,1.46527 -1.51628,2.84385 -2.3459,4.22289 4.1043,8.00052 6.65342,19.6065 1.03356,37.18771 -1.01176,3.16519 -2.41461,5.60217 -3.75,7.125 -1.33539,1.52283 -2.5582,1.93811 -2.96875,1.90625 -0.20528,-0.0159 -0.29551,-0.0217 -0.53125,-0.28125 -0.23574,-0.25954 -0.55411,-0.82302 -0.78125,-1.75 -0.45427,-1.85396 -0.51683,-5.12895 0.375,-9.78125 0.53457,-2.78862 2.21296,-7.50934 3.40625,-12.71875 1.19329,-5.20941 1.79191,-11.99442 0.25134,-17.44275 -1.07887,1.46778 -2.19533,2.92803 -3.13498,4.42365 0.35014,3.83268 -0.17478,8.44303 -1.02261,12.1441 -1.12633,4.91707 -2.75125,9.42689 -3.40625,12.84375 -0.95763,4.99555 -1.05434,8.69625 -0.375,11.46875 0.33967,1.38625 0.88941,2.58692 1.71875,3.5 0.82934,0.91308 1.99444,1.50117 3.1875,1.59375 2.38613,0.18516 4.47692,-1.22364 6.28125,-3.28125 1.80433,-2.05761 3.38027,-4.93051 4.53125,-8.53125 6.40702,-20.04377 2.6868,-33.83195 -2.46891,-42.62935 z"
       id="path3825"
       inkscape:connector-curvature="0"
       sodipodi:nodetypes="ccssccsssccsssssssc" />
    <path
       style="font-size:medium;font-style:normal;font-variant:normal;font-weight:normal;font-stretch:normal;text-indent:0;text-align:start;text-decoration:none;line-height:normal;letter-spacing:normal;word-spacing:normal;text-transform:none;direction:ltr;block-progression:tb;writing-mode:lr-tb;text-anchor:start;baseline-shift:baseline;color:#000000;fill:#808080;fill-opacity:1;stroke:#000000;stroke-width:1;stroke-miterlimit:4;stroke-opacity:1;stroke-dasharray:none;marker:none;visibility:visible;display:inline;overflow:visible;enable-background:accumulate;font-family:Sans;-inkscape-font-specification:Sans"
       d="m 381.17098,597.29713 c 0.39289,2.69326 1.09402,5.15915 2.625,7.0625 1.34718,1.67484 3.47824,2.74059 5.91261,2.74545 l 0.004,-3.98231 c -1.39848,0.0627 -2.07804,-0.37604 -2.7916,-1.26314 -0.79998,-0.99454 -1.44361,-2.81051 -1.78125,-5.125 -0.67528,-4.62899 -0.0906,-10.99491 0.32812,-16.53125 1.22044,-16.1365 1.59068,-29.03559 0.48438,-36.84375 -0.27657,-1.95204 -0.65133,-3.59329 -1.21875,-4.96875 -0.56742,-1.37546 -1.36425,-2.61352 -2.75,-3.25 -0.69287,-0.31824 -1.44111,-0.40791 -2.1875,-0.3125 -0.74639,0.0954 -1.63101,0.49892 -2.27891,0.88258 l 0,5.27534 c 0.92743,-1.06552 1.55788,-1.57885 2.18516,-1.97042 0.62728,-0.39157 1.03178,0.1778 1.34375,0.90625 0.37346,0.87204 0.6891,2.2468 0.9375,4 0.99361,7.01282 0.70123,19.92562 -0.51563,35.98438 -0.41758,5.51082 -1.08266,12.0041 -0.29687,17.39062 z"
       id="path3022"
       inkscape:connector-curvature="0"
       sodipodi:nodetypes="csccssssssccczssssc" />
  </g>
</svg>
