<?xml version="1.0" encoding="UTF-8" standalone="no"?>
<!-- Created with Inkscape (http://www.inkscape.org/) -->

<svg
   xmlns:dc="http://purl.org/dc/elements/1.1/"
   xmlns:cc="http://creativecommons.org/ns#"
   xmlns:rdf="http://www.w3.org/1999/02/22-rdf-syntax-ns#"
   xmlns:svg="http://www.w3.org/2000/svg"
   xmlns="http://www.w3.org/2000/svg"
   xmlns:sodipodi="http://sodipodi.sourceforge.net/DTD/sodipodi-0.dtd"
   xmlns:inkscape="http://www.inkscape.org/namespaces/inkscape"
   width="105.928"
   height="136.60591"
   id="svg3080"
   version="1.1"
   inkscape:version="0.92.4 (unknown)"
   sodipodi:docname="Piratsky_6_1.svg">
  <defs
     id="defs3082">
    <marker
       inkscape:stockid="Arrow2Mend"
       orient="auto"
       refY="0"
       refX="0"
       id="marker4579"
       style="overflow:visible"
       inkscape:isstock="true">
      <path
         id="path4577"
         style="fill:#fe0000;fill-opacity:1;fill-rule:evenodd;stroke:#fe0000;stroke-width:0.625;stroke-linejoin:round;stroke-opacity:1"
         d="M 8.7185878,4.0337352 -2.2072895,0.01601326 8.7185884,-4.0017078 c -1.7454984,2.3720609 -1.7354408,5.6174519 -6e-7,8.035443 z"
         transform="scale(-0.6)"
         inkscape:connector-curvature="0" />
    </marker>
    <inkscape:path-effect
       effect="knot"
       id="path-effect4573"
       is_visible="true"
       interruption_width="3"
       prop_to_stroke_width="false"
       add_stroke_width="true"
       add_other_stroke_width="false"
       switcher_size="15"
       crossing_points_vector="469.29892 | 846.76697 | 0 | 2 | 0 | 2 | 1.9244296 | 2.4877005 | 1 | 446.15852 | 794.99759 | 1 | 2 | 1 | 0 | 0.72591178 | 1.0187526 | 1 | 466.64816 | 794.99759 | 1 | 2 | 0 | 1 | 0.28162218 | 1.9812474 | -1" />
    <marker
       inkscape:stockid="Arrow2Lend"
       orient="auto"
       refY="0"
       refX="0"
       id="Arrow2Lend"
       style="overflow:visible"
       inkscape:isstock="true">
      <path
         id="path902"
         style="fill:#fe0000;fill-opacity:1;fill-rule:evenodd;stroke:#fe0000;stroke-width:0.625;stroke-linejoin:round;stroke-opacity:1"
         d="M 8.7185878,4.0337352 -2.2072895,0.01601326 8.7185884,-4.0017078 c -1.7454984,2.3720609 -1.7354408,5.6174519 -6e-7,8.035443 z"
         transform="matrix(-1.1,0,0,-1.1,-1.1,0)"
         inkscape:connector-curvature="0" />
    </marker>
    <marker
       inkscape:stockid="Arrow1Lstart"
       orient="auto"
       refY="0"
       refX="0"
       id="Arrow1Lstart"
       style="overflow:visible"
       inkscape:isstock="true">
      <path
         id="path881"
         d="M 0,0 5,-5 -12.5,0 5,5 Z"
         style="fill:#fe0000;fill-opacity:1;fill-rule:evenodd;stroke:#fe0000;stroke-width:1.00000003pt;stroke-opacity:1"
         transform="matrix(0.8,0,0,0.8,10,0)"
         inkscape:connector-curvature="0" />
    </marker>
    <inkscape:path-effect
       effect="knot"
       id="path-effect840"
       is_visible="true"
       interruption_width="3"
       prop_to_stroke_width="false"
       add_stroke_width="true"
       add_other_stroke_width="false"
       switcher_size="15"
       crossing_points_vector="217.33872 | 645.77232 | 0 | 0 | 0 | 5 | 0.24639104 | 6.3057787 | -1 | 165.83468 | 647.21396 | 0 | 0 | 1 | 6 | 0.53420183 | 7.6558914 | -1 | 161.58771 | 627.76219 | 0 | 0 | 2 | 7 | 3.6799683 | 8.1827542 | 1 | 192.31438 | 621.67245 | 0 | 0 | 3 | 8 | 4.4592386 | 9.5520222 | 1 | 221.10868 | 634.7365 | 0 | 0 | 4 | 9 | 6.013941 | 10.335915 | 1 | 233.87606 | 634.69778 | 0 | 0 | 10 | 13 | 10.522471 | 12.407143 | 1 | 246.18288 | 632.99068 | 0 | 0 | 11 | 14 | 10.72419 | 13.207406 | 1 | 251.56375 | 622.2329 | 0 | 0 | 12 | 15 | 11.625533 | 13.600624 | 1" />
    <filter
       id="filter3111"
       inkscape:label="Outline, double"
       inkscape:menu="Morphology"
       inkscape:menu-tooltip="Draws a smooth line inside colorized with the color it overlays"
       style="color-interpolation-filters:sRGB">
      <feGaussianBlur
         id="feGaussianBlur3113"
         stdDeviation="3"
         in="SourceAlpha"
         result="result1" />
      <feComposite
         id="feComposite3115"
         in2="result1"
         operator="arithmetic"
         k2="3.2"
         k1="-1"
         k4="-2"
         result="result3"
         k3="0" />
      <feColorMatrix
         id="feColorMatrix3117"
         values="0 0 0 0 0 0 1 0 0 0 0 0 1 0 0 0 0 0 10 0 "
         result="result2" />
      <feComposite
         id="feComposite3119"
         in2="result2"
         result="fbSourceGraphic"
         in="SourceGraphic"
         operator="out" />
      <feGaussianBlur
         id="feGaussianBlur3121"
         in="fbSourceGraphic"
         stdDeviation="0.5"
         result="result4" />
      <feComposite
         id="feComposite3123"
         in2="result4"
         operator="xor"
         in="result4"
         result="result5" />
      <feBlend
         id="feBlend3125"
         in2="result5"
         result="result6"
         mode="darken"
         in="result5" />
      <feBlend
         id="feBlend3127"
         in2="result6"
         in="result6"
         mode="darken" />
    </filter>
    <inkscape:path-effect
       effect="knot"
       id="path-effect840-2"
       is_visible="true"
       interruption_width="3"
       prop_to_stroke_width="false"
       add_stroke_width="true"
       add_other_stroke_width="false"
       switcher_size="15"
       crossing_points_vector="162.95393 | 722.48393 | 0 | 0 | 0 | 3 | 0.30583405 | 3.7905355 | -1 | 194.40423 | 703.42501 | 0 | 0 | 1 | 4 | 0.64654265 | 5.6367509 | 1 | 221.10868 | 714.7365 | 0 | 0 | 2 | 5 | 2.013941 | 6.3359148 | 1" />
    <marker
       inkscape:stockid="Arrow2Mend"
       orient="auto"
       refY="0"
       refX="0"
       id="Arrow2Mend-2"
       style="overflow:visible">
      <path
         id="path3832"
         style="fill-rule:evenodd;stroke-width:0.625;stroke-linejoin:round"
         d="M 8.7185878,4.0337352 -2.2072895,0.01601326 8.7185884,-4.0017078 c -1.7454984,2.3720609 -1.7354408,5.6174519 -6e-7,8.035443 z"
         transform="scale(-0.6)"
         inkscape:connector-curvature="0" />
    </marker>
    <marker
       inkscape:stockid="Arrow2Mend"
       orient="auto"
       refY="0"
       refX="0"
       id="marker1022"
       style="overflow:visible">
      <path
         id="path1020"
         style="fill-rule:evenodd;stroke-width:0.625;stroke-linejoin:round"
         d="M 8.7185878,4.0337352 -2.2072895,0.01601326 8.7185884,-4.0017078 c -1.7454984,2.3720609 -1.7354408,5.6174519 -6e-7,8.035443 z"
         transform="scale(-0.6)"
         inkscape:connector-curvature="0" />
    </marker>
    <marker
       inkscape:stockid="Arrow2Mend"
       orient="auto"
       refY="0"
       refX="0"
       id="marker1044"
       style="overflow:visible">
      <path
         id="path1042"
         style="fill-rule:evenodd;stroke-width:0.625;stroke-linejoin:round"
         d="M 8.7185878,4.0337352 -2.2072895,0.01601326 8.7185884,-4.0017078 c -1.7454984,2.3720609 -1.7354408,5.6174519 -6e-7,8.035443 z"
         transform="scale(-0.6)"
         inkscape:connector-curvature="0" />
    </marker>
    <marker
       inkscape:stockid="Arrow2Mend"
       orient="auto"
       refY="0"
       refX="0"
       id="marker1048"
       style="overflow:visible">
      <path
         id="path1046"
         style="fill-rule:evenodd;stroke-width:0.625;stroke-linejoin:round"
         d="M 8.7185878,4.0337352 -2.2072895,0.01601326 8.7185884,-4.0017078 c -1.7454984,2.3720609 -1.7354408,5.6174519 -6e-7,8.035443 z"
         transform="scale(-0.6)"
         inkscape:connector-curvature="0" />
    </marker>
    <inkscape:path-effect
       effect="knot"
       id="path-effect4573-7"
       is_visible="true"
       interruption_width="3"
       prop_to_stroke_width="false"
       add_stroke_width="true"
       add_other_stroke_width="false"
       switcher_size="15"
       crossing_points_vector="565.71444 | 829.85486 | 0 | 2 | 1 | 0 | 0.60273226 | 0.50168208 | 1 | 563.95273 | 841.89312 | 0 | 2 | 0 | 1 | 0.446292 | 1.3618327 | 1 | 526.37738 | 798.19211 | 0 | 1 | 5 | 0 | 1.7362878 | 0.061996068 | 1 | 556.5097 | 798.2229 | 0 | 1 | 2 | 3 | 1.2622688 | 0.94644614 | -1 | 547.38777 | 796.03932 | 0 | 2 | 3 | 2 | 1.4106007 | 2.3514116 | -1 | 535.41891 | 796.03932 | 0 | 2 | 4 | 5 | 1.5893993 | 3.6485884 | 1 | 547.65311 | 784.72644 | 1 | 2 | 2 | 3 | 0.64058743 | 2.4960494 | -1 | 535.15384 | 784.86347 | 1 | 2 | 1 | 4 | 0.35952346 | 3.5057707 | 1" />
    <marker
       inkscape:stockid="Arrow2Mend"
       orient="auto"
       refY="0"
       refX="0"
       id="Arrow2Mend"
       style="overflow:visible">
      <path
         id="path3827"
         style="fill-rule:evenodd;stroke-width:0.625;stroke-linejoin:round"
         d="M 8.7185878,4.0337352 -2.2072895,0.01601326 8.7185884,-4.0017078 c -1.7454984,2.3720609 -1.7354408,5.6174519 -6e-7,8.035443 z"
         transform="scale(-0.6)"
         inkscape:connector-curvature="0" />
    </marker>
    <marker
       inkscape:stockid="Arrow2Mend"
       orient="auto"
       refY="0"
       refX="0"
       id="marker1093"
       style="overflow:visible">
      <path
         id="path1091"
         style="fill-rule:evenodd;stroke-width:0.625;stroke-linejoin:round"
         d="M 8.7185878,4.0337352 -2.2072895,0.01601326 8.7185884,-4.0017078 c -1.7454984,2.3720609 -1.7354408,5.6174519 -6e-7,8.035443 z"
         transform="scale(-0.6)"
         inkscape:connector-curvature="0" />
    </marker>
    <marker
       inkscape:stockid="Arrow2Mend"
       orient="auto"
       refY="0"
       refX="0"
       id="marker1097"
       style="overflow:visible">
      <path
         id="path1095"
         style="fill-rule:evenodd;stroke-width:0.625;stroke-linejoin:round"
         d="M 8.7185878,4.0337352 -2.2072895,0.01601326 8.7185884,-4.0017078 c -1.7454984,2.3720609 -1.7354408,5.6174519 -6e-7,8.035443 z"
         transform="scale(-0.6)"
         inkscape:connector-curvature="0" />
    </marker>
    <marker
       inkscape:stockid="Arrow2Mend"
       orient="auto"
       refY="0"
       refX="0"
       id="marker1101"
       style="overflow:visible">
      <path
         id="path1099"
         style="fill-rule:evenodd;stroke-width:0.625;stroke-linejoin:round"
         d="M 8.7185878,4.0337352 -2.2072895,0.01601326 8.7185884,-4.0017078 c -1.7454984,2.3720609 -1.7354408,5.6174519 -6e-7,8.035443 z"
         transform="scale(-0.6)"
         inkscape:connector-curvature="0" />
    </marker>
    <marker
       inkscape:stockid="Arrow1Mend"
       orient="auto"
       refY="0"
       refX="0"
       id="Arrow1Mend"
       style="overflow:visible">
      <path
         id="path4435"
         d="M 0,0 5,-5 -12.5,0 5,5 Z"
         style="fill-rule:evenodd;stroke:#000000;stroke-width:1.00000003pt"
         transform="matrix(-0.4,0,0,-0.4,-4,0)"
         inkscape:connector-curvature="0" />
    </marker>
    <marker
       inkscape:stockid="Arrow1Mend"
       orient="auto"
       refY="0"
       refX="0"
       id="marker1014"
       style="overflow:visible">
      <path
         id="path1012"
         d="M 0,0 5,-5 -12.5,0 5,5 Z"
         style="fill-rule:evenodd;stroke:#000000;stroke-width:1.00000003pt"
         transform="matrix(-0.4,0,0,-0.4,-4,0)"
         inkscape:connector-curvature="0" />
    </marker>
    <marker
       inkscape:stockid="Arrow1Mend"
       orient="auto"
       refY="0"
       refX="0"
       id="marker1018"
       style="overflow:visible">
      <path
         id="path1016"
         d="M 0,0 5,-5 -12.5,0 5,5 Z"
         style="fill-rule:evenodd;stroke:#000000;stroke-width:1.00000003pt"
         transform="matrix(-0.4,0,0,-0.4,-4,0)"
         inkscape:connector-curvature="0" />
    </marker>
    <marker
       inkscape:stockid="Arrow1Mend"
       orient="auto"
       refY="0"
       refX="0"
       id="marker1022-2"
       style="overflow:visible">
      <path
         id="path1020-3"
         d="M 0,0 5,-5 -12.5,0 5,5 Z"
         style="fill-rule:evenodd;stroke:#000000;stroke-width:1.00000003pt"
         transform="matrix(-0.4,0,0,-0.4,-4,0)"
         inkscape:connector-curvature="0" />
    </marker>
    <marker
       inkscape:stockid="Arrow1Mend"
       orient="auto"
       refY="0"
       refX="0"
       id="marker1026"
       style="overflow:visible">
      <path
         id="path1024"
         d="M 0,0 5,-5 -12.5,0 5,5 Z"
         style="fill-rule:evenodd;stroke:#000000;stroke-width:1.00000003pt"
         transform="matrix(-0.4,0,0,-0.4,-4,0)"
         inkscape:connector-curvature="0" />
    </marker>
    <marker
       inkscape:stockid="Arrow1Mend"
       orient="auto"
       refY="0"
       refX="0"
       id="marker1030"
       style="overflow:visible">
      <path
         id="path1028"
         d="M 0,0 5,-5 -12.5,0 5,5 Z"
         style="fill-rule:evenodd;stroke:#000000;stroke-width:1.00000003pt"
         transform="matrix(-0.4,0,0,-0.4,-4,0)"
         inkscape:connector-curvature="0" />
    </marker>
    <marker
       inkscape:stockid="Arrow1Mend"
       orient="auto"
       refY="0"
       refX="0"
       id="marker1034"
       style="overflow:visible">
      <path
         id="path1032"
         d="M 0,0 5,-5 -12.5,0 5,5 Z"
         style="fill-rule:evenodd;stroke:#000000;stroke-width:1.00000003pt"
         transform="matrix(-0.4,0,0,-0.4,-4,0)"
         inkscape:connector-curvature="0" />
    </marker>
    <marker
       inkscape:stockid="Arrow1Mend"
       orient="auto"
       refY="0"
       refX="0"
       id="marker1038"
       style="overflow:visible">
      <path
         id="path1036"
         d="M 0,0 5,-5 -12.5,0 5,5 Z"
         style="fill-rule:evenodd;stroke:#000000;stroke-width:1.00000003pt"
         transform="matrix(-0.4,0,0,-0.4,-4,0)"
         inkscape:connector-curvature="0" />
    </marker>
    <inkscape:path-effect
       effect="knot"
       id="path-effect4573-2"
       is_visible="true"
       interruption_width="3"
       prop_to_stroke_width="false"
       add_stroke_width="true"
       add_other_stroke_width="false"
       switcher_size="15"
       crossing_points_vector="555.06914 | 791.41692 | 0 | 1 | 0 | 2 | 0.54175933 | 0.6279986 | 1 | 554.90039 | 780.24728 | 0 | 2 | 1 | 1 | 0.63531898 | 1.3339628 | 1 | 541.41509 | 790.94407 | 0 | 1 | 3 | 1 | 1.5815747 | 0.42334395 | -1 | 540.38058 | 779.27749 | 0 | 2 | 2 | 2 | 1.4466177 | 1.620987 | -1 | 533.81043 | 830.35565 | 0 | 2 | 4 | 4 | 2.3565198 | 2.4946071 | -1 | 562.32122 | 793.44523 | 1 | 2 | 3 | 0 | 0.74790545 | 1.0488451 | -1 | 531.4685 | 793.25058 | 1 | 2 | 0 | 3 | 0.26097775 | 1.9482694 | 1" />
    <inkscape:path-effect
       effect="knot"
       id="path-effect4573-2-3"
       is_visible="true"
       interruption_width="3"
       prop_to_stroke_width="false"
       add_stroke_width="true"
       add_other_stroke_width="false"
       switcher_size="15"
       crossing_points_vector="560.75674 | 835.76331 | 0 | 0 | 0 | 11 | 0.2700093 | 3.541806 | 1 | 560.62383 | 785.08255 | 0 | 0 | 2 | 13 | 0.59109854 | 4.3960526 | -1 | 560.91514 | 820.86583 | 0 | 0 | 1 | 18 | 0.36890901 | 5.7049729 | 1 | 559.92868 | 772.70451 | 0 | 0 | 3 | 20 | 0.67517556 | 6.3537393 | 1 | 544.82285 | 837.50462 | 0 | 0 | 7 | 10 | 1.8030466 | 3.3294526 | -1 | 544.29851 | 783.25314 | 0 | 0 | 5 | 14 | 1.4157282 | 4.5796156 | 1 | 545.12264 | 828.40515 | 0 | 0 | 6 | 17 | 1.7270624 | 5.4829173 | -1 | 544.39265 | 770.98255 | 0 | 0 | 4 | 21 | 1.326004 | 6.6190975 | -1 | 536.08288 | 855.37081 | 0 | 0 | 8 | 25 | 2.1679803 | 7.84568 | 1 | 534.96486 | 838.48412 | 0 | 0 | 9 | 24 | 3.183752 | 7.6456553 | 1 | 570.9189 | 790.5505 | 0 | 0 | 12 | 19 | 4.2660982 | 6.0649607 | 1 | 531.73123 | 787.39507 | 0 | 0 | 15 | 22 | 4.7361348 | 6.9467744 | -1 | 533.82613 | 827.48608 | 0 | 0 | 16 | 23 | 5.3251798 | 7.4897019 | -1" />
    <inkscape:path-effect
       effect="knot"
       id="path-effect4573-2-3-7"
       is_visible="true"
       interruption_width="3"
       prop_to_stroke_width="false"
       add_stroke_width="true"
       add_other_stroke_width="false"
       switcher_size="15"
       crossing_points_vector="568.35979 | 874.7811 | 0 | 0 | 0 | 11 | 0.13355055 | 3.5320029 | 1 | 565.62802 | 814.09146 | 0 | 1 | 2 | 1 | 0.53678524 | 0.42021534 | -1 | 567.19408 | 860.04476 | 0 | 2 | 1 | 2 | 0.22339991 | 0.62778945 | 1 | 565.12547 | 804.1091 | 0 | 2 | 3 | 4 | 0.6222681 | 1.4067389 | 1 | 547.21472 | 877.1282 | 0 | 0 | 7 | 10 | 1.8041779 | 3.2089777 | -1 | 548.99764 | 815.36951 | 0 | 1 | 5 | 2 | 1.3837365 | 0.63549584 | 1 | 548.33952 | 865.29844 | 0 | 2 | 6 | 1 | 1.711024 | 0.3646128 | -1 | 549.30174 | 805.36829 | 0 | 2 | 4 | 5 | 1.3120455 | 1.6464326 | -1 | 536.94662 | 894.01037 | 0 | 2 | 8 | 9 | 2.1069332 | 2.8037994 | 1 | 537.00747 | 876.93213 | 0 | 2 | 9 | 8 | 3.0144533 | 2.5778627 | 1 | 579.42477 | 818.8681 | 1 | 2 | 0 | 3 | 0.22497762 | 1.1265156 | 1 | 536.9894 | 821.20891 | 1 | 2 | 3 | 6 | 0.81163012 | 1.9325804 | -1 | 536.81035 | 861.96396 | 2 | 2 | 0 | 7 | 0.192451 | 2.3967762 | -1" />
    <inkscape:path-effect
       effect="knot"
       id="path-effect4573-2-3-7-3"
       is_visible="true"
       interruption_width="3"
       prop_to_stroke_width="false"
       add_stroke_width="true"
       add_other_stroke_width="false"
       switcher_size="15"
       crossing_points_vector="613.35979 | 884.7811 | 0 | 0 | 0 | 11 | 0.13355055 | 3.4836793 | 1 | 610.62802 | 824.09146 | 0 | 0 | 2 | 13 | 0.53678523 | 4.430583 | -1 | 612.19409 | 870.04478 | 0 | 0 | 1 | 18 | 0.22339978 | 5.6673488 | 1 | 610.12547 | 814.10912 | 0 | 0 | 3 | 20 | 0.62226791 | 6.4067389 | 1 | 592.21472 | 887.1282 | 0 | 0 | 7 | 10 | 1.8041779 | 3.1899955 | -1 | 593.99764 | 825.36951 | 0 | 0 | 5 | 14 | 1.3837366 | 4.6030565 | 1 | 593.33952 | 875.29847 | 0 | 0 | 6 | 17 | 1.7110242 | 5.432143 | -1 | 594.30174 | 815.36832 | 0 | 0 | 4 | 21 | 1.3120457 | 6.6464326 | -1 | 582.79554 | 903.7598 | 0 | 0 | 8 | 25 | 2.0851436 | 7.8802043 | 1 | 583.61658 | 886.95633 | 0 | 0 | 9 | 24 | 3.0458224 | 7.6908548 | 1 | 624.42476 | 828.86809 | 0 | 0 | 12 | 19 | 4.2741672 | 6.1265159 | 1 | 581.9894 | 831.20892 | 0 | 0 | 15 | 22 | 4.7441674 | 6.9325804 | -1 | 583.25415 | 872.75015 | 0 | 0 | 16 | 23 | 5.2995785 | 7.4936282 | -1" />
    <inkscape:path-effect
       effect="knot"
       id="path-effect4573-2-3-7-3-6"
       is_visible="true"
       interruption_width="3"
       prop_to_stroke_width="false"
       add_stroke_width="true"
       add_other_stroke_width="false"
       switcher_size="15"
       crossing_points_vector="582.79554 | 908.7598 | 0 | 0 | 0 | 9 | 2.0851436 | 7.8802043 | 1 | 583.61658 | 891.95633 | 0 | 0 | 1 | 8 | 3.0458224 | 7.6908548 | 1 | 624.42476 | 833.86809 | 0 | 0 | 2 | 5 | 4.2741672 | 6.1265159 | 1 | 581.9894 | 836.20892 | 0 | 0 | 3 | 6 | 4.7441674 | 6.9325804 | -1 | 583.25415 | 877.75015 | 0 | 0 | 4 | 7 | 5.2995785 | 7.4936282 | -1" />
    <marker
       inkscape:stockid="Arrow2Mend"
       orient="auto"
       refY="0"
       refX="0"
       id="marker4579-1"
       style="overflow:visible"
       inkscape:isstock="true"
       inkscape:collect="always">
      <path
         id="path4577-2"
         style="fill:#fe0000;fill-opacity:1;fill-rule:evenodd;stroke:#fe0000;stroke-width:0.625;stroke-linejoin:round;stroke-opacity:1"
         d="M 8.7185878,4.0337352 -2.2072895,0.01601326 8.7185884,-4.0017078 c -1.7454984,2.3720609 -1.7354408,5.6174519 -6e-7,8.035443 z"
         transform="scale(-0.6)"
         inkscape:connector-curvature="0" />
    </marker>
  </defs>
  <sodipodi:namedview
     id="base"
     pagecolor="#ffffff"
     bordercolor="#666666"
     borderopacity="1.0"
     inkscape:pageopacity="0.0"
     inkscape:pageshadow="2"
     inkscape:zoom="3.959798"
     inkscape:cx="83.00333"
     inkscape:cy="44.455368"
     inkscape:document-units="px"
     inkscape:current-layer="layer1"
     showgrid="true"
     inkscape:object-paths="false"
     inkscape:window-width="1920"
     inkscape:window-height="1034"
     inkscape:window-x="0"
     inkscape:window-y="46"
     inkscape:window-maximized="1"
     inkscape:showpageshadow="false"
     fit-margin-top="5"
     fit-margin-left="5"
     fit-margin-right="5"
     fit-margin-bottom="5"
     inkscape:snap-intersection-paths="false"
     inkscape:snap-midpoints="false"
     inkscape:snap-smooth-nodes="false"
     inkscape:object-nodes="true"
     inkscape:snap-nodes="true">
    <inkscape:grid
       type="xygrid"
       id="grid838"
       originx="-188.57599"
       originy="135.10591" />
  </sodipodi:namedview>
  <metadata
     id="metadata3085">
    <rdf:RDF>
      <cc:Work
         rdf:about="">
        <dc:format>image/svg+xml</dc:format>
        <dc:type
           rdf:resource="http://purl.org/dc/dcmitype/StillImage" />
        <dc:title></dc:title>
      </cc:Work>
    </rdf:RDF>
  </metadata>
  <g
     inkscape:label="Layer 1"
     inkscape:groupmode="layer"
     id="layer1"
     transform="translate(-494.97934,-740.42965)">
    <path
       id="path4634-9-7-7"
       style="display:inline;fill:#000000;fill-opacity:0;stroke:#000000;stroke-width:1;stroke-linecap:round;stroke-linejoin:round;stroke-miterlimit:4;stroke-dasharray:none;stroke-dashoffset:0;stroke-opacity:1;enable-background:new"
       d="m 590.47934,816.91125 -84.07599,0.0184 c -2.74154,0 -5.92401,-4.01839 -5.92401,-10.01839 v -10e-6 c 0,-6 2.25846,-9.96331 5,-9.98166 23.69032,0.0815 61.31058,0.14835 85,-0.0183 m 4.928,10.16119 c 0,5.84351 -2.18646,9.80208 -4.928,9.80208 -2.74154,0 -5,-3.95857 -5,-9.80208 0,-5.84352 2.25846,-10.16123 5,-10.16123 2.74154,0 4.928,4.31771 4.928,10.16123 z"
       inkscape:connector-curvature="0"
       sodipodi:nodetypes="ccssccsssss" />
    <path
       transform="translate(-10,-35.000004)"
       style="fill:none;fill-rule:evenodd;stroke:#000000;stroke-width:3;stroke-linecap:butt;stroke-linejoin:miter;stroke-miterlimit:4;stroke-dasharray:none;stroke-opacity:1"
       d="m 571.40335,896.92965 c -5.93471,-32.6409 -4.82526,-67.04283 -6.07779,-89.61918 m -0.45746,-6.42041 c -1.06465,-11.7348 -3.25936,-18.96041 -8.46475,-18.96041 -4.28128,0 -6.11865,8.14638 -6.90717,20.0214 m -0.33406,6.80832 c -1.05365,30.38032 2.18287,76.54252 -7.75877,83.17028 -0.48797,0.32532 -0.96536,0.61359 -1.43183,0.86689 m -6.03017,1.44721 c -8.72063,-0.99088 -9.6586,-17.3141 2.462,-17.3141 2.14654,0 4.80503,0.10239 7.78501,0.16065 m 6.06099,0.0193 c 4.82885,-0.0847 10.08185,-0.4621 15.16928,-1.58592 m 5.86208,-1.68977 c 8.97027,-3.27589 16.59436,-9.68969 19.18127,-22.08064 m -0.67118,-19.91609 c -3.37148,-9.65395 -11.64543,-15.2597 -21.14276,-17.24174 m -6.03148,-0.76926 c -3.53277,-0.17862 -7.12485,0.0979 -10.60631,0.80995 m -6.02939,1.71767 c -7.80175,2.89376 -14.41671,8.16996 -17.5811,15.56738 m -0.26465,19.81855 c 1.28928,3.2766 3.23799,5.95224 5.63945,8.03632 m 6.06043,3.6869 c 1.7494,0.71122 3.60275,1.21868 5.51752,1.52432 m 5.99221,0.30806 c 4.37857,-0.22635 8.8444,-1.41472 12.94831,-3.54468 m 5.77502,-3.85367 c 6.64323,-5.58687 11.3353,-14.28418 11.3353,-25.96736 0,-3.21015 -0.28983,-6.13048 -0.82297,-8.77131 m -3.43475,-9.29498 c -9.35299,-15.94652 -31.42234,-13.11287 -38.50946,2.34571 m -2.19197,9.16881 c -0.0271,0.50953 -0.0408,1.02682 -0.0408,1.55177 0,16.218 0.4175,32.38381 0.57539,47.00218 m 0.049,6.00057 c 0.0517,10.06499 -0.0754,19.24309 -0.62436,26.99725"
       id="path2487-1-3-6-5"
       inkscape:connector-curvature="0"
       sodipodi:nodetypes="czzsccccszc"
       inkscape:path-effect="#path-effect4573-2-3-7"
       inkscape:original-d="m 571.40335,896.92965 c -10,-55 0,-115 -15,-115 -15,0 0,100 -15,110 -15,10 -20,-15 -5,-15 13.6375,0 47.9396,4.13292 54.05863,-25.17637 m -0.67118,-19.91609 c -8.86351,-25.3799 -51.61019,-22.78078 -61.39104,0.084 m -0.26465,19.81855 c 9.33799,23.73171 53.26824,15.93861 53.26824,-19.81011 0,-40 -45,-35 -45,-5 0,30 1.42857,59.82143 0,80" />
    <path
       transform="translate(49.959147,-48.448227)"
       style="fill:none;fill-rule:evenodd;stroke:#000000;stroke-width:3;stroke-linecap:butt;stroke-linejoin:miter;stroke-miterlimit:4;stroke-dasharray:none;stroke-opacity:1"
       d="m 616.4442,910.37788 c -5.93471,-32.64089 -4.82526,-67.04281 -6.07779,-89.61916 m -0.45746,-6.42041 c -1.06465,-11.73481 -3.25936,-18.96043 -8.46475,-18.96043 -4.28128,0 -6.11865,8.14639 -6.90718,20.02142 m -0.33405,6.80832 c -1.05365,30.38032 2.18286,76.5425 -7.75877,83.17026 -0.15738,0.10492 -0.31366,0.20599 -0.46883,0.30328 m -6.1942,2.05771 c -9.45222,-0.0519 -10.81822,-17.36099 1.66303,-17.36099 2.14654,0 4.80503,0.10239 7.78501,0.16065 m 6.06099,0.0193 c 4.82885,-0.0847 10.08185,-0.4621 15.16928,-1.58592 m 5.86208,-1.68977 c 11.09014,-4.05005 20.12264,-12.89638 20.12264,-31.90427 0,-15.94668 -10.3308,-24.74127 -22.75531,-27.3342 m -6.03148,-0.76925 c -3.53277,-0.17863 -7.12485,0.0979 -10.60631,0.80994 m -6.02939,1.71768 c -10.95977,4.06511 -19.57751,12.83176 -19.57751,25.57583 0,8.83147 3.50181,15.11617 8.73822,18.93442 m 6.18962,3.14951 c 1.29809,0.42951 2.64381,0.75384 4.02132,0.97372 m 5.99221,0.30807 c 4.37857,-0.22636 8.8444,-1.41472 12.94831,-3.54469 m 5.77502,-3.85368 c 6.64323,-5.58686 11.3353,-14.28417 11.3353,-25.96735 0,-3.21017 -0.28983,-6.1305 -0.82298,-8.77134 m -3.43476,-9.29498 c -9.353,-15.94648 -31.42231,-13.11283 -38.50943,2.34573 m -2.19198,9.16882 c -0.0271,0.50953 -0.0408,1.02682 -0.0408,1.55177 0,19.55762 2.125,30.61523 2.21901,47.02617 m -0.057,6.0001 c -0.1826,7.44402 -0.80284,16.10049 -2.16199,26.97373"
       id="path2487-1-3-6-5-5"
       inkscape:connector-curvature="0"
       sodipodi:nodetypes="czzzzzzzc"
       inkscape:path-effect="#path-effect4573-2-3-7-3"
       inkscape:original-d="m 616.4442,910.37788 c -10,-55 0,-115 -15,-115 -15,0 0,100 -15,110 -15,10 -20,-15 -5,-15 15,0 55,5 55,-35 0,-40 -65,-35 -65,0 0,35 55,30 55,-10 0,-40 -45,-35 -45,-5 0,30 5,40 0,80" />
    <path
       style="fill:none;fill-rule:evenodd;stroke:#fe0000;stroke-width:1;stroke-linecap:butt;stroke-linejoin:miter;stroke-miterlimit:4;stroke-dasharray:2, 1;stroke-dashoffset:0;stroke-opacity:1;marker-start:url(#marker4579-1);marker-end:url(#marker4579-1)"
       d="m 511.40335,841.92965 0,-35"
       id="path4575"
       inkscape:connector-curvature="0"
       sodipodi:nodetypes="cc" />
  </g>
</svg>
