<?xml version="1.0" encoding="UTF-8" standalone="no"?>
<!-- Created with Inkscape (http://www.inkscape.org/) -->

<svg
   xmlns:dc="http://purl.org/dc/elements/1.1/"
   xmlns:cc="http://creativecommons.org/ns#"
   xmlns:rdf="http://www.w3.org/1999/02/22-rdf-syntax-ns#"
   xmlns:svg="http://www.w3.org/2000/svg"
   xmlns="http://www.w3.org/2000/svg"
   xmlns:sodipodi="http://sodipodi.sourceforge.net/DTD/sodipodi-0.dtd"
   xmlns:inkscape="http://www.inkscape.org/namespaces/inkscape"
   width="170.00002"
   height="58"
   id="svg3080"
   version="1.1"
   inkscape:version="0.92.4 5da689c313, 2019-01-14"
   sodipodi:docname="Long_Three-Ply_Knot_2.svg">
  <defs
     id="defs3082">
    <marker
       inkscape:stockid="Arrow1Send"
       orient="auto"
       refY="0"
       refX="0"
       id="Arrow1Send"
       style="overflow:visible"
       inkscape:isstock="true">
      <path
         id="path5163"
         d="M 0,0 5,-5 -12.5,0 5,5 Z"
         style="fill:#ff0000;fill-opacity:1;fill-rule:evenodd;stroke:#ff0000;stroke-width:1.00000003pt;stroke-opacity:1"
         transform="matrix(-0.2,0,0,-0.2,-1.2,0)"
         inkscape:connector-curvature="0" />
    </marker>
    <marker
       inkscape:stockid="Arrow2Mend"
       orient="auto"
       refY="0"
       refX="0"
       id="Arrow2Mend"
       style="overflow:visible"
       inkscape:isstock="true">
      <path
         id="path908"
         style="fill:#fe0000;fill-opacity:1;fill-rule:evenodd;stroke:#fe0000;stroke-width:0.625;stroke-linejoin:round;stroke-opacity:1"
         d="M 8.7185878,4.0337352 -2.2072895,0.01601326 8.7185884,-4.0017078 c -1.7454984,2.3720609 -1.7354408,5.6174519 -6e-7,8.035443 z"
         transform="scale(-0.6)"
         inkscape:connector-curvature="0" />
    </marker>
    <marker
       inkscape:stockid="Arrow2Lend"
       orient="auto"
       refY="0"
       refX="0"
       id="Arrow2Lend"
       style="overflow:visible"
       inkscape:isstock="true">
      <path
         id="path902"
         style="fill:#fe0000;fill-opacity:1;fill-rule:evenodd;stroke:#fe0000;stroke-width:0.625;stroke-linejoin:round;stroke-opacity:1"
         d="M 8.7185878,4.0337352 -2.2072895,0.01601326 8.7185884,-4.0017078 c -1.7454984,2.3720609 -1.7354408,5.6174519 -6e-7,8.035443 z"
         transform="matrix(-1.1,0,0,-1.1,-1.1,0)"
         inkscape:connector-curvature="0" />
    </marker>
    <marker
       inkscape:stockid="Arrow1Lstart"
       orient="auto"
       refY="0"
       refX="0"
       id="Arrow1Lstart"
       style="overflow:visible"
       inkscape:isstock="true">
      <path
         id="path881"
         d="M 0,0 5,-5 -12.5,0 5,5 Z"
         style="fill:#fe0000;fill-opacity:1;fill-rule:evenodd;stroke:#fe0000;stroke-width:1.00000003pt;stroke-opacity:1"
         transform="matrix(0.8,0,0,0.8,10,0)"
         inkscape:connector-curvature="0" />
    </marker>
    <inkscape:path-effect
       effect="knot"
       id="path-effect840"
       is_visible="true"
       interruption_width="3"
       prop_to_stroke_width="false"
       add_stroke_width="true"
       add_other_stroke_width="false"
       switcher_size="15"
       crossing_points_vector="378.93662 | 781.08803 | 0 | 0 | 0 | 5 | 0.18560264 | 2.6386092 | 1 | 393.40428 | 779.97827 | 0 | 0 | 1 | 6 | 0.30619091 | 3.4345801 | 1 | 409.06007 | 778.64787 | 0 | 0 | 2 | 7 | 0.44327826 | 4.5208601 | 1 | 424.08482 | 777.65337 | 0 | 0 | 3 | 8 | 0.58869954 | 5.5241422 | 1 | 439.3098 | 777.82629 | 0 | 0 | 4 | 9 | 0.76825618 | 6.4543532 | 1" />
    <filter
       id="filter3111"
       inkscape:label="Outline, double"
       inkscape:menu="Morphology"
       inkscape:menu-tooltip="Draws a smooth line inside colorized with the color it overlays"
       style="color-interpolation-filters:sRGB">
      <feGaussianBlur
         id="feGaussianBlur3113"
         stdDeviation="3"
         in="SourceAlpha"
         result="result1" />
      <feComposite
         id="feComposite3115"
         in2="result1"
         operator="arithmetic"
         k2="3.2"
         k1="-1"
         k4="-2"
         result="result3"
         k3="0" />
      <feColorMatrix
         id="feColorMatrix3117"
         values="0 0 0 0 0 0 1 0 0 0 0 0 1 0 0 0 0 0 10 0 "
         result="result2" />
      <feComposite
         id="feComposite3119"
         in2="result2"
         result="fbSourceGraphic"
         in="SourceGraphic"
         operator="out" />
      <feGaussianBlur
         id="feGaussianBlur3121"
         in="fbSourceGraphic"
         stdDeviation="0.5"
         result="result4" />
      <feComposite
         id="feComposite3123"
         in2="result4"
         operator="xor"
         in="result4"
         result="result5" />
      <feBlend
         id="feBlend3125"
         in2="result5"
         result="result6"
         mode="darken"
         in="result5" />
      <feBlend
         id="feBlend3127"
         in2="result6"
         in="result6"
         mode="darken" />
    </filter>
    <inkscape:path-effect
       effect="knot"
       id="path-effect840-2"
       is_visible="true"
       interruption_width="3"
       prop_to_stroke_width="false"
       add_stroke_width="true"
       add_other_stroke_width="false"
       switcher_size="15"
       crossing_points_vector="403.23988 | 875.24536 | 0 | 0 | 0 | 3 | 0.30583405 | 3.7905355 | -1 | 434.69018 | 856.18644 | 0 | 0 | 1 | 4 | 0.64654265 | 5.6367509 | 1 | 461.39463 | 867.49793 | 0 | 0 | 2 | 5 | 2.013941 | 6.3359148 | 1" />
    <marker
       inkscape:stockid="Arrow2Mend"
       orient="auto"
       refY="0"
       refX="0"
       id="Arrow2Mend-2"
       style="overflow:visible">
      <path
         id="path3886"
         style="fill-rule:evenodd;stroke-width:0.625;stroke-linejoin:round"
         d="M 8.7185878,4.0337352 -2.2072895,0.01601326 8.7185884,-4.0017078 c -1.7454984,2.3720609 -1.7354408,5.6174519 -6e-7,8.035443 z"
         transform="scale(-0.6)"
         inkscape:connector-curvature="0" />
    </marker>
    <marker
       inkscape:stockid="Arrow2Mend"
       orient="auto"
       refY="0"
       refX="0"
       id="marker910"
       style="overflow:visible">
      <path
         id="path908-3"
         style="fill-rule:evenodd;stroke-width:0.625;stroke-linejoin:round"
         d="M 8.7185878,4.0337352 -2.2072895,0.01601326 8.7185884,-4.0017078 c -1.7454984,2.3720609 -1.7354408,5.6174519 -6e-7,8.035443 z"
         transform="scale(-0.6)"
         inkscape:connector-curvature="0" />
    </marker>
    <marker
       inkscape:stockid="Arrow2Mend"
       orient="auto"
       refY="0"
       refX="0"
       id="marker914"
       style="overflow:visible">
      <path
         id="path912"
         style="fill-rule:evenodd;stroke-width:0.625;stroke-linejoin:round"
         d="M 8.7185878,4.0337352 -2.2072895,0.01601326 8.7185884,-4.0017078 c -1.7454984,2.3720609 -1.7354408,5.6174519 -6e-7,8.035443 z"
         transform="scale(-0.6)"
         inkscape:connector-curvature="0" />
    </marker>
    <marker
       inkscape:stockid="Arrow2Mend"
       orient="auto"
       refY="0"
       refX="0"
       id="marker918"
       style="overflow:visible">
      <path
         id="path916"
         style="fill-rule:evenodd;stroke-width:0.625;stroke-linejoin:round"
         d="M 8.7185878,4.0337352 -2.2072895,0.01601326 8.7185884,-4.0017078 c -1.7454984,2.3720609 -1.7354408,5.6174519 -6e-7,8.035443 z"
         transform="scale(-0.6)"
         inkscape:connector-curvature="0" />
    </marker>
    <marker
       inkscape:stockid="Arrow2Mend"
       orient="auto"
       refY="0"
       refX="0"
       id="marker922"
       style="overflow:visible">
      <path
         id="path920"
         style="fill-rule:evenodd;stroke-width:0.625;stroke-linejoin:round"
         d="M 8.7185878,4.0337352 -2.2072895,0.01601326 8.7185884,-4.0017078 c -1.7454984,2.3720609 -1.7354408,5.6174519 -6e-7,8.035443 z"
         transform="scale(-0.6)"
         inkscape:connector-curvature="0" />
    </marker>
    <marker
       inkscape:stockid="Arrow2Mend"
       orient="auto"
       refY="0"
       refX="0"
       id="marker926"
       style="overflow:visible">
      <path
         id="path924"
         style="fill-rule:evenodd;stroke-width:0.625;stroke-linejoin:round"
         d="M 8.7185878,4.0337352 -2.2072895,0.01601326 8.7185884,-4.0017078 c -1.7454984,2.3720609 -1.7354408,5.6174519 -6e-7,8.035443 z"
         transform="scale(-0.6)"
         inkscape:connector-curvature="0" />
    </marker>
    <inkscape:path-effect
       effect="knot"
       id="path-effect840-23"
       is_visible="true"
       interruption_width="3"
       prop_to_stroke_width="false"
       add_stroke_width="true"
       add_other_stroke_width="false"
       switcher_size="15"
       crossing_points_vector="504.33352 | 781.66597 | 0 | 0 | 0 | 3 | 0.37501026 | 2.3802541 | 1 | 516.60975 | 780.53839 | 0 | 0 | 1 | 4 | 0.65285069 | 3.2146916 | 1 | 521.8497 | 769.99432 | 0 | 0 | 2 | 5 | 1.6255331 | 3.6006236 | 1" />
    <inkscape:path-effect
       effect="knot"
       id="path-effect840-237"
       is_visible="true"
       interruption_width="3"
       prop_to_stroke_width="false"
       add_stroke_width="true"
       add_other_stroke_width="false"
       switcher_size="15"
       crossing_points_vector="384.88435 | 783.82027 | 0 | 0 | 0 | 3 | 0.25288937 | 2.6201011 | 1 | 401.40334 | 774.73744 | 0 | 0 | 1 | 4 | 0.61351179 | 3.3864882 | 1 | 417.92233 | 783.82028 | 0 | 0 | 2 | 5 | 1.3798989 | 3.7471107 | 1" />
    <marker
       inkscape:stockid="Arrow2Mend"
       orient="auto"
       refY="0"
       refX="0"
       id="Arrow2Mend-2-2-6"
       style="overflow:visible"
       inkscape:isstock="true">
      <path
         id="path908-3-2-7"
         style="fill:#ff0000;fill-opacity:1;fill-rule:evenodd;stroke:#ff0000;stroke-width:0.625;stroke-linejoin:round;stroke-opacity:1"
         d="M 8.7185878,4.0337352 -2.2072895,0.01601326 8.7185884,-4.0017078 c -1.7454984,2.3720609 -1.7354408,5.6174519 -6e-7,8.035443 z"
         transform="scale(-0.6)"
         inkscape:connector-curvature="0" />
    </marker>
    <marker
       inkscape:stockid="Arrow2Mend"
       orient="auto"
       refY="0"
       refX="0"
       id="marker870"
       style="overflow:visible"
       inkscape:isstock="true">
      <path
         id="path868"
         style="fill:#ff0000;fill-opacity:1;fill-rule:evenodd;stroke:#ff0000;stroke-width:0.625;stroke-linejoin:round;stroke-opacity:1"
         d="M 8.7185878,4.0337352 -2.2072895,0.01601326 8.7185884,-4.0017078 c -1.7454984,2.3720609 -1.7354408,5.6174519 -6e-7,8.035443 z"
         transform="scale(-0.6)"
         inkscape:connector-curvature="0" />
    </marker>
    <inkscape:path-effect
       effect="knot"
       id="path-effect840-3"
       is_visible="true"
       interruption_width="3"
       prop_to_stroke_width="false"
       add_stroke_width="true"
       add_other_stroke_width="false"
       switcher_size="15"
       crossing_points_vector="793.51078 | 686.29803 | 0 | 0 | 1 | 12 | 0.25177104 | 2.6886624 | 1 | 808.74696 | 685.89323 | 0 | 0 | 3 | 14 | 0.36861915 | 3.3623818 | 1 | 824.07784 | 685.68086 | 0 | 0 | 5 | 16 | 0.49106707 | 4.6427403 | 1 | 840.26638 | 685.99643 | 0 | 0 | 7 | 18 | 0.63386085 | 5.3648592 | 1 | 861.69985 | 689.20247 | 0 | 0 | 9 | 20 | 0.89262413 | 6.3791909 | 1 | 784.60697 | 686.54712 | 0 | 0 | 0 | 21 | 0.18379986 | 7.6312471 | 1 | 803.90384 | 686.01088 | 0 | 0 | 2 | 23 | 0.33120101 | 8.5204291 | 1 | 818.90216 | 685.71628 | 0 | 0 | 4 | 25 | 0.44882209 | 9.4730095 | 1 | 833.90435 | 685.77317 | 0 | 0 | 6 | 27 | 0.57526245 | 10.525723 | 1 | 852.60165 | 687.09436 | 0 | 0 | 8 | 29 | 0.76410297 | 11.418695 | 1 | 867.20846 | 707.42874 | 0 | 0 | 10 | 31 | 1.3815731 | 11.791263 | 1 | 797.03847 | 701.91085 | 0 | 0 | 11 | 22 | 2.4318418 | 8.0145324 | 1 | 804.57715 | 677.52617 | 0 | 0 | 13 | 24 | 3.0837851 | 8.7239406 | 1 | 823.2295 | 701.33316 | 0 | 0 | 15 | 26 | 4.2760595 | 9.9162148 | 1 | 834.58637 | 677.48967 | 0 | 0 | 17 | 28 | 5.0811044 | 10.724956 | 1 | 859.28778 | 700.30161 | 0 | 0 | 19 | 30 | 6.2166858 | 11.64347 | 1" />
    <inkscape:path-effect
       effect="knot"
       id="path-effect840-3-7"
       is_visible="true"
       interruption_width="3"
       prop_to_stroke_width="false"
       add_stroke_width="true"
       add_other_stroke_width="false"
       switcher_size="15"
       crossing_points_vector="793.91751 | 686.54137 | 0 | 0 | 0 | 5 | 0.18544516 | 2.7019136 | 1 | 808.69224 | 686.08883 | 0 | 0 | 1 | 6 | 0.30863365 | 3.4719424 | 1 | 824.20782 | 685.72227 | 0 | 0 | 2 | 7 | 0.44462547 | 4.5403342 | 1 | 838.61798 | 685.79693 | 0 | 0 | 3 | 8 | 0.58385372 | 5.4621699 | 1 | 854.41742 | 687.1637 | 0 | 0 | 4 | 9 | 0.76974854 | 6.4743842 | 1" />
    <inkscape:path-effect
       effect="knot"
       id="path-effect840-3-3"
       is_visible="true"
       interruption_width="3"
       prop_to_stroke_width="false"
       add_stroke_width="true"
       add_other_stroke_width="false"
       switcher_size="15"
       crossing_points_vector="795.80268 | 685.51211 | 0 | 0 | 1 | 12 | 0.25121897 | 2.613737 | -1 | 816.34917 | 684.15983 | 0 | 0 | 3 | 14 | 0.38862926 | 3.4927825 | -1 | 836.69728 | 682.97823 | 0 | 0 | 5 | 16 | 0.52865266 | 4.5388042 | -1 | 856.00668 | 682.48929 | 0 | 0 | 7 | 18 | 0.67733637 | 5.4480481 | -1 | 876.32123 | 684.39258 | 0 | 0 | 9 | 20 | 0.89420244 | 6.3477033 | -1 | 786.71438 | 686.05932 | 0 | 0 | 0 | 21 | 0.18916464 | 7.6800634 | -1 | 806.32456 | 684.82397 | 0 | 0 | 2 | 23 | 0.32169613 | 8.4895052 | -1 | 826.22469 | 683.5412 | 0 | 0 | 4 | 25 | 0.45545745 | 9.4762682 | -1 | 846.77668 | 682.59904 | 0 | 0 | 6 | 27 | 0.60316564 | 10.548995 | -1 | 865.55998 | 682.80311 | 0 | 0 | 8 | 29 | 0.76479071 | 11.370895 | -1 | 881.61157 | 702.49207 | 0 | 0 | 10 | 31 | 1.3829726 | 11.777189 | -1 | 797.82885 | 696.84814 | 0 | 0 | 11 | 22 | 2.4328382 | 8.0335079 | -1 | 811.40333 | 673.28539 | 0 | 0 | 13 | 24 | 3.1412206 | 8.8587794 | -1 | 831.40332 | 695.57554 | 0 | 0 | 15 | 26 | 4.1412207 | 9.8587793 | -1 | 851.40333 | 673.2854 | 0 | 0 | 17 | 28 | 5.1412207 | 10.858779 | -1 | 871.68009 | 694.80806 | 0 | 0 | 19 | 30 | 6.1312603 | 11.603927 | -1" />
    <marker
       inkscape:stockid="Arrow2Mend"
       orient="auto"
       refY="0"
       refX="0"
       id="Arrow2Mend-2-2-6-6"
       style="overflow:visible"
       inkscape:isstock="true">
      <path
         id="path908-3-2-7-2"
         style="fill:#ff0000;fill-opacity:1;fill-rule:evenodd;stroke:#ff0000;stroke-width:0.625;stroke-linejoin:round;stroke-opacity:1"
         d="M 8.7185878,4.0337352 -2.2072895,0.01601326 8.7185884,-4.0017078 c -1.7454984,2.3720609 -1.7354408,5.6174519 -6e-7,8.035443 z"
         transform="scale(-0.6)"
         inkscape:connector-curvature="0" />
    </marker>
    <marker
       inkscape:stockid="Arrow2Mend"
       orient="auto"
       refY="0"
       refX="0"
       id="marker27121"
       style="overflow:visible"
       inkscape:isstock="true">
      <path
         id="path27119"
         style="fill:#ff0000;fill-opacity:1;fill-rule:evenodd;stroke:#ff0000;stroke-width:0.625;stroke-linejoin:round;stroke-opacity:1"
         d="M 8.7185878,4.0337352 -2.2072895,0.01601326 8.7185884,-4.0017078 c -1.7454984,2.3720609 -1.7354408,5.6174519 -6e-7,8.035443 z"
         transform="scale(-0.6)"
         inkscape:connector-curvature="0" />
    </marker>
    <marker
       inkscape:stockid="Arrow2Mend"
       orient="auto"
       refY="0"
       refX="0"
       id="Arrow2Mend-2-2-6-6-1"
       style="overflow:visible"
       inkscape:isstock="true">
      <path
         id="path908-3-2-7-2-2"
         style="fill:#ff0000;fill-opacity:1;fill-rule:evenodd;stroke:#ff0000;stroke-width:0.625;stroke-linejoin:round;stroke-opacity:1"
         d="M 8.7185878,4.0337352 -2.2072895,0.01601326 8.7185884,-4.0017078 c -1.7454984,2.3720609 -1.7354408,5.6174519 -6e-7,8.035443 z"
         transform="scale(-0.6)"
         inkscape:connector-curvature="0" />
    </marker>
    <marker
       inkscape:stockid="Arrow2Mend"
       orient="auto"
       refY="0"
       refX="0"
       id="marker29371"
       style="overflow:visible"
       inkscape:isstock="true">
      <path
         id="path29369"
         style="fill:#ff0000;fill-opacity:1;fill-rule:evenodd;stroke:#ff0000;stroke-width:0.625;stroke-linejoin:round;stroke-opacity:1"
         d="M 8.7185878,4.0337352 -2.2072895,0.01601326 8.7185884,-4.0017078 c -1.7454984,2.3720609 -1.7354408,5.6174519 -6e-7,8.035443 z"
         transform="scale(-0.6)"
         inkscape:connector-curvature="0" />
    </marker>
    <inkscape:path-effect
       effect="knot"
       id="path-effect840-3-3-0"
       is_visible="true"
       interruption_width="3"
       prop_to_stroke_width="false"
       add_stroke_width="true"
       add_other_stroke_width="false"
       switcher_size="15"
       crossing_points_vector="822.30528 | 674.37994 | 0 | 0 | 4 | 13 | 0.49193373 | 2.6422735 | -1 | 794.71097 | 675.1455 | 0 | 0 | 1 | 16 | 0.32685142 | 3.3699772 | -1 | 833.19153 | 674.16756 | 0 | 0 | 5 | 20 | 0.55520875 | 4.6457043 | -1 | 865.42441 | 674.14177 | 0 | 0 | 8 | 23 | 0.75902788 | 5.4118005 | -1 | 843.78449 | 674.03569 | 0 | 0 | 6 | 25 | 0.61807366 | 6.5902865 | -1 | 812.96071 | 674.60912 | 0 | 0 | 3 | 28 | 0.43752247 | 7.3614126 | -1 | 774.55385 | 675.80972 | 0 | 0 | 0 | 31 | 0.18402435 | 8.6195287 | -1 | 804.5538 | 674.84402 | 0 | 0 | 2 | 33 | 0.38762873 | 9.3651738 | -1 | 853.27815 | 674.00359 | 0 | 0 | 7 | 38 | 0.67694705 | 10.648364 | -1 | 882.60618 | 675.09498 | 0 | 0 | 9 | 40 | 0.90886354 | 11.369174 | -1 | 892.83205 | 695.10122 | 0 | 0 | 10 | 41 | 1.5491011 | 11.675792 | -1 | 827.47283 | 686.46562 | 0 | 0 | 12 | 19 | 2.4592965 | 4.4592965 | -1 | 818.20501 | 666.53303 | 0 | 0 | 14 | 27 | 2.7858153 | 7.2141847 | 1 | 839.15142 | 700.95731 | 0 | 0 | 11 | 36 | 2.2132608 | 10.213261 | -1 | 798.87222 | 701.26888 | 0 | 0 | 17 | 30 | 3.7937005 | 7.7937006 | -1 | 798.87222 | 666.17954 | 0 | 0 | 15 | 32 | 3.2062994 | 9.2062993 | -1 | 838.92134 | 665.75248 | 0 | 0 | 21 | 26 | 4.8035358 | 6.7747273 | -1 | 818.69662 | 701.45905 | 0 | 0 | 18 | 35 | 4.2019642 | 9.7980359 | -1 | 859.37216 | 665.29876 | 0 | 0 | 22 | 39 | 5.2126379 | 10.814411 | -1 | 847.96791 | 685.36122 | 0 | 0 | 24 | 37 | 6.3706985 | 10.475729 | -1 | 808.69662 | 683.72421 | 0 | 0 | 29 | 34 | 7.4999999 | 9.4999999 | -1" />
    <inkscape:path-effect
       effect="knot"
       id="path-effect840-3-3-3"
       is_visible="true"
       interruption_width="3"
       prop_to_stroke_width="false"
       add_stroke_width="true"
       add_other_stroke_width="false"
       switcher_size="15"
       crossing_points_vector="780.26945 | 600.27079 | 0 | 0 | 0 | 11 | 0.18165192 | 2.6231244 | -1 | 801.58122 | 599.74538 | 0 | 0 | 2 | 13 | 0.32582403 | 3.4348616 | -1 | 831.19614 | 599.40814 | 0 | 0 | 5 | 16 | 0.52766006 | 4.5206394 | -1 | 850.96001 | 599.99917 | 0 | 0 | 7 | 18 | 0.68001675 | 5.4892212 | -1 | 869.41452 | 602.49485 | 0 | 0 | 9 | 20 | 0.87163714 | 6.4076318 | -1 | 820.80729 | 599.4246 | 0 | 0 | 4 | 21 | 0.45508081 | 7.55056 | -1 | 789.06456 | 600.0512 | 0 | 0 | 1 | 24 | 0.24192156 | 8.5592216 | -1 | 811.46432 | 599.54627 | 0 | 0 | 3 | 26 | 0.39183171 | 9.4309994 | -1 | 841.17559 | 599.57117 | 0 | 0 | 6 | 29 | 0.6013364 | 10.517918 | -1 | 860.33593 | 600.83646 | 0 | 0 | 8 | 31 | 0.76618032 | 11.465733 | -1 | 876.34833 | 621.0573 | 0 | 0 | 10 | 33 | 1.379596 | 11.802117 | -1 | 812.70922 | 616.6442 | 0 | 0 | 14 | 23 | 3.7894445 | 7.8263033 | -1 | 791.41995 | 587.26161 | 0 | 0 | 12 | 25 | 3.1297934 | 8.8702066 | -1 | 825.55339 | 618.96195 | 0 | 0 | 15 | 28 | 4.1236645 | 9.8673641 | -1 | 846.04091 | 582.81368 | 0 | 0 | 17 | 30 | 5.1412207 | 10.858779 | -1 | 867.84682 | 614.95218 | 0 | 0 | 19 | 32 | 6.2100964 | 11.683089 | -1 | 816.96068 | 608.97878 | 0 | 0 | 22 | 27 | 7.6864123 | 9.6130297 | -1" />
    <inkscape:path-effect
       effect="knot"
       id="path-effect840-3-3-3-0"
       is_visible="true"
       interruption_width="3"
       prop_to_stroke_width="false"
       add_stroke_width="true"
       add_other_stroke_width="false"
       switcher_size="15"
       crossing_points_vector="826.07093 | 605.49507 | 0 | 0 | 1 | 12 | 0.25302879 | 2.5262455 | -1 | 846.68239 | 604.13811 | 0 | 0 | 3 | 14 | 0.3908635 | 3.5368746 | -1 | 866.26938 | 602.99846 | 0 | 0 | 5 | 16 | 0.52559321 | 4.4821789 | -1 | 886.47372 | 602.49234 | 0 | 0 | 7 | 18 | 0.68130511 | 5.5093793 | -1 | 906.40682 | 604.41681 | 0 | 0 | 9 | 20 | 0.89552203 | 6.3987927 | -1 | 816.38317 | 606.07788 | 0 | 0 | 0 | 21 | 0.18686936 | 7.6245492 | -1 | 836.03217 | 604.84342 | 0 | 0 | 2 | 23 | 0.3197463 | 8.4512831 | -1 | 856.6031 | 603.5188 | 0 | 0 | 4 | 25 | 0.4580513 | 9.5265106 | -1 | 876.31803 | 602.61142 | 0 | 0 | 6 | 27 | 0.59965365 | 10.488635 | -1 | 897.73536 | 602.97428 | 0 | 0 | 8 | 29 | 0.78719827 | 11.47842 | -1 | 912.19032 | 621.56559 | 0 | 0 | 10 | 31 | 1.3622867 | 11.784587 | -1 | 831.24958 | 619.92403 | 0 | 0 | 11 | 22 | 2.3404614 | 8.1355504 | -1 | 841.40333 | 584.09753 | 0 | 0 | 13 | 24 | 3.1412206 | 8.8587794 | -1 | 861.40332 | 619.76177 | 0 | 0 | 15 | 26 | 4.1412207 | 9.8587793 | -1 | 881.40333 | 584.09753 | 0 | 0 | 17 | 28 | 5.1412207 | 10.858779 | -1 | 904.54063 | 615.25096 | 0 | 0 | 19 | 30 | 6.2292556 | 11.666456 | -1" />
    <inkscape:path-effect
       effect="knot"
       id="path-effect840-3-3-3-2"
       is_visible="true"
       interruption_width="3"
       prop_to_stroke_width="false"
       add_stroke_width="true"
       add_other_stroke_width="false"
       switcher_size="15"
       crossing_points_vector="855.57632 | 609.51445 | 0 | 0 | 3 | 14 | 0.40481737 | 2.6308597 | -1 | 835.2384 | 609.87307 | 0 | 0 | 1 | 16 | 0.28973055 | 3.3748259 | -1 | 877.56281 | 609.41065 | 0 | 0 | 5 | 20 | 0.53083179 | 4.6325121 | -1 | 903.36589 | 610.12103 | 0 | 0 | 7 | 22 | 0.69580373 | 5.4883363 | -1 | 927.02544 | 613.47274 | 0 | 0 | 9 | 24 | 0.91779953 | 6.3663693 | -1 | 865.98638 | 609.41455 | 0 | 0 | 4 | 25 | 0.46375874 | 7.4546484 | -1 | 820.29041 | 610.19946 | 0 | 0 | 0 | 29 | 0.20175961 | 8.6200293 | -1 | 842.80021 | 609.72162 | 0 | 0 | 2 | 31 | 0.33280945 | 9.3724291 | -1 | 892.44193 | 609.65573 | 0 | 0 | 6 | 35 | 0.62207616 | 10.628616 | -1 | 916.63542 | 611.30606 | 0 | 0 | 8 | 37 | 0.80140243 | 11.42716 | -1 | 932.30191 | 629.91814 | 0 | 0 | 10 | 39 | 1.4359537 | 11.761803 | -1 | 868.84098 | 628.22547 | 0 | 0 | 12 | 19 | 2.3457811 | 4.3457811 | -1 | 860.73088 | 617.67865 | 0 | 0 | 13 | 26 | 2.5069211 | 7.5551676 | 1 | 878.78082 | 636.2304 | 0 | 0 | 11 | 34 | 2.1938026 | 10.193803 | -1 | 848.08225 | 636.76479 | 0 | 0 | 17 | 28 | 3.8192012 | 7.8375894 | -1 | 835.32438 | 600.60113 | 0 | 0 | 15 | 30 | 3.2062996 | 9.2062993 | -1 | 863.13184 | 636.96421 | 0 | 0 | 18 | 33 | 4.1757571 | 9.8242429 | -1 | 898.67146 | 599.63382 | 0 | 0 | 21 | 36 | 5.2286495 | 10.816541 | -1 | 922.87796 | 622.35394 | 0 | 0 | 23 | 38 | 6.1763123 | 11.613772 | -1 | 854.86803 | 627.38633 | 0 | 0 | 27 | 32 | 7.6804465 | 9.6406028 | -1" />
    <inkscape:path-effect
       effect="knot"
       id="path-effect840-3-3-3-2-8"
       is_visible="true"
       interruption_width="3"
       prop_to_stroke_width="false"
       add_stroke_width="true"
       add_other_stroke_width="false"
       switcher_size="15"
       crossing_points_vector="876.94735 | 612.50518 | 0 | 0 | 3 | 14 | 0.33112686 | 2.6634637 | -1 | 855.01903 | 613.22989 | 0 | 0 | 1 | 16 | 0.20676308 | 3.3484561 | -1 | 905.88766 | 612.51741 | 0 | 0 | 5 | 20 | 0.49907152 | 4.6632608 | -1 | 934.47374 | 614.07355 | 0 | 0 | 8 | 23 | 0.68950337 | 5.4650024 | -1 | 914.65191 | 612.78551 | 0 | 0 | 6 | 25 | 0.55331328 | 6.5639117 | -1 | 885.06535 | 612.39036 | 0 | 0 | 4 | 27 | 0.37723453 | 7.3346291 | -1 | 840.12252 | 614.07329 | 0 | 0 | 0 | 31 | 0.11975134 | 8.6379055 | -1 | 862.84219 | 612.90264 | 0 | 0 | 2 | 33 | 0.25135461 | 9.3430982 | -1 | 921.82408 | 613.12493 | 0 | 0 | 7 | 38 | 0.59988781 | 10.653258 | -1 | 946.37124 | 615.61659 | 0 | 0 | 9 | 40 | 0.78966892 | 11.415375 | -1 | 962.30191 | 634.91821 | 0 | 0 | 10 | 41 | 1.4359537 | 11.761803 | -1 | 893.36677 | 630.77026 | 0 | 0 | 12 | 19 | 2.3850193 | 4.3850193 | -1 | 881.73105 | 618.15658 | 0 | 0 | 13 | 28 | 2.574466 | 7.4255341 | 1 | 905.42344 | 639.95099 | 0 | 0 | 11 | 36 | 2.2225621 | 10.222562 | -1 | 868.22217 | 641.89677 | 0 | 0 | 17 | 30 | 3.8225236 | 7.8225238 | -1 | 855.4336 | 605.21592 | 0 | 0 | 15 | 32 | 3.1974426 | 9.1974425 | -1 | 911.58845 | 605.76833 | 0 | 0 | 21 | 26 | 4.7899453 | 6.737323 | -1 | 885.74242 | 640.27307 | 0 | 0 | 18 | 35 | 4.2155892 | 9.7844109 | -1 | 928.9519 | 603.942 | 0 | 0 | 22 | 39 | 5.2060474 | 10.834328 | -1 | 916.92711 | 621.55214 | 0 | 0 | 24 | 37 | 6.3655059 | 10.523628 | -1 | 876.0113 | 629.47059 | 0 | 0 | 29 | 34 | 7.5948369 | 9.5948367 | -1" />
  </defs>
  <sodipodi:namedview
     id="base"
     pagecolor="#ffffff"
     bordercolor="#666666"
     borderopacity="1.0"
     inkscape:pageopacity="0.0"
     inkscape:pageshadow="2"
     inkscape:zoom="1.979899"
     inkscape:cx="254.32221"
     inkscape:cy="131.87441"
     inkscape:document-units="px"
     inkscape:current-layer="layer1"
     showgrid="true"
     inkscape:object-paths="false"
     inkscape:window-width="1920"
     inkscape:window-height="1035"
     inkscape:window-x="0"
     inkscape:window-y="45"
     inkscape:window-maximized="1"
     inkscape:showpageshadow="false"
     fit-margin-top="5"
     fit-margin-left="5"
     fit-margin-right="5"
     fit-margin-bottom="5"
     inkscape:snap-intersection-paths="false"
     inkscape:snap-midpoints="false"
     inkscape:snap-smooth-nodes="false"
     inkscape:object-nodes="true">
    <inkscape:grid
       type="xygrid"
       id="grid838"
       originx="-435"
       originy="226.5" />
  </sodipodi:namedview>
  <metadata
     id="metadata3085">
    <rdf:RDF>
      <cc:Work
         rdf:about="">
        <dc:format>image/svg+xml</dc:format>
        <dc:type
           rdf:resource="http://purl.org/dc/dcmitype/StillImage" />
        <dc:title></dc:title>
      </cc:Work>
    </rdf:RDF>
  </metadata>
  <g
     inkscape:label="Layer 1"
     inkscape:groupmode="layer"
     id="layer1"
     transform="translate(-741.40334,-910.42969)">
    <path
       transform="translate(-12.293285,255.70548)"
       style="fill:none;fill-rule:evenodd;stroke:#000000;stroke-width:3;stroke-linecap:butt;stroke-linejoin:miter;stroke-miterlimit:4;stroke-dasharray:none;stroke-opacity:1"
       d="m 758.69662,676.22421 c 4.60198,0 17.20462,-0.47063 32.89875,-0.97872 m 6.23072,-0.19798 c 1.1241,-0.035 2.25973,-0.0699 3.4053,-0.10451 m 6.64649,-0.1947 c 0.55038,-0.0155 1.10227,-0.031 1.65552,-0.0463 m 6.85227,-0.18117 c 15.924,-0.39961 32.40753,-0.65479 45.78143,-0.44179 m 6.52465,0.15055 c 3.93891,0.12298 7.48953,0.30039 10.52874,0.54308 m 6.84303,0.81628 c 1.05077,0.19106 1.93421,0.40232 2.63311,0.63529 15,5 10,30 -30,30 -7.04952,0 -12.54605,-1.39769 -16.9275,-3.70042 m -5.01272,-3.38602 c -3.14003,-2.66577 -5.53789,-5.88736 -7.50623,-9.31303 m -3.43824,-6.97685 c -0.80531,-1.85644 -1.54953,-3.70491 -2.2777,-5.49476 m -2.55428,-5.94422 c -0.36368,-0.76617 -0.7359,-1.5048 -1.12174,-2.21017 m -3.62341,-4.9695 c -1.97572,-1.88566 -4.38383,-3.00503 -7.53819,-3.00503 -14.80546,0 -18.65083,24.66014 -11.53615,37.46999 m 3.80613,4.73014 c 2.11514,1.76141 4.69181,2.79987 7.73002,2.79987 3.0019,0 5.55323,-1.01378 7.78925,-2.73703 m 4.13583,-4.36202 c 4.32429,-5.87106 7.45312,-14.43192 11.05318,-21.93249 m 3.22264,-6.0533 c 3.50328,-5.772 7.7305,-9.91516 13.79911,-9.91516 20,0 24.99999,35 9.99999,35 -4.35427,0 -7.02324,-2.94928 -9.10764,-7.13559 m -3.10099,-7.77087 c -0.50095,-1.42005 -1.0037,-2.8634 -1.53304,-4.29153 m -2.53596,-5.97948 c -0.50975,-1.01015 -1.05694,-1.97774 -1.6531,-2.88483 m -4.06143,-4.4323 c -2.1312,-1.56799 -4.73473,-2.5054 -8.00784,-2.5054 -20.00001,0 -20,45 -40,45 -11.46083,0 -16.35413,-14.77694 -14.6799,-27.39522 m 1.38369,-6.04872 c 2.2344,-6.61129 6.66647,-11.55606 13.29621,-11.55606 3.08991,0 5.70245,1.0741 7.98511,2.89042 m 4.12062,4.45641 c 2.34066,3.24304 4.33258,7.27077 6.24624,11.47459 m 3.29606,7.35715 c 4.50616,9.89892 9.44629,18.82143 18.35197,18.82143 12.01965,0 16.8157,-16.2531 23.07066,-29.22364 m 3.21088,-5.99359 c 0.76003,-1.24281 1.55431,-2.40855 2.39416,-3.47177 m 4.35376,-4.1631 c 2.03603,-1.3628 4.32882,-2.1479 6.97054,-2.1479 12.7045,0 13.30368,18.15796 22.30313,31.40512 m 3.84677,4.73133 c 5.1286,5.217 12.4635,8.86355 23.85012,8.86355"
       id="path831-6-5-9"
       inkscape:connector-curvature="0"
       sodipodi:nodetypes="czzzzzzzzzzzc"
       inkscape:path-effect="#path-effect840-3-3-0"
       inkscape:original-d="m 758.69662,676.22421 c 15,0 115.00001,-5 130.00001,0 15,5 10,30 -30,30 -40.00001,0 -30,-45 -50.00001,-45 -20.00001,0 -19.99999,45 0,45 20,0 20.00002,-45 40.00001,-45 20,0 24.99999,35 9.99999,35 -15,0 -9.99999,-35 -30,-35 -20.00001,0 -20,45 -40,45 -20,0 -20,-45 0,-45 20,0 20,45 40,45 20,0 19.99999,-45 40,-45 20.00001,0 10,45 50.00002,45" />
    <path
       transform="translate(175.36243,161.28389)"
       style="fill:none;fill-rule:evenodd;stroke:#000000;stroke-width:3;stroke-linecap:butt;stroke-linejoin:miter;stroke-miterlimit:4;stroke-dasharray:none;stroke-opacity:1"
       d="m 756.04091,600.6458 c 12.11748,0 26.98809,-0.45878 42.10975,-0.82037 m 6.86391,-0.15535 c 1.00294,-0.0212 2.00533,-0.0415 3.00642,-0.0609 m 6.89178,-0.117 c 0.8906,-0.0127 1.77881,-0.0243 2.6641,-0.0348 m 6.45625,-0.0537 c 8.53534,-0.0384 16.6633,0.0662 23.88207,0.42522 m 6.09504,0.38363 c 1.06527,0.083 2.10339,0.17338 3.11228,0.2716 m 6.45487,0.80499 c 6.07148,0.95998 10.46535,2.35929 12.46354,4.35748 10.00001,10 -5.00001,35 -50,30 -26.04215,-2.89357 -40.36244,-19.18384 -44.89904,-32.39599 m -1.42531,-5.96735 c -0.85104,-6.74152 1.37669,-11.63746 6.32434,-11.63746 10.94739,0 16.56832,18.64264 24.63758,28.71613 m 4.31916,4.22815 c 1.83996,1.29583 3.83305,2.05572 6.04325,2.05572 0.48331,0 0.94068,-0.0415 1.37375,-0.12191 m 4.97688,-3.94866 c 1.93003,-3.46327 2.73365,-8.7288 3.42785,-14.1694 m 0.77247,-5.99527 c 1.18065,-8.40538 3.01505,-15.76476 9.44906,-15.76476 15,0 5,40 20,40 2.20049,0 3.97057,-1.07602 5.31023,-2.91236 m 2.47643,-6.10449 c 0.38665,-1.83287 0.60102,-3.86312 0.64313,-6.0108 m -0.33873,-6.30792 c -1.66873,-13.5933 -9.36574,-28.66399 -23.09106,-28.66443 -25.00001,-8.1e-4 -24.99999,49.99999 -40,50 -7.53179,0 -13.80296,-8.82432 -16.28159,-17.61125 m -1.07939,-5.97456 c -0.19962,-2.8014 0.0998,-5.36514 0.9958,-7.35007 m 4.99996,-3.95867 c 0.42986,-0.0695 0.88471,-0.10545 1.36522,-0.10545 8.26698,10e-6 13.49649,10.63113 19.03663,20.17508 m 3.83563,6.15907 c 3.44512,4.97974 7.25984,8.66585 12.12774,8.66585 7.02034,0 8.56455,-8.76181 9.75854,-18.08398 m 0.76857,-5.98083 c 0.59277,-4.25824 1.34596,-8.2598 2.77009,-11.18786 m 4.19125,-4.30591 c 0.74919,-0.28794 1.58241,-0.44142 2.51156,-0.44142 11.55851,0 2.33491,26.71985 22.65899,38.98101 m 5.4446,2.63396 c 5.52871,2.1147 12.65349,3.3857 21.89641,3.38583"
       id="path831-6-5-6"
       inkscape:connector-curvature="0"
       sodipodi:nodetypes="czzzzzzzzzzzc"
       inkscape:path-effect="#path-effect840-3-3-3"
       inkscape:original-d="m 756.04091,600.6458 c 40,0 110.00001,-4.99919 120.00001,5.0008 10.00001,10 -5.00001,35 -50,30 -44.99999,-5 -55.00001,-50.0008 -40.00001,-50.0008 14.99999,0 19.99999,35 34.99999,35 15,0 5.00001,-40 20.00001,-40 15,0 5,40 20,40 15,0 10.00001,-49.9992 -15,-50 -25.00001,-8.1e-4 -24.99999,49.99999 -40,50 -15.00001,0 -25,-35 -10,-35 14.99999,10e-6 20,35 35,35 15,0 5.00001,-40 20.00001,-40 14.99999,0 -5.00001,45 50,45.0008" />
    <path
       transform="translate(140.36243,71.283906)"
       style="fill:none;fill-rule:evenodd;stroke:#000000;stroke-width:3;stroke-linecap:butt;stroke-linejoin:miter;stroke-miterlimit:4;stroke-dasharray:none;stroke-opacity:1"
       d="m 791.40333,606.92965 c 6.63832,0 14.10291,-0.2754 21.98239,-0.68908 m 5.99474,-0.33485 c 7.92962,-0.46661 16.16093,-1.03376 24.30242,-1.57097 m 5.99945,-0.38992 c 1.31201,-0.0836 2.6191,-0.16559 3.91958,-0.24536 m 6.00334,-0.35355 c 8.52667,-0.47841 16.64203,-0.81971 23.84462,-0.85677 m 6.05306,0.0493 c 1.72834,0.0403 3.38468,0.10458 4.96011,0.19584 m 6.59239,0.61348 c 4.97763,0.68481 8.58992,1.82472 10.34791,3.5827 10.00001,10 -5.00001,35 -50,30 -13.76567,-1.52952 -22.85249,-7.27009 -28.40547,-14.50222 m -3.29539,-5.21472 c -1.4564,-2.84393 -2.47547,-5.80338 -3.11324,-8.74532 m -0.79102,-5.96185 c -0.55607,-11.10828 4.07769,-20.57669 10.60511,-20.57669 14.99999,0 4.99999,40 19.99999,40 0.92915,0 1.76237,-0.15348 2.51156,-0.44142 m 4.19125,-4.30591 c 1.42119,-2.92203 2.17421,-6.91314 2.76642,-11.16154 m 0.77694,-6.04383 c 1.19335,-9.30846 2.74271,-18.0473 9.75384,-18.0473 15,0 5,40 20,40 2.56824,0 4.84334,-1.46573 6.57432,-3.89527 m 2.68383,-6.08086 c 0.34999,-1.38898 0.58773,-2.87631 0.69756,-4.43067 m -0.25133,-6.31102 c -2.03453,-13.75008 -14.05052,-29.28138 -44.70437,-29.28138 -55,0 -50.00002,49.9992 -35.00002,49.9992 5.99238,0 7.99492,-6.38375 9.19543,-14.05074 m 0.8194,-6.06783 c 0.7079,-5.66266 1.42372,-11.31265 3.28237,-15.1341 m 4.19126,-4.30591 c 0.74918,-0.28794 1.5824,-0.44142 2.51155,-0.44142 14.99999,10e-6 5,40 20,40 6.57183,0 8.34489,-7.67804 9.52408,-16.30629 m 0.77069,-6.02358 c 0.63415,-4.89426 1.38623,-9.59983 3.00243,-12.9228 m 4.19125,-4.30591 c 0.74919,-0.28794 1.58241,-0.44142 2.51156,-0.44142 11.26248,0 5.61248,25.36919 23.26175,38.01153 m 5.19568,3.00107 c 5.38415,2.47355 12.36946,3.9882 21.54257,3.9882"
       id="path831-6-5-6-6"
       inkscape:connector-curvature="0"
       sodipodi:nodetypes="czzzzzzzzzzzc"
       inkscape:path-effect="#path-effect840-3-3-3-0"
       inkscape:original-d="m 791.40333,606.92965 c 40,0 110.00001,-9.99919 120.00001,8e-4 10.00001,10 -5.00001,35 -50,30 -44.99999,-5 -40.00001,-55.0008 -25.00001,-55.0008 14.99999,0 4.99999,40 19.99999,40 15,0 5.00001,-40 20.00001,-40 15,0 5,40 20,40 15,0 20.00001,-49.9992 -34.99999,-49.9992 -55,0 -50.00002,49.9992 -35.00002,49.9992 15.00001,10e-6 5.00001,-40 20.00001,-40 14.99999,10e-6 5,40 20,40 15,0 5.00001,-40 20.00001,-40 14.99999,0 -10e-6,45.0008 50,45.0008" />
    <path
       transform="translate(140.36243,246.28389)"
       style="fill:none;fill-rule:evenodd;stroke:#000000;stroke-width:3;stroke-linecap:butt;stroke-linejoin:miter;stroke-miterlimit:4;stroke-dasharray:none;stroke-opacity:1"
       d="m 791.04091,610.6458 c 10.89158,0 25.49024,-0.37071 41.17155,-0.70836 m 6.0522,-0.12684 c 0.30022,-0.006 0.6007,-0.0122 0.90143,-0.0182 m 7.27145,-0.13714 c 5.30124,-0.093 10.63517,-0.16927 15.90798,-0.21453 m 7.27429,-0.0415 c 10.92877,-0.0282 21.39507,0.11056 30.52614,0.55056 m 6.45219,0.3792 c 2.34758,0.16593 4.5749,0.3578 6.66309,0.57852 m 6.79176,0.90859 c 5.46855,0.92462 9.32902,2.17073 10.98792,3.82963 10.00001,10 0,25 -35,25 -5.53476,0 -10.3193,-1.12531 -14.51182,-3.02004 m -5.32175,-2.99769 c -1.83707,-1.25218 -3.54515,-2.65523 -5.14372,-4.16526 m -4.35522,-4.64971 c -1.46571,-1.74888 -2.83278,-3.56795 -4.12337,-5.40737 m -3.6635,-5.52796 c -0.5087,-0.80278 -1.00694,-1.5999 -1.4966,-2.38714 m -3.73359,-5.95189 c -4.06718,-6.27608 -7.84582,-10.89294 -12.65043,-10.89294 -11.5404,0 -5.32336,26.63618 4.98926,38.9229 m 4.38065,4.10014 c 1.83625,1.2573 3.73316,1.97696 5.63008,1.97696 1.73527,0 3.3367,-0.60223 4.83527,-1.66735 m 4.14677,-4.34537 c 4.08911,-5.67222 7.48959,-14.4433 11.10866,-22.23068 m 2.98102,-5.98281 c 3.39299,-6.21528 7.15414,-10.77379 11.92829,-10.77379 15,0 10,30 25,30 1.65181,0 3.18235,-0.48506 4.55156,-1.34835 m 4.10097,-4.44955 c 0.61436,-1.0568 1.13844,-2.22289 1.56082,-3.46784 m 1.16982,-5.94291 c 0.77386,-11.30969 -6.06382,-24.79135 -26.38317,-24.79135 -35,0 -44.99999,54.99999 -60,55 -8.61003,0 -17.22006,-14.82651 -20.15645,-27.45865 m -0.96329,-5.98032 c -0.52921,-6.61378 1.14618,-11.56103 6.11974,-11.56103 2.25499,0 4.50998,1.017 6.76498,2.74522 m 4.93638,4.80052 c 5.08176,5.86682 10.16351,14.21246 15.24527,21.53738 m 3.80658,5.24147 c 4.74893,6.16494 9.49786,10.67541 14.24679,10.67541 8.7402,0 14.08524,-15.27822 19.9917,-28.03003 m 2.92838,-5.91687 c 0.90286,-1.67219 1.83127,-3.2294 2.79749,-4.61643 m 4.10923,-4.52002 c 1.59527,-1.21998 3.30683,-1.91665 5.1732,-1.91665 10.92126,0 5.93931,21.20387 23.65044,32.73549 m 5.38579,2.86642 c 6.26437,2.69837 14.62705,4.39793 25.96377,4.39809"
       id="path831-6-5-6-61"
       inkscape:connector-curvature="0"
       sodipodi:nodetypes="czzzzzzzzzzzc"
       inkscape:path-effect="#path-effect840-3-3-3-2"
       inkscape:original-d="m 791.04091,610.6458 c 40,0 130,-4.99999 140,5 10.00001,10 0,25 -35,25 -35,0 -40,-45 -55,-45 -15,0 -1e-5,45 14.99999,45 15,0 20.00001,-45 35.00001,-45 15,0 10,30 25,30 15,0 20,-40 -15,-40 -35,0 -44.99999,54.99999 -60,55 -15.00001,0 -30,-45 -15,-45 14.99999,10e-6 30,45 45,45 15,0 20,-45 35,-45 14.99999,0 -1e-5,39.9992 55,40" />
    <path
       transform="translate(110.36243,316.28382)"
       style="fill:none;fill-rule:evenodd;stroke:#000000;stroke-width:3;stroke-linecap:butt;stroke-linejoin:miter;stroke-miterlimit:4;stroke-dasharray:none;stroke-opacity:1"
       d="m 821.04091,615.64587 c 9.47486,-0.94749 20.027,-1.71543 30.97595,-2.2698 m 6.00561,-0.28092 c 0.33598,-0.0144 0.67221,-0.0287 1.00867,-0.0427 m 7.63705,-0.28206 c 4.939,-0.159 9.89696,-0.27329 14.81498,-0.33991 m 7.15343,-0.0631 c 15.57609,-0.0624 30.44883,0.37844 42.68599,1.41909 m 6.31261,0.61767 c 1.86056,0.20852 3.63929,0.43398 5.32739,0.67682 m 6.86286,1.19205 c 5.53861,1.16686 9.45803,2.61543 11.21546,4.37286 10.00001,10 0,25 -35,25 -6.64438,0 -12.56799,-1.62176 -17.90764,-4.24953 m -5.29615,-3.03565 c -2.54769,-1.66881 -4.95342,-3.54773 -7.23578,-5.55304 m -4.41007,-4.1587 c -2.61234,-2.62554 -5.05716,-5.3576 -7.36896,-8.04088 m -4.17349,-4.91986 c -0.065,-0.0771 -0.12992,-0.15414 -0.19473,-0.23101 m -5.10072,-5.90236 c -4.74774,-5.24125 -9.0301,-8.90897 -13.31246,-8.90897 -11.58656,0 -5.27335,26.84967 5.11319,39.06964 m 4.41661,4.06141 c 1.78636,1.19042 3.62828,1.86895 5.47019,1.86895 2.49751,0 4.99502,-1.24751 7.49253,-3.32711 m 4.23953,-4.25409 c 5.32607,-6.15932 10.65213,-15.03379 15.9782,-22.59449 m 4.43175,-5.90198 c 4.286,-5.24837 8.572,-8.92233 12.858,-8.92233 15,0 20,30 5,30 -4.04314,0 -6.26995,-2.1796 -7.7575,-5.3638 m -2.44878,-7.93347 c -0.12394,-0.50785 -0.24835,-1.01834 -0.37542,-1.52909 m -1.8244,-6.07623 c -0.16587,-0.42623 -0.34102,-0.8449 -0.52704,-1.25428 m -3.50544,-4.97661 c -2.01451,-1.77155 -4.74048,-2.86652 -8.56142,-2.86652 -20,0 -24.99999,44.99999 -40,45 -8.87084,0 -17.74167,-15.73834 -20.40752,-28.60005 m -0.78137,-5.96114 c -0.25677,-6.0434 1.50092,-10.43881 6.18889,-10.43881 2.18928,0 4.48508,0.9586 6.85629,2.59596 m 4.98306,4.24426 c 5.21537,5.16809 10.67372,12.52287 16.07882,19.39845 m 4.12592,5.12974 c 6.3276,7.62457 12.47548,13.63159 17.95591,13.63159 9.10554,0 16.36862,-16.58217 24.02611,-29.61456 m 3.64953,-5.80517 c 1.0352,-1.50836 2.08343,-2.89955 3.14983,-4.12716 m 4.49937,-4.0057 c 1.50892,-0.9277 3.06317,-1.44741 4.67516,-1.44741 10.92126,0 5.93931,21.20387 23.65044,32.73549 m 5.38579,2.86642 c 6.26437,2.69837 14.62705,4.39793 25.96377,4.39809"
       id="path831-6-5-6-61-7"
       inkscape:connector-curvature="0"
       sodipodi:nodetypes="czzzzzzzzzzzc"
       inkscape:path-effect="#path-effect840-3-3-3-2-8"
       inkscape:original-d="m 821.04091,615.64587 c 50,-5 130,-4.99999 140,5 10.00001,10 0,25 -35,25 -35,0 -50,-45 -65,-45 -15,0 -1e-5,45 14.99999,45 15,0 30.00001,-45 45.00001,-45 15,0 20,30 5,30 -15,0 -5,-30 -25,-30 -20,0 -24.99999,44.99999 -40,45 -15.00001,0 -30,-45 -15,-45 14.99999,1e-5 35,45 50,45 15,0 25,-45 40,-45 14.99999,0 -1e-5,39.9992 55,40" />
  </g>
</svg>
